<svg xmlns="http://www.w3.org/2000/svg" width="190" height="91" viewBox="0 0 190 91">
  <g id="Grupo_1009230" data-name="Grupo 1009230" transform="translate(-1230 -1845)">
    <path id="Trazado_718148" data-name="Trazado 718148" d="M10,0H180a10,10,0,0,1,10,10V81a10,10,0,0,1-10,10H10A10,10,0,0,1,0,81V10A10,10,0,0,1,10,0Z" transform="translate(1230 1845)" fill="#ffa031" opacity="0.15"/>
    <path id="Trazado_718149" data-name="Trazado 718149" d="M14.137,22.355l-1.242,5.707H9.6l2.285-10.395a9.332,9.332,0,0,1,2.4-4.922,6.285,6.285,0,0,1,4.477-1.559,4.266,4.266,0,0,1,3.2,1.131,4.253,4.253,0,0,1,1.1,3.1,8.907,8.907,0,0,1-1.77,5.314,5.529,5.529,0,0,1-4.711,2.455A3.4,3.4,0,0,1,14.137,22.355Zm1.148-5.238-.574,2.543a3.83,3.83,0,0,0-.082.8,1.3,1.3,0,0,0,.539,1.131,2.08,2.08,0,0,0,1.23.381A2.159,2.159,0,0,0,18.25,20.92a9.477,9.477,0,0,0,1.2-3.141,15.437,15.437,0,0,0,.48-3.088q0-2.273-1.348-2.273a2.3,2.3,0,0,0-1.939,1.02A10.784,10.784,0,0,0,15.285,17.117Zm16.148-2.426.5-2.3h10.43l-.5,2.3Zm-1.16,5.191.5-2.3h10.43l-.5,2.3Z" transform="translate(1280 1876)" fill="#12263f"/>
    <path id="Trazado_718150" data-name="Trazado 718150" d="M24.719,13.613a7.343,7.343,0,0,1,1.992-1.846,4.365,4.365,0,0,1,2.238-.58,2.542,2.542,0,0,1,1.881.674,2.51,2.51,0,0,1,.674,1.857,8.561,8.561,0,0,1-.234,1.816l-.961,4.336q-.117.539-.158.832a3.712,3.712,0,0,0-.041.5.9.9,0,0,0,.264.738,1.81,1.81,0,0,0,.908.281L31.141,23H26.277l1.617-7.043q.129-.551.193-.9t.094-.609a4.183,4.183,0,0,0,.029-.469,1.276,1.276,0,0,0-.217-.8.777.777,0,0,0-.65-.275,1.535,1.535,0,0,0-.809.3,5.371,5.371,0,0,0-.99.885,5.447,5.447,0,0,0-.861,1.248,6.741,6.741,0,0,0-.527,1.658L22.867,23H19.492l1.688-7.348q.117-.469.164-.75t.064-.48q.018-.2.018-.363a1.467,1.467,0,0,0-.211-.885.788.788,0,0,0-.668-.275,2.144,2.144,0,0,0-1.318.715,6.339,6.339,0,0,0-1.2,1.459,6.368,6.368,0,0,0-.662,1.916L16.082,23H12.719l1.84-8.273q.059-.281.158-.8a4.8,4.8,0,0,0,.1-.873.748.748,0,0,0-.275-.674,1.877,1.877,0,0,0-.861-.229l.176-.773,3.223-.129h1.23l-.668,2.531.141.047a11.45,11.45,0,0,1,1.506-1.576,4.637,4.637,0,0,1,1.365-.814,4.415,4.415,0,0,1,1.512-.246,2.56,2.56,0,0,1,1.846.645A2.46,2.46,0,0,1,24.719,13.613Zm3.668,25.762.41.773q-1.477,3.914-6.82,11.027H19.7l-1.09-8.93a6.445,6.445,0,0,0-.264-1.324,1.272,1.272,0,0,0-.369-.562,1.228,1.228,0,0,0-.668-.211l.176-.773h4.125l.809,8.754A33.327,33.327,0,0,0,25.029,43.9a6.779,6.779,0,0,0,.838-2.83.961.961,0,0,0-.211-.674,1.043,1.043,0,0,0-.738-.252l.164-.773Z" transform="translate(1325.75 1863)" fill="#12263f"/>
    <path id="Trazado_718151" data-name="Trazado 718151" d="M35,0H0" transform="translate(1331.25 1892)" fill="none" stroke="#12263f" stroke-linecap="round" stroke-width="2"/>
  </g>
</svg>
