<svg xmlns="http://www.w3.org/2000/svg" width="190" height="91" viewBox="0 0 190 91">
  <g id="Grupo_1009232" data-name="Grupo 1009232" transform="translate(-758 -2312)">
    <path id="Trazado_718156" data-name="Trazado 718156" d="M10,0H180a10,10,0,0,1,10,10V81a10,10,0,0,1-10,10H10A10,10,0,0,1,0,81V10A10,10,0,0,1,10,0Z" transform="translate(758 2312)" fill="#ffa031" opacity="0.15"/>
    <path id="Trazado_718157" data-name="Trazado 718157" d="M10.245,16.266a2.682,2.682,0,0,0,.288,1.128,1.328,1.328,0,0,0,.591.586,1.952,1.952,0,0,0,.82.161,1.726,1.726,0,0,0,1.191-.376,1.349,1.349,0,0,0,.42-1.06,1.586,1.586,0,0,0-.137-.693,1.749,1.749,0,0,0-.449-.552,8.351,8.351,0,0,0-1.016-.7,4.61,4.61,0,0,1-1.421-1.216,2.391,2.391,0,0,1-.444-1.411,2.553,2.553,0,0,1,1.074-2.207,5.087,5.087,0,0,1,3.008-.771,12.52,12.52,0,0,1,3.193.449l-.508,2.334h-1.24a2.355,2.355,0,0,0-.464-1.338,1.357,1.357,0,0,0-1.079-.43,1.564,1.564,0,0,0-1.05.337,1.137,1.137,0,0,0-.4.913,1.289,1.289,0,0,0,.151.635,1.972,1.972,0,0,0,.483.547,8.384,8.384,0,0,0,.986.664,4.645,4.645,0,0,1,1.484,1.27,2.642,2.642,0,0,1,.449,1.533,2.734,2.734,0,0,1-.532,1.7A3.14,3.14,0,0,1,14.2,18.814a6.033,6.033,0,0,1-2.1.342,13.92,13.92,0,0,1-1.943-.127,13.83,13.83,0,0,1-1.689-.342L9,16.266Zm8.584,3.545a2.128,2.128,0,0,0-.366.605,1.794,1.794,0,0,0-.1.615,1.132,1.132,0,0,0,.464.991,2.419,2.419,0,0,0,1.392.327,3.212,3.212,0,0,0,1.23-.225,2.767,2.767,0,0,0,1.006-.737,5.072,5.072,0,0,0,.854-1.523,17.881,17.881,0,0,0,.757-2.72l-.127-.088a8.445,8.445,0,0,1-1.177,1.25,3.692,3.692,0,0,1-1.1.649,3.738,3.738,0,0,1-1.27.2,2.232,2.232,0,0,1-1.2-.322,2.185,2.185,0,0,1-.83-1.021,4.417,4.417,0,0,1-.308-1.772,9.157,9.157,0,0,1,.391-2.642,6.909,6.909,0,0,1,1.108-2.241,5.058,5.058,0,0,1,1.787-1.47,5.419,5.419,0,0,1,2.446-.532,5.049,5.049,0,0,1,1.274.151,3.99,3.99,0,0,1,1.187.552l.879-.7,1.094.156-.84,3.818q-.205.938-.371,1.8L26.4,17.936a17.725,17.725,0,0,1-.518,2,6.309,6.309,0,0,1-.518,1.162,3.882,3.882,0,0,1-.6.8,3.807,3.807,0,0,1-.713.6,4.187,4.187,0,0,1-.889.439,6.512,6.512,0,0,1-1.24.313,10.655,10.655,0,0,1-1.67.117,9.23,9.23,0,0,1-2.3-.244,2.8,2.8,0,0,1-1.387-.737,1.741,1.741,0,0,1-.454-1.226,1.8,1.8,0,0,1,.43-1.143,4.505,4.505,0,0,1,1.27-1.025Zm5.947-6.895a6.646,6.646,0,0,0,.156-1.406,1.7,1.7,0,0,0-.244-1.006.928.928,0,0,0-.8-.332,2.015,2.015,0,0,0-1.582.879,6.936,6.936,0,0,0-1.147,2.441,10.394,10.394,0,0,0-.444,2.813,2.124,2.124,0,0,0,.21,1.064.7.7,0,0,0,.649.352,1.6,1.6,0,0,0,.85-.269,4.034,4.034,0,0,0,.9-.83,5.012,5.012,0,0,0,.8-1.353,11.9,11.9,0,0,0,.576-1.992Zm10.156-.84.42-1.914h8.691l-.42,1.914ZM33.966,16.4l.42-1.914h8.691l-.42,1.914Z" transform="translate(772 2347)" fill="#12263f"/>
    <path id="Trazado_718158" data-name="Trazado 718158" d="M54.127,18.463l-1.035,4.756H50.348l1.9-8.662a7.777,7.777,0,0,1,2-4.1,5.237,5.237,0,0,1,3.73-1.3,3.555,3.555,0,0,1,2.666.942,3.544,3.544,0,0,1,.918,2.583,7.422,7.422,0,0,1-1.475,4.429,4.608,4.608,0,0,1-3.926,2.046A2.829,2.829,0,0,1,54.127,18.463Zm.957-4.365-.479,2.119a3.192,3.192,0,0,0-.068.664,1.079,1.079,0,0,0,.449.942,1.733,1.733,0,0,0,1.025.317,1.8,1.8,0,0,0,1.543-.874,7.9,7.9,0,0,0,1-2.617,12.864,12.864,0,0,0,.4-2.573q0-1.895-1.123-1.895a1.914,1.914,0,0,0-1.616.85A8.987,8.987,0,0,0,55.084,14.1ZM10.762,45.953a6.425,6.425,0,0,0-.186,1.2.756.756,0,0,0,.215.581,1.357,1.357,0,0,0,.7.283,9.811,9.811,0,0,0,1.44.093L12.744,49H4.717l.186-.889a12.538,12.538,0,0,0,1.528-.137,1.747,1.747,0,0,0,.723-.273,1.364,1.364,0,0,0,.405-.5,5.5,5.5,0,0,0,.332-1.1L9.3,39.723a3.861,3.861,0,0,0,.107-.791.594.594,0,0,0-.117-.41.417.417,0,0,0-.322-.127,1.451,1.451,0,0,0-.43.073,3.476,3.476,0,0,0-.566.249q-.332.176-1.318.723l-.5-1.006,5.615-2.92H13.1q-.273,1.035-.605,2.6Zm8.838,3.2a3.124,3.124,0,0,1-2.534-1.04,4.636,4.636,0,0,1-.874-3.052,14.017,14.017,0,0,1,.361-2.939,12.707,12.707,0,0,1,.977-2.91,7.91,7.91,0,0,1,1.421-2.07,5.445,5.445,0,0,1,1.763-1.226,5.107,5.107,0,0,1,2.012-.405,3.627,3.627,0,0,1,2.012.5,2.794,2.794,0,0,1,1.108,1.406,6.329,6.329,0,0,1,.337,2.2,13.472,13.472,0,0,1-.244,2.363,15.836,15.836,0,0,1-.605,2.383,10.029,10.029,0,0,1-.9,1.924,6.606,6.606,0,0,1-1.274,1.533A5.249,5.249,0,0,1,19.6,49.156Zm-.83-2.549a1.958,1.958,0,0,0,.244,1.113.916.916,0,0,0,.8.342,1.206,1.206,0,0,0,.732-.273,4.23,4.23,0,0,0,1.133-1.582,21.412,21.412,0,0,0,1.279-3.955,18,18,0,0,0,.6-3.936,4.086,4.086,0,0,0-.088-.937,1.093,1.093,0,0,0-.312-.566.893.893,0,0,0-.625-.205,1.32,1.32,0,0,0-.9.41,6.514,6.514,0,0,0-1.416,2.5,26.849,26.849,0,0,0-1.094,4.131A16.785,16.785,0,0,0,18.769,46.607Zm12.285,2.549a3.124,3.124,0,0,1-2.534-1.04,4.636,4.636,0,0,1-.874-3.052,14.017,14.017,0,0,1,.361-2.939,12.707,12.707,0,0,1,.977-2.91,7.91,7.91,0,0,1,1.421-2.07,5.445,5.445,0,0,1,1.763-1.226,5.107,5.107,0,0,1,2.012-.405,3.627,3.627,0,0,1,2.012.5A2.794,2.794,0,0,1,37.3,37.423a6.329,6.329,0,0,1,.337,2.2,13.472,13.472,0,0,1-.244,2.363,15.836,15.836,0,0,1-.605,2.383,10.029,10.029,0,0,1-.9,1.924,6.606,6.606,0,0,1-1.274,1.533,5.249,5.249,0,0,1-3.555,1.328Zm-.83-2.549a1.958,1.958,0,0,0,.244,1.113.916.916,0,0,0,.8.342A1.206,1.206,0,0,0,32,47.789a4.23,4.23,0,0,0,1.133-1.582,21.412,21.412,0,0,0,1.279-3.955,18,18,0,0,0,.6-3.936,4.086,4.086,0,0,0-.088-.937,1.093,1.093,0,0,0-.312-.566.893.893,0,0,0-.625-.205,1.32,1.32,0,0,0-.9.41,6.514,6.514,0,0,0-1.416,2.5,26.849,26.849,0,0,0-1.094,4.131A16.785,16.785,0,0,0,30.225,46.607ZM42.51,49.156a3.124,3.124,0,0,1-2.534-1.04,4.636,4.636,0,0,1-.874-3.052,14.017,14.017,0,0,1,.361-2.939,12.707,12.707,0,0,1,.977-2.91,7.91,7.91,0,0,1,1.421-2.07,5.445,5.445,0,0,1,1.763-1.226,5.107,5.107,0,0,1,2.012-.405,3.627,3.627,0,0,1,2.012.5,2.794,2.794,0,0,1,1.108,1.406,6.329,6.329,0,0,1,.337,2.2,13.472,13.472,0,0,1-.244,2.363,15.836,15.836,0,0,1-.605,2.383,10.029,10.029,0,0,1-.9,1.924,6.606,6.606,0,0,1-1.274,1.533,5.249,5.249,0,0,1-3.555,1.328Zm-.83-2.549a1.958,1.958,0,0,0,.244,1.113.916.916,0,0,0,.8.342,1.206,1.206,0,0,0,.732-.273,4.23,4.23,0,0,0,1.133-1.582,21.412,21.412,0,0,0,1.279-3.955,18,18,0,0,0,.6-3.936,4.086,4.086,0,0,0-.088-.937,1.093,1.093,0,0,0-.312-.566.893.893,0,0,0-.625-.205,1.32,1.32,0,0,0-.9.41,6.514,6.514,0,0,0-1.416,2.5,26.849,26.849,0,0,0-1.094,4.131A16.785,16.785,0,0,0,41.68,46.607Zm16.758-3.369h.2a1.825,1.825,0,0,0,.581-.093,2.988,2.988,0,0,0,.659-.342q.381-.249,1.016-.757a3.84,3.84,0,0,0,.6-.576,1.8,1.8,0,0,0,.283-.479,1.341,1.341,0,0,0,.083-.469.525.525,0,0,0-.557-.566l.156-.645h3.477l.244.635a12.367,12.367,0,0,1-1.631,1.445l-2.2,1.65,1.27,3.584a8,8,0,0,0,.391.967,1.468,1.468,0,0,0,.41.508,1.545,1.545,0,0,0,.713.254L63.984,49H60.508L59.2,44.781a1.688,1.688,0,0,0-.181-.42.426.426,0,0,0-.205-.161.991.991,0,0,0-.327-.044h-.244L57.178,49h-2.8l2.471-11.035a7.21,7.21,0,0,0,.215-1.4,1.029,1.029,0,0,0-.044-.337.479.479,0,0,0-.132-.2.613.613,0,0,0-.234-.122,4.589,4.589,0,0,0-.576-.1l.156-.635,2.92-.156h1.1Zm7.49,6.572a2.128,2.128,0,0,0-.366.605,1.794,1.794,0,0,0-.1.615,1.132,1.132,0,0,0,.464.991,2.419,2.419,0,0,0,1.392.327,3.213,3.213,0,0,0,1.23-.225,2.767,2.767,0,0,0,1.006-.737,5.072,5.072,0,0,0,.854-1.523,17.881,17.881,0,0,0,.757-2.72l-.127-.088a8.446,8.446,0,0,1-1.177,1.25,3.692,3.692,0,0,1-1.1.649,3.738,3.738,0,0,1-1.27.2,2.232,2.232,0,0,1-1.2-.322,2.185,2.185,0,0,1-.83-1.021,4.417,4.417,0,0,1-.308-1.772,9.157,9.157,0,0,1,.391-2.642,6.909,6.909,0,0,1,1.108-2.241,5.058,5.058,0,0,1,1.787-1.47,5.419,5.419,0,0,1,2.446-.532,5.049,5.049,0,0,1,1.274.151,3.99,3.99,0,0,1,1.187.552l.879-.7,1.094.156-.84,3.818q-.205.938-.371,1.8L73.5,47.936a17.726,17.726,0,0,1-.518,2,6.308,6.308,0,0,1-.518,1.162,3.882,3.882,0,0,1-.6.8,3.807,3.807,0,0,1-.713.6,4.187,4.187,0,0,1-.889.439,6.512,6.512,0,0,1-1.24.313,10.655,10.655,0,0,1-1.67.117,9.23,9.23,0,0,1-2.3-.244,2.8,2.8,0,0,1-1.387-.737,1.741,1.741,0,0,1-.454-1.226,1.8,1.8,0,0,1,.43-1.143,4.505,4.505,0,0,1,1.27-1.025Zm5.947-6.895a6.646,6.646,0,0,0,.156-1.406,1.7,1.7,0,0,0-.244-1.006.928.928,0,0,0-.8-.332,2.015,2.015,0,0,0-1.582.879,6.936,6.936,0,0,0-1.147,2.441,10.394,10.394,0,0,0-.444,2.813,2.124,2.124,0,0,0,.21,1.064.7.7,0,0,0,.649.352,1.6,1.6,0,0,0,.85-.269,4.034,4.034,0,0,0,.9-.83,5.012,5.012,0,0,0,.8-1.353,11.9,11.9,0,0,0,.576-1.992Zm14.961-7.891L76.328,53.2H74.355L84.873,35.025Zm9.121,6.152a6.119,6.119,0,0,1,1.66-1.538,3.638,3.638,0,0,1,1.865-.483,2.119,2.119,0,0,1,1.567.562,2.092,2.092,0,0,1,.562,1.548,7.134,7.134,0,0,1-.2,1.514l-.8,3.613q-.1.449-.132.693a3.093,3.093,0,0,0-.034.42.747.747,0,0,0,.22.615,1.508,1.508,0,0,0,.757.234l-.117.645H97.256L98.6,43.131q.107-.459.161-.752t.078-.508a3.487,3.487,0,0,0,.024-.391,1.064,1.064,0,0,0-.181-.669.648.648,0,0,0-.542-.229,1.279,1.279,0,0,0-.674.249,4.476,4.476,0,0,0-.825.737,4.539,4.539,0,0,0-.718,1.04,5.618,5.618,0,0,0-.439,1.382L94.414,49H91.6l1.406-6.123q.1-.391.137-.625t.054-.4q.015-.166.015-.3a1.222,1.222,0,0,0-.176-.737.657.657,0,0,0-.557-.229,1.787,1.787,0,0,0-1.1.6,4.635,4.635,0,0,0-1.548,2.813L88.76,49h-2.8l1.533-6.895q.049-.234.132-.669a4,4,0,0,0,.083-.728.623.623,0,0,0-.229-.562,1.564,1.564,0,0,0-.718-.19l.146-.645,2.686-.107h1.025l-.557,2.109.117.039a9.542,9.542,0,0,1,1.255-1.313,3.864,3.864,0,0,1,1.138-.679,3.679,3.679,0,0,1,1.26-.205,2.133,2.133,0,0,1,1.538.537A2.05,2.05,0,0,1,95.957,41.178ZM104.1,36.03l.325-1.361a10.139,10.139,0,0,1,1.4-.4,6.37,6.37,0,0,1,1.279-.131,2.94,2.94,0,0,1,1,.157,1.446,1.446,0,0,1,.684.49,1.34,1.34,0,0,1,.251.829,1.869,1.869,0,0,1-.162.795,2.13,2.13,0,0,1-.447.629,3.073,3.073,0,0,1-.672.493,5.615,5.615,0,0,1-.837.373l-.011.074a1.943,1.943,0,0,1,1.025.6,1.516,1.516,0,0,1,.376,1.022,2.427,2.427,0,0,1-.2.977,2.322,2.322,0,0,1-.615.82,2.548,2.548,0,0,1-1,.533,5.277,5.277,0,0,1-1.424.165,5.931,5.931,0,0,1-1.193-.128,5.131,5.131,0,0,1-1.045-.316l.3-1.384h.911q.057,1.191,1.042,1.191a1.268,1.268,0,0,0,.795-.265,1.687,1.687,0,0,0,.53-.718,2.426,2.426,0,0,0,.185-.926,1.1,1.1,0,0,0-.339-.889,1.53,1.53,0,0,0-1.005-.285h-.507l.142-.649a3.245,3.245,0,0,0,1.265-.273,2.088,2.088,0,0,0,.894-.735,1.98,1.98,0,0,0,.325-1.139.834.834,0,0,0-.208-.607.793.793,0,0,0-.6-.214,1.548,1.548,0,0,0-.376.048,1.06,1.06,0,0,0-.382.191,1.679,1.679,0,0,0-.359.39,2.968,2.968,0,0,0-.319.647Z" transform="translate(821.75 2331)" fill="#12263f"/>
    <path id="Trazado_718159" data-name="Trazado 718159" d="M113,0H0" transform="translate(821.5 2358.5)" fill="none" stroke="#12263f" stroke-linecap="round" stroke-width="2"/>
  </g>
</svg>
