<svg xmlns="http://www.w3.org/2000/svg" width="400" height="91" viewBox="0 0 400 91">
  <g id="Grupo_1009237" data-name="Grupo 1009237" transform="translate(-1020 -3716)">
    <path id="Trazado_718170" data-name="Trazado 718170" d="M10,0H390a10,10,0,0,1,10,10V81a10,10,0,0,1-10,10H10A10,10,0,0,1,0,81V10A10,10,0,0,1,10,0Z" transform="translate(1020 3716)" fill="#ffa031" opacity="0.15"/>
    <path id="Trazado_718171" data-name="Trazado 718171" d="M15.314,5.67a15.533,15.533,0,0,1,1.563.059,5.032,5.032,0,0,1,1.333.3,3.129,3.129,0,0,1,1.011.605,2.467,2.467,0,0,1,.625.908,3.227,3.227,0,0,1,.215,1.216,4.558,4.558,0,0,1-.405,1.958A4.332,4.332,0,0,1,18.508,12.2a4.931,4.931,0,0,1-1.89.942,9.612,9.612,0,0,1-2.563.317h-.283a8.453,8.453,0,0,1-1-.049l-.654,2.949q-.068.313-.1.542a4.936,4.936,0,0,0-.029.6.773.773,0,0,0,.229.635,1.26,1.26,0,0,0,.718.215L12.8,19H7.756l.137-.645a1.525,1.525,0,0,0,.63-.322,1.647,1.647,0,0,0,.376-.581,6.775,6.775,0,0,0,.313-1.089l1.777-8.057a5.3,5.3,0,0,0,.127-1.143.821.821,0,0,0-.19-.6,1.065,1.065,0,0,0-.62-.249l.137-.645Zm-1.787,6.66a4.935,4.935,0,0,0,1.621-.225,2.508,2.508,0,0,0,1.06-.7,3.2,3.2,0,0,0,.645-1.157,4.746,4.746,0,0,0,.22-1.47A2.07,2.07,0,0,0,16.608,7.3a1.9,1.9,0,0,0-1.44-.488q-.547,0-.947.02l-1.2,5.5ZM23.768,24.223a3.748,3.748,0,0,0-.108.7.441.441,0,0,0,.125.339.791.791,0,0,0,.407.165,5.723,5.723,0,0,0,.84.054L24.924,26H20.242l.108-.518a7.314,7.314,0,0,0,.891-.08,1.019,1.019,0,0,0,.422-.159.8.8,0,0,0,.236-.293,3.208,3.208,0,0,0,.194-.641l.82-3.72a2.252,2.252,0,0,0,.063-.461.346.346,0,0,0-.068-.239.243.243,0,0,0-.188-.074.846.846,0,0,0-.251.043,2.028,2.028,0,0,0-.33.145q-.194.1-.769.422l-.291-.587,3.275-1.7h.775q-.159.6-.353,1.515ZM17,44.217a62.17,62.17,0,0,0,3.867-6.895h2.432l.264.557Q22,39.646,16.839,46.385a37.2,37.2,0,0,1-.918,4.531h-1.7L13.5,49.744a17.835,17.835,0,0,1,1.182-2.48,33.756,33.756,0,0,0,.254-3.984q0-4.5-1.592-4.5a1.413,1.413,0,0,0-.889.342l-.459-.5a3.828,3.828,0,0,1,2.8-1.465q2.5,0,2.5,3.6A22.063,22.063,0,0,1,17,44.217Z" transform="translate(1062.5 3736)" fill="#12263f"/>
    <path id="Trazado_718172" data-name="Trazado 718172" d="M15.314,5.67a15.533,15.533,0,0,1,1.563.059,5.032,5.032,0,0,1,1.333.3,3.129,3.129,0,0,1,1.011.605,2.467,2.467,0,0,1,.625.908,3.227,3.227,0,0,1,.215,1.216,4.558,4.558,0,0,1-.405,1.958A4.332,4.332,0,0,1,18.508,12.2a4.931,4.931,0,0,1-1.89.942,9.612,9.612,0,0,1-2.563.317h-.283a8.453,8.453,0,0,1-1-.049l-.654,2.949q-.068.313-.1.542a4.936,4.936,0,0,0-.029.6.773.773,0,0,0,.229.635,1.26,1.26,0,0,0,.718.215L12.8,19H7.756l.137-.645a1.525,1.525,0,0,0,.63-.322,1.647,1.647,0,0,0,.376-.581,6.775,6.775,0,0,0,.313-1.089l1.777-8.057a5.3,5.3,0,0,0,.127-1.143.821.821,0,0,0-.19-.6,1.065,1.065,0,0,0-.62-.249l.137-.645Zm-1.787,6.66a4.935,4.935,0,0,0,1.621-.225,2.508,2.508,0,0,0,1.06-.7,3.2,3.2,0,0,0,.645-1.157,4.746,4.746,0,0,0,.22-1.47A2.07,2.07,0,0,0,16.608,7.3a1.9,1.9,0,0,0-1.44-.488q-.547,0-.947.02l-1.2,5.5ZM23.466,24.6a1.9,1.9,0,0,0,.459-.043A.587.587,0,0,0,24.2,24.4a1.511,1.511,0,0,0,.251-.441h.695L24.639,26H19.621l.08-.376a8.24,8.24,0,0,1,.826-1.139A19.6,19.6,0,0,1,22,22.97a17.307,17.307,0,0,0,1.3-1.33,4.6,4.6,0,0,0,.661-.994,2.3,2.3,0,0,0,.225-.991A.951.951,0,0,0,23.967,19a.741.741,0,0,0-.581-.242,1.13,1.13,0,0,0-.8.313,2.515,2.515,0,0,0-.581.963H20.971l.325-1.367a11.05,11.05,0,0,1,1.45-.41,6.217,6.217,0,0,1,1.182-.114,2.984,2.984,0,0,1,1.142.191,1.413,1.413,0,0,1,.669.516,1.32,1.32,0,0,1,.211.735,2.061,2.061,0,0,1-.125.721,2.666,2.666,0,0,1-.413.706,7.1,7.1,0,0,1-.78.82q-.493.453-1.376,1.176-.416.342-.9.786t-.766.758l-.011.057ZM17,44.217a62.17,62.17,0,0,0,3.867-6.895h2.432l.264.557Q22,39.646,16.839,46.385a37.2,37.2,0,0,1-.918,4.531h-1.7L13.5,49.744a17.835,17.835,0,0,1,1.182-2.48,33.756,33.756,0,0,0,.254-3.984q0-4.5-1.592-4.5a1.413,1.413,0,0,0-.889.342l-.459-.5a3.828,3.828,0,0,1,2.8-1.465q2.5,0,2.5,3.6A22.063,22.063,0,0,1,17,44.217Z" transform="translate(1228.5 3736)" fill="#12263f"/>
    <path id="Trazado_718173" data-name="Trazado 718173" d="M23.556,9.938q.557-1.045.762-1.5a4.21,4.21,0,0,0,.273-.752,2.515,2.515,0,0,0,.068-.562q0-.7-.83-.811l.146-.645h4.16l-.146.645a1.52,1.52,0,0,0-.518.2,1.942,1.942,0,0,0-.425.371,3.824,3.824,0,0,0-.391.547q-.19.317-.425.737l-6.064,10.9H17.716L17.3,8.629a9.3,9.3,0,0,0-.068-.942A3.623,3.623,0,0,0,17.1,7.1a1.6,1.6,0,0,0-.19-.41.746.746,0,0,0-.288-.254,1.242,1.242,0,0,0-.391-.117l.146-.645h5.049l-.146.645a1.208,1.208,0,0,0-.669.215,1.011,1.011,0,0,0-.342.5,3.208,3.208,0,0,0-.1.938v.42q0,.215.01.459l.088,4.795q.02,1.348.02,2.217H20.4Zm6.57.667a1.9,1.9,0,0,0,.459-.043.587.587,0,0,0,.276-.159,1.511,1.511,0,0,0,.251-.441h.695L31.3,12H26.28l.08-.376a8.24,8.24,0,0,1,.826-1.139,19.6,19.6,0,0,1,1.47-1.515,17.307,17.307,0,0,0,1.3-1.33,4.6,4.6,0,0,0,.661-.994,2.3,2.3,0,0,0,.225-.991A.951.951,0,0,0,30.626,5a.741.741,0,0,0-.581-.242,1.13,1.13,0,0,0-.8.313,2.515,2.515,0,0,0-.581.963H27.63l.325-1.367a11.05,11.05,0,0,1,1.45-.41,6.216,6.216,0,0,1,1.182-.114,2.984,2.984,0,0,1,1.142.191,1.413,1.413,0,0,1,.669.516,1.32,1.32,0,0,1,.211.735,2.061,2.061,0,0,1-.125.721,2.666,2.666,0,0,1-.413.706,7.1,7.1,0,0,1-.78.82Q30.8,8.28,29.914,9q-.416.342-.9.786t-.766.758l-.011.057Zm6.984,13.618a3.748,3.748,0,0,0-.108.7.441.441,0,0,0,.125.339.792.792,0,0,0,.407.165,5.723,5.723,0,0,0,.84.054L38.265,26H33.583l.108-.518a7.313,7.313,0,0,0,.891-.08A1.019,1.019,0,0,0,35,25.242a.8.8,0,0,0,.236-.293,3.208,3.208,0,0,0,.194-.641l.82-3.72a2.252,2.252,0,0,0,.063-.461.346.346,0,0,0-.068-.239.243.243,0,0,0-.188-.074.846.846,0,0,0-.251.043,2.028,2.028,0,0,0-.33.145q-.194.1-.769.422l-.291-.587,3.275-1.7h.775q-.159.6-.353,1.515ZM20.589,44.607a3.579,3.579,0,0,0,.947-.093.953.953,0,0,0,.493-.322,1.874,1.874,0,0,0,.3-.688H23.45L23.226,47H14.28v-.645a11.924,11.924,0,0,1,1.187-2.041q.776-1.1,1.89-2.412,1.055-1.24,1.606-2.041a7.344,7.344,0,0,0,.825-1.514,4.084,4.084,0,0,0,.273-1.475,2.665,2.665,0,0,0-.479-1.685,1.573,1.573,0,0,0-1.309-.61,1.691,1.691,0,0,0-1.294.552,3.551,3.551,0,0,0-.747,1.743H14.476v-2.3q1.191-.479,1.865-.669a10.627,10.627,0,0,1,1.333-.288,9.785,9.785,0,0,1,1.431-.1,6.053,6.053,0,0,1,2.344.386,2.727,2.727,0,0,1,1.313,1.045,2.877,2.877,0,0,1,.405,1.538,3.568,3.568,0,0,1-.288,1.436,6.556,6.556,0,0,1-1,1.514A31.252,31.252,0,0,1,19.5,41.863q-.752.732-1.406,1.479t-.967,1.167v.1Zm10.371,3.2a2.128,2.128,0,0,0-.366.605,1.794,1.794,0,0,0-.1.615,1.132,1.132,0,0,0,.464.991,2.42,2.42,0,0,0,1.392.327,3.213,3.213,0,0,0,1.23-.225,2.767,2.767,0,0,0,1.006-.737,5.072,5.072,0,0,0,.854-1.523,17.881,17.881,0,0,0,.757-2.72l-.127-.088a8.445,8.445,0,0,1-1.177,1.25,3.692,3.692,0,0,1-1.1.649,3.738,3.738,0,0,1-1.27.2,2.232,2.232,0,0,1-1.2-.322,2.185,2.185,0,0,1-.83-1.021,4.417,4.417,0,0,1-.308-1.772,9.157,9.157,0,0,1,.391-2.642,6.909,6.909,0,0,1,1.108-2.241,5.058,5.058,0,0,1,1.787-1.47,5.419,5.419,0,0,1,2.446-.532,5.049,5.049,0,0,1,1.274.151,3.99,3.99,0,0,1,1.187.552l.879-.7,1.094.156-.84,3.818q-.205.938-.371,1.8l-.615,3.008a17.725,17.725,0,0,1-.518,2,6.309,6.309,0,0,1-.518,1.162,3.882,3.882,0,0,1-.6.8,3.807,3.807,0,0,1-.713.6,4.187,4.187,0,0,1-.889.439,6.512,6.512,0,0,1-1.24.313,10.655,10.655,0,0,1-1.67.117,9.23,9.23,0,0,1-2.3-.244,2.8,2.8,0,0,1-1.387-.737,1.741,1.741,0,0,1-.454-1.226,1.8,1.8,0,0,1,.43-1.143,4.505,4.505,0,0,1,1.27-1.025Zm5.947-6.895a6.646,6.646,0,0,0,.156-1.406,1.7,1.7,0,0,0-.244-1.006.928.928,0,0,0-.8-.332,2.015,2.015,0,0,0-1.582.879,6.936,6.936,0,0,0-1.147,2.441,10.394,10.394,0,0,0-.444,2.813,2.124,2.124,0,0,0,.21,1.064.7.7,0,0,0,.649.352,1.6,1.6,0,0,0,.85-.269,4.034,4.034,0,0,0,.9-.83,5.012,5.012,0,0,0,.8-1.353,11.9,11.9,0,0,0,.576-1.992Z" transform="translate(1149.5 3736)" fill="#12263f"/>
    <path id="Trazado_718174" data-name="Trazado 718174" d="M23.556,9.938q.557-1.045.762-1.5a4.21,4.21,0,0,0,.273-.752,2.515,2.515,0,0,0,.068-.562q0-.7-.83-.811l.146-.645h4.16l-.146.645a1.52,1.52,0,0,0-.518.2,1.942,1.942,0,0,0-.425.371,3.824,3.824,0,0,0-.391.547q-.19.317-.425.737l-6.064,10.9H17.716L17.3,8.629a9.3,9.3,0,0,0-.068-.942A3.623,3.623,0,0,0,17.1,7.1a1.6,1.6,0,0,0-.19-.41.746.746,0,0,0-.288-.254,1.242,1.242,0,0,0-.391-.117l.146-.645h5.049l-.146.645a1.208,1.208,0,0,0-.669.215,1.011,1.011,0,0,0-.342.5,3.208,3.208,0,0,0-.1.938v.42q0,.215.01.459l.088,4.795q.02,1.348.02,2.217H20.4Zm6.57.667a1.9,1.9,0,0,0,.459-.043.587.587,0,0,0,.276-.159,1.511,1.511,0,0,0,.251-.441h.695L31.3,12H26.28l.08-.376a8.24,8.24,0,0,1,.826-1.139,19.6,19.6,0,0,1,1.47-1.515,17.307,17.307,0,0,0,1.3-1.33,4.6,4.6,0,0,0,.661-.994,2.3,2.3,0,0,0,.225-.991A.951.951,0,0,0,30.626,5a.741.741,0,0,0-.581-.242,1.13,1.13,0,0,0-.8.313,2.515,2.515,0,0,0-.581.963H27.63l.325-1.367a11.05,11.05,0,0,1,1.45-.41,6.216,6.216,0,0,1,1.182-.114,2.984,2.984,0,0,1,1.142.191,1.413,1.413,0,0,1,.669.516,1.32,1.32,0,0,1,.211.735,2.061,2.061,0,0,1-.125.721,2.666,2.666,0,0,1-.413.706,7.1,7.1,0,0,1-.78.82Q30.8,8.28,29.914,9q-.416.342-.9.786t-.766.758l-.011.057Zm6.682,14a1.9,1.9,0,0,0,.459-.043.587.587,0,0,0,.276-.159,1.511,1.511,0,0,0,.251-.441h.695L37.98,26H32.962l.08-.376a8.241,8.241,0,0,1,.826-1.139,19.6,19.6,0,0,1,1.47-1.515,17.307,17.307,0,0,0,1.3-1.33,4.6,4.6,0,0,0,.661-.994,2.3,2.3,0,0,0,.225-.991A.951.951,0,0,0,37.308,19a.741.741,0,0,0-.581-.242,1.13,1.13,0,0,0-.8.313,2.515,2.515,0,0,0-.581.963H34.312l.325-1.367a11.05,11.05,0,0,1,1.45-.41,6.216,6.216,0,0,1,1.182-.114,2.984,2.984,0,0,1,1.142.191,1.413,1.413,0,0,1,.669.516,1.32,1.32,0,0,1,.211.735,2.061,2.061,0,0,1-.125.721,2.666,2.666,0,0,1-.413.706,7.1,7.1,0,0,1-.78.82Q37.479,22.28,36.6,23q-.416.342-.9.786t-.766.758l-.011.057Zm-16.218,20a3.579,3.579,0,0,0,.947-.093.953.953,0,0,0,.493-.322,1.874,1.874,0,0,0,.3-.688H23.45L23.226,47H14.28v-.645a11.924,11.924,0,0,1,1.187-2.041q.776-1.1,1.89-2.412,1.055-1.24,1.606-2.041a7.344,7.344,0,0,0,.825-1.514,4.084,4.084,0,0,0,.273-1.475,2.665,2.665,0,0,0-.479-1.685,1.573,1.573,0,0,0-1.309-.61,1.691,1.691,0,0,0-1.294.552,3.551,3.551,0,0,0-.747,1.743H14.476v-2.3q1.191-.479,1.865-.669a10.627,10.627,0,0,1,1.333-.288,9.785,9.785,0,0,1,1.431-.1,6.053,6.053,0,0,1,2.344.386,2.727,2.727,0,0,1,1.313,1.045,2.877,2.877,0,0,1,.405,1.538,3.568,3.568,0,0,1-.288,1.436,6.556,6.556,0,0,1-1,1.514A31.252,31.252,0,0,1,19.5,41.863q-.752.732-1.406,1.479t-.967,1.167v.1Zm10.371,3.2a2.128,2.128,0,0,0-.366.605,1.794,1.794,0,0,0-.1.615,1.132,1.132,0,0,0,.464.991,2.42,2.42,0,0,0,1.392.327,3.213,3.213,0,0,0,1.23-.225,2.767,2.767,0,0,0,1.006-.737,5.072,5.072,0,0,0,.854-1.523,17.881,17.881,0,0,0,.757-2.72l-.127-.088a8.445,8.445,0,0,1-1.177,1.25,3.692,3.692,0,0,1-1.1.649,3.738,3.738,0,0,1-1.27.2,2.232,2.232,0,0,1-1.2-.322,2.185,2.185,0,0,1-.83-1.021,4.417,4.417,0,0,1-.308-1.772,9.157,9.157,0,0,1,.391-2.642,6.909,6.909,0,0,1,1.108-2.241,5.058,5.058,0,0,1,1.787-1.47,5.419,5.419,0,0,1,2.446-.532,5.049,5.049,0,0,1,1.274.151,3.99,3.99,0,0,1,1.187.552l.879-.7,1.094.156-.84,3.818q-.205.938-.371,1.8l-.615,3.008a17.725,17.725,0,0,1-.518,2,6.309,6.309,0,0,1-.518,1.162,3.882,3.882,0,0,1-.6.8,3.807,3.807,0,0,1-.713.6,4.187,4.187,0,0,1-.889.439,6.512,6.512,0,0,1-1.24.313,10.655,10.655,0,0,1-1.67.117,9.23,9.23,0,0,1-2.3-.244,2.8,2.8,0,0,1-1.387-.737,1.741,1.741,0,0,1-.454-1.226,1.8,1.8,0,0,1,.43-1.143,4.505,4.505,0,0,1,1.27-1.025Zm5.947-6.895a6.646,6.646,0,0,0,.156-1.406,1.7,1.7,0,0,0-.244-1.006.928.928,0,0,0-.8-.332,2.015,2.015,0,0,0-1.582.879,6.936,6.936,0,0,0-1.147,2.441,10.394,10.394,0,0,0-.444,2.813,2.124,2.124,0,0,0,.21,1.064.7.7,0,0,0,.649.352,1.6,1.6,0,0,0,.85-.269,4.034,4.034,0,0,0,.9-.83,5.012,5.012,0,0,0,.8-1.353,11.9,11.9,0,0,0,.576-1.992Z" transform="translate(1323.5 3736)" fill="#12263f"/>
    <path id="Trazado_718175" data-name="Trazado 718175" d="M6.963,14.283v3.75H4.883v-3.75H1.172V12.291H4.883V8.531h2.08v3.76h3.711v1.992ZM19.9,17.838h2.48a2.409,2.409,0,0,0,.532-.049,1.419,1.419,0,0,0,.361-.132,1.511,1.511,0,0,0,.317-.244,4.252,4.252,0,0,0,.41-.488,4.865,4.865,0,0,0,.43-.688,8.054,8.054,0,0,0,.371-.859h1.279L25.3,19H15.986l.137-.645L24.316,6.832H21.934a2.525,2.525,0,0,0-.625.059,1.323,1.323,0,0,0-.4.181,2.365,2.365,0,0,0-.415.386,4.849,4.849,0,0,0-.522.757,6.791,6.791,0,0,0-.444.884H18.252L19,5.67h9.238l-.146.645Zm11.373,6.385a3.748,3.748,0,0,0-.108.7.441.441,0,0,0,.125.339.791.791,0,0,0,.407.165,5.723,5.723,0,0,0,.84.054L32.432,26H27.75l.108-.518a7.314,7.314,0,0,0,.891-.08,1.019,1.019,0,0,0,.422-.159.8.8,0,0,0,.236-.293,3.208,3.208,0,0,0,.194-.641l.82-3.72a2.252,2.252,0,0,0,.063-.461.346.346,0,0,0-.068-.239.243.243,0,0,0-.188-.074.846.846,0,0,0-.251.043,2.028,2.028,0,0,0-.33.145q-.194.1-.769.422l-.291-.587,3.275-1.7h.775q-.159.6-.353,1.515Zm12.067-9.94v3.75h-2.08v-3.75H37.552V12.291h3.711V8.531h2.08v3.76h3.711v1.992Z" transform="translate(1099.5 3753)" fill="#12263f"/>
    <path id="Trazado_718176" data-name="Trazado 718176" d="M6.963,14.283v3.75H4.883v-3.75H1.172V12.291H4.883V8.531h2.08v3.76h3.711v1.992ZM19.9,17.838h2.48a2.409,2.409,0,0,0,.532-.049,1.419,1.419,0,0,0,.361-.132,1.511,1.511,0,0,0,.317-.244,4.252,4.252,0,0,0,.41-.488,4.865,4.865,0,0,0,.43-.688,8.054,8.054,0,0,0,.371-.859h1.279L25.3,19H15.986l.137-.645L24.316,6.832H21.934a2.525,2.525,0,0,0-.625.059,1.323,1.323,0,0,0-.4.181,2.365,2.365,0,0,0-.415.386,4.849,4.849,0,0,0-.522.757,6.791,6.791,0,0,0-.444.884H18.252L19,5.67h9.238l-.146.645ZM30.974,24.6a1.9,1.9,0,0,0,.459-.043.587.587,0,0,0,.276-.159,1.511,1.511,0,0,0,.251-.441h.695L32.147,26H27.129l.08-.376a8.24,8.24,0,0,1,.826-1.139A19.6,19.6,0,0,1,29.5,22.97a17.307,17.307,0,0,0,1.3-1.33,4.6,4.6,0,0,0,.661-.994,2.3,2.3,0,0,0,.225-.991A.951.951,0,0,0,31.475,19a.741.741,0,0,0-.581-.242,1.13,1.13,0,0,0-.8.313,2.515,2.515,0,0,0-.581.963H28.479l.325-1.367a11.05,11.05,0,0,1,1.45-.41,6.217,6.217,0,0,1,1.182-.114,2.984,2.984,0,0,1,1.142.191,1.413,1.413,0,0,1,.669.516,1.32,1.32,0,0,1,.211.735,2.061,2.061,0,0,1-.125.721,2.666,2.666,0,0,1-.413.706,7.1,7.1,0,0,1-.78.82q-.493.453-1.376,1.176-.416.342-.9.786t-.766.758l-.011.057ZM43.343,14.283v3.75h-2.08v-3.75H37.552V12.291h3.711V8.531h2.08v3.76h3.711v1.992Z" transform="translate(1270.5 3753)" fill="#12263f"/>
    <path id="Trazado_718177" data-name="Trazado 718177" d="M1.338,12.135V10.1h9.17v2.031Zm0,4.336V14.439h9.17v2.031Z" transform="translate(1210.5 3753)" fill="#12263f"/>
    <path id="Trazado_718178" data-name="Trazado 718178" d="M0,0H52" transform="translate(1152 3766.5)" fill="none" stroke="#12263f" stroke-linecap="round" stroke-width="1.5"/>
    <path id="Trazado_718179" data-name="Trazado 718179" d="M0,0H34" transform="translate(1062 3766.5)" fill="none" stroke="#12263f" stroke-linecap="round" stroke-width="1.5"/>
    <path id="Trazado_718180" data-name="Trazado 718180" d="M0,0H34" transform="translate(1229 3766.5)" fill="none" stroke="#12263f" stroke-linecap="round" stroke-width="1.5"/>
    <path id="Trazado_718181" data-name="Trazado 718181" d="M0,0H52" transform="translate(1325 3766.5)" fill="none" stroke="#12263f" stroke-linecap="round" stroke-width="1.5"/>
  </g>
</svg>
