<svg xmlns="http://www.w3.org/2000/svg" width="336.93" height="33.418" viewBox="0 0 336.93 33.418">
  <g id="Grupo_1009240" data-name="Grupo 1009240" transform="translate(4176.43 9575.178)">
    <path id="Trazado_718185" data-name="Trazado 718185" d="M9.6,12.82a3.42,3.42,0,0,0,.051.684.815.815,0,0,0,.18.375.851.851,0,0,0,.371.227,3.035,3.035,0,0,0,.609.125q.367.043.969.059V15H5.039v-.711a10.709,10.709,0,0,0,1.238-.105,1.484,1.484,0,0,0,.566-.2.757.757,0,0,0,.285-.375,2.479,2.479,0,0,0,.09-.789V7.172A.7.7,0,0,0,7.1,6.711a.415.415,0,0,0-.332-.141,1.357,1.357,0,0,0-.551.18,12.259,12.259,0,0,0-1.168.734L4.57,6.656,8.648,4.211h1Q9.6,4.961,9.6,6.289Zm6.047-.18a6.215,6.215,0,0,1,.109.711q.039.391.039.7a2.933,2.933,0,0,1-.211,1.148,3.332,3.332,0,0,1-.676.988A8.92,8.92,0,0,1,13.6,17.273l-.6-.68a2.572,2.572,0,0,0,.527-.625,2.383,2.383,0,0,0,.273-.73,5.094,5.094,0,0,0,.082-1,15.609,15.609,0,0,0-.094-1.6Zm6.766.445a2.863,2.863,0,0,0,.758-.074.762.762,0,0,0,.395-.258A1.5,1.5,0,0,0,23.8,12.2h.9l-.18,2.8H17.367v-.516a9.539,9.539,0,0,1,.949-1.633q.621-.883,1.512-1.93.844-.992,1.285-1.633a5.875,5.875,0,0,0,.66-1.211,3.267,3.267,0,0,0,.219-1.18,2.132,2.132,0,0,0-.383-1.348,1.258,1.258,0,0,0-1.047-.488,1.353,1.353,0,0,0-1.035.441,2.841,2.841,0,0,0-.6,1.395H17.523V5.055q.953-.383,1.492-.535a8.5,8.5,0,0,1,1.066-.23,7.828,7.828,0,0,1,1.145-.078A4.843,4.843,0,0,1,23.1,4.52a2.182,2.182,0,0,1,1.051.836,2.3,2.3,0,0,1,.324,1.23,2.854,2.854,0,0,1-.23,1.148,5.245,5.245,0,0,1-.8,1.211,25,25,0,0,1-1.91,1.945q-.6.586-1.125,1.184t-.773.934v.078Z" transform="translate(-4181 -9568.385)" fill="#12263f"/>
    <path id="Trazado_718186" data-name="Trazado 718186" d="M8.172,12.82a3.42,3.42,0,0,0,.051.684.815.815,0,0,0,.18.375.851.851,0,0,0,.371.227,3.035,3.035,0,0,0,.609.125q.367.043.969.059V15H3.609v-.711a10.709,10.709,0,0,0,1.238-.105,1.484,1.484,0,0,0,.566-.2.757.757,0,0,0,.285-.375,2.479,2.479,0,0,0,.09-.789V7.172a.7.7,0,0,0-.121-.461.415.415,0,0,0-.332-.141,1.357,1.357,0,0,0-.551.18,12.259,12.259,0,0,0-1.168.734l-.477-.828L7.219,4.211h1q-.047.75-.047,2.078Zm7.852,2.3a3.676,3.676,0,0,1-2.043-.535,3.38,3.38,0,0,1-1.27-1.73,9.007,9.007,0,0,1-.445-3.094,8.859,8.859,0,0,1,.453-3.027,3.928,3.928,0,0,1,1.332-1.883,3.475,3.475,0,0,1,2.113-.645A3.3,3.3,0,0,1,19.031,5.52a6.863,6.863,0,0,1,.945,4,7.225,7.225,0,0,1-1,4.184A3.383,3.383,0,0,1,16.023,15.125ZM14.641,9.539a19.321,19.321,0,0,0,.152,2.734,3.7,3.7,0,0,0,.48,1.5,1.012,1.012,0,0,0,.875.48.933.933,0,0,0,.52-.145,1.279,1.279,0,0,0,.4-.453,3.229,3.229,0,0,0,.3-.82,7.855,7.855,0,0,0,.18-1.273q.055-.762.055-1.7A21.931,21.931,0,0,0,17.5,7.508a6.3,6.3,0,0,0-.3-1.469,1.731,1.731,0,0,0-.461-.734.942.942,0,0,0-.617-.219.972.972,0,0,0-.7.273,1.913,1.913,0,0,0-.457.828,6.829,6.829,0,0,0-.246,1.391Q14.641,8.414,14.641,9.539ZM22,6.906V5.055a9.246,9.246,0,0,1,3.586-.844,5.006,5.006,0,0,1,1.7.266,2.47,2.47,0,0,1,1.141.777,1.942,1.942,0,0,1,.4,1.238,2.469,2.469,0,0,1-.266,1.168,2.718,2.718,0,0,1-.746.879,6.586,6.586,0,0,1-1.246.734v.07a3.549,3.549,0,0,1,1.238.453A2.484,2.484,0,0,1,29.031,12a2.983,2.983,0,0,1-.441,1.613,2.936,2.936,0,0,1-1.34,1.109,5.315,5.315,0,0,1-2.18.4,9.363,9.363,0,0,1-1.734-.16,6.443,6.443,0,0,1-1.484-.449V12.555h1.406a2.714,2.714,0,0,0,.641,1.293,1.492,1.492,0,0,0,1.086.4q1.656,0,1.656-2.047a2.132,2.132,0,0,0-.582-1.641,2.529,2.529,0,0,0-1.77-.539h-.617V9.133A3.39,3.39,0,0,0,25.734,8.5a2.061,2.061,0,0,0,.7-1.684A2.069,2.069,0,0,0,26.086,5.5a1.231,1.231,0,0,0-1.023-.441,1.405,1.405,0,0,0-1.285.754,3.141,3.141,0,0,0-.371,1.09Zm11.172,5.734a6.215,6.215,0,0,1,.109.711q.039.391.039.7a2.933,2.933,0,0,1-.211,1.148,3.332,3.332,0,0,1-.676.988,8.92,8.92,0,0,1-1.309,1.082l-.6-.68a2.572,2.572,0,0,0,.527-.625,2.383,2.383,0,0,0,.273-.73,5.094,5.094,0,0,0,.082-1,15.609,15.609,0,0,0-.094-1.6ZM41.484,4.75v.484a3.978,3.978,0,0,0-2.773,1.059A5.24,5.24,0,0,0,37.3,9.211l.078.031A4.6,4.6,0,0,1,38.6,8.625a4.46,4.46,0,0,1,1.352-.2,2.9,2.9,0,0,1,1.543.395,2.476,2.476,0,0,1,.973,1.113,3.99,3.99,0,0,1,.328,1.672,3.73,3.73,0,0,1-.437,1.832,2.978,2.978,0,0,1-1.348,1.238,5.044,5.044,0,0,1-2.23.445,4.221,4.221,0,0,1-2.082-.484,3.184,3.184,0,0,1-1.332-1.43,5.2,5.2,0,0,1-.461-2.3,7.042,7.042,0,0,1,.77-3.3,6.12,6.12,0,0,1,2.184-2.375,6.749,6.749,0,0,1,3.2-1.023ZM39.031,9.508a2.235,2.235,0,0,0-.719.113,2.129,2.129,0,0,0-.594.3,1.768,1.768,0,0,0-.348.313.817.817,0,0,0-.129.348,5.446,5.446,0,0,0-.039.8,4.552,4.552,0,0,0,.4,2.148,1.305,1.305,0,0,0,1.219.719,1.57,1.57,0,0,0,.785-.18,1.4,1.4,0,0,0,.512-.5,2.343,2.343,0,0,0,.281-.781,5.491,5.491,0,0,0,.086-1.012,3.14,3.14,0,0,0-.371-1.691A1.209,1.209,0,0,0,39.031,9.508Zm11.375-.141.016.1a2.891,2.891,0,0,1,1.371,1.016,2.7,2.7,0,0,1,.465,1.586,2.71,2.71,0,0,1-.492,1.613,3.148,3.148,0,0,1-1.418,1.07,5.7,5.7,0,0,1-2.168.379,5.578,5.578,0,0,1-2.059-.348,2.991,2.991,0,0,1-1.363-1.016,2.839,2.839,0,0,1-.238-2.742,2.515,2.515,0,0,1,.648-.84,4.222,4.222,0,0,1,.973-.594l-.016-.1A2.563,2.563,0,0,1,44.4,7a2.273,2.273,0,0,1,.5-1.434,3.237,3.237,0,0,1,1.41-1,5.531,5.531,0,0,1,2.039-.359,4.9,4.9,0,0,1,2.867.7,2.281,2.281,0,0,1,.969,1.969,2.516,2.516,0,0,1-.441,1.477A3.026,3.026,0,0,1,50.406,9.367Zm-3.664-2.43a2.6,2.6,0,0,0,.4,1.566,1.372,1.372,0,0,0,1.176.543,1.323,1.323,0,0,0,1.137-.512,2.415,2.415,0,0,0,.379-1.457,2.387,2.387,0,0,0-.395-1.48A1.349,1.349,0,0,0,48.3,5.086a1.44,1.44,0,0,0-1.168.469A2.1,2.1,0,0,0,46.742,6.938Zm-.094,5.07a2.843,2.843,0,0,0,.41,1.68,1.416,1.416,0,0,0,1.223.563,1.533,1.533,0,0,0,.863-.234,1.478,1.478,0,0,0,.547-.719,3.144,3.144,0,0,0,.191-1.156,3.292,3.292,0,0,0-.2-1.191,1.709,1.709,0,0,0-.562-.777,1.4,1.4,0,0,0-.859-.273,1.505,1.505,0,0,0-.945.277,1.524,1.524,0,0,0-.516.746A3.434,3.434,0,0,0,46.648,12.008Z" transform="translate(-3932 -9568.385)" fill="#12263f"/>
    <path id="Trazado_718187" data-name="Trazado 718187" d="M7.746,10.078h-1.5l.406-2.516L4.66,9.164l-.75-1.3,2.383-.914L3.918,6.039l.75-1.3,1.984,1.6-.4-2.531H7.746l-.4,2.523L9.34,4.742l.742,1.289L7.7,6.945l2.391.938L9.34,9.164l-1.992-1.6Z" transform="translate(-4127 -9565.385)" fill="#12263f"/>
    <path id="Trazado_718188" data-name="Trazado 718188" d="M7.746,10.078h-1.5l.406-2.516L4.66,9.164l-.75-1.3,2.383-.914L3.918,6.039l.75-1.3,1.984,1.6-.4-2.531H7.746l-.4,2.523L9.34,4.742l.742,1.289L7.7,6.945l2.391.938L9.34,9.164l-1.992-1.6Z" transform="translate(-4034 -9565.385)" fill="#12263f"/>
    <path id="Trazado_718189" data-name="Trazado 718189" d="M3.332,9.508V7.883h7.336V9.508Zm0,3.469V11.352h7.336v1.625Z" transform="translate(-3948 -9568.385)" fill="#12263f"/>
    <path id="Trazado_718190" data-name="Trazado 718190" d="M8.5,14.07a2.192,2.192,0,0,0,.594-.062,1.159,1.159,0,0,0,.383-.2,2.854,2.854,0,0,0,.379-.367,3.29,3.29,0,0,0,.41-.609,7.608,7.608,0,0,0,.414-.937h1.063l-.8,3.1H3.8l.109-.516a1.22,1.22,0,0,0,.5-.258,1.318,1.318,0,0,0,.3-.465,5.42,5.42,0,0,0,.25-.871L6.383,6.445a4.238,4.238,0,0,0,.1-.914.657.657,0,0,0-.152-.48.852.852,0,0,0-.5-.2l.109-.516h3.93l-.109.516a1.22,1.22,0,0,0-.5.258,1.318,1.318,0,0,0-.3.465,5.42,5.42,0,0,0-.25.871L7.023,14.07ZM5.859,34.813a2.146,2.146,0,0,0,.23.9,1.063,1.063,0,0,0,.473.469,1.561,1.561,0,0,0,.656.129,1.381,1.381,0,0,0,.953-.3,1.079,1.079,0,0,0,.336-.848,1.269,1.269,0,0,0-.109-.555,1.4,1.4,0,0,0-.359-.441,6.681,6.681,0,0,0-.812-.559,3.688,3.688,0,0,1-1.137-.973,1.912,1.912,0,0,1-.355-1.129,2.043,2.043,0,0,1,.859-1.766A4.07,4.07,0,0,1,9,29.125a9.276,9.276,0,0,1,1.293.1,9.26,9.26,0,0,1,1.262.262l-.406,1.867h-.992a1.884,1.884,0,0,0-.371-1.07,1.086,1.086,0,0,0-.863-.344,1.251,1.251,0,0,0-.84.27.91.91,0,0,0-.316.73,1.031,1.031,0,0,0,.121.508,1.577,1.577,0,0,0,.387.438,6.707,6.707,0,0,0,.789.531A3.716,3.716,0,0,1,10.25,33.43a2.114,2.114,0,0,1,.359,1.227,2.187,2.187,0,0,1-.426,1.359,2.512,2.512,0,0,1-1.164.836,4.827,4.827,0,0,1-1.684.273A10.936,10.936,0,0,1,4.43,36.75l.438-1.937Z" transform="translate(-4148 -9578.885)" fill="#12263f"/>
    <path id="Trazado_718191" data-name="Trazado 718191" d="M8.891,9.367l.016.1a2.891,2.891,0,0,1,1.371,1.016,2.7,2.7,0,0,1,.465,1.586,2.71,2.71,0,0,1-.492,1.613,3.148,3.148,0,0,1-1.418,1.07,5.7,5.7,0,0,1-2.168.379,5.578,5.578,0,0,1-2.059-.348A2.991,2.991,0,0,1,3.242,13.77,2.839,2.839,0,0,1,3,11.027a2.515,2.515,0,0,1,.648-.84,4.222,4.222,0,0,1,.973-.594l-.016-.1A2.563,2.563,0,0,1,2.883,7a2.273,2.273,0,0,1,.5-1.434,3.237,3.237,0,0,1,1.41-1,5.531,5.531,0,0,1,2.039-.359,4.9,4.9,0,0,1,2.867.7,2.281,2.281,0,0,1,.969,1.969,2.516,2.516,0,0,1-.441,1.477A3.026,3.026,0,0,1,8.891,9.367ZM5.227,6.938a2.6,2.6,0,0,0,.4,1.566A1.372,1.372,0,0,0,6.8,9.047a1.323,1.323,0,0,0,1.137-.512A2.415,2.415,0,0,0,8.32,7.078,2.387,2.387,0,0,0,7.926,5.6a1.349,1.349,0,0,0-1.137-.512,1.44,1.44,0,0,0-1.168.469A2.1,2.1,0,0,0,5.227,6.938Zm-.094,5.07a2.843,2.843,0,0,0,.41,1.68,1.416,1.416,0,0,0,1.223.563,1.533,1.533,0,0,0,.863-.234,1.478,1.478,0,0,0,.547-.719,3.144,3.144,0,0,0,.191-1.156,3.292,3.292,0,0,0-.2-1.191,1.709,1.709,0,0,0-.562-.777A1.4,1.4,0,0,0,6.75,9.9a1.505,1.505,0,0,0-.945.277,1.524,1.524,0,0,0-.516.746A3.435,3.435,0,0,0,5.133,12.008ZM18.922,4.75v.484a3.978,3.978,0,0,0-2.773,1.059,5.24,5.24,0,0,0-1.414,2.918l.078.031a4.6,4.6,0,0,1,1.227-.617,4.46,4.46,0,0,1,1.352-.2,2.9,2.9,0,0,1,1.543.395,2.476,2.476,0,0,1,.973,1.113,3.99,3.99,0,0,1,.328,1.672,3.731,3.731,0,0,1-.437,1.832,2.978,2.978,0,0,1-1.348,1.238,5.044,5.044,0,0,1-2.23.445,4.221,4.221,0,0,1-2.082-.484,3.184,3.184,0,0,1-1.332-1.43,5.2,5.2,0,0,1-.461-2.3,7.042,7.042,0,0,1,.77-3.3A6.12,6.12,0,0,1,15.3,5.234a6.749,6.749,0,0,1,3.2-1.023ZM16.469,9.508a2.235,2.235,0,0,0-.719.113,2.129,2.129,0,0,0-.594.3,1.768,1.768,0,0,0-.348.313.817.817,0,0,0-.129.348,5.446,5.446,0,0,0-.039.8,4.552,4.552,0,0,0,.4,2.148,1.305,1.305,0,0,0,1.219.719,1.57,1.57,0,0,0,.785-.18,1.4,1.4,0,0,0,.512-.5,2.343,2.343,0,0,0,.281-.781,5.491,5.491,0,0,0,.086-1.012,3.14,3.14,0,0,0-.371-1.691A1.209,1.209,0,0,0,16.469,9.508Zm8.25,4.977a2.251,2.251,0,0,0,.449-.168.617.617,0,0,0,.254-.242,1,1,0,0,0,.109-.395q.023-.242.023-.609V11.906H21.367v-.844l4.742-6.781h1.758v6.641h.242a1.966,1.966,0,0,0,.539-.051.569.569,0,0,0,.27-.191,1.488,1.488,0,0,0,.215-.5h.82l-.094,1.727H27.867V13.07a4.407,4.407,0,0,0,.039.66,1.009,1.009,0,0,0,.133.391.589.589,0,0,0,.258.219,2.984,2.984,0,0,0,.414.145V15H24.719Zm-1.836-3.562h2.672V9.133q0-1.125.078-2.367h-.078l-2.672,4.023Zm12.2,4.2a3.676,3.676,0,0,1-2.043-.535,3.38,3.38,0,0,1-1.27-1.73,9.007,9.007,0,0,1-.445-3.094,8.859,8.859,0,0,1,.453-3.027,3.928,3.928,0,0,1,1.332-1.883,3.475,3.475,0,0,1,2.113-.645A3.3,3.3,0,0,1,38.086,5.52a6.863,6.863,0,0,1,.945,4,7.225,7.225,0,0,1-1,4.184A3.383,3.383,0,0,1,35.078,15.125ZM33.7,9.539a19.321,19.321,0,0,0,.152,2.734,3.7,3.7,0,0,0,.48,1.5,1.012,1.012,0,0,0,.875.48.933.933,0,0,0,.52-.145,1.279,1.279,0,0,0,.4-.453,3.229,3.229,0,0,0,.3-.82,7.855,7.855,0,0,0,.18-1.273q.055-.762.055-1.7a21.931,21.931,0,0,0-.105-2.352,6.3,6.3,0,0,0-.3-1.469,1.731,1.731,0,0,0-.461-.734.942.942,0,0,0-.617-.219.972.972,0,0,0-.7.273,1.913,1.913,0,0,0-.457.828,6.83,6.83,0,0,0-.246,1.391Q33.7,8.414,33.7,9.539Zm10.859,5.586a3.676,3.676,0,0,1-2.043-.535,3.38,3.38,0,0,1-1.27-1.73A9.007,9.007,0,0,1,40.8,9.766a8.859,8.859,0,0,1,.453-3.027,3.928,3.928,0,0,1,1.332-1.883A3.475,3.475,0,0,1,44.7,4.211,3.3,3.3,0,0,1,47.563,5.52a6.863,6.863,0,0,1,.945,4,7.225,7.225,0,0,1-1,4.184A3.383,3.383,0,0,1,44.555,15.125ZM43.172,9.539a19.321,19.321,0,0,0,.152,2.734,3.7,3.7,0,0,0,.48,1.5,1.012,1.012,0,0,0,.875.48.933.933,0,0,0,.52-.145,1.279,1.279,0,0,0,.4-.453,3.229,3.229,0,0,0,.3-.82,7.855,7.855,0,0,0,.18-1.273q.055-.762.055-1.7a21.931,21.931,0,0,0-.105-2.352,6.3,6.3,0,0,0-.3-1.469,1.731,1.731,0,0,0-.461-.734.942.942,0,0,0-.617-.219.972.972,0,0,0-.7.273,1.913,1.913,0,0,0-.457.828,6.83,6.83,0,0,0-.246,1.391Q43.172,8.414,43.172,9.539Zm11.141,3.273a2.146,2.146,0,0,0,.23.9,1.063,1.063,0,0,0,.473.469,1.561,1.561,0,0,0,.656.129,1.381,1.381,0,0,0,.953-.3,1.079,1.079,0,0,0,.336-.848,1.269,1.269,0,0,0-.109-.555,1.4,1.4,0,0,0-.359-.441,6.681,6.681,0,0,0-.812-.559,3.688,3.688,0,0,1-1.137-.973,1.912,1.912,0,0,1-.355-1.129,2.043,2.043,0,0,1,.859-1.766,4.07,4.07,0,0,1,2.406-.617,10.016,10.016,0,0,1,2.555.359L59.6,9.352h-.992a1.884,1.884,0,0,0-.371-1.07,1.086,1.086,0,0,0-.863-.344,1.251,1.251,0,0,0-.84.27.91.91,0,0,0-.316.73,1.031,1.031,0,0,0,.121.508,1.577,1.577,0,0,0,.387.438,6.707,6.707,0,0,0,.789.531A3.716,3.716,0,0,1,58.7,11.43a2.114,2.114,0,0,1,.359,1.227,2.187,2.187,0,0,1-.426,1.359,2.512,2.512,0,0,1-1.164.836,4.827,4.827,0,0,1-1.684.273,11.136,11.136,0,0,1-1.555-.1,11.064,11.064,0,0,1-1.352-.273l.438-1.937ZM26.207,28.172q.047-.2.109-.562a3.614,3.614,0,0,0,.063-.555.823.823,0,0,0-.035-.27.383.383,0,0,0-.105-.16.49.49,0,0,0-.187-.1,3.671,3.671,0,0,0-.461-.082l.125-.508,2.336-.125h.883L26.965,34.7q-.086.383-.133.645a2.576,2.576,0,0,0-.047.441.657.657,0,0,0,.172.508,1.058,1.058,0,0,0,.609.2L27.48,37h-3l.422-1.6-.1-.031a6.763,6.763,0,0,1-.988,1.066,3,3,0,0,1-.9.535,3.05,3.05,0,0,1-1.02.156,1.78,1.78,0,0,1-.961-.258,1.736,1.736,0,0,1-.656-.816,3.584,3.584,0,0,1-.242-1.418,7.4,7.4,0,0,1,.191-1.656,6.641,6.641,0,0,1,.563-1.559,4.3,4.3,0,0,1,.941-1.238,3.989,3.989,0,0,1,1.293-.785,4.471,4.471,0,0,1,1.574-.27,3.81,3.81,0,0,1,1.344.242Zm-.8,3.969q.047-.234.086-.543a4.819,4.819,0,0,0,.039-.605,1.325,1.325,0,0,0-.2-.789.742.742,0,0,0-.641-.266,1.614,1.614,0,0,0-1.289.73,5.725,5.725,0,0,0-.906,1.965,8.341,8.341,0,0,0-.344,2.211,1.7,1.7,0,0,0,.168.852.563.563,0,0,0,.52.281,1.564,1.564,0,0,0,1.051-.5,4,4,0,0,0,.863-1.184,8.652,8.652,0,0,0,.586-1.859Zm6.352,2.773q-.086.391-.109.578a2.6,2.6,0,0,0-.023.313.6.6,0,0,0,.176.484,1.15,1.15,0,0,0,.605.2L32.324,37h-3.25l1.219-5.453q.1-.469.141-.73a3.075,3.075,0,0,0,.039-.441.557.557,0,0,0-.145-.434,1.154,1.154,0,0,0-.605-.176l.117-.516,2.289-.086h.891Zm3.1-9.437-.109.516-3.2,2.516L31,27.945l2.086-2.469Zm5.68,4.211.7-.562.875.125-1.2,5.445q-.094.414-.137.664a2.562,2.562,0,0,0-.043.422.657.657,0,0,0,.172.508,1.058,1.058,0,0,0,.609.2L41.434,37h-3l.422-1.6-.1-.031a6.763,6.763,0,0,1-.988,1.066,3,3,0,0,1-.9.535,3.05,3.05,0,0,1-1.02.156,1.78,1.78,0,0,1-.961-.258,1.736,1.736,0,0,1-.656-.816,3.584,3.584,0,0,1-.242-1.418,7.4,7.4,0,0,1,.191-1.656,6.534,6.534,0,0,1,.566-1.559,4.355,4.355,0,0,1,.945-1.238,3.989,3.989,0,0,1,1.293-.785,4.471,4.471,0,0,1,1.574-.27A3.424,3.424,0,0,1,40.543,29.688Zm-1.18,2.453a5.589,5.589,0,0,0,.09-.559,5.282,5.282,0,0,0,.035-.6,1.31,1.31,0,0,0-.2-.781.742.742,0,0,0-.641-.266,1.614,1.614,0,0,0-1.289.73,5.725,5.725,0,0,0-.906,1.965,8.341,8.341,0,0,0-.344,2.211,1.7,1.7,0,0,0,.168.852.563.563,0,0,0,.52.281,1.564,1.564,0,0,0,1.051-.5,4,4,0,0,0,.863-1.184A8.652,8.652,0,0,0,39.3,32.43Z" transform="translate(-4105 -9578.885)" fill="#12263f"/>
    <path id="Trazado_718192" data-name="Trazado 718192" d="M16.647,12.82a3.42,3.42,0,0,0,.051.684.815.815,0,0,0,.18.375.851.851,0,0,0,.371.227,3.035,3.035,0,0,0,.609.125q.367.043.969.059V15H12.085v-.711a10.709,10.709,0,0,0,1.238-.105,1.484,1.484,0,0,0,.566-.2.757.757,0,0,0,.285-.375,2.479,2.479,0,0,0,.09-.789V7.172a.7.7,0,0,0-.121-.461.415.415,0,0,0-.332-.141,1.357,1.357,0,0,0-.551.18,12.259,12.259,0,0,0-1.168.734l-.477-.828,4.078-2.445h1q-.047.75-.047,2.078ZM31.874,8.742A4.9,4.9,0,0,1,33.2,7.512a2.91,2.91,0,0,1,1.492-.387,1.7,1.7,0,0,1,1.254.449A1.673,1.673,0,0,1,36.4,8.813a5.708,5.708,0,0,1-.156,1.211L35.6,12.914q-.078.359-.105.555a2.474,2.474,0,0,0-.027.336.6.6,0,0,0,.176.492,1.207,1.207,0,0,0,.605.188L36.155,15H32.913l1.078-4.7q.086-.367.129-.6t.063-.406a2.789,2.789,0,0,0,.02-.312.851.851,0,0,0-.145-.535.518.518,0,0,0-.434-.184,1.023,1.023,0,0,0-.539.2,3.581,3.581,0,0,0-.66.59,3.631,3.631,0,0,0-.574.832,4.494,4.494,0,0,0-.352,1.105L30.639,15h-2.25l1.125-4.9q.078-.312.109-.5t.043-.32q.012-.133.012-.242a.978.978,0,0,0-.141-.59.525.525,0,0,0-.445-.184,1.429,1.429,0,0,0-.879.477,4.226,4.226,0,0,0-.8.973,4.245,4.245,0,0,0-.441,1.277L26.116,15H23.874L25.1,9.484q.039-.187.105-.535a3.2,3.2,0,0,0,.066-.582.5.5,0,0,0-.184-.449,1.251,1.251,0,0,0-.574-.152l.117-.516,2.148-.086h.82l-.445,1.688.094.031a7.634,7.634,0,0,1,1-1.051,3.091,3.091,0,0,1,.91-.543,2.943,2.943,0,0,1,1.008-.164,1.707,1.707,0,0,1,1.23.43A1.64,1.64,0,0,1,31.874,8.742Zm6.033-3.463V4.2A5.393,5.393,0,0,1,40,3.707a2.92,2.92,0,0,1,.991.155,1.441,1.441,0,0,1,.665.453,1.133,1.133,0,0,1,.235.722,1.44,1.44,0,0,1-.155.681,1.586,1.586,0,0,1-.435.513,3.842,3.842,0,0,1-.727.428V6.7a2.07,2.07,0,0,1,.722.264,1.449,1.449,0,0,1,.713,1.285,1.74,1.74,0,0,1-.257.941,1.712,1.712,0,0,1-.782.647,3.1,3.1,0,0,1-1.271.235,5.461,5.461,0,0,1-1.012-.093,3.758,3.758,0,0,1-.866-.262V8.574h.82a1.583,1.583,0,0,0,.374.754.87.87,0,0,0,.633.235q.966,0,.966-1.194a1.243,1.243,0,0,0-.34-.957A1.475,1.475,0,0,0,39.241,7.1h-.36v-.52a1.977,1.977,0,0,0,1.2-.371,1.2,1.2,0,0,0,.41-.982,1.207,1.207,0,0,0-.205-.763.718.718,0,0,0-.6-.257.82.82,0,0,0-.75.44,1.832,1.832,0,0,0-.216.636ZM7.876,34.82a3.42,3.42,0,0,0,.051.684.815.815,0,0,0,.18.375.851.851,0,0,0,.371.227,3.035,3.035,0,0,0,.609.125q.367.043.969.059V37H3.313v-.711a10.709,10.709,0,0,0,1.238-.105,1.484,1.484,0,0,0,.566-.2.757.757,0,0,0,.285-.375,2.479,2.479,0,0,0,.09-.789V29.172a.7.7,0,0,0-.121-.461.415.415,0,0,0-.332-.141,1.357,1.357,0,0,0-.551.18,12.259,12.259,0,0,0-1.168.734l-.477-.828,4.078-2.445h1q-.047.75-.047,2.078Zm7.852,2.3a3.676,3.676,0,0,1-2.043-.535,3.38,3.38,0,0,1-1.27-1.73,9.007,9.007,0,0,1-.445-3.094,8.859,8.859,0,0,1,.453-3.027,3.928,3.928,0,0,1,1.332-1.883,3.475,3.475,0,0,1,2.113-.645,3.3,3.3,0,0,1,2.867,1.309,6.863,6.863,0,0,1,.945,4,7.225,7.225,0,0,1-1,4.184A3.383,3.383,0,0,1,15.727,37.125Zm-1.383-5.586a19.321,19.321,0,0,0,.152,2.734,3.7,3.7,0,0,0,.48,1.5,1.012,1.012,0,0,0,.875.48.933.933,0,0,0,.52-.145,1.279,1.279,0,0,0,.4-.453,3.229,3.229,0,0,0,.3-.82,7.855,7.855,0,0,0,.18-1.273q.055-.762.055-1.7a21.931,21.931,0,0,0-.105-2.352,6.3,6.3,0,0,0-.3-1.469,1.731,1.731,0,0,0-.461-.734.942.942,0,0,0-.617-.219.972.972,0,0,0-.7.273,1.913,1.913,0,0,0-.457.828,6.829,6.829,0,0,0-.246,1.391Q14.344,30.414,14.344,31.539ZM25.2,37.125a3.676,3.676,0,0,1-2.043-.535,3.38,3.38,0,0,1-1.27-1.73,9.007,9.007,0,0,1-.445-3.094,8.859,8.859,0,0,1,.453-3.027,3.928,3.928,0,0,1,1.332-1.883,3.475,3.475,0,0,1,2.113-.645,3.3,3.3,0,0,1,2.867,1.309,6.863,6.863,0,0,1,.945,4,7.225,7.225,0,0,1-1,4.184A3.383,3.383,0,0,1,25.2,37.125Zm-1.383-5.586a19.321,19.321,0,0,0,.152,2.734,3.7,3.7,0,0,0,.48,1.5,1.012,1.012,0,0,0,.875.48.933.933,0,0,0,.52-.145,1.279,1.279,0,0,0,.4-.453,3.229,3.229,0,0,0,.3-.82,7.855,7.855,0,0,0,.18-1.273q.055-.762.055-1.7a21.931,21.931,0,0,0-.105-2.352,6.3,6.3,0,0,0-.3-1.469,1.731,1.731,0,0,0-.461-.734.942.942,0,0,0-.617-.219.972.972,0,0,0-.7.273,1.913,1.913,0,0,0-.457.828,6.829,6.829,0,0,0-.246,1.391Q23.821,30.414,23.821,31.539ZM34.68,37.125a3.676,3.676,0,0,1-2.043-.535,3.38,3.38,0,0,1-1.27-1.73,9.007,9.007,0,0,1-.445-3.094,8.859,8.859,0,0,1,.453-3.027,3.928,3.928,0,0,1,1.332-1.883,3.475,3.475,0,0,1,2.113-.645,3.3,3.3,0,0,1,2.867,1.309,6.863,6.863,0,0,1,.945,4,7.225,7.225,0,0,1-1,4.184A3.383,3.383,0,0,1,34.68,37.125ZM33.3,31.539a19.321,19.321,0,0,0,.152,2.734,3.7,3.7,0,0,0,.48,1.5,1.012,1.012,0,0,0,.875.48.933.933,0,0,0,.52-.145,1.279,1.279,0,0,0,.4-.453,3.229,3.229,0,0,0,.3-.82,7.855,7.855,0,0,0,.18-1.273q.055-.762.055-1.7a21.931,21.931,0,0,0-.105-2.352,6.3,6.3,0,0,0-.3-1.469,1.731,1.731,0,0,0-.461-.734.942.942,0,0,0-.617-.219.972.972,0,0,0-.7.273,1.913,1.913,0,0,0-.457.828,6.83,6.83,0,0,0-.246,1.391Q33.3,30.414,33.3,31.539ZM47.79,36.07a2.192,2.192,0,0,0,.594-.062,1.159,1.159,0,0,0,.383-.2,2.854,2.854,0,0,0,.379-.367,3.29,3.29,0,0,0,.41-.609,7.608,7.608,0,0,0,.414-.937h1.063l-.8,3.1H43.087l.109-.516a1.22,1.22,0,0,0,.5-.258,1.318,1.318,0,0,0,.3-.465,5.42,5.42,0,0,0,.25-.871l1.422-6.445a4.238,4.238,0,0,0,.1-.914.657.657,0,0,0-.152-.48.852.852,0,0,0-.5-.2l.109-.516h3.93l-.109.516a1.22,1.22,0,0,0-.5.258,1.318,1.318,0,0,0-.3.465,5.42,5.42,0,0,0-.25.871L46.313,36.07Z" transform="translate(-4012 -9578.885)" fill="#12263f"/>
    <path id="Trazado_718193" data-name="Trazado 718193" d="M11.8,8.742a4.9,4.9,0,0,1,1.328-1.23,2.91,2.91,0,0,1,1.492-.387,1.7,1.7,0,0,1,1.254.449,1.673,1.673,0,0,1,.449,1.238,5.708,5.708,0,0,1-.156,1.211l-.641,2.891q-.078.359-.105.555a2.475,2.475,0,0,0-.027.336.6.6,0,0,0,.176.492,1.207,1.207,0,0,0,.605.188L16.08,15H12.838l1.078-4.7q.086-.367.129-.6t.063-.406a2.789,2.789,0,0,0,.02-.312.851.851,0,0,0-.145-.535.518.518,0,0,0-.434-.184,1.023,1.023,0,0,0-.539.2,3.581,3.581,0,0,0-.66.59,3.631,3.631,0,0,0-.574.832,4.494,4.494,0,0,0-.352,1.105L10.564,15H8.314l1.125-4.9q.078-.312.109-.5t.043-.32q.012-.133.012-.242a.978.978,0,0,0-.141-.59.525.525,0,0,0-.445-.184,1.429,1.429,0,0,0-.879.477,4.226,4.226,0,0,0-.8.973A4.245,4.245,0,0,0,6.9,10.992L6.041,15H3.8L5.025,9.484q.039-.187.105-.535A3.2,3.2,0,0,0,5.2,8.367a.5.5,0,0,0-.184-.449,1.251,1.251,0,0,0-.574-.152l.117-.516L6.7,7.164h.82L7.08,8.852l.094.031a7.634,7.634,0,0,1,1-1.051,3.091,3.091,0,0,1,.91-.543A2.943,2.943,0,0,1,10.1,7.125a1.707,1.707,0,0,1,1.23.43A1.64,1.64,0,0,1,11.8,8.742Zm6.033-3.463V4.2a5.393,5.393,0,0,1,2.092-.492,2.92,2.92,0,0,1,.991.155,1.441,1.441,0,0,1,.665.453,1.133,1.133,0,0,1,.235.722,1.44,1.44,0,0,1-.155.681,1.586,1.586,0,0,1-.435.513,3.841,3.841,0,0,1-.727.428V6.7a2.07,2.07,0,0,1,.722.264,1.449,1.449,0,0,1,.713,1.285,1.74,1.74,0,0,1-.257.941,1.712,1.712,0,0,1-.782.647,3.1,3.1,0,0,1-1.271.235,5.461,5.461,0,0,1-1.012-.093,3.758,3.758,0,0,1-.866-.262V8.574h.82a1.583,1.583,0,0,0,.374.754.87.87,0,0,0,.633.235q.966,0,.966-1.194a1.243,1.243,0,0,0-.34-.957A1.475,1.475,0,0,0,19.166,7.1h-.36v-.52a1.977,1.977,0,0,0,1.2-.371,1.2,1.2,0,0,0,.41-.982,1.207,1.207,0,0,0-.205-.763.718.718,0,0,0-.6-.257.82.82,0,0,0-.75.44,1.832,1.832,0,0,0-.216.636ZM8.207,28.172q.047-.2.109-.562a3.614,3.614,0,0,0,.063-.555.823.823,0,0,0-.035-.27.383.383,0,0,0-.105-.16.49.49,0,0,0-.187-.1,3.671,3.671,0,0,0-.461-.082l.125-.508,2.336-.125h.883L8.965,34.7q-.086.383-.133.645a2.576,2.576,0,0,0-.047.441.657.657,0,0,0,.172.508,1.058,1.058,0,0,0,.609.2L9.48,37h-3L6.9,35.4l-.1-.031a6.763,6.763,0,0,1-.988,1.066,3,3,0,0,1-.9.535,3.05,3.05,0,0,1-1.02.156,1.78,1.78,0,0,1-.961-.258,1.736,1.736,0,0,1-.656-.816,3.584,3.584,0,0,1-.242-1.418,7.4,7.4,0,0,1,.191-1.656,6.642,6.642,0,0,1,.563-1.559A4.3,4.3,0,0,1,3.73,30.18a3.989,3.989,0,0,1,1.293-.785,4.471,4.471,0,0,1,1.574-.27,3.81,3.81,0,0,1,1.344.242Zm-.8,3.969q.047-.234.086-.543a4.819,4.819,0,0,0,.039-.605,1.325,1.325,0,0,0-.2-.789.742.742,0,0,0-.641-.266,1.614,1.614,0,0,0-1.289.73A5.725,5.725,0,0,0,4.5,32.633a8.341,8.341,0,0,0-.344,2.211,1.7,1.7,0,0,0,.168.852.563.563,0,0,0,.52.281,1.564,1.564,0,0,0,1.051-.5,4,4,0,0,0,.863-1.184,8.652,8.652,0,0,0,.586-1.859Zm6.352,2.773q-.086.391-.109.578a2.6,2.6,0,0,0-.023.313.6.6,0,0,0,.176.484,1.15,1.15,0,0,0,.605.2L14.324,37h-3.25l1.219-5.453q.1-.469.141-.73a3.075,3.075,0,0,0,.039-.441.557.557,0,0,0-.145-.434,1.154,1.154,0,0,0-.605-.176l.117-.516,2.289-.086h.891Zm3.1-9.437-.109.516-3.2,2.516L13,27.945l2.086-2.469Zm5.68,4.211.7-.562.875.125-1.2,5.445q-.094.414-.137.664a2.562,2.562,0,0,0-.043.422.657.657,0,0,0,.172.508,1.058,1.058,0,0,0,.609.2L23.434,37h-3l.422-1.6-.1-.031a6.763,6.763,0,0,1-.988,1.066,3,3,0,0,1-.9.535,3.05,3.05,0,0,1-1.02.156,1.78,1.78,0,0,1-.961-.258,1.736,1.736,0,0,1-.656-.816,3.584,3.584,0,0,1-.242-1.418,7.4,7.4,0,0,1,.191-1.656,6.534,6.534,0,0,1,.566-1.559,4.355,4.355,0,0,1,.945-1.238,3.989,3.989,0,0,1,1.293-.785,4.471,4.471,0,0,1,1.574-.27A3.424,3.424,0,0,1,22.543,29.688Zm-1.18,2.453a5.589,5.589,0,0,0,.09-.559,5.282,5.282,0,0,0,.035-.6,1.31,1.31,0,0,0-.2-.781.742.742,0,0,0-.641-.266,1.614,1.614,0,0,0-1.289.73,5.725,5.725,0,0,0-.906,1.965,8.341,8.341,0,0,0-.344,2.211,1.7,1.7,0,0,0,.168.852.563.563,0,0,0,.52.281,1.564,1.564,0,0,0,1.051-.5,4,4,0,0,0,.863-1.184A8.652,8.652,0,0,0,21.3,32.43Z" transform="translate(-3870 -9578.885)" fill="#12263f"/>
    <path id="Trazado_718194" data-name="Trazado 718194" d="M0,0H23" transform="translate(-4151.5 -9558)" fill="none" stroke="#12263f" stroke-width="1"/>
    <path id="Trazado_718195" data-name="Trazado 718195" d="M0,0H73" transform="translate(-4109.5 -9558)" fill="none" stroke="#12263f" stroke-width="1"/>
    <path id="Trazado_718196" data-name="Trazado 718196" d="M0,0H63.65" transform="translate(-4016.5 -9558)" fill="none" stroke="#12263f" stroke-width="1"/>
    <path id="Trazado_718197" data-name="Trazado 718197" d="M0,0H36" transform="translate(-3875.5 -9558)" fill="none" stroke="#12263f" stroke-width="1"/>
  </g>
</svg>
