<svg xmlns="http://www.w3.org/2000/svg" width="49.398" height="32.664" viewBox="0 0 49.398 32.664">
  <g id="Grupo_1009236" data-name="Grupo 1009236" transform="translate(3335.398 9163.549)">
    <path id="Trazado_718281" data-name="Trazado 718281" d="M8.563,9.555A6.457,6.457,0,0,0,8.75,8.383a.54.54,0,0,0-.164-.449,1.178,1.178,0,0,0-.594-.168l.117-.516,2.117-.086h.852l-.445,1.688.094.031a7.034,7.034,0,0,1,.984-1.059,2.721,2.721,0,0,1,1.922-.7,1.78,1.78,0,0,1,.961.258,1.736,1.736,0,0,1,.656.816,3.584,3.584,0,0,1,.242,1.418,7.4,7.4,0,0,1-.191,1.656,6.642,6.642,0,0,1-.562,1.559A4.3,4.3,0,0,1,13.8,14.07a3.989,3.989,0,0,1-1.293.785,4.471,4.471,0,0,1-1.574.27,3.81,3.81,0,0,1-1.344-.242l-.352,1.648q-.023.125-.043.238t-.027.211q-.008.1-.008.184a.6.6,0,0,0,.176.484,1.15,1.15,0,0,0,.605.2l-.086.516H6.6Zm1.563,2.555A5.351,5.351,0,0,0,10,13.242a1.368,1.368,0,0,0,.191.82.762.762,0,0,0,.645.25,1.491,1.491,0,0,0,.535-.094,1.56,1.56,0,0,0,.484-.309,2.645,2.645,0,0,0,.48-.629,6.6,6.6,0,0,0,.535-1.172,9.143,9.143,0,0,0,.363-1.379,7.372,7.372,0,0,0,.133-1.324,1.7,1.7,0,0,0-.168-.855.565.565,0,0,0-.52-.277,1.564,1.564,0,0,0-1.051.5,3.944,3.944,0,0,0-.855,1.168,8.84,8.84,0,0,0-.586,1.875Z" transform="translate(-3342 -9157.385)" fill="#12263f"/>
    <path id="Trazado_718282" data-name="Trazado 718282" d="M3.332,9.508V7.883h7.336V9.508Zm0,3.469V11.352h7.336v1.625Z" transform="translate(-3323 -9157.385)" fill="#12263f"/>
    <path id="Trazado_718283" data-name="Trazado 718283" d="M4.75,12.891q-.047.2-.062.32t-.027.254q-.012.137-.012.34a.619.619,0,0,0,.184.508,1.008,1.008,0,0,0,.574.172L5.3,15H1.258l.109-.516a1.22,1.22,0,0,0,.5-.258,1.318,1.318,0,0,0,.3-.465,5.42,5.42,0,0,0,.25-.871L3.844,6.445a4.238,4.238,0,0,0,.1-.914.657.657,0,0,0-.152-.48.852.852,0,0,0-.5-.2l.109-.516H10.8l-.555,2.516h-1A4.343,4.343,0,0,0,9.1,5.813a.783.783,0,0,0-.312-.43A1.115,1.115,0,0,0,8.2,5.25H6.43L5.57,9.156H6.617a1.048,1.048,0,0,0,.516-.121,1.269,1.269,0,0,0,.406-.383,4.125,4.125,0,0,0,.4-.754H8.8l-.82,3.484h-.8a4.107,4.107,0,0,0-.059-.812.646.646,0,0,0-.207-.383.741.741,0,0,0-.461-.117H5.375Zm1.7,20.8H3.391l-.109.2q-.18.312-.309.566t-.23.516a3.007,3.007,0,0,0-.145.469,1.943,1.943,0,0,0-.043.395q0,.563.664.648L3.1,37H-.2l.117-.516a1.319,1.319,0,0,0,.48-.211,1.814,1.814,0,0,0,.395-.4A9,9,0,0,0,1.328,35L6.18,26.281H8.43l.336,8.352a7.436,7.436,0,0,0,.055.754,2.9,2.9,0,0,0,.1.473,1.282,1.282,0,0,0,.152.328.6.6,0,0,0,.23.2.994.994,0,0,0,.313.094L9.5,37H5.461l.117-.516a.988.988,0,0,0,.543-.176.789.789,0,0,0,.277-.414,2.671,2.671,0,0,0,.078-.73q0-.336-.016-.7Zm-2.57-.914H6.422l-.031-1.875q-.016-1-.016-1.656,0-.5.008-1.023H6.289Z" transform="translate(-3302.5 -9167.885)" fill="#12263f"/>
    <path id="Trazado_718284" data-name="Trazado 718284" d="M4.48,12.641a6.215,6.215,0,0,1,.109.711q.039.391.039.7A2.933,2.933,0,0,1,4.418,15.2a3.332,3.332,0,0,1-.676.988,8.92,8.92,0,0,1-1.309,1.082l-.6-.68a2.572,2.572,0,0,0,.527-.625,2.383,2.383,0,0,0,.273-.73,5.094,5.094,0,0,0,.082-1,15.609,15.609,0,0,0-.094-1.6Z" transform="translate(-3292 -9153.885)" fill="#12263f"/>
    <path id="Trazado_718285" data-name="Trazado 718285" d="M0,0H21" transform="translate(-3307 -9147)" fill="none" stroke="#12263f" stroke-width="1"/>
  </g>
</svg>
