<svg id="Grupo_1003771" data-name="Grupo 1003771" xmlns="http://www.w3.org/2000/svg" width="62.531" height="81.613" viewBox="0 0 62.531 81.613">
  <g id="Grupo_56591" data-name="Grupo 56591">
    <g id="Grupo_56587" data-name="Grupo 56587">
      <g id="Grupo_56577" data-name="Grupo 56577">
        <g id="Grupo_56576" data-name="Grupo 56576">
          <g id="Grupo_56575" data-name="Grupo 56575">
            <g id="Grupo_56574" data-name="Grupo 56574">
              <g id="Grupo_56573" data-name="Grupo 56573">
                <g id="Grupo_56572" data-name="Grupo 56572">
                  <g id="Grupo_56571" data-name="Grupo 56571">
                    <g id="Grupo_56570" data-name="Grupo 56570">
                      <g id="Grupo_56569" data-name="Grupo 56569">
                        <g id="Grupo_56568" data-name="Grupo 56568">
                          <path id="Trazado_103911" data-name="Trazado 103911" d="M291.974,297.957V235.916a5.572,5.572,0,0,1-4.351-5.437v-8.292a.66.66,0,0,0-.375-.6,4.149,4.149,0,0,0-1.742-.383H245.371a5.484,5.484,0,0,0-5.484,5.485v70.644a5.484,5.484,0,0,0,5.484,5.485h43.762a5.572,5.572,0,0,0,2.842-4.858Z" transform="translate(-239.887 -221.202)" fill="#dfedfa"/>
                          <path id="Trazado_103912" data-name="Trazado 103912" d="M302.49,239.584a5.494,5.494,0,0,1-1.2-.134v61.072a5.485,5.485,0,0,1-5.485,5.485h10.908a5.485,5.485,0,0,0,5.485-5.485V241.3a4.146,4.146,0,0,0-.375-1.721Z" transform="translate(-249.666 -224.393)" fill="#e7ecf1"/>
                          <path id="Trazado_103913" data-name="Trazado 103913" d="M311.234,235.255,298.478,222.5a4.149,4.149,0,0,0-1.217-.842v9.331a5.484,5.484,0,0,0,5.484,5.485h9.332A4.154,4.154,0,0,0,311.234,235.255Z" transform="translate(-249.921 -221.281)" fill="#6595bf"/>
                        </g>
                      </g>
                    </g>
                  </g>
                </g>
              </g>
            </g>
          </g>
        </g>
      </g>
    </g>
    <g id="Grupo_56588" data-name="Grupo 56588" transform="translate(8.167 23.135)">
      <path id="Trazado_103924" data-name="Trazado 103924" d="M294.649,251.9H251.117a1.331,1.331,0,1,1,0-2.663h43.532a1.331,1.331,0,1,1,0,2.663Z" transform="translate(-249.785 -249.241)" fill="#6595bf"/>
    </g>
    <g id="Grupo_56589" data-name="Grupo 56589" transform="translate(8.167 13.86)">
      <path id="Trazado_103925" data-name="Trazado 103925" d="M272.883,240.662H251.117a1.331,1.331,0,1,1,0-2.663h21.767a1.331,1.331,0,0,1,0,2.663Z" transform="translate(-249.785 -237.999)" fill="#6595bf"/>
    </g>
    <g id="Grupo_56590" data-name="Grupo 56590" transform="translate(8.167 31.354)">
      <path id="Trazado_103926" data-name="Trazado 103926" d="M294.649,261.865H251.117a1.331,1.331,0,1,1,0-2.663h43.532a1.331,1.331,0,1,1,0,2.663Z" transform="translate(-249.785 -259.202)" fill="#6595bf"/>
    </g>
  </g>
</svg>
