<svg xmlns="http://www.w3.org/2000/svg" xmlns:xlink="http://www.w3.org/1999/xlink" width="400" height="362" viewBox="0 0 400 362">
  <defs>
    <clipPath id="clip-path">
      <rect id="Rectángulo_348049" data-name="Rectángulo 348049" width="400" height="362" fill="none"/>
    </clipPath>
    <clipPath id="clip-path-3">
      <rect id="Rectángulo_348032" data-name="Rectángulo 348032" width="282.217" height="258.426" transform="translate(84.183)" fill="none"/>
    </clipPath>
  </defs>
  <g id="Grupo_1009059" data-name="Grupo 1009059" transform="translate(-180 -6819)">
    <g id="Grupo_1009053" data-name="Grupo 1009053" transform="translate(180 6819)">
      <g id="Grupo_1009052" data-name="Grupo 1009052" clip-path="url(#clip-path)">
        <g id="Grupo_1009051" data-name="Grupo 1009051">
          <g id="Grupo_1009050" data-name="Grupo 1009050" clip-path="url(#clip-path)">
            <g id="Grupo_1009049" data-name="Grupo 1009049" style="mix-blend-mode: hard-light;isolation: isolate">
              <g id="Grupo_1009048" data-name="Grupo 1009048">
                <g id="Grupo_1009047" data-name="Grupo 1009047" clip-path="url(#clip-path-3)">
                  <path id="Trazado_716878" data-name="Trazado 716878" d="M350.709,258.426H99.874a15.691,15.691,0,0,1-15.691-15.691V15.691A15.691,15.691,0,0,1,99.874,0H350.709A15.691,15.691,0,0,1,366.4,15.691V242.735a15.691,15.691,0,0,1-15.691,15.691" fill="#f5f5f5"/>
                </g>
              </g>
            </g>
            <path id="Trazado_716879" data-name="Trazado 716879" d="M188.775,78.28a39.67,39.67,0,0,0-21.538-49.772c-.808-.349-1.635-.676-2.475-.977A39.7,39.7,0,1,0,188.775,78.28m-47.4,14.655a29.763,29.763,0,1,1,20.046-56.05c.63.227,1.25.472,1.855.735a29.763,29.763,0,0,1-21.9,55.315" fill="#78c3ff"/>
            <path id="Trazado_716880" data-name="Trazado 716880" d="M142.523,36.5l-2.962-9.484A39.753,39.753,0,0,0,111.7,63.724l9.932.3A29.81,29.81,0,0,1,142.523,36.5" fill="#1173c2"/>
            <path id="Trazado_716881" data-name="Trazado 716881" d="M163.272,37.62l3.965-9.111c-.807-.35-1.634-.677-2.475-.977a39.512,39.512,0,0,0-25.2-.517l2.962,9.484a29.628,29.628,0,0,1,18.892.387q.946.339,1.856.734" fill="#1487e3"/>
            <path id="Trazado_716882" data-name="Trazado 716882" d="M177.119,34.662a39.468,39.468,0,0,0-9.882-6.154l-3.965,9.111a29.588,29.588,0,0,1,7.41,4.613Z" fill="#4aafff"/>
            <rect id="Rectángulo_348033" data-name="Rectángulo 348033" width="13.777" height="47.19" transform="translate(301.352 158.87)" fill="#4aafff"/>
            <rect id="Rectángulo_348034" data-name="Rectángulo 348034" width="13.777" height="33.955" transform="translate(280.87 172.105)" fill="#4aafff"/>
            <rect id="Rectángulo_348035" data-name="Rectángulo 348035" width="13.777" height="69.061" transform="translate(321.221 136.999)" fill="#4aafff"/>
            <path id="Trazado_716883" data-name="Trazado 716883" d="M332.776,102.5l-.244-1.49-36.357,5.954-11.787,25.122-39.2,2.661-12.7,18.73-29.968-.743-.038,1.509,30.793.764,12.748-18.8,39.352-2.671L297.2,108.325Z" fill="#4aafff"/>
            <path id="Trazado_716884" data-name="Trazado 716884" d="M287.953,39.617h39.961A4.088,4.088,0,0,0,332,35.529v-.781a4.088,4.088,0,0,0-4.088-4.088H287.953a4.088,4.088,0,0,0-4.088,4.088v.781a4.088,4.088,0,0,0,4.088,4.088" fill="#1487e3"/>
            <path id="Trazado_716885" data-name="Trazado 716885" d="M287.953,55.243h39.961A4.088,4.088,0,0,0,332,51.155v-.782a4.088,4.088,0,0,0-4.088-4.088H287.953a4.088,4.088,0,0,0-4.088,4.088v.782a4.089,4.089,0,0,0,4.088,4.088" fill="#4aafff"/>
            <path id="Trazado_716886" data-name="Trazado 716886" d="M287.953,70.869h39.961A4.088,4.088,0,0,0,332,66.781V66a4.089,4.089,0,0,0-4.088-4.089H287.953A4.089,4.089,0,0,0,283.865,66v.781a4.088,4.088,0,0,0,4.088,4.088" fill="#4aafff"/>
            <path id="Trazado_716887" data-name="Trazado 716887" d="M217.424,47.363h-22.41V46.5h22.054l11.8-11.8h14.45v.86H229.222Z" fill="#4aafff"/>
            <path id="Trazado_716888" data-name="Trazado 716888" d="M238.66,86.506H209.823l-9.345-9.345.608-.608,9.093,9.093H238.66Z" fill="#4aafff"/>
            <rect id="Rectángulo_348036" data-name="Rectángulo 348036" width="29.892" height="3.669" transform="translate(230.997 40.397)" fill="#1487e3"/>
            <rect id="Rectángulo_348037" data-name="Rectángulo 348037" width="24.063" height="3.668" transform="translate(221.881 77.799)" fill="#1487e3"/>
            <rect id="Rectángulo_348038" data-name="Rectángulo 348038" width="131.482" height="5.141" transform="translate(185.493 253.35)" fill="#e8e8e8"/>
            <rect id="Rectángulo_348039" data-name="Rectángulo 348039" width="47.393" height="2.813" transform="translate(157.324 219.637)" fill="#e2d2ca"/>
            <rect id="Rectángulo_348040" data-name="Rectángulo 348040" width="4.153" height="127.944" transform="translate(163.676 229.772)" fill="#706865"/>
            <rect id="Rectángulo_348041" data-name="Rectángulo 348041" width="32.943" height="4.018" transform="translate(197.299 218.839)" fill="#ccbdb7"/>
            <rect id="Rectángulo_348042" data-name="Rectángulo 348042" width="12.475" height="37.89" transform="translate(207.533 184.56)" fill="#998e89"/>
            <rect id="Rectángulo_348043" data-name="Rectángulo 348043" width="182.522" height="7.275" transform="translate(140.323 222.497)" fill="#455a64"/>
            <path id="Trazado_716889" data-name="Trazado 716889" d="M137.581,340.247s-.816,5.664-.918,6.515-9.078-.5-9.078-.5l-.727-6.743s9.6-.07,10.723.729" fill="#424773"/>
            <path id="Trazado_716890" data-name="Trazado 716890" d="M136.759,346.041a24.238,24.238,0,0,0,5.6,4.9c2.75,1.488,7.073,2.077,8.7,3.617,1.175,1.112,4.277,5.9-7.147,5.8s-16.933.676-18.157-1.159,1.771-13.543,1.771-13.543,2.706.973,9.239.383" fill="#292c47"/>
            <path id="Trazado_716891" data-name="Trazado 716891" d="M195.091,340.3s-.816,5.664-.918,6.515-9.078-.5-9.078-.5l-.727-6.744s9.6-.069,10.723.73" fill="#424773"/>
            <path id="Trazado_716892" data-name="Trazado 716892" d="M194.268,346.1a24.238,24.238,0,0,0,5.6,4.9c2.751,1.488,12.873,2.71,14.5,4.25,1.175,1.111,3.127,5.586-12.947,5.168-11.421-.3-16.932.676-18.156-1.159s1.77-13.544,1.77-13.544,2.55,1.04,9.239.384" fill="#292c47"/>
            <path id="Trazado_716893" data-name="Trazado 716893" d="M108.63,242.4s32.633,5.522,40,6.679,47.337,11.1,52.334,14.133c3.979,2.412-2.086,60.344-3.5,82.446H181.723l-1.142-66.3c-18.889.473-32.369-4.418-46.124-2.329s-25.224,5.058-33.964-6.666c0,0-.325-25.4,8.137-27.962" fill="#292c47"/>
            <path id="Trazado_716894" data-name="Trazado 716894" d="M140.795,345.712l-15.34-.948-1.5-65.406c-8.132.2-10.92-.312-17.5-1.111L94.073,249.458c10.855,2.17,45.633,10.942,50.271,13.754,3.979,2.413-2.132,60.4-3.549,82.5" fill="#292c47"/>
            <path id="Trazado_716895" data-name="Trazado 716895" d="M123.652,120.075s11.963-3.306,16.527,5.981,2.495,26.892-3.534,28.548-14.7-.251-17.2-6.031-4.5-13.993-3.9-19.312,4.933-7.915,8.11-9.186" fill="#eea886"/>
            <path id="Trazado_716896" data-name="Trazado 716896" d="M133.519,152.751s-.131,7.063.647,8.568-16.658,1.129-16.658,1.129,2.748-8.482,1.189-15.707c-1.543-7.152,14.822,6.01,14.822,6.01" fill="#eea886"/>
            <path id="Trazado_716897" data-name="Trazado 716897" d="M117.757,144.067s.932,1.9,5.446,1.589,10.466-5.751,12.382-6.238,2.03-1.577,2.03-1.577l1.014,1.8,1.963.3s-1.334-5.457,1.573-7.379-1.309-17.4-16.026-13.665c0,0-11.232,2.057-11.383,8.329s.821,13.517,3,16.839" fill="#3a3f47"/>
            <path id="Trazado_716898" data-name="Trazado 716898" d="M135.083,161.139s-.049-2.877-1.353-3.153-13.706-1.982-15.307-1.353l-.687,3.8s3.084,1.9,17.347.707" fill="#e2d2ca"/>
            <path id="Trazado_716899" data-name="Trazado 716899" d="M138.672,136.555c-.335-2.358-3.015-5.066-4.551-1.394s1.037,9.021,2.759,8.735,2.246-4.142,1.792-7.341" fill="#eea886"/>
            <path id="Trazado_716900" data-name="Trazado 716900" d="M187.031,195.129a.03.03,0,0,0-.021,0c.089.04.1.043.021,0" fill="#323657"/>
            <path id="Trazado_716901" data-name="Trazado 716901" d="M120.162,121.76s-14.586-.687-2.546,22.083Z" fill="#3a3f47"/>
            <path id="Trazado_716902" data-name="Trazado 716902" d="M87.663,353.47l1.085,3.052,45.847-14.2-2.2-6.181Z" fill="#38464c"/>
            <rect id="Rectángulo_348044" data-name="Rectángulo 348044" width="5.211" height="49.845" transform="translate(130.957 290.297)" fill="#38464c"/>
            <rect id="Rectángulo_348045" data-name="Rectángulo 348045" width="30.735" height="2.937" transform="translate(118.194 287.649)" fill="#5e5854"/>
            <path id="Trazado_716903" data-name="Trazado 716903" d="M179.864,353.47l-1.085,3.052-45.847-14.2,2.015-6.569Z" fill="#38464c"/>
            <path id="Trazado_716904" data-name="Trazado 716904" d="M147.562,356.2v3.551l-14.63-17.43,2.015-6.568Z" fill="#455a64"/>
            <path id="Trazado_716905" data-name="Trazado 716905" d="M184.148,357.716a4.285,4.285,0,1,1-4.284-4.285,4.284,4.284,0,0,1,4.284,4.285" fill="#bfb2ac"/>
            <path id="Trazado_716906" data-name="Trazado 716906" d="M147.926,357.716a4.285,4.285,0,1,1-4.285-4.285,4.284,4.284,0,0,1,4.285,4.285" fill="#bfb2ac"/>
            <path id="Trazado_716907" data-name="Trazado 716907" d="M91.948,357.716a4.285,4.285,0,1,1-4.285-4.285,4.284,4.284,0,0,1,4.285,4.285" fill="#bfb2ac"/>
            <path id="Trazado_716908" data-name="Trazado 716908" d="M165.157,287.649H102.371a5.012,5.012,0,0,1-5.013-5.013v-1.1a5.013,5.013,0,0,1,5.013-5.013h62.786a5.013,5.013,0,0,1,5.013,5.013v1.1a5.013,5.013,0,0,1-5.013,5.013" fill="#455a64"/>
            <rect id="Rectángulo_348046" data-name="Rectángulo 348046" width="4.153" height="127.944" transform="translate(295.34 229.772)" fill="#706865"/>
            <path id="Trazado_716909" data-name="Trazado 716909" d="M262.629,202.812H164.912a5,5,0,0,1-5-5V131.823a5,5,0,0,1,5-5h97.717a5,5,0,0,1,5,5v65.989a5,5,0,0,1-5,5" fill="#263238"/>
            <rect id="Rectángulo_348047" data-name="Rectángulo 348047" width="99.281" height="59.974" transform="translate(164.13 130.93)" fill="#f5f7ff"/>
            <path id="Trazado_716910" data-name="Trazado 716910" d="M259,196.562c0,1.705-1.792,3.087-4,3.087s-4-1.382-4-3.087,1.791-3.088,4-3.088,4,1.382,4,3.088" fill="#918681"/>
            <path id="Trazado_716911" data-name="Trazado 716911" d="M236.07,222.594v-1.352s-1.9-8.411-15.348-8.411-13.175,9.763-13.175,9.763Z" fill="#998e89"/>
            <path id="Trazado_716912" data-name="Trazado 716912" d="M207.384,214.081a13.265,13.265,0,0,0,3.992-.873c1.07-.646,7.473-4.952,8.977-4.262s11.514,3.755,11.166,5.219-1.273,1.323-1.98,1.063-7.974-1.784-8.616-1.527c0,0,7.14,2.6,7.168,4.5s-1.493,2.363-2.17,3.082-1.49,2.5-3.33,2.64-10.817-2.987-12.665-3.13-5.269.115-5.5-.186,2.959-6.531,2.959-6.531" fill="#eea886"/>
            <path id="Trazado_716913" data-name="Trazado 716913" d="M210.058,211.118c-.709-.237-24.706-1.618-30.854-4.88-2.249-1.193-8.972-15.854-8.972-15.854s-10.893-22.95-16.031-25.258c-9.314-1.638-19.118-3.988-19.118-3.988l-17.347-.707s-15.921,3.505-22.191,6.337c-3.607,1.643-5.725,37.312-4.9,42.633.361,2.322,5.342,6.8,10.934,11.165.246,2.408.443,4.618.559,6.411.286,4.436-.809,42.865-.809,42.865s1.559.77,13.4,2.074,41.42-.471,41.606-1.87-5.729-52.068-5.99-54.692c-.4-4.027,1.163-22.636,1.163-22.636,2.23,3,7.917,16.527,13.844,22.965,3.487,3.787,20.752,6.11,24.006,6.218,7.083.236,20.007,1.646,20.384.957.3-.413,1.126-11.47.316-11.74" fill="#dbdff0"/>
            <path id="Trazado_716914" data-name="Trazado 716914" d="M120.936,268.732H89.974a9.625,9.625,0,0,1-9.625-9.625V208.813a9.625,9.625,0,0,1,9.625-9.625h30.962a9.625,9.625,0,0,1,9.625,9.625v50.294a9.625,9.625,0,0,1-9.625,9.625" fill="#455a64"/>
            <path id="Trazado_716915" data-name="Trazado 716915" d="M121.663,284.88c-7.4,0-13.406-2.486-17.848-7.39-10.037-11.082-8.234-30.563-8.152-31.387a2.794,2.794,0,0,1,5.56.55c-.021.222-1.621,17.88,6.744,27.1,3.384,3.729,7.864,5.542,13.7,5.542a2.794,2.794,0,1,1,0,5.587" fill="#38464c"/>
            <path id="Trazado_716916" data-name="Trazado 716916" d="M199.534,138.876H171.886a.717.717,0,0,1-.717-.717v-1.735a.717.717,0,0,1,.717-.717h27.648a.717.717,0,0,1,.717.717v1.735a.717.717,0,0,1-.717.717" fill="#dfe1e8"/>
            <path id="Trazado_716917" data-name="Trazado 716917" d="M199.534,145.672H171.886a.717.717,0,0,1-.717-.717V143.22a.717.717,0,0,1,.717-.717h27.648a.717.717,0,0,1,.717.717v1.735a.717.717,0,0,1-.717.717" fill="#dfe1e8"/>
            <path id="Trazado_716918" data-name="Trazado 716918" d="M197.84,186.127H173.579a2.41,2.41,0,0,1-2.41-2.41V152.708a2.411,2.411,0,0,1,2.41-2.411H197.84a2.412,2.412,0,0,1,2.411,2.411v31.009a2.411,2.411,0,0,1-2.411,2.41" fill="#dfe1e8"/>
            <path id="Trazado_716919" data-name="Trazado 716919" d="M254.1,186.127H209.938a3.815,3.815,0,0,1-3.815-3.816V139.522a3.815,3.815,0,0,1,3.815-3.815H254.1a3.815,3.815,0,0,1,3.816,3.815v42.789a3.815,3.815,0,0,1-3.816,3.816" fill="#dfe1e8"/>
            <path id="Trazado_716920" data-name="Trazado 716920" d="M340.725,251.914a76.948,76.948,0,0,1,34.874,0l-9.2-47.131s-22.97,24.353-25.673,47.131" fill="#b3b7c4"/>
            <path id="Trazado_716921" data-name="Trazado 716921" d="M290.976,170.662s-3.523,2.524-4.565,2.207-2.793.194-3.783.089-3.578-1.342-4.618-1.077c-.425.108-2.782,1.787-3.668,1.915s-2.711.168-2.589.922,1.761,1.161,1.761,1.161-.8.165-.9.864a1.815,1.815,0,0,0,.518,1.835s-.715.693-.652,1.277a2.3,2.3,0,0,0,.842,1.727,2.185,2.185,0,0,0-.019,1.509,1.952,1.952,0,0,0,1.488,1.223s.151,1.441.945,1.636a7.05,7.05,0,0,0,2.138-.1,26.773,26.773,0,0,0,9.655-4.9,32.315,32.315,0,0,1,7.239-4.648Z" fill="#eea987"/>
            <path id="Trazado_716922" data-name="Trazado 716922" d="M363.253,74.232s5.262-3.376,10.007,2.626,3.039,11.77,2.047,17.159c-.983,5.343-5.768,17.569-3.735,22.956s-.565,8.191-.565,8.191-16.318,4.179-14.416-20.366,6.662-30.566,6.662-30.566" fill="#fccca2"/>
            <path id="Trazado_716923" data-name="Trazado 716923" d="M356.261,120.579s-6.213-.85-10.384,2.276-7.023,8.982-8.3,10.818-16.165,18.274-16.906,18.572-10.011,5.412-16.253,9.543-16.08,9.108-16.08,9.108l5.336,6.543s26.285-9.409,31.753-14.5c5.841-5.433,32.847-32.4,32.847-32.4s6.788-5.485-2.016-9.963" fill="#dbdff0"/>
            <path id="Trazado_716924" data-name="Trazado 716924" d="M311.054,349.185s-6.721,9.048-5.8,10.482,7.99,1.639,12.292,0,4.4-12.243,6.351-16.8c.815-1.907-.929-7.537-3.38-7.946a10.335,10.335,0,0,0-5.118.791s2.542,6.418-4.346,13.472" fill="#1d3b54"/>
            <path id="Trazado_716925" data-name="Trazado 716925" d="M315.355,335.64a42.724,42.724,0,0,0-1.931,7.532c-.428,3.051-4.788,9.53-4.583,10.349s5.736,1.562,7.99-.551,3.7-8.256,4.2-11.931a29.507,29.507,0,0,1,1.045-5.113s-4.57-2.539-6.721-.286" fill="#eea886"/>
            <path id="Trazado_716926" data-name="Trazado 716926" d="M324.078,342.072v9.473h-1.229v-7.322Z" fill="#1d3b54"/>
            <path id="Trazado_716927" data-name="Trazado 716927" d="M369.555,349.335s-6.479,8.9-5.558,10.332,7.99,1.639,12.292,0,4.4-12.244,6.352-16.8c.814-1.908-.93-7.538-3.381-7.947a11.008,11.008,0,0,0-5.326.879s2.508,6.48-4.379,13.535" fill="#1d3b54"/>
            <path id="Trazado_716928" data-name="Trazado 716928" d="M373.934,335.8a60.705,60.705,0,0,1-1.331,7.17c-.82,2.971-5.224,9.731-5.02,10.551s5.737,1.562,7.99-.551,3.995-8.229,4.2-11.931a19.708,19.708,0,0,0-.513-6.117s-3.175-1.376-5.326.878" fill="#eea886"/>
            <path id="Trazado_716929" data-name="Trazado 716929" d="M382.821,342.072v9.473h-1.229v-7.322Z" fill="#1d3b54"/>
            <path id="Trazado_716930" data-name="Trazado 716930" d="M341.559,188.5s-5.767,26.83-7.092,33.585-5.033,39.471-5.43,45.034-6.018,26.525-5.753,28.511-8.649,41.412-8.649,41.412,9.174,2.5,10.719.814c1.311-1.428,14.493-37.479,14.493-47.413,0-13.731,10.358-31.215,11.668-34.286,12.171-28.54,9.571-37.708,11.161-39.562s1.727,1.146,2.654,5.252,2.913,39.6,4.105,44.107.266,19.735.929,27.418,1.424,42.1,1.424,42.1,6.646,1.528,9.8.055c.911-.425,3.209-38.344,3.341-47.483s.274-21.744.53-25.7c2.454-37.873,6.074-43.248-1.014-70.086-13.6-51.479-42.889-3.765-42.889-3.765" fill="#3b3b40"/>
            <path id="Trazado_716931" data-name="Trazado 716931" d="M356.488,117.011s-6.02,2.843-8.11,3.261-10.2,10.952-11.621,14.8,0,9.615,2.926,16.388.167,9.029,1.5,15.8.069,22.645-.182,26.408,30.764,8.541,42.686-3.471c0,0-6.469-12.151-7.473-13.824s-.167-10.785.753-13.126S384.012,141,384.012,141s5.008-15.289.484-18.8c-3.929-3.052-14.639-4.14-16.562-4.809s-7.517-.96-11.446-.375" fill="#ffa031"/>
            <path id="Trazado_716932" data-name="Trazado 716932" d="M354.565,130.43l-3.658-4.283,3.177-11.277a74.5,74.5,0,0,1,.481,15.56" fill="#d6c5be"/>
            <path id="Trazado_716933" data-name="Trazado 716933" d="M353.615,110.064s1.2,11.044.95,14.638c0,0,6.255,6.27,13.369-7.316a18.653,18.653,0,0,1-.74-13.229c2.253-7.629-13.579,5.907-13.579,5.907" fill="#eea886"/>
            <path id="Trazado_716934" data-name="Trazado 716934" d="M354.565,124.7v5.727l7.2-5.379Z" fill="#eea886"/>
            <path id="Trazado_716935" data-name="Trazado 716935" d="M354.565,130.43l2.989-3.7L367.622,116.7l3.257,3.137Z" fill="#d6c5be"/>
            <path id="Trazado_716936" data-name="Trazado 716936" d="M350.908,126.147l-4.609,1.274,7.785-12.551Z" fill="#fae6de"/>
            <path id="Trazado_716937" data-name="Trazado 716937" d="M357.554,126.73l4.21,5.518,8.6-14.684-2.994-1.533Z" fill="#fae6de"/>
            <path id="Trazado_716938" data-name="Trazado 716938" d="M353.863,112.5l.2,2.185s4.974.96,11.48-6.975c0,0-4.611,5.624-11.684,4.79" fill="#a77860"/>
            <path id="Trazado_716939" data-name="Trazado 716939" d="M355.124,112.656c-1.958-.072-7.426-.711-10.123-13.307-3.3-15.386,3.986-23.367,10.221-24.846s11.984.689,15.176,8.731c0,0,2.334,6.271-1.453,17.441s-11.724,12.058-13.821,11.981" fill="#eea987"/>
            <path id="Trazado_716940" data-name="Trazado 716940" d="M360.126,84.483s-8.373.52-16.154,12.212c0,0-3.644-14.067,5.877-20.488s16.19-.9,18.513,1.9c0,0,3.333.765,3.438,7.087s4.355,15.861-4.973,20.385c0,0,.889-7.216.067-8.867s-3.671-.536-6.768-12.229" fill="#fccca2"/>
            <path id="Trazado_716941" data-name="Trazado 716941" d="M366.437,93.909c.422-1.094,1.573-1.535,2.206-.362s-.121,5.723-1.811,6.22-1.251-3.641-.395-5.858" fill="#eea987"/>
            <path id="Trazado_716942" data-name="Trazado 716942" d="M370.364,117.564s-9.456,11.312-10.448,35.093,7.449,99.736,6.923,109l24.524-11.868s-.142-38.324-8.353-62.435c-9.634-28.29,1.323-36.919,2.324-54.321,0,0-.455-12.741-7.556-13.9-6.668-1.086-7.414-1.573-7.414-1.573" fill="#dbdff0"/>
            <path id="Trazado_716943" data-name="Trazado 716943" d="M351.36,119.26s-3.847.447-5.062,1.885-8.815,10.2-9.37,12.778-2.326,4.5,1.32,16.519c3.265,10.759,2.444,22.812,1.768,27.637S327.6,248.118,328.241,249.79s5.534,5.663,5.534,5.663,10.516-64.344,10.406-75.09-4.32-42.742,7.179-61.1" fill="#dbdff0"/>
            <path id="Trazado_716944" data-name="Trazado 716944" d="M270.915,153.215l8.2,42.221,27.1-5.264-7.142-42.426Z" fill="#616161"/>
            <path id="Trazado_716945" data-name="Trazado 716945" d="M272.949,155.271l7.283,37.5,24.067-4.675-6.342-37.68Z" fill="#e0cec7"/>
            <path id="Trazado_716946" data-name="Trazado 716946" d="M280.579,154.756l-.511-2.632,9.73-1.89.891,2.559Z" fill="#616161"/>
            <path id="Trazado_716947" data-name="Trazado 716947" d="M273.964,175.536s4.853-1.584,6.291-.673-.283,1.577-.283,1.577,1.691-.687,2.359.578-1.386,1.941-1.386,1.941a1.405,1.405,0,0,1,1.6,1.3c.178,1.486-1.648,1.665-1.648,1.665s2.118.836.782,2.189c-2.255,2.284-5.865,1.931-5.865,1.931a1.5,1.5,0,0,1-1.2-1.579,2.048,2.048,0,0,1-1.425-2.851s-1.892-1.718-.233-3.032a1.792,1.792,0,0,1,1.015-3.048" fill="#db9c7c"/>
            <path id="Trazado_716948" data-name="Trazado 716948" d="M391.438,199.773s.977,4.567-1.02,7.656c-.763,1.18-.029,10.11.04,11.225.057.934.9,1.732,1.246,1.539s.422-5.135.948-6.729c.442-1.338.833-1.842,1.075-1.415s-.579,7.6-1.048,9.978.119,7.381,1.353,6.573,5.353-11.923,5.048-15.634a48.661,48.661,0,0,0-1.709-8.347Z" fill="#eea886"/>
            <path id="Trazado_716949" data-name="Trazado 716949" d="M371.812,118.235s9.793-.6,14.7,5.113,4.644,12.5,5.894,15.45,4.109,15.629,4.734,17.683,1.235,13.6,2.128,22.888.712,26.631.712,26.631l-9.369-1.7s-.378-16.532-.616-26.118-8.038-26.525-10.985-33.937-14.68-21.36-7.2-26.011" fill="#dbdff0"/>
            <path id="Trazado_716950" data-name="Trazado 716950" d="M5.007,194.379c4.941-2.363,9.858,13.366,9.858,13.366,8.4,11.1,20.134-3.666,18.987,12.923C31.844,249.7,67.263,229.8,50.923,260.1s14.428,17.136,4.273,41.572,3.007,53.581-12.272,41.6c0,0-13.454-29.5-27.328-38.631s8.312-19.959,3.971-32.356c-6.306-18.008-21.5-17.3-10.544-36.652s-20.812-33.226-4.016-41.259" fill="#3d8dc0"/>
            <path id="Trazado_716951" data-name="Trazado 716951" d="M47.762,332.174c-6.623-4.658-14.374-37.117-14.837-56.451-.237-9.9-3.164-14.029-5.747-17.669-2.469-3.48-4.6-6.485-3.359-13.385,2.374-13.187-3.867-18.879-3.93-18.935l.722-.823c.278.243,6.777,6.114,4.286,19.952-1.16,6.447.753,9.144,3.175,12.557,2.541,3.582,5.7,8.039,5.948,18.277.5,20.748,8.421,51.4,14.372,55.581Z" fill="#fff"/>
            <path id="Trazado_716952" data-name="Trazado 716952" d="M50.24,334.58a14.053,14.053,0,0,1-2.8-.3,6.107,6.107,0,0,1-4.974-4c-1.786-5.106,2.351-13.4,5.708-17.4a25.522,25.522,0,0,0,5.076-16.455c-.1-1.6-.266-3.072-.412-4.376-.422-3.767-.727-6.489.891-8.307,1.426-1.6,4.179-2.3,9.2-2.319,8.814-.042,12.3-3.691,15.1-6.624a15.974,15.974,0,0,1,3.677-3.166c4.393-2.4,9.046-2.751,11.063-.838.959.908,1.768,2.687.18,6.006a23.188,23.188,0,0,1-4.844,6.5c-2.035,2.076-3.379,3.447-2.679,6.18.164.642.354,1.29.544,1.94,1.359,4.648,2.9,9.916-5.055,13.49-1.688.759-3.226,1.363-4.583,1.895-5.553,2.179-8.9,3.495-12.688,11.481-.732,1.546-1.379,3.011-2,4.428-2.983,6.761-5.24,11.874-11.4,11.874m31.995-61.991a15,15,0,0,0-3.41,2.962c-2.944,3.082-6.607,6.919-15.887,6.962-4.621.022-7.209.624-8.392,1.953-1.293,1.453-1.011,3.971-.62,7.457.147,1.315.314,2.806.416,4.428a26.158,26.158,0,0,1-5.329,17.227c-3.323,3.958-7.088,11.834-5.515,16.334a5.083,5.083,0,0,0,4.158,3.291c7.491,1.513,9.559-3.173,12.986-10.939.628-1.423,1.278-2.9,2.016-4.455,3.97-8.379,7.672-9.832,13.278-12.032,1.345-.528,2.87-1.126,4.534-1.874,7.084-3.183,5.805-7.555,4.453-12.183-.194-.663-.387-1.323-.554-1.976-.853-3.331.829-5.047,2.957-7.219a21.945,21.945,0,0,0,4.639-6.2c.72-1.5,1.313-3.547.055-4.739-1.655-1.569-5.862-1.138-9.785,1" fill="#3d8dc0"/>
            <path id="Trazado_716953" data-name="Trazado 716953" d="M47.558,340.9l-1.094-.056c.054-1.028,1.434-25.252,11.16-32.341,10.671-7.778,14.035-16.138,15.637-21.748,1.888-6.611,11.5-8.377,11.906-8.449l.19,1.079c-.093.017-9.343,1.721-11.042,7.672-1.647,5.766-5.1,14.353-16.046,22.33-9.309,6.785-10.7,31.268-10.711,31.513" fill="#3d8dc0"/>
            <path id="Trazado_716954" data-name="Trazado 716954" d="M69.8,218.825c-6.913-2.37-5.477,10.954-8.4,20.812s-32.5,4.3-20.082,28.987-15.7,8.256-7.3,29.8.73,44.582,9.858,38.722S49,304.156,58.494,300.932s11.042-6.983,1.643-15.746,24.629-17.462,16.231-35.157,1.415-28.465-6.572-31.2" fill="#4db1f0"/>
            <path id="Trazado_716955" data-name="Trazado 716955" d="M48.107,336.111c-.869-3.687-8.294-36.142-1.366-40.065,6.106-3.457,5.955-16.906,5-29.6-.844-11.242,13.594-16.5,14.209-16.714l.366,1.032c-.142.051-14.264,5.194-13.483,15.6C53.814,279.4,53.919,293.24,47.28,297c-5.26,2.979-.417,29.062,1.893,38.861Z" fill="#fff"/>
            <path id="Trazado_716956" data-name="Trazado 716956" d="M63.822,324.555,53.952,362H31.9l-9.87-37.446Z" fill="#ffa031"/>
          </g>
        </g>
      </g>
    </g>
    <g id="Grupo_1009056" data-name="Grupo 1009056" transform="translate(3716.933 11683.642)">
      <g id="Grupo_1009055" data-name="Grupo 1009055" transform="translate(-3402 -4822)">
        <g id="Grupo_1009054" data-name="Grupo 1009054" transform="translate(0 0)">
          <path id="Trazado_716957" data-name="Trazado 716957" d="M27.533,41.759c-8.174,0-14.833-6.889-14.833-15.384.046-8.22,13.547-24.11,14.144-24.753a.914.914,0,0,1,.735-.321,1.084,1.084,0,0,1,.735.321c.6.689,14.053,16.578,14.053,24.8A15.117,15.117,0,0,1,27.533,41.759Zm0-38.025c-2.8,3.444-12.859,16.165-12.859,22.64,0,7.44,5.786,13.456,12.859,13.456,7.118,0,12.859-6.016,12.859-13.456C40.438,19.9,30.381,7.178,27.533,3.734Z" transform="translate(-12.7 -1.3)" fill="#3076b6"/>
        </g>
      </g>
      <path id="Trazado_716958" data-name="Trazado 716958" d="M42.951,52.527a1.175,1.175,0,0,0-.964-1.1,1.2,1.2,0,0,0-1.286.689,2.37,2.37,0,0,1-2.2,1.424,2.337,2.337,0,0,1-2.158-1.378,1,1,0,0,0-.643-.643,1.188,1.188,0,0,0-1.515.6,2.37,2.37,0,0,1-2.2,1.424,2.337,2.337,0,0,1-2.158-1.378,1.064,1.064,0,0,0-.643-.689,1.188,1.188,0,0,0-1.515.6,2.418,2.418,0,0,1-4.409,0,1.174,1.174,0,0,0-2.25.413c0,.23-.138,5.6,3.307,9.093a10.241,10.241,0,0,0,7.623,2.939,10.238,10.238,0,0,0,7.715-2.985c3.49-3.49,3.307-8.771,3.307-9Z" transform="translate(-3419.188 -4850.372)" fill="#4db1f0"/>
      <path id="Trazado_716959" data-name="Trazado 716959" d="M42.691,52.246a11.717,11.717,0,0,1-2.847,5.695,10.238,10.238,0,0,1-7.715,2.985,10.067,10.067,0,0,1-7.623-2.939A12,12,0,0,1,21.566,52.2a.981.981,0,0,0-.367.781c0,.23-.138,5.6,3.307,9.093a10.241,10.241,0,0,0,7.623,2.939,10.238,10.238,0,0,0,7.715-2.985c3.352-3.536,3.169-8.817,3.169-9.047A.914.914,0,0,0,42.691,52.246Z" transform="translate(-3419.296 -4850.825)" fill="#bee6ff"/>
      <path id="Trazado_716960" data-name="Trazado 716960" d="M20.273,27.456c0-5.695,6.934-15.568,10.884-20.758-1.607-2.067-2.709-3.4-2.709-3.4S14.9,19.511,14.9,27.456s6.062,14.42,13.593,14.42A13.228,13.228,0,0,0,31.2,41.6a14.253,14.253,0,0,1-10.93-14.144Z" transform="translate(-3415.89 -4824.381)" fill="#474c54" opacity="0.1"/>
    </g>
  </g>
</svg>
