<svg xmlns="http://www.w3.org/2000/svg" width="135" height="136" viewBox="0 0 135 136">
  <g id="Grupo_1009232" data-name="Grupo 1009232" transform="translate(-991 -3547)">
    <g id="Grupo_1008245" data-name="Grupo 1008245" transform="translate(158 1809)">
      <ellipse id="Elipse_154" data-name="Elipse 154" cx="57.5" cy="58" rx="57.5" ry="58" transform="translate(843 1748)" fill="#fff"/>
      <g id="Elipse_157" data-name="Elipse 157" transform="translate(843 1748)" fill="none" stroke="#fff" stroke-linejoin="round" stroke-width="10" opacity="0.25">
        <ellipse cx="57.5" cy="58" rx="57.5" ry="58" stroke="none"/>
        <ellipse cx="57.5" cy="58" rx="62.5" ry="63" fill="none"/>
      </g>
    </g>
    <g id="_008-check_list" data-name="008-check list" transform="translate(1023 3578.999)">
      <path id="Trazado_717075" data-name="Trazado 717075" d="M45.617,11.6h7.8a3.194,3.194,0,0,1,3.194,3.194V66.743a3.194,3.194,0,0,1-3.194,3.194H10.176a3.194,3.194,0,0,1-3.194-3.194V14.8a3.194,3.194,0,0,1,3.194-3.2h7.791" transform="translate(-3.305 -2.367)" fill="#e7aa6c"/>
      <path id="Trazado_717076" data-name="Trazado 717076" d="M56.61,14.792V66.736a3.2,3.2,0,0,1-3.193,3.2H10.171A3.2,3.2,0,0,1,7.03,67.314a2.7,2.7,0,0,0,.41.032H50.676a3.2,3.2,0,0,0,3.193-3.2V12.2a3.255,3.255,0,0,0-.053-.567,3.182,3.182,0,0,1,2.794,3.162Z" transform="translate(-3.303 -2.366)" fill="#d09865"/>
      <path id="Trazado_717077" data-name="Trazado 717077" d="M45.383,16.33h6.144v48.4H11.6V16.33h6.133" transform="translate(-3.073 -2.129)" fill="#eeefee"/>
      <g id="Grupo_1009065" data-name="Grupo 1009065" transform="translate(0 13.676)">
        <path id="Trazado_717078" data-name="Trazado 717078" d="M51.552,65.28H11.625a.525.525,0,0,1-.525-.525v-48.4a.525.525,0,0,1,.525-.525h6.133a.525.525,0,0,1,0,1.05H12.15V64.23H51.027V16.88H45.408a.525.525,0,0,1,0-1.05h6.144a.525.525,0,0,1,.525.525v48.4A.525.525,0,0,1,51.552,65.28Z" transform="translate(-3.098 -15.83)" fill="#323c6b"/>
        <path id="Trazado_717079" data-name="Trazado 717079" d="M19.558,30.153A.525.525,0,0,1,19.186,30l-2.179-2.182a.525.525,0,1,1,.743-.743l1.806,1.8,5.451-5.451a.525.525,0,1,1,.743.743l-5.823,5.821a.525.525,0,0,1-.369.16Z" transform="translate(-2.808 -15.454)" fill="#323c6b"/>
        <path id="Trazado_717080" data-name="Trazado 717080" d="M19.558,42.97a.525.525,0,0,1-.372-.153l-2.179-2.178a.525.525,0,1,1,.743-.743L19.556,41.7l5.451-5.451a.525.525,0,1,1,.743.743l-5.823,5.823a.525.525,0,0,1-.369.153Z" transform="translate(-2.808 -14.808)" fill="#323c6b"/>
        <path id="Trazado_717081" data-name="Trazado 717081" d="M18.417,55.786a.525.525,0,0,1-.372-.9l5.823-5.823a.525.525,0,1,1,.743.743l-5.823,5.823a.525.525,0,0,1-.371.154Z" transform="translate(-2.755 -14.162)" fill="#323c6b"/>
        <path id="Trazado_717082" data-name="Trazado 717082" d="M24.24,55.786a.525.525,0,0,1-.372-.153L18.045,49.81a.525.525,0,1,1,.743-.743l5.824,5.819a.525.525,0,0,1-.372.9Z" transform="translate(-2.755 -14.161)" fill="#323c6b"/>
        <path id="Trazado_717083" data-name="Trazado 717083" d="M44.592,25.7H29.754a.525.525,0,0,1,0-1.05H44.592a.525.525,0,0,1,0,1.05Z" transform="translate(-2.183 -15.385)" fill="#323c6b"/>
        <path id="Trazado_717084" data-name="Trazado 717084" d="M39.012,30.641H29.754a.525.525,0,0,1,0-1.05h9.257a.525.525,0,0,1,0,1.05Z" transform="translate(-2.183 -15.136)" fill="#323c6b"/>
        <path id="Trazado_717085" data-name="Trazado 717085" d="M44.592,37.45H29.754a.525.525,0,1,1,0-1.05H44.592a.525.525,0,0,1,0,1.05Z" transform="translate(-2.183 -14.793)" fill="#323c6b"/>
        <path id="Trazado_717086" data-name="Trazado 717086" d="M39.012,42.387H29.754a.525.525,0,1,1,0-1.05h9.257a.525.525,0,0,1,0,1.05Z" transform="translate(-2.183 -14.544)" fill="#323c6b"/>
        <path id="Trazado_717087" data-name="Trazado 717087" d="M44.592,50.568H29.754a.525.525,0,1,1,0-1.05H44.592a.525.525,0,0,1,0,1.05Z" transform="translate(-2.183 -14.131)" fill="#323c6b"/>
        <path id="Trazado_717088" data-name="Trazado 717088" d="M39.012,55.506H29.754a.525.525,0,1,1,0-1.05h9.257a.525.525,0,0,1,0,1.05Z" transform="translate(-2.183 -13.882)" fill="#323c6b"/>
        <path id="Trazado_717089" data-name="Trazado 717089" d="M4.007,24.572a.525.525,0,0,1-.525-.525v-.459a.525.525,0,1,1,1.05,0v.459A.525.525,0,0,1,4.007,24.572Z" transform="translate(-3.482 -15.465)" fill="#323c6b"/>
        <path id="Trazado_717090" data-name="Trazado 717090" d="M4.007,33.628a.525.525,0,0,1-.525-.525V26.275a.525.525,0,1,1,1.05,0V33.1A.525.525,0,0,1,4.007,33.628Z" transform="translate(-3.482 -15.33)" fill="#323c6b"/>
      </g>
      <path id="Trazado_717091" data-name="Trazado 717091" d="M45.09,12.168v5.369A1.46,1.46,0,0,1,43.629,19H18.9a1.46,1.46,0,0,1-1.46-1.46V12.168a3.425,3.425,0,0,1,3.425-3.427h5.648l.7-2.4a4.214,4.214,0,0,1,8.093.007L36,8.743h5.663a3.425,3.425,0,0,1,3.427,3.425Z" transform="translate(-2.778 -2.785)" fill="#9297ab"/>
      <path id="Trazado_717092" data-name="Trazado 717092" d="M44.6,12.165v5.368a1.457,1.457,0,0,1-1.46,1.46h-.6V14.045a3.425,3.425,0,0,0-3.424-3.424H33.467l-.693-2.384A4.216,4.216,0,0,0,28.73,5.19h-.011a4.141,4.141,0,0,0-1.649.347,4.2,4.2,0,0,1,7.752.819l.693,2.384h5.662A3.425,3.425,0,0,1,44.6,12.165Z" transform="translate(-2.292 -2.786)" fill="#84879c"/>
      <ellipse id="Elipse_8385" data-name="Elipse 8385" cx="1.707" cy="1.707" rx="1.707" ry="1.707" transform="translate(26.784 3.285)" fill="#323c6b"/>
      <path id="Trazado_717093" data-name="Trazado 717093" d="M68.948,64.6a.525.525,0,0,1-.459-.269l-.122-.218a.525.525,0,0,1,.917-.512l.122.218a.525.525,0,0,1-.458.782Z" transform="translate(-0.213 0.242)" fill="#323c6b"/>
      <path id="Trazado_717094" data-name="Trazado 717094" d="M70.359,72.457a.525.525,0,0,1-.45-.8A4.6,4.6,0,0,0,70,67.04l-.538-.964a.525.525,0,0,1,.917-.512l.543.974a5.7,5.7,0,0,1-.105,5.672A.525.525,0,0,1,70.359,72.457Z" transform="translate(-0.158 0.341)" fill="#323c6b"/>
      <path id="Trazado_717095" data-name="Trazado 717095" d="M53.442,70.486H10.2a3.724,3.724,0,0,1-3.72-3.72V14.823A3.724,3.724,0,0,1,10.2,11.1h7.791a.525.525,0,1,1,0,1.05H10.2A2.671,2.671,0,0,0,7.531,14.82V66.768A2.671,2.671,0,0,0,10.2,69.437H53.442a2.672,2.672,0,0,0,2.669-2.669V14.823a2.672,2.672,0,0,0-2.669-2.672h-7.8a.525.525,0,0,1,0-1.05h7.8a3.724,3.724,0,0,1,3.72,3.72V66.768A3.724,3.724,0,0,1,53.442,70.486Z" transform="translate(-3.331 -2.393)" fill="#323c6b"/>
      <path id="Trazado_717096" data-name="Trazado 717096" d="M47.7,39.735H58.173V50.568H47.7Z" transform="translate(-1.252 -0.949)" fill="#e1e6e9"/>
      <path id="Trazado_717097" data-name="Trazado 717097" d="M60.024,38.077a1.831,1.831,0,0,1-1.765,1.834H47.785a1.831,1.831,0,0,1,.062-3.661H58.2a1.826,1.826,0,0,1,1.826,1.827Z" transform="translate(-1.337 -1.124)" fill="#9297ab"/>
      <path id="Trazado_717098" data-name="Trazado 717098" d="M59.539,38.078A1.792,1.792,0,0,1,59,39.37a1.852,1.852,0,0,1-1.229.546h-2.1A1.852,1.852,0,0,0,56.9,39.37a1.792,1.792,0,0,0,.536-1.292A1.829,1.829,0,0,0,55.61,36.25h2.1a1.829,1.829,0,0,1,1.828,1.828Z" transform="translate(-0.853 -1.124)" fill="#84879c"/>
      <path id="Trazado_717099" data-name="Trazado 717099" d="M58.7,50.045H48.222L37.589,69.1a2.016,2.016,0,0,0,1.779,2.961H67.55A2.016,2.016,0,0,0,69.329,69.1Z" transform="translate(-1.774 -0.429)" fill="#e1e6e9"/>
      <path id="Trazado_717100" data-name="Trazado 717100" d="M55.25,39.74h2.542V50.57H55.25Z" transform="translate(-0.871 -0.948)" fill="#d5d6db"/>
      <path id="Trazado_717101" data-name="Trazado 717101" d="M66.647,72.057H64.105a2.013,2.013,0,0,0,1.775-2.962L55.271,50.051H55.25V50.04h2.542v.011l10.63,19.044a2.016,2.016,0,0,1-1.775,2.962Z" transform="translate(-0.871 -0.429)" fill="#d5d6db"/>
      <ellipse id="Elipse_8386" data-name="Elipse 8386" cx="0.007" cy="0.012" rx="0.007" ry="0.012" transform="translate(54.351 49.637) rotate(-63.435)" fill="#e1e6e9"/>
      <path id="Trazado_717102" data-name="Trazado 717102" d="M65.417,68.523H41.11l4.16-7.448a4.709,4.709,0,0,0,2.889.179,11.582,11.582,0,0,0,2.994-2.027c2.3-1.639,5.389-1.828,8.3-1.408Z" transform="translate(-1.584 -0.046)" fill="#4db1f0"/>
      <path id="Trazado_717103" data-name="Trazado 717103" d="M64.644,68.523h-2.7L56.44,57.63a16.078,16.078,0,0,1,2.237.189Z" transform="translate(-0.811 -0.046)" fill="#3492ce"/>
      <path id="Trazado_717104" data-name="Trazado 717104" d="M58.2,51.119H47.725a.525.525,0,0,1-.525-.525V39.76a.525.525,0,0,1,.525-.525H58.2a.525.525,0,0,1,.525.525V50.593A.525.525,0,0,1,58.2,51.119Zm-9.949-1.05h9.423V40.285H48.25Z" transform="translate(-1.277 -0.974)" fill="#323c6b"/>
      <path id="Trazado_717105" data-name="Trazado 717105" d="M67.575,72.607H39.394a2.541,2.541,0,0,1-2.244-3.733L47.785,49.813a.525.525,0,0,1,.459-.269H58.722a.525.525,0,0,1,.459.269L69.809,68.865a2.54,2.54,0,0,1-2.234,3.743ZM48.552,50.594,38.073,69.376a1.491,1.491,0,0,0,1.321,2.181H67.575a1.491,1.491,0,0,0,1.316-2.189L58.413,50.594Z" transform="translate(-1.799 -0.454)" fill="#323c6b"/>
      <path id="Trazado_717106" data-name="Trazado 717106" d="M65.442,69.074H41.135a.525.525,0,0,1-.459-.782l4.16-7.448a.525.525,0,0,1,.63-.241,4.169,4.169,0,0,0,2.565.172,6.07,6.07,0,0,0,1.939-1.243c.3-.245.591-.49.9-.71,2.132-1.518,5.052-2.024,8.678-1.5a.525.525,0,0,1,.383.264l5.966,10.7a.525.525,0,0,1-.459.782ZM42.03,68.023H64.549l-5.4-9.694c-2.28-.3-5.377-.277-7.662,1.351-.289.21-.566.436-.84.664a6.943,6.943,0,0,1-2.3,1.437,4.945,4.945,0,0,1-2.8-.051Z" transform="translate(-1.61 -0.072)" fill="#323c6b"/>
      <path id="Trazado_717107" data-name="Trazado 717107" d="M47.81,40.461a2.358,2.358,0,0,1,.061-4.714H58.222a2.356,2.356,0,1,1,.079,4.711Zm.062-3.661a1.306,1.306,0,0,0-.045,2.611H58.283a1.306,1.306,0,1,0-.062-2.61Z" transform="translate(-1.362 -1.15)" fill="#323c6b"/>
      <path id="Trazado_717108" data-name="Trazado 717108" d="M43.655,19.548H18.925a1.988,1.988,0,0,1-1.985-1.985V12.193a3.956,3.956,0,0,1,3.95-3.952h5.252l.591-2.015a4.742,4.742,0,0,1,9.105,0l.582,2.012h5.268A3.956,3.956,0,0,1,45.64,12.19v5.369a1.988,1.988,0,0,1-1.985,1.988ZM20.89,9.292a2.9,2.9,0,0,0-2.9,2.9v5.369a.936.936,0,0,0,.935.935H43.655a.936.936,0,0,0,.935-.935V12.193a2.906,2.906,0,0,0-2.9-2.9H36.031a.525.525,0,0,1-.5-.379l-.692-2.39a3.691,3.691,0,0,0-7.087,0l-.7,2.394a.525.525,0,0,1-.5.377Z" transform="translate(-2.803 -2.811)" fill="#323c6b"/>
      <path id="Trazado_717109" data-name="Trazado 717109" d="M20.425,16.044a.686.686,0,0,1,0-1.371h7.861a.686.686,0,1,1,0,1.371Z" transform="translate(-2.661 -2.213)" fill="#fff"/>
      <path id="Trazado_717110" data-name="Trazado 717110" d="M30.4,16.037a.686.686,0,0,1,0-1.371h.274a.686.686,0,1,1,.011,1.371h-.274Z" transform="translate(-2.158 -2.213)" fill="#fff"/>
    </g>
  </g>
</svg>
