<svg xmlns="http://www.w3.org/2000/svg" xmlns:xlink="http://www.w3.org/1999/xlink" width="400" height="249" viewBox="0 0 400 249">
  <defs>
    <clipPath id="clip-path">
      <rect id="Rectángulo_347991" data-name="Rectángulo 347991" width="387.703" height="249" fill="none"/>
    </clipPath>
    <clipPath id="clip-path-2">
      <path id="Trazado_716773" data-name="Trazado 716773" d="M164.686,69.949a30.956,30.956,0,1,1,25.585,0,31.047,31.047,0,0,1-25.585,0M144.8,41.752a32.767,32.767,0,0,0,19.174,29.767,32.769,32.769,0,0,0,27.013,0A32.684,32.684,0,1,0,144.8,41.752" fill="none"/>
    </clipPath>
    <linearGradient id="linear-gradient" x1="-2.215" y1="3.671" x2="-2.2" y2="3.671" gradientUnits="objectBoundingBox">
      <stop offset="0" stop-color="#d3dae0"/>
      <stop offset="1" stop-color="#fff"/>
    </linearGradient>
    <clipPath id="clip-path-4">
      <path id="Trazado_716774" data-name="Trazado 716774" d="M164.034,27.7v1.241h.477V56.392a3.486,3.486,0,1,0,6.973,0V28.938h.476V27.7Z" fill="none"/>
    </clipPath>
    <linearGradient id="linear-gradient-2" x1="-20.696" y1="6.877" x2="-20.569" y2="6.877" xlink:href="#linear-gradient"/>
    <clipPath id="clip-path-5">
      <path id="Trazado_716775" data-name="Trazado 716775" d="M173.516,27.7v1.241h.476V56.392a3.487,3.487,0,1,0,6.974,0V28.938h.476V27.7Z" fill="none"/>
    </clipPath>
    <linearGradient id="linear-gradient-3" x1="-21.892" y1="6.877" x2="-21.766" y2="6.877" xlink:href="#linear-gradient"/>
    <clipPath id="clip-path-6">
      <path id="Trazado_716776" data-name="Trazado 716776" d="M183,27.7v1.241h.477V56.392a3.486,3.486,0,1,0,6.972,0V28.938h.477V27.7Z" fill="none"/>
    </clipPath>
    <linearGradient id="linear-gradient-4" x1="-23.088" y1="6.877" x2="-22.962" y2="6.877" xlink:href="#linear-gradient"/>
  </defs>
  <g id="Grupo_1009058" data-name="Grupo 1009058" transform="translate(-1020 -6439)">
    <g id="Grupo_1009046" data-name="Grupo 1009046">
      <rect id="Rectángulo_347302" data-name="Rectángulo 347302" width="400" height="249" transform="translate(1020 6439)" fill="none"/>
      <g id="Grupo_1009045" data-name="Grupo 1009045" transform="translate(1026 6439)">
        <g id="Grupo_1009032" data-name="Grupo 1009032">
          <g id="Grupo_1009031" data-name="Grupo 1009031" clip-path="url(#clip-path)">
            <path id="Trazado_716772" data-name="Trazado 716772" d="M374.4,95.764H143.082a13.308,13.308,0,0,1-13.308-13.308V13.307A13.308,13.308,0,0,1,143.082,0H374.4A13.307,13.307,0,0,1,387.7,13.307V82.456A13.308,13.308,0,0,1,374.4,95.764" fill="#e0eaf4"/>
            <rect id="Rectángulo_347982" data-name="Rectángulo 347982" width="31.522" height="3.163" transform="translate(334.185 27.491)" fill="#4db1f0"/>
            <rect id="Rectángulo_347983" data-name="Rectángulo 347983" width="36.231" height="3.163" transform="translate(334.184 37.281)" fill="#4db1f0"/>
            <rect id="Rectángulo_347984" data-name="Rectángulo 347984" width="18.744" height="3.163" transform="translate(334.131 47.018)" fill="#4db1f0"/>
            <rect id="Rectángulo_347985" data-name="Rectángulo 347985" width="28.88" height="3.163" transform="translate(334.131 56.754)" fill="#4db1f0"/>
            <rect id="Rectángulo_347986" data-name="Rectángulo 347986" width="28.096" height="3.461" transform="translate(163.431 86.967)" fill="#d6d6d6"/>
            <rect id="Rectángulo_347987" data-name="Rectángulo 347987" width="41.729" height="3.461" transform="translate(156.614 80.802)" fill="#d6d6d6"/>
            <rect id="Rectángulo_347988" data-name="Rectángulo 347988" width="67.573" height="4.356" transform="translate(222.878 22.559)" fill="#fff"/>
            <rect id="Rectángulo_347989" data-name="Rectángulo 347989" width="26.26" height="4.356" transform="translate(297.711 22.559)" fill="#fff"/>
            <rect id="Rectángulo_347990" data-name="Rectángulo 347990" width="31.731" height="4.356" transform="translate(222.877 12.639)" fill="#fff"/>
          </g>
        </g>
        <g id="Grupo_1009034" data-name="Grupo 1009034">
          <g id="Grupo_1009033" data-name="Grupo 1009033" clip-path="url(#clip-path-2)">
            <rect id="Rectángulo_347992" data-name="Rectángulo 347992" width="65.361" height="65.361" transform="translate(144.798 9.071)" fill="url(#linear-gradient)"/>
          </g>
        </g>
        <g id="Grupo_1009036" data-name="Grupo 1009036">
          <g id="Grupo_1009035" data-name="Grupo 1009035" clip-path="url(#clip-path)">
            <rect id="Rectángulo_347993" data-name="Rectángulo 347993" width="1.725" height="41.838" transform="translate(227.68 35.169)" fill="#c9e0ff"/>
            <rect id="Rectángulo_347994" data-name="Rectángulo 347994" width="1.725" height="41.838" transform="translate(235.608 35.169)" fill="#c9e0ff"/>
            <rect id="Rectángulo_347995" data-name="Rectángulo 347995" width="1.725" height="41.838" transform="translate(243.535 35.169)" fill="#c9e0ff"/>
            <rect id="Rectángulo_347996" data-name="Rectángulo 347996" width="1.725" height="41.838" transform="translate(251.463 35.169)" fill="#c9e0ff"/>
            <rect id="Rectángulo_347997" data-name="Rectángulo 347997" width="1.725" height="41.838" transform="translate(259.391 35.169)" fill="#c9e0ff"/>
            <rect id="Rectángulo_347998" data-name="Rectángulo 347998" width="1.725" height="41.838" transform="translate(267.319 35.169)" fill="#c9e0ff"/>
            <rect id="Rectángulo_347999" data-name="Rectángulo 347999" width="1.725" height="41.838" transform="translate(275.247 35.169)" fill="#c9e0ff"/>
            <rect id="Rectángulo_348000" data-name="Rectángulo 348000" width="1.725" height="41.838" transform="translate(283.174 35.169)" fill="#c9e0ff"/>
            <rect id="Rectángulo_348001" data-name="Rectángulo 348001" width="1.725" height="41.838" transform="translate(291.102 35.169)" fill="#c9e0ff"/>
            <rect id="Rectángulo_348002" data-name="Rectángulo 348002" width="1.725" height="41.838" transform="translate(299.03 35.169)" fill="#c9e0ff"/>
            <rect id="Rectángulo_348003" data-name="Rectángulo 348003" width="1.725" height="41.838" transform="translate(306.958 35.169)" fill="#c9e0ff"/>
            <rect id="Rectángulo_348004" data-name="Rectángulo 348004" width="1.725" height="41.838" transform="translate(314.886 35.169)" fill="#c9e0ff"/>
            <rect id="Rectángulo_348005" data-name="Rectángulo 348005" width="1.725" height="29.33" transform="translate(227.68 47.677)" fill="#ffa031"/>
            <rect id="Rectángulo_348006" data-name="Rectángulo 348006" width="1.725" height="19.194" transform="translate(235.608 57.813)" fill="#ffa031"/>
            <rect id="Rectángulo_348007" data-name="Rectángulo 348007" width="1.725" height="35.799" transform="translate(243.535 41.208)" fill="#ffa031"/>
            <rect id="Rectángulo_348008" data-name="Rectángulo 348008" width="1.725" height="10.423" transform="translate(251.463 66.584)" fill="#ffa031"/>
            <rect id="Rectángulo_348009" data-name="Rectángulo 348009" width="1.725" height="20.919" transform="translate(259.391 56.088)" fill="#ffa031"/>
            <rect id="Rectángulo_348010" data-name="Rectángulo 348010" width="1.725" height="28.755" transform="translate(267.319 48.252)" fill="#ffa031"/>
            <rect id="Rectángulo_348011" data-name="Rectángulo 348011" width="1.725" height="18.547" transform="translate(275.247 58.46)" fill="#ffa031"/>
            <rect id="Rectángulo_348012" data-name="Rectángulo 348012" width="1.725" height="31.414" transform="translate(283.174 45.593)" fill="#ffa031"/>
            <rect id="Rectángulo_348013" data-name="Rectángulo 348013" width="1.725" height="17.253" transform="translate(291.102 59.754)" fill="#ffa031"/>
            <rect id="Rectángulo_348014" data-name="Rectángulo 348014" width="1.725" height="27.604" transform="translate(299.03 49.403)" fill="#ffa031"/>
            <rect id="Rectángulo_348015" data-name="Rectángulo 348015" width="1.725" height="13.802" transform="translate(306.958 63.205)" fill="#ffa031"/>
            <rect id="Rectángulo_348016" data-name="Rectángulo 348016" width="1.725" height="27.604" transform="translate(314.886 49.403)" fill="#ffa031"/>
          </g>
        </g>
        <g id="Grupo_1009038" data-name="Grupo 1009038">
          <g id="Grupo_1009037" data-name="Grupo 1009037" clip-path="url(#clip-path-4)">
            <rect id="Rectángulo_348018" data-name="Rectángulo 348018" width="7.926" height="32.182" transform="translate(164.034 27.697)" fill="url(#linear-gradient-2)"/>
          </g>
        </g>
        <g id="Grupo_1009040" data-name="Grupo 1009040">
          <g id="Grupo_1009039" data-name="Grupo 1009039" clip-path="url(#clip-path-5)">
            <rect id="Rectángulo_348019" data-name="Rectángulo 348019" width="7.926" height="32.182" transform="translate(173.516 27.697)" fill="url(#linear-gradient-3)"/>
          </g>
        </g>
        <g id="Grupo_1009042" data-name="Grupo 1009042">
          <g id="Grupo_1009041" data-name="Grupo 1009041" clip-path="url(#clip-path-6)">
            <rect id="Rectángulo_348020" data-name="Rectángulo 348020" width="7.926" height="32.182" transform="translate(182.997 27.697)" fill="url(#linear-gradient-4)"/>
          </g>
        </g>
        <g id="Grupo_1009044" data-name="Grupo 1009044">
          <g id="Grupo_1009043" data-name="Grupo 1009043" clip-path="url(#clip-path)">
            <path id="Trazado_716777" data-name="Trazado 716777" d="M165.578,37.122V56.168a2.419,2.419,0,1,0,4.838,0V37.122Z" fill="#4e9bde"/>
            <path id="Trazado_716778" data-name="Trazado 716778" d="M175.06,40.367V56.534s-.1,2.053,2.419,2.053,2.418-2.053,2.418-2.053V40.367Z" fill="#4e9bde"/>
            <path id="Trazado_716779" data-name="Trazado 716779" d="M184.541,34.808v21.1s-.1,2.68,2.419,2.68,2.419-2.68,2.419-2.68v-21.1Z" fill="#4e9bde"/>
            <path id="Trazado_716780" data-name="Trazado 716780" d="M318.744,142.43a3.1,3.1,0,0,0-.038-.993s-.248-.554-.4-.959a2.752,2.752,0,0,1-.1-.317,5.7,5.7,0,0,0-.53-1.741,38.051,38.051,0,0,0-2.852-3.336l-1.8.929-1.807.629s-.2,4.949.085,5.652a1.96,1.96,0,0,0,.092.195,7.258,7.258,0,0,0,.954,1.153c.071.1.845,1.081,1.218,1.089a1.218,1.218,0,0,0,1.082-.482,2.91,2.91,0,0,0,1.532-.465,1.808,1.808,0,0,0,1.423-.726s.951-.1,1.143-.628" fill="#eea886"/>
            <path id="Trazado_716781" data-name="Trazado 716781" d="M273.082,59.824s-2.4-15.512,10.449-15.226,12.133,12.219,10.59,17.377c-1.138,3.805-3.294,5.233,2.258,15.823s-4.808,10.589-4.808,10.589l-8.04-11.047Z" fill="#3a3f47"/>
            <path id="Trazado_716782" data-name="Trazado 716782" d="M267,115.478c-.064.08-.157.194-.275.339h0c-.3.37-.774.94-1.368,1.649-3.429,4.1-10.966,12.84-13.836,14.418-2.033,1.118-2.345-2.395-.322-4.555,1.845-1.97,8.967-14.676,11.725-17.41,1.339-1.329,3.14-13.88,3.14-13.88s1.667,10.466,1.481,11.67.629,6.305-.545,7.768" fill="#dbdff0"/>
            <path id="Trazado_716783" data-name="Trazado 716783" d="M251.2,127.33s-1.184,1.559-1.8,1.754-1.323,1.276-1.837,1.555-2.2.548-2.608,1.019a16.167,16.167,0,0,1-1.09,2.132c-.382.355-1.247.981-.921,1.3s1.26-.031,1.26-.031a.649.649,0,0,0-.128.711c.388.713.9.7.9.7s-.1.568.139.826a1.43,1.43,0,0,0,1.017.545,1.312,1.312,0,0,0,.526.726,1.2,1.2,0,0,0,1.15.09s.584.638,1.035.467a4.032,4.032,0,0,0,.994-.76,14.955,14.955,0,0,0,2.918-5.545,11.03,11.03,0,0,1,2.017-4.222Z" fill="#eea886"/>
            <path id="Trazado_716784" data-name="Trazado 716784" d="M244.3,134.747s1.778-2.367,2.794-2.41.422.847.422.847.572-.89,1.343-.508.019,1.387.019,1.387a.856.856,0,0,1,1.23.092c.612.65-.2,1.341-.2,1.341s1.317-.3,1.153.786a4.437,4.437,0,0,1-2.213,2.847s-.493.279-1.039-.387a1.24,1.24,0,0,1-1.733-.818s-1.5-.2-1.162-1.382c0,0-1.645-.466-.61-1.8" fill="#db9c7c"/>
            <path id="Trazado_716785" data-name="Trazado 716785" d="M257.315,234.7s-5.046,8.554-7.177,9.951c-2.892,1.9-1.08,3.814.294,3.816s8.387.5,9.933-1.251,2.312-7.011,3.75-8.385,2.753-6.448-.7-8.168c-3.786-1.886-6.1,4.037-6.1,4.037" fill="#2f4563"/>
            <path id="Trazado_716786" data-name="Trazado 716786" d="M265.355,236.322l-1.334,10.27-.707.031.22-7.388Z" fill="#2f4563"/>
            <path id="Trazado_716787" data-name="Trazado 716787" d="M300.58,226.355s-1.209,9.857-2.6,11.989c-1.894,2.894.533,3.928,1.793,3.381s7.891-2.889,8.607-5.114-.681-7.351.088-9.185-.052-7.011-3.9-7.209c-4.225-.216-3.979,6.138-3.979,6.138" fill="#2f4563"/>
            <path id="Trazado_716788" data-name="Trazado 716788" d="M300.524,221.488s-.74,12.037-1.062,13.791,2.31.606,3.66-.749,2.737-9.731,2.65-11.186a7.707,7.707,0,0,0-1.213-3.126Z" fill="#eea886"/>
            <path id="Trazado_716789" data-name="Trazado 716789" d="M308.6,224.635l2.88,9.948-.636.311-2.75-6.861Z" fill="#2f4563"/>
            <path id="Trazado_716790" data-name="Trazado 716790" d="M279.518,151.513c-.251,1.214-1.86,6.294-3.661,11.939h0c-1.642,5.147-3.445,10.761-4.525,14.344-.4,1.337-.707,2.391-.864,3.032-1.037,4.242.13,10.9.506,16.458s-7.7,36.721-7.7,36.721c-1.414.66-4.07-3.8-4.07-3.8,1.037-1.98.891-37.127.326-39.295s-.943-8.2-.377-10.558a9.166,9.166,0,0,0,.185-1.892c.048-2.974-.565-7.892-.939-13.285-.471-6.787,2.168-23.66,2.544-25.168.035-.139.09-.334.16-.574.7-2.366,2.93-9.084,2.93-9.084,4.535-1.35,7.949-1.594,10.5-1.074a7.8,7.8,0,0,1,6.157,5.283c2.218,6.134-.848,15.374-1.174,16.949" fill="#eea886"/>
            <path id="Trazado_716791" data-name="Trazado 716791" d="M305.041,221.052l-4.592,1.615c-.778-3.77-19.424-30.15-20.561-33.072a42.694,42.694,0,0,1-2.35-10.651c0-.371-.027-.995-.08-1.806-.2-3.144-.776-9.072-1.6-13.686-.153-.861-.316-1.676-.486-2.418-.913-3.98-1.072-17.576-1.082-25.572-.005-3.558.019-6.007.019-6.007s.079-.063.227-.174c1.719-1.3,12.745-9.232,16.589-1.818a22.175,22.175,0,0,1,2.081,6.253c1.233,6.718.023,14.285-.972,21.179-.851,5.9-2.482,14.234-2.951,20.419-.258,3.4-.164,6.156.6,7.494,2.169,3.771,4.288,6.963,8.672,20.267,1.427,4.328,6.483,17.977,6.483,17.977" fill="#eea886"/>
            <path id="Trazado_716792" data-name="Trazado 716792" d="M292.233,154.9c-.851,5.9-2.482,14.234-2.951,20.419,0,0-4.811.96-11.823,1.824-1.9.233-3.958.459-6.128.658-3.757.344-7.844.6-11.989.67.048-2.975-.565-7.893-.939-13.285-.472-6.788,2.168-23.661,2.544-25.169.035-.139.09-.334.16-.574,3.392-1.866,8.257-3.127,13.181-3.976,2.164-.373,4.338-.668,6.4-.9,6.456-.724,11.848-.836,12.512-.848,1.234,6.719.024,14.286-.971,21.18" fill="#2f4563"/>
            <path id="Trazado_716793" data-name="Trazado 716793" d="M300.45,222.667s2.156,2.787,4.592-1.615c0,0-2.707-2.893-4.592,1.615" fill="#eea886"/>
            <path id="Trazado_716794" data-name="Trazado 716794" d="M259.208,230.21s-5.487,10.739-6.483,12.219,1.876,1.478,3.655.775,6.4-7.828,6.9-9.2a18.489,18.489,0,0,0,.757-2.969Z" fill="#eea886"/>
            <path id="Trazado_716795" data-name="Trazado 716795" d="M259.208,230.21s-2.914,5.482,4.827.829c0,0-1.459-2.455-4.827-.829" fill="#eea886"/>
            <path id="Trazado_716796" data-name="Trazado 716796" d="M280.642,47.086s-8.7,1.374-9.044,13.738,2.347,15,9.96,12.421,10.017-15.512,10.189-17.516.629-10.131-11.105-8.643" fill="#eea886"/>
            <path id="Trazado_716797" data-name="Trazado 716797" d="M295.921,90.09c.033,4.258-4.86,14.435-5.614,17.577s-1.948,4.148-.943,8.17,5.062,18.267,4,18.822c-15.915,8.273-30.009,7.735-32.254,4.779,0,0,5.147-19.205,5.524-21.405s-.458-10.446-.647-12.771-2.542-7.33-2.463-9.66c.081-2.375,1.247-4.425,2.878-6.961.506-.786,1.037-1.587,1.568-2.366a44.8,44.8,0,0,1,4.3-5.632A13.606,13.606,0,0,1,274,79.261l0,0a8.011,8.011,0,0,1,1.782-.94l7.479-1.194s4.661,1.686,7.342,2.313c0,0,5.233.764,5.311,10.653" fill="#4e9bde"/>
            <path id="Trazado_716798" data-name="Trazado 716798" d="M274.007,79.258l-4.335,6.831-4,6.305c.009-.034.275-.988.727-3.753.087-.525.179-1.115.278-1.776a4.657,4.657,0,0,1,.125-.581h0c1.712-3.947,7.006-6.924,7.2-7.022l0,0" fill="#6ea2e8"/>
            <path id="Trazado_716799" data-name="Trazado 716799" d="M286.452,67.676c-.754,1.424-1.55,10.265-1.55,10.265s-10.642,4.022-9.553,1.747A8.7,8.7,0,0,0,276,76.16a16.944,16.944,0,0,0-.118-2.147c-.027-.233-.049-.367-.049-.367s11.375-7.4,10.621-5.97" fill="#eea886"/>
            <path id="Trazado_716800" data-name="Trazado 716800" d="M277.093,55.958a41.191,41.191,0,0,0,7.177,6.666c4.064,2.862,3.355,8.617,3.355,8.617s10.6-22.324.523-23.869-16.264-1.66-16.55,13.451c0,0,4.579-4.98,5.495-4.865" fill="#3a3f47"/>
            <path id="Trazado_716801" data-name="Trazado 716801" d="M283.155,72.482C281.521,74.892,276,76.16,276,76.16a17.336,17.336,0,0,0-.118-2.147c3.422.764,7.274-1.531,7.274-1.531" fill="#a77860"/>
            <path id="Trazado_716802" data-name="Trazado 716802" d="M266.82,86.236h0a8.889,8.889,0,0,0-.421,2.4l1.567-2.366s2.8-4.014,3.759-5.057A15.9,15.9,0,0,1,274,79.26s-5.507,2.646-7.181,6.976" fill="#dbdff0"/>
            <path id="Trazado_716803" data-name="Trazado 716803" d="M288.445,94.433s8.008-3.395,9.917-3.922c0,0-3.3-11.967-10.069-11.224-7.314.8.152,15.146.152,15.146" fill="#6ea2e8"/>
            <path id="Trazado_716804" data-name="Trazado 716804" d="M275.789,78.318s-5.015,7.71-3.317,8.384,10.885-.9,14.792-8.223c0,0-5.841-2.995-11.475-.161" fill="#eea886"/>
            <path id="Trazado_716805" data-name="Trazado 716805" d="M250.033,128.643s3.414,1.687,4.2,3.146c0,0,6.025-8.621,6.559-9.011l-9.124,3.976Z" fill="#dbdff0"/>
            <path id="Trazado_716806" data-name="Trazado 716806" d="M311.056,136.938s3.551-.875,4.767-.97l-5.389-12.849-1.989,7.241s2.59,6.245,2.611,6.578" fill="#dbdff0"/>
            <path id="Trazado_716807" data-name="Trazado 716807" d="M265.994,105.389c-.011-.105-.018-.165-.018-.176a.291.291,0,0,1,.008.049,1.254,1.254,0,0,1,.01.127" fill="#2f4563"/>
            <path id="Trazado_716808" data-name="Trazado 716808" d="M266.723,115.818h0c-.3.37-2.174,2.6-2.768,3.308,0,0,2.094-12.261,2.039-13.737.132,1.18.935,7.9.729,10.428" fill="#9ea1ad"/>
            <path id="Trazado_716809" data-name="Trazado 716809" d="M284.931,77.629s-5.677,7.608-6.017,21.483,4.681,72.877,3.99,81.6c0,0,12.264-4.637,15.458-7.213s-5.559-44.614-6.64-48.449-3.324-16.027,6.64-34.542c0,0-2.148-9.258-6.293-10.87a34.449,34.449,0,0,0-7.138-2.012" fill="#dbdff0"/>
            <path id="Trazado_716810" data-name="Trazado 716810" d="M313.953,134.031c-1.628-5.419-5.157-15.744-5.835-17.9-1.769-5.629-2.716-6.951-5.243-14.519-.985-2.949-3.011-7.692-4.512-11.1v0a24.479,24.479,0,0,0-5.016-9.577c-1.583-1.81-6.082-2.454-6.082-2.454s.621.83,1.546,2.038a6.2,6.2,0,0,0-.937.089c-6,1.518.866,11.445,1.345,12.763s9.032,15.992,9.65,17.332c2.138,4.632,3.4,5.691,5.023,10.046,2.194,5.885,5.767,11.688,7.531,14.932.74,1.363,3.155.43,2.531-1.648" fill="#dbdff0"/>
            <path id="Trazado_716811" data-name="Trazado 716811" d="M275.789,78.318s-5.259,5.7-5.95,17.167-1.267,25.065-3.082,36.851S262.04,182.4,262.04,182.4s-4.007-3.04-4.837-4.974,2.108-37.5,5.527-47.392,4.273-11.3,3.264-19.944-3.02-12.213-2.486-15.463,5.719-14.035,12.281-16.3" fill="#dbdff0"/>
            <rect id="Rectángulo_348021" data-name="Rectángulo 348021" width="33.47" height="1.987" transform="translate(54.361 145.365)" fill="#e2d2ca"/>
            <rect id="Rectángulo_348022" data-name="Rectángulo 348022" width="2.933" height="90.356" transform="translate(58.847 152.522)" fill="#706865"/>
            <rect id="Rectángulo_348023" data-name="Rectángulo 348023" width="23.265" height="2.838" transform="translate(82.593 144.801)" fill="#ccbdb7"/>
            <rect id="Rectángulo_348024" data-name="Rectángulo 348024" width="8.81" height="26.758" transform="translate(89.821 120.593)" fill="#998e89"/>
            <rect id="Rectángulo_348025" data-name="Rectángulo 348025" width="220.545" height="5.137" transform="translate(42.356 147.385)" fill="#455a64"/>
            <path id="Trazado_716812" data-name="Trazado 716812" d="M17.616,116.289s-1.41,19.771,2.453,22.137c2.42,1.482,12.069,6.481,11.783,7.419s-5.448,8.342-5.448,8.342S7.87,141.982,7.273,138.136c-.584-3.758.912-28.948,3.459-30.108,1.908-.87,2.915-.151,5.32,1.634,3.374,2.506,1.564,6.627,1.564,6.627" fill="#dbdff0"/>
            <path id="Trazado_716813" data-name="Trazado 716813" d="M40.419,230.541s-.576,4-.648,4.6-6.412-.354-6.412-.354l-.513-4.762s6.781-.049,7.573.515" fill="#424773"/>
            <path id="Trazado_716814" data-name="Trazado 716814" d="M39.838,234.634a17.113,17.113,0,0,0,3.951,3.461c1.943,1.051,4.995,1.467,6.144,2.555.829.784,3.02,4.164-5.048,4.1s-11.958.477-12.822-.818,1.251-9.565,1.251-9.565,1.91.688,6.524.271" fill="#292c47"/>
            <path id="Trazado_716815" data-name="Trazado 716815" d="M81.033,230.579s-.576,4-.648,4.6-6.412-.354-6.412-.354l-.513-4.762s6.781-.049,7.573.515" fill="#424773"/>
            <path id="Trazado_716816" data-name="Trazado 716816" d="M80.452,234.672a17.089,17.089,0,0,0,3.951,3.461c1.943,1.051,9.091,1.914,10.24,3,.829.784,2.208,3.945-9.144,3.649-8.065-.21-11.958.478-12.822-.819s1.25-9.564,1.25-9.564,1.8.734,6.525.271" fill="#292c47"/>
            <path id="Trazado_716817" data-name="Trazado 716817" d="M19.973,161.44s23.047,3.9,28.252,4.717S81.654,174,85.184,176.138c2.81,1.7-1.474,42.616-2.474,58.225H71.593l-.806-46.823c-13.34.334-22.86-3.121-32.574-1.645s-17.813,3.572-23.986-4.708c0,0-.229-17.939,5.746-19.747" fill="#292c47"/>
            <path id="Trazado_716818" data-name="Trazado 716818" d="M42.689,234.4l-10.834-.67L30.8,187.54a65.752,65.752,0,0,1-12.359-.784L9.693,166.425c7.666,1.532,32.227,7.727,35.5,9.713,2.81,1.7-1.505,42.653-2.506,58.263" fill="#292c47"/>
            <path id="Trazado_716819" data-name="Trazado 716819" d="M30.582,75.052s8.449-2.335,11.672,4.224,1.762,18.991-2.5,20.161-10.381-.177-12.149-4.259S24.432,85.3,24.855,81.539s3.484-5.589,5.727-6.487" fill="#eea886"/>
            <path id="Trazado_716820" data-name="Trazado 716820" d="M37.55,98.129s-.093,4.988.457,6.051-11.764.8-11.764.8,1.941-5.99.84-11.093c-1.09-5.051,10.467,4.245,10.467,4.245" fill="#eea886"/>
            <path id="Trazado_716821" data-name="Trazado 716821" d="M26.419,92s.658,1.339,3.846,1.123,7.391-4.062,8.744-4.4S40.443,87.6,40.443,87.6l.716,1.273,1.387.211s-.943-3.854,1.11-5.211-.924-12.287-11.318-9.651c0,0-7.932,1.453-8.038,5.882S24.879,89.649,26.419,92" fill="#3a3f47"/>
            <path id="Trazado_716822" data-name="Trazado 716822" d="M38.654,104.052s-.034-2.032-.955-2.227-9.68-1.4-10.811-.955l-.484,2.683s2.177,1.34,12.25.5" fill="#e2d2ca"/>
            <path id="Trazado_716823" data-name="Trazado 716823" d="M41.189,86.691c-.236-1.665-2.13-3.578-3.214-.984s.732,6.371,1.948,6.168,1.587-2.925,1.266-5.184" fill="#eea886"/>
            <path id="Trazado_716824" data-name="Trazado 716824" d="M75.341,128.056a.025.025,0,0,0-.015,0c.063.028.072.03.015,0" fill="#323657"/>
            <path id="Trazado_716825" data-name="Trazado 716825" d="M28.117,76.241s-10.3-.485-1.8,15.6Z" fill="#3a3f47"/>
            <path id="Trazado_716826" data-name="Trazado 716826" d="M5.166,239.88l.766,2.155L38.31,232l-1.552-4.365Z" fill="#455a64"/>
            <rect id="Rectángulo_348026" data-name="Rectángulo 348026" width="3.68" height="35.201" transform="translate(35.741 195.267)" fill="#455a64"/>
            <rect id="Rectángulo_348027" data-name="Rectángulo 348027" width="21.705" height="2.074" transform="translate(26.728 193.396)" fill="#5e5854"/>
            <path id="Trazado_716827" data-name="Trazado 716827" d="M70.28,239.88l-.766,2.155L37.136,232l1.423-4.639Z" fill="#455a64"/>
            <path id="Trazado_716828" data-name="Trazado 716828" d="M47.467,241.8v2.507L37.135,232l1.423-4.639Z" fill="#273338"/>
            <path id="Trazado_716829" data-name="Trazado 716829" d="M73.305,242.878a3.026,3.026,0,1,1-3.026-3.026,3.026,3.026,0,0,1,3.026,3.026" fill="#bfb2ac"/>
            <path id="Trazado_716830" data-name="Trazado 716830" d="M47.724,242.878a3.026,3.026,0,1,1-3.026-3.026,3.026,3.026,0,0,1,3.026,3.026" fill="#bfb2ac"/>
            <path id="Trazado_716831" data-name="Trazado 716831" d="M8.192,242.878a3.026,3.026,0,1,1-3.026-3.026,3.026,3.026,0,0,1,3.026,3.026" fill="#bfb2ac"/>
            <path id="Trazado_716832" data-name="Trazado 716832" d="M60.252,193.4H15.193a3.181,3.181,0,0,1-3.181-3.181V188.72a3.181,3.181,0,0,1,3.181-3.181H60.252a3.181,3.181,0,0,1,3.181,3.181v1.495a3.181,3.181,0,0,1-3.181,3.181" fill="#455a64"/>
            <rect id="Rectángulo_348028" data-name="Rectángulo 348028" width="2.933" height="90.356" transform="translate(243.476 152.522)" fill="#706865"/>
            <path id="Trazado_716833" data-name="Trazado 716833" d="M129.089,133.483H59.363a3.174,3.174,0,0,1-3.174-3.173V82.991a3.174,3.174,0,0,1,3.174-3.174h69.726a3.174,3.174,0,0,1,3.172,3.174V130.31a3.173,3.173,0,0,1-3.172,3.173" fill="#263238"/>
            <rect id="Rectángulo_348029" data-name="Rectángulo 348029" width="70.114" height="42.355" transform="translate(59.168 82.718)" fill="#f5f7ff"/>
            <path id="Trazado_716834" data-name="Trazado 716834" d="M126.167,129.068c0,1.2-1.265,2.181-2.826,2.181s-2.826-.977-2.826-2.181,1.265-2.18,2.826-2.18,2.826.976,2.826,2.18" fill="#e0e0e0"/>
            <path id="Trazado_716835" data-name="Trazado 716835" d="M109.974,147.453V146.5s-1.343-5.94-10.839-5.94-9.305,6.9-9.305,6.9Z" fill="#998e89"/>
            <path id="Trazado_716836" data-name="Trazado 716836" d="M89.715,141.441a9.366,9.366,0,0,0,2.819-.616c.756-.456,5.278-3.5,6.34-3.011s8.131,2.652,7.886,3.686-.9.934-1.4.751-5.632-1.26-6.085-1.079c0,0,5.042,1.84,5.062,3.182s-1.055,1.669-1.533,2.176-1.052,1.768-2.352,1.865-7.639-2.109-8.944-2.21-3.721.081-3.885-.132,2.09-4.612,2.09-4.612" fill="#eea886"/>
            <path id="Trazado_716837" data-name="Trazado 716837" d="M52.156,106.867c-6.578-1.156-13.5-2.816-13.5-2.816l-12.25-.5s-11.244,2.475-15.672,4.475c-.42.19-.422,10.03-1.574,12.611l3.671,7.745s2.121,15.342,2.56,22.165c.2,3.132-.571,30.272-.571,30.272s1.1.543,9.462,1.465,29.251-.333,29.383-1.321-4.046-36.771-4.231-38.624c-.284-2.845.822-15.987.822-15.987,1.575,2.116,5.591,11.672,9.777,16.219,2.463,2.675,14.655,4.314,16.953,4.391,5,.167,14.13,1.163,14.4.676.213-.292.8-8.1.223-8.291-.5-.167-17.447-1.143-21.789-3.446-1.588-.843-6.337-11.2-6.337-11.2S55.785,108.5,52.156,106.867" fill="#dbdff0"/>
            <path id="Trazado_716838" data-name="Trazado 716838" d="M29.353,180.036H6.108A6.108,6.108,0,0,1,0,173.928v-36.9a6.107,6.107,0,0,1,6.108-6.107H29.353a6.108,6.108,0,0,1,6.108,6.107v36.9a6.108,6.108,0,0,1-6.108,6.108" fill="#455a64"/>
            <path id="Trazado_716839" data-name="Trazado 716839" d="M29.177,191.44c-5.227,0-9.468-1.756-12.6-5.219-7.089-7.826-5.815-21.584-5.758-22.166a1.973,1.973,0,0,1,3.927.388c-.015.157-1.145,12.628,4.763,19.138,2.389,2.633,5.553,3.913,9.672,3.913a1.973,1.973,0,1,1,0,3.946" fill="#455a64"/>
            <path id="Trazado_716840" data-name="Trazado 716840" d="M84.223,88.329H64.6a.455.455,0,0,1-.455-.455V86.546a.455.455,0,0,1,.455-.455H84.223a.455.455,0,0,1,.455.455v1.328a.455.455,0,0,1-.455.455" fill="#dfe1e8"/>
            <path id="Trazado_716841" data-name="Trazado 716841" d="M84.223,93.129H64.6a.455.455,0,0,1-.455-.455V91.346a.455.455,0,0,1,.455-.455H84.223a.455.455,0,0,1,.455.455v1.328a.455.455,0,0,1-.455.455" fill="#dfe1e8"/>
            <path id="Trazado_716842" data-name="Trazado 716842" d="M83.148,121.7H65.669a1.53,1.53,0,0,1-1.53-1.53V97.925a1.53,1.53,0,0,1,1.53-1.529H83.148a1.53,1.53,0,0,1,1.53,1.529v22.244a1.53,1.53,0,0,1-1.53,1.53" fill="#dfe1e8"/>
            <path id="Trazado_716843" data-name="Trazado 716843" d="M122.977,121.7H91.245a2.421,2.421,0,0,1-2.421-2.421V88.513a2.421,2.421,0,0,1,2.421-2.422h31.732a2.421,2.421,0,0,1,2.421,2.422v30.765a2.42,2.42,0,0,1-2.421,2.421" fill="#dfe1e8"/>
            <path id="Trazado_716844" data-name="Trazado 716844" d="M164.676,103.157s-1.453-3.14-1.69-3.613-1.623-1.223-3.272-1.639c-1.6-.4-3.782-1.212-4.03-1.057a1.4,1.4,0,0,0-.836.869,2.86,2.86,0,0,0-.168,1.44,1.743,1.743,0,0,0-.537,1.59,1.514,1.514,0,0,0-.261,1.664,1.268,1.268,0,0,0-.284,1.369,11.475,11.475,0,0,1,1.683,1.138,24.138,24.138,0,0,0,6.041,2.613s2.981-.093,3.354-4.374" fill="#8e4f3a"/>
            <path id="Trazado_716845" data-name="Trazado 716845" d="M161.321,107.531s3.551.619,4.755-.074-.2-4.31-.2-4.31l-2.248-1.359Z" fill="#8e4f3a"/>
            <path id="Trazado_716846" data-name="Trazado 716846" d="M160,101.635a8.511,8.511,0,0,0,.316,2.218c.262.48-3.275,1.228-3.275,1.228s.849-3.323,2.959-3.446" fill="#5e3527"/>
            <path id="Trazado_716847" data-name="Trazado 716847" d="M156.129,97s3.878,1.884,3.652,2.546a1.1,1.1,0,0,1-.711.768l1.245,1.5s.263,1.458-1.4,1.319c0,0,.387,1.337-1.205,1.011,0,0-.137,1-.9.975a14.391,14.391,0,0,1-3.209-1.336s-.483-.53.193-1.39a1.563,1.563,0,0,1,.289-1.689,2.389,2.389,0,0,1,.575-1.97,2.075,2.075,0,0,1,1.061-1.9s.25.089.413.17" fill="#7a4432"/>
            <path id="Trazado_716848" data-name="Trazado 716848" d="M162.871,99.472a14.641,14.641,0,0,0-4.558.807c-.362.168-.682.4-.662.8s.623.878,1.906.916a10.825,10.825,0,0,1,2.924.674s1.329-.347.39-3.194" fill="#8e4f3a"/>
            <path id="Trazado_716849" data-name="Trazado 716849" d="M154.655,98.732a37.587,37.587,0,0,1,4.726,1.88c.3.366.87-1.249.591-1.544a33.549,33.549,0,0,0-4.1-2.235,1.466,1.466,0,0,0-1.212,1.9" fill="#8e4f3a"/>
            <path id="Trazado_716850" data-name="Trazado 716850" d="M156.691,97.018s-6.894-1.412-7.034-.572.527.981,6.176,2.629c5.494,1.6.858-2.057.858-2.057" fill="#8e4f3a"/>
            <path id="Trazado_716851" data-name="Trazado 716851" d="M204.066,238.413s-2.2,3.287-5.279,4-6.117,1.84-6.141,3.785,8.911,3.1,12.438,1.144c5.263-2.926,5.8-2.044,6.382-3.507s-.7-5.374-.663-5.839c.046-.575-6.737.42-6.737.42" fill="#353a3d"/>
            <path id="Trazado_716852" data-name="Trazado 716852" d="M204.408,236.792a13.974,13.974,0,0,0-.341,1.621c.059.034,6.944.854,6.736-.42-.169-1.033-.41-2.156-.41-2.156Z" fill="#81807e"/>
            <path id="Trazado_716853" data-name="Trazado 716853" d="M227.238,238.2s-1.567,3.144-4.245,4.215c-2.862,1.145-5.157,2.461-5.1,4.356s7,3.815,12.049.178c3.192-2.3,4.2-2.309,4.716-3.756s-.889-5.207-.87-5.661c.023-.562-6.545.668-6.545.668" fill="#353a3d"/>
            <path id="Trazado_716854" data-name="Trazado 716854" d="M227.16,236.562a15.513,15.513,0,0,0,.078,1.633c.059.03,6.714.579,6.545-.668a10.219,10.219,0,0,0-.646-2.187Z" fill="#81807e"/>
            <path id="Trazado_716855" data-name="Trazado 716855" d="M202.76,140.511s-6.183,27.271-7.6,35.577c-1.2,7.07-2.159,14.432-1.584,19.536.713,6.319,9.658,39.067,9.284,40.92s10.664.726,10.664.726-8.107-36.959-6.748-43.758c1.007-5.035,9.826-38.486,11.177-36.77s3.027,31.569,4.028,36.525,4.074,44.113,4.074,44.113,6.87,1.014,8.705-.539c0,0,.836-33.436.2-42.727-.243-3.541,4.149-42.455-1.483-58.121-2.976-8.28-30.72,4.518-30.72,4.518" fill="#2d3133"/>
            <path id="Trazado_716856" data-name="Trazado 716856" d="M162.385,108.875s21.418,4.749,25.68,3.7c1.97-.484,4.565-3.2,7.031-6.4.813-1.053,1.61-2.157,2.368-3.251l0,0c3.025-4.368,5.4-8.555,5.4-8.555s8.943-10.48,1.766-15.152a4.771,4.771,0,0,0-4.995,1.587c-2.394,2.564-5.2,7.926-5.829,9.294s-9.411,14.035-9.866,14.321-4.294-.725-7.371-.981a95.182,95.182,0,0,1-12.538-2.373Z" fill="#dbdff0"/>
            <path id="Trazado_716857" data-name="Trazado 716857" d="M211.342,76.872s-9.206,1.9-10.3,2.871c-1.186,1.03-3.278,11.113-3.4,13.921a108.344,108.344,0,0,0,2.295,18.91c1.186,4.369.968,25.888.219,31.943,0,0,18.536,5.264,36.761,2.892,0,0-3.055-22.639-2.326-28.626.935-7.67,3.183-25.34,3.183-25.34s-1.613-12.309-3.236-13.682-12.8-2.889-12.8-2.889Z" fill="#bcc0cf"/>
            <path id="Trazado_716858" data-name="Trazado 716858" d="M215.148,48.406s-11.074-4.1-10.381,10.618,3.287,16.212,10.572,14.157,7.894-11.343,8.843-15.811-5.413-8.321-9.034-8.964" fill="#8e4f3a"/>
            <path id="Trazado_716859" data-name="Trazado 716859" d="M209.894,78.865s2.279,1.507,10.92-2.3a39.133,39.133,0,0,1,1.451-11.457c1.7-5.533-11.6,7.378-11.6,7.378.14.1.166.651.087,1.423a15.71,15.71,0,0,1-.427,2.286,5.576,5.576,0,0,0-.435,2.67" fill="#8e4f3a"/>
            <path id="Trazado_716860" data-name="Trazado 716860" d="M222.643,64.669s.031-3.931-1.6-4.293a2.247,2.247,0,0,1-1.851-1.669l-.938.218s.173-.693-1.385-1.606-10.883-.111-12.052-1.452.526-9.307,3.069-10.089,8.453-.71,13.851.806a6.285,6.285,0,0,1,4.41,5.859c.2,3.123-2.171,10.095-3.5,12.226" fill="#2d3133"/>
            <path id="Trazado_716861" data-name="Trazado 716861" d="M210.329,76.195c8.583-1.443,9.866-6.324,9.885-6.4-3.336,4.3-9.459,4.113-9.459,4.113a15.551,15.551,0,0,1-.426,2.287" fill="#633029"/>
            <path id="Trazado_716862" data-name="Trazado 716862" d="M210.707,80.8s-1.563,2.306-2.507,8.225-.783,16.116-.783,16.116l2.173.264s3.29-20.8,2.724-24.419Z" fill="#434343"/>
            <path id="Trazado_716863" data-name="Trazado 716863" d="M219.189,58.707c.489-1.3,3.251-1.133,2.968.922s-2.565,5.222-3.482,4.629-.16-3.763.514-5.551" fill="#8e4f3a"/>
            <path id="Trazado_716864" data-name="Trazado 716864" d="M200.926,79.733s-5.231,6.92-3.294,25.027c3.5,32.719-5.668,85.242-5.668,85.242l9.46,2.961s9.041-67.143,6.739-91.511c-1.05-11.1-4.162-14.8.75-24.05,0,0-4.785.242-7.987,2.331" fill="#dbdff0"/>
            <path id="Trazado_716865" data-name="Trazado 716865" d="M224.277,77.25S209.3,92.375,208.131,103.842s-3.083,89.121-3.083,89.121l35.648-2.076s-3.276-40.992-4.076-46.12-2.454-34.572,1.154-48.234c1.939-7.34-.368-16.652-4.8-17.668s-8.7-1.615-8.7-1.615" fill="#dbdff0"/>
            <path id="Trazado_716866" data-name="Trazado 716866" d="M229.338,79.209s-5.767,1.588-2.594,12.173c2.485,8.29,2.821,10.07,2.821,10.07l13.307-3.323s-3.9-18.211-10.269-19.19a7.288,7.288,0,0,0-3.265.27" fill="#dbdff0"/>
            <path id="Trazado_716867" data-name="Trazado 716867" d="M185.714,135.23,211.8,162.222l17.325-16.74-25.407-27.647Z" fill="#616161"/>
            <path id="Trazado_716868" data-name="Trazado 716868" d="M188.18,135.767l23.165,23.973,15.387-14.868-22.564-24.554Z" fill="#fff"/>
            <path id="Trazado_716869" data-name="Trazado 716869" d="M193.518,131.761l-1.626-1.683,6.22-6.011,1.869,1.448Z" fill="#616161"/>
            <path id="Trazado_716870" data-name="Trazado 716870" d="M220.811,74.927a27.747,27.747,0,0,1-8.987,3.338l2.377,3.794,7.532-5.187Z" fill="#a7aab8"/>
            <path id="Trazado_716871" data-name="Trazado 716871" d="M210.329,76.195a3.873,3.873,0,0,0,1.5,2.071l-2.233,3.113.082-4.129Z" fill="#a7aab8"/>
            <path id="Trazado_716872" data-name="Trazado 716872" d="M211.824,78.266l-1.768,2.466s1.118,1.415,3.528.342Z" fill="#434343"/>
            <path id="Trazado_716873" data-name="Trazado 716873" d="M195.1,106.171v0c.813-1.053,1.61-2.158,2.369-3.252l0,0s-.285-7.978-.036-10.27c0,0-2.607,8.594-2.335,13.524" fill="#a7aab8"/>
            <path id="Trazado_716874" data-name="Trazado 716874" d="M231.842,100.884s1.739,11.314,1.617,12.039,7.871-2.272-1.617-12.039" fill="#a7aab8"/>
            <rect id="Rectángulo_348030" data-name="Rectángulo 348030" width="4.202" height="6.416" transform="translate(200.438 96.835)" fill="#c6cad9"/>
            <path id="Trazado_716875" data-name="Trazado 716875" d="M219.117,127.6a2.372,2.372,0,0,1-1.024,1.018c-1.1.443-2.869-.26-3.552,1.32s3.72,5.29,4.824,5.482,2.667-1.613,3.687-5.1-3.935-2.723-3.935-2.723" fill="#8e4f3a"/>
            <path id="Trazado_716876" data-name="Trazado 716876" d="M214.848,129.436a48.237,48.237,0,0,0-3.77,3.849c-1.644,1.891-3.226,4.43-2.943,4.909.629,1.065,2.158-1.314,3.916-3.073a17.688,17.688,0,0,1,1.35-1.337s0-.172-1.41,1.952c-1.519,2.283-2.843,4.787-2.484,5.343.175.271.883.933,1.222-.159-.3.511-.358.386-.155.541,1.051.8,3.812-2.186,4.908-3.372-.836.917-1.35,1.683-.4,1.761,1.084.089,4.794-4.319,6.276-5.763,1.618-1.576-6.508-4.651-6.508-4.651" fill="#8e4f3a"/>
            <path id="Trazado_716877" data-name="Trazado 716877" d="M228.648,79.918c-1.207.467-1.664,2.61-1.168,8.82a20.929,20.929,0,0,0,3.5,10.5c.815,1.436,5.3,10.291,4.5,11.456s-8.422,8.678-8.863,9.29-8.943,8.308-8.943,8.308l4.328,6.05S240.356,120,241.789,118.572s5.714-4.44,4.13-9.442c-1.609-5.084-4.5-16.985-5.016-17.915s-4.274-14.387-12.255-11.3" fill="#dbdff0"/>
          </g>
        </g>
      </g>
    </g>
    <g id="Grupo_1009057" data-name="Grupo 1009057" transform="translate(4502.1 11283)">
      <g id="Grupo_1009055" data-name="Grupo 1009055" transform="translate(-3402 -4822)">
        <g id="Grupo_1009054" data-name="Grupo 1009054" transform="translate(0 0)">
          <path id="Trazado_716957" data-name="Trazado 716957" d="M27.6,41.94c-8.211,0-14.9-6.919-14.9-15.453C12.746,18.23,26.308,2.269,26.908,1.623a.918.918,0,0,1,.738-.323,1.089,1.089,0,0,1,.738.323c.6.692,14.116,16.653,14.116,24.91A15.185,15.185,0,0,1,27.6,41.94Zm0-38.2C24.786,7.2,14.684,19.983,14.684,26.487,14.684,33.96,20.5,40,27.6,40c7.15,0,12.916-6.043,12.916-13.516C40.562,19.983,30.46,7.2,27.6,3.745Z" transform="translate(-12.7 -1.3)" fill="#3076b6"/>
        </g>
      </g>
      <path id="Trazado_716958" data-name="Trazado 716958" d="M43.049,52.533a1.181,1.181,0,0,0-.969-1.107,1.209,1.209,0,0,0-1.292.692,2.38,2.38,0,0,1-2.214,1.43,2.348,2.348,0,0,1-2.168-1.384,1,1,0,0,0-.646-.646,1.193,1.193,0,0,0-1.522.6,2.38,2.38,0,0,1-2.214,1.43,2.348,2.348,0,0,1-2.168-1.384,1.069,1.069,0,0,0-.646-.692,1.193,1.193,0,0,0-1.522.6,2.429,2.429,0,0,1-4.428,0,1.179,1.179,0,0,0-2.26.415c0,.231-.138,5.628,3.321,9.134a10.287,10.287,0,0,0,7.658,2.952,10.284,10.284,0,0,0,7.75-3c3.506-3.506,3.321-8.811,3.321-9.041Z" transform="translate(-3419.17 -4850.269)" fill="#4db1f0"/>
      <path id="Trazado_716959" data-name="Trazado 716959" d="M42.788,52.246a11.77,11.77,0,0,1-2.86,5.72,10.284,10.284,0,0,1-7.75,3,10.113,10.113,0,0,1-7.658-2.952A12.056,12.056,0,0,1,21.568,52.2a.985.985,0,0,0-.369.784c0,.231-.138,5.628,3.321,9.134a10.287,10.287,0,0,0,7.658,2.952,10.284,10.284,0,0,0,7.75-3c3.367-3.552,3.183-8.857,3.183-9.088A.918.918,0,0,0,42.788,52.246Z" transform="translate(-3419.278 -4850.72)" fill="#bee6ff"/>
      <path id="Trazado_716960" data-name="Trazado 716960" d="M20.3,27.564c0-5.72,6.966-15.638,10.933-20.851C29.615,4.638,28.508,3.3,28.508,3.3S14.9,19.584,14.9,27.564s6.089,14.485,13.654,14.485a13.287,13.287,0,0,0,2.722-.277A14.317,14.317,0,0,1,20.3,27.564Z" transform="translate(-3415.885 -4824.377)" fill="#474c54" opacity="0.1"/>
    </g>
  </g>
</svg>
