<svg xmlns="http://www.w3.org/2000/svg" width="97.07" height="17.402" viewBox="0 0 97.07 17.402">
  <g id="Grupo_1009242" data-name="Grupo 1009242" transform="translate(4057.402 8192.371)">
    <path id="Trazado_718214" data-name="Trazado 718214" d="M271.787,9.479a14.706,14.706,0,0,0,.635-1.357,2.533,2.533,0,0,0,.205-.879,1.321,1.321,0,0,0-.068-.469.607.607,0,0,0-.254-.293,1.328,1.328,0,0,0-.508-.166l.146-.645h4.15l-.146.645a1.416,1.416,0,0,0-.571.234,2.218,2.218,0,0,0-.474.469,5.955,5.955,0,0,0-.439.669q-.215.376-.576,1.05l-5.6,10.332h-2.344l-.02-6.289v-1.66q0-.635.01-1.328h-.127q-.322.693-.547,1.162l-4.082,8.115h-2.344l-.2-10.391a6.65,6.65,0,0,0-.142-1.406,1.524,1.524,0,0,0-.327-.688,1,1,0,0,0-.576-.269l.146-.645h5l-.146.645a1.706,1.706,0,0,0-.483.132.845.845,0,0,0-.332.273,1.137,1.137,0,0,0-.186.464,3.6,3.6,0,0,0-.063.518l-.01,1.143-.039,3.672q-.01.811-.049,1.953l-.049,1.162h.127q.225-.5.483-1.035t.942-1.9l3.525-7.021H268.6l.01,6.4.01.869q0,1.367-.068,2.7h.127q.459-.957,1.65-3.311Zm4.375,2.6.42-1.914h8.691l-.42,1.914ZM275.2,16.4l.42-1.914h8.691l-.42,1.914Zm16.074-.186a62.17,62.17,0,0,0,3.867-6.895h2.432l.264.557q-1.562,1.768-6.719,8.506a37.2,37.2,0,0,1-.918,4.531h-1.7l-.723-1.172a17.833,17.833,0,0,1,1.182-2.48,33.753,33.753,0,0,0,.254-3.984q0-4.5-1.592-4.5a1.413,1.413,0,0,0-.889.342l-.459-.5a3.828,3.828,0,0,1,2.8-1.465q2.5,0,2.5,3.6A22.064,22.064,0,0,1,291.27,16.217Zm13.242,2.7.215.576a5.21,5.21,0,0,0,.4.889,1.368,1.368,0,0,0,.425.454,1.123,1.123,0,0,0,.61.151,1.469,1.469,0,0,0,.732-.205,3.873,3.873,0,0,0,.811-.664l.752.752a8.713,8.713,0,0,1-1.768,1.426,3.4,3.4,0,0,1-1.709.449,2.7,2.7,0,0,1-1.777-.6,3.9,3.9,0,0,1-1.133-1.865l-.381-1.162a3.941,3.941,0,0,1-2.744-1.343A4.919,4.919,0,0,1,298,14.557a11.554,11.554,0,0,1,.156-1.768,13,13,0,0,1,.527-2.1,8.868,8.868,0,0,1,1.025-2.095,7.2,7.2,0,0,1,1.538-1.685,6.188,6.188,0,0,1,1.968-1.045,7.424,7.424,0,0,1,2.275-.347,4.539,4.539,0,0,1,3.374,1.162,4.612,4.612,0,0,1,1.147,3.379,12.3,12.3,0,0,1-.215,2.153,11.461,11.461,0,0,1-.669,2.31,8.774,8.774,0,0,1-1.143,2.017,7.1,7.1,0,0,1-1.572,1.523A5.394,5.394,0,0,1,304.512,18.912Zm-3.574-3.447a3.694,3.694,0,0,0,.391,1.948,1.4,1.4,0,0,0,1.27.6,1.984,1.984,0,0,0,.9-.215,3.406,3.406,0,0,0,1.025-.811,7.4,7.4,0,0,0,1.113-1.719,12.775,12.775,0,0,0,.84-2.285,21.376,21.376,0,0,0,.479-2.344,9.382,9.382,0,0,0,.117-1.465,3.626,3.626,0,0,0-.391-1.914,1.417,1.417,0,0,0-1.289-.605,2.4,2.4,0,0,0-1.65.757,7.037,7.037,0,0,0-1.45,2.134,13.662,13.662,0,0,0-1,3.091A14.619,14.619,0,0,0,300.938,15.465Zm11.27-3.389.42-1.914h8.691l-.42,1.914ZM311.24,16.4l.42-1.914h8.691l-.42,1.914Zm16.074-.186a62.17,62.17,0,0,0,3.867-6.895h2.432l.264.557q-1.562,1.768-6.719,8.506a37.2,37.2,0,0,1-.918,4.531h-1.7l-.723-1.172A17.833,17.833,0,0,1,325,19.264a33.753,33.753,0,0,0,.254-3.984q0-4.5-1.592-4.5a1.413,1.413,0,0,0-.889.342l-.459-.5a3.828,3.828,0,0,1,2.8-1.465q2.5,0,2.5,3.6A22.064,22.064,0,0,1,327.314,16.217Zm12.871-1.348h-3.818l-.137.244q-.225.391-.386.708t-.288.645a3.758,3.758,0,0,0-.181.586,2.429,2.429,0,0,0-.054.493q0,.7.83.811l-.146.645h-4.121l.146-.645a1.648,1.648,0,0,0,.6-.264,2.268,2.268,0,0,0,.493-.5,11.252,11.252,0,0,0,.664-1.089l6.064-10.9h2.813l.42,10.439a9.3,9.3,0,0,0,.068.942,3.623,3.623,0,0,0,.127.591,1.6,1.6,0,0,0,.19.41.746.746,0,0,0,.288.254,1.243,1.243,0,0,0,.391.117L344,19h-5.049l.146-.645a1.235,1.235,0,0,0,.679-.22.986.986,0,0,0,.347-.518,3.339,3.339,0,0,0,.1-.913q0-.42-.02-.879Zm-3.213-1.143h3.184l-.039-2.344q-.02-1.25-.02-2.07,0-.625.01-1.279h-.117Zm17.354-4.414.342.645q-1.23,3.262-5.684,9.189H347.09l-.908-7.441a5.369,5.369,0,0,0-.22-1.1,1.06,1.06,0,0,0-.308-.469,1.023,1.023,0,0,0-.557-.176l.146-.645h3.438l.674,7.295a27.772,27.772,0,0,0,2.173-3.521,5.649,5.649,0,0,0,.7-2.358.8.8,0,0,0-.176-.562.869.869,0,0,0-.615-.21l.137-.645Z" transform="translate(-4315 -8197.885)" fill="#12263f"/>
  </g>
</svg>
