<svg xmlns="http://www.w3.org/2000/svg" width="97.578" height="17.705" viewBox="0 0 97.578 17.705">
  <g id="Grupo_1009243" data-name="Grupo 1009243" transform="translate(4056.401 8035.371)">
    <path id="Trazado_718215" data-name="Trazado 718215" d="M265.835,5.67l.762,8.154,4.629-8.154h4.541l-.137.645a1.525,1.525,0,0,0-.63.322,1.647,1.647,0,0,0-.376.581,6.775,6.775,0,0,0-.312,1.089l-1.777,8.057q-.059.254-.078.4t-.034.317q-.015.171-.015.425a.821.821,0,0,0,.19.6,1.065,1.065,0,0,0,.62.249l-.137.645h-4.912l.137-.645a1.525,1.525,0,0,0,.63-.322,1.647,1.647,0,0,0,.376-.581,6.775,6.775,0,0,0,.313-1.089l.9-4.1q.146-.664.42-1.772t.635-2.319h-.2q-.459.84-.986,1.748L266,17.525h-1.582l-.645-5.869q-.127-1.113-.19-1.943t-.1-1.641h-.156q-.137.9-.352,2.056t-.391,1.948l-.947,4.287q-.059.254-.078.4t-.034.317q-.015.171-.015.425a.821.821,0,0,0,.19.6,1.065,1.065,0,0,0,.62.249l-.137.645H258.6l.137-.645a1.525,1.525,0,0,0,.63-.322,1.647,1.647,0,0,0,.376-.581,6.775,6.775,0,0,0,.313-1.089l1.777-8.057a5.3,5.3,0,0,0,.127-1.143.821.821,0,0,0-.19-.6,1.065,1.065,0,0,0-.62-.249l.137-.645Zm11,6.406.42-1.914h8.691l-.42,1.914Zm-.967,4.326.42-1.914h8.691l-.42,1.914Zm13.916,2.061-1.035,4.756H286l1.9-8.662a7.777,7.777,0,0,1,2-4.1,5.237,5.237,0,0,1,3.73-1.3,3.555,3.555,0,0,1,2.666.942,3.544,3.544,0,0,1,.918,2.583,7.423,7.423,0,0,1-1.475,4.429,4.608,4.608,0,0,1-3.926,2.046A2.829,2.829,0,0,1,289.78,18.463Zm.957-4.365-.479,2.119a3.192,3.192,0,0,0-.068.664,1.079,1.079,0,0,0,.449.942,1.733,1.733,0,0,0,1.025.317,1.8,1.8,0,0,0,1.543-.874,7.9,7.9,0,0,0,1-2.617,12.864,12.864,0,0,0,.4-2.573q0-1.895-1.123-1.895a1.914,1.914,0,0,0-1.616.85A8.986,8.986,0,0,0,290.737,14.1ZM305.6,18.912l.215.576a5.21,5.21,0,0,0,.4.889,1.368,1.368,0,0,0,.425.454,1.123,1.123,0,0,0,.61.151,1.469,1.469,0,0,0,.732-.205,3.873,3.873,0,0,0,.811-.664l.752.752a8.713,8.713,0,0,1-1.768,1.426,3.4,3.4,0,0,1-1.709.449,2.7,2.7,0,0,1-1.777-.6,3.9,3.9,0,0,1-1.133-1.865l-.381-1.162a3.941,3.941,0,0,1-2.744-1.343,4.919,4.919,0,0,1-.947-3.218,11.554,11.554,0,0,1,.156-1.768,13,13,0,0,1,.527-2.1A8.868,8.868,0,0,1,300.8,8.59a7.2,7.2,0,0,1,1.538-1.685A6.188,6.188,0,0,1,304.3,5.86a7.424,7.424,0,0,1,2.275-.347,4.539,4.539,0,0,1,3.374,1.162,4.612,4.612,0,0,1,1.147,3.379,12.3,12.3,0,0,1-.215,2.153,11.461,11.461,0,0,1-.669,2.31,8.774,8.774,0,0,1-1.143,2.017,7.1,7.1,0,0,1-1.572,1.523A5.394,5.394,0,0,1,305.6,18.912Zm-3.574-3.447a3.694,3.694,0,0,0,.391,1.948,1.4,1.4,0,0,0,1.27.6,1.984,1.984,0,0,0,.9-.215,3.406,3.406,0,0,0,1.025-.811,7.4,7.4,0,0,0,1.113-1.719,12.775,12.775,0,0,0,.84-2.285,21.376,21.376,0,0,0,.479-2.344,9.382,9.382,0,0,0,.117-1.465,3.626,3.626,0,0,0-.391-1.914,1.417,1.417,0,0,0-1.289-.605,2.4,2.4,0,0,0-1.65.757,7.037,7.037,0,0,0-1.45,2.134,13.662,13.662,0,0,0-1,3.091A14.619,14.619,0,0,0,302.026,15.465Zm11.27-3.389.42-1.914h8.691l-.42,1.914Zm-.967,4.326.42-1.914h8.691l-.42,1.914Zm13.916,2.061-1.035,4.756h-2.744l1.9-8.662a7.777,7.777,0,0,1,2-4.1,5.237,5.237,0,0,1,3.73-1.3,3.555,3.555,0,0,1,2.666.942,3.544,3.544,0,0,1,.918,2.583,7.423,7.423,0,0,1-1.475,4.429,4.608,4.608,0,0,1-3.926,2.046A2.829,2.829,0,0,1,326.245,18.463ZM327.2,14.1l-.479,2.119a3.192,3.192,0,0,0-.068.664,1.079,1.079,0,0,0,.449.942,1.733,1.733,0,0,0,1.025.317,1.8,1.8,0,0,0,1.543-.874,7.9,7.9,0,0,0,1-2.617,12.864,12.864,0,0,0,.4-2.573q0-1.895-1.123-1.895a1.914,1.914,0,0,0-1.616.85A8.986,8.986,0,0,0,327.2,14.1Zm14.492.771h-3.818l-.137.244q-.225.391-.386.708t-.288.645a3.758,3.758,0,0,0-.181.586,2.429,2.429,0,0,0-.054.493q0,.7.83.811l-.146.645h-4.121l.146-.645a1.648,1.648,0,0,0,.6-.264,2.268,2.268,0,0,0,.493-.5A11.252,11.252,0,0,0,335.3,16.5l6.064-10.9h2.813l.42,10.439a9.3,9.3,0,0,0,.068.942,3.623,3.623,0,0,0,.127.591,1.6,1.6,0,0,0,.19.41.746.746,0,0,0,.288.254,1.243,1.243,0,0,0,.391.117l-.146.645h-5.049l.146-.645a1.235,1.235,0,0,0,.679-.22.986.986,0,0,0,.347-.518,3.339,3.339,0,0,0,.1-.913q0-.42-.02-.879Zm-3.213-1.143h3.184l-.039-2.344q-.02-1.25-.02-2.07,0-.625.01-1.279H341.5Zm17.354-4.414.342.645q-1.23,3.262-5.684,9.189H348.6l-.908-7.441a5.369,5.369,0,0,0-.22-1.1,1.06,1.06,0,0,0-.308-.469,1.023,1.023,0,0,0-.557-.176l.146-.645h3.438l.674,7.295a27.772,27.772,0,0,0,2.173-3.521,5.649,5.649,0,0,0,.7-2.358.8.8,0,0,0-.176-.562.869.869,0,0,0-.615-.21l.137-.645Z" transform="translate(-4315 -8040.885)" fill="#12263f"/>
  </g>
</svg>
