<svg xmlns="http://www.w3.org/2000/svg" width="190" height="115" viewBox="0 0 190 115">
  <g id="Grupo_1009231" data-name="Grupo 1009231" transform="translate(-1230 -1984)">
    <path id="Trazado_718152" data-name="Trazado 718152" d="M10,0H180a10,10,0,0,1,10,10v95a10,10,0,0,1-10,10H10A10,10,0,0,1,0,105V10A10,10,0,0,1,10,0Z" transform="translate(1230 1984)" fill="#ffa031" opacity="0.15"/>
    <path id="Trazado_718153" data-name="Trazado 718153" d="M16.979,19.66a74.6,74.6,0,0,0,4.641-8.273h2.918l.316.668q-1.875,2.121-8.062,10.207a44.634,44.634,0,0,1-1.1,5.438H13.65l-.867-1.406A21.4,21.4,0,0,1,14.2,23.316a40.507,40.507,0,0,0,.3-4.781q0-5.4-1.91-5.4a1.7,1.7,0,0,0-1.066.41l-.551-.6a4.593,4.593,0,0,1,3.363-1.758q3,0,3,4.324A26.476,26.476,0,0,1,16.979,19.66Zm14.2-4.969.5-2.3h10.43l-.5,2.3Zm-1.16,5.191.5-2.3h10.43l-.5,2.3Z" transform="translate(1280 2027)" fill="#12263f"/>
    <path id="Trazado_718154" data-name="Trazado 718154" d="M31.615,11.375l.41.773a26.868,26.868,0,0,1-2.408,4.611q-1.857,3.029-4.412,6.416h-1.98l-.363-3.469q-.152-1.406-.2-2.121t-.047-1.137H22.5q-.656,1.371-1.7,3.094t-2.414,3.633H16.252l-.926-9.012a6.592,6.592,0,0,0-.205-1.213,1,1,0,0,0-1.025-.8l.176-.773h4.09l.645,8.508q1.348-2.1,1.975-3.328a13.536,13.536,0,0,0,.932-2.256,11.841,11.841,0,0,0,.422-2.15l.164-.773h2.637l.727,8.52a36.906,36.906,0,0,0,2.467-4.172,6.5,6.5,0,0,0,.768-2.648.961.961,0,0,0-.211-.674,1.043,1.043,0,0,0-.738-.252l.164-.773Zm-3.229,28,.41.773q-1.477,3.914-6.82,11.027H19.7l-1.09-8.93a6.445,6.445,0,0,0-.264-1.324,1.272,1.272,0,0,0-.369-.562,1.228,1.228,0,0,0-.668-.211l.176-.773h4.125l.809,8.754A33.327,33.327,0,0,0,25.029,43.9a6.779,6.779,0,0,0,.838-2.83.961.961,0,0,0-.211-.674,1.043,1.043,0,0,0-.738-.252l.164-.773Z" transform="translate(1325.75 2014)" fill="#12263f"/>
    <path id="Trazado_718155" data-name="Trazado 718155" d="M35,0H0" transform="translate(1331.25 2043)" fill="none" stroke="#12263f" stroke-linecap="round" stroke-width="2"/>
  </g>
</svg>
