<svg xmlns="http://www.w3.org/2000/svg" width="80" height="80" viewBox="0 0 80 80">
  <g id="Grupo_1009230" data-name="Grupo 1009230" transform="translate(-340 -2480)">
    <g id="Elipse_5051" data-name="Elipse 5051" transform="translate(340 2480)" fill="#fff" stroke="#ffa031" stroke-width="3">
      <circle cx="40" cy="40" r="40" stroke="none"/>
      <circle cx="40" cy="40" r="38.5" fill="none"/>
    </g>
    <g id="_047-dropper" data-name="047-dropper" transform="translate(361 2497)">
      <path id="Trazado_716994" data-name="Trazado 716994" d="M28.768,58.528H12.416a1.435,1.435,0,0,1-1.434-1.435V37.752L8.645,34.59H32.538L30.2,37.752v19.34A1.435,1.435,0,0,1,28.768,58.528Z" transform="translate(-8.314 -13.494)" fill="#eeefee"/>
      <path id="Trazado_716995" data-name="Trazado 716995" d="M33.758,34.59l-2.341,3.162V57.095a1.433,1.433,0,0,1-1.433,1.433H13.633A1.437,1.437,0,0,1,12.2,57.095v-.108H28.544a1.438,1.438,0,0,0,1.433-1.44V37.115l1.861-2.525Z" transform="translate(-9.532 -13.494)" fill="#e1e6e9"/>
      <path id="Trazado_716996" data-name="Trazado 716996" d="M30.141,51.743v9.29H16.259v-10.6a6.422,6.422,0,0,1,4.076-.646,25.6,25.6,0,0,1,4.116,1.725,8.992,8.992,0,0,0,5.69.23Z" transform="translate(-10.922 -18.669)" fill="#4db1f0"/>
      <path id="Trazado_716997" data-name="Trazado 716997" d="M29.97,61.191H16.088a.329.329,0,0,1-.329-.329v-10.6a.329.329,0,0,1,.185-.3,6.754,6.754,0,0,1,4.283-.673A10.65,10.65,0,0,1,22.9,50.345c.487.244.99.5,1.5.692a8.65,8.65,0,0,0,5.483.22.329.329,0,0,1,.419.316v9.29A.329.329,0,0,1,29.97,61.191Zm-13.553-.657H29.641V52a9.27,9.27,0,0,1-5.482-.348c-.535-.207-1.052-.466-1.554-.717a9.988,9.988,0,0,0-2.507-.991,6.016,6.016,0,0,0-3.682.532Z" transform="translate(-10.751 -18.498)" fill="#323c6b"/>
      <path id="Trazado_716998" data-name="Trazado 716998" d="M42.976,13.462,31,17.834a3.594,3.594,0,0,1-3.984-1.059l-.731.263a1.238,1.238,0,0,1-.849-2.326l.731-.263a3.6,3.6,0,0,1,2.366-3.38L40.507,6.7Z" transform="translate(-13.786 -3.941)" fill="#eeefee"/>
      <path id="Trazado_716999" data-name="Trazado 716999" d="M40.939,7.87,29.473,12.058a3.59,3.59,0,0,0-2.36,3.379l-.73.263a1.249,1.249,0,0,0-.8,1.374A1.205,1.205,0,0,1,24.7,16.3a1.23,1.23,0,0,1,.736-1.584l.73-.263a3.586,3.586,0,0,1,2.367-3.379L40.512,6.7Z" transform="translate(-13.788 -3.941)" fill="#e1e6e9"/>
      <path id="Trazado_717000" data-name="Trazado 717000" d="M22.452,25.875c0-.789,1.425-3.076,1.425-3.076A11.342,11.342,0,0,1,25.3,25.875a1.425,1.425,0,1,1-2.851,0Z" transform="translate(-13.044 -9.455)" fill="#4db1f0"/>
      <path id="Trazado_717001" data-name="Trazado 717001" d="M23.706,27.463a1.756,1.756,0,0,1-1.754-1.754c0-.839,1.229-2.853,1.475-3.248a.342.342,0,0,1,.559,0c.246.394,1.475,2.41,1.475,3.248A1.756,1.756,0,0,1,23.706,27.463Zm0-4.192a8.346,8.346,0,0,0-1.1,2.438,1.1,1.1,0,1,0,2.193,0A8.346,8.346,0,0,0,23.706,23.271Z" transform="translate(-12.873 -9.29)" fill="#323c6b"/>
      <path id="Trazado_717002" data-name="Trazado 717002" d="M15.04,30.856c0-.789,1.425-3.076,1.425-3.076a11.342,11.342,0,0,1,1.425,3.076,1.425,1.425,0,1,1-2.851,0Z" transform="translate(-10.505 -11.162)" fill="#4db1f0"/>
      <path id="Trazado_717003" data-name="Trazado 717003" d="M16.294,32.444A1.756,1.756,0,0,1,14.54,30.69c0-.839,1.229-2.853,1.475-3.248a.342.342,0,0,1,.559,0c.246.394,1.475,2.41,1.475,3.248A1.756,1.756,0,0,1,16.294,32.444Zm0-4.192a8.346,8.346,0,0,0-1.1,2.438,1.1,1.1,0,1,0,2.193,0A8.346,8.346,0,0,0,16.294,28.252Z" transform="translate(-10.334 -10.996)" fill="#323c6b"/>
      <path id="Trazado_717004" data-name="Trazado 717004" d="M26.747,33.431A18.856,18.856,0,0,1,27.93,31.2a18.856,18.856,0,0,1,1.183,2.232Z" transform="translate(-14.515 -12.333)" fill="#4db1f0"/>
      <g id="Grupo_1009063" data-name="Grupo 1009063" transform="translate(0 1.526)">
        <path id="Trazado_717005" data-name="Trazado 717005" d="M28.947,33.594H26.576a.329.329,0,0,1-.3-.454,19.075,19.075,0,0,1,1.21-2.281.342.342,0,0,1,.559,0,18.976,18.976,0,0,1,1.21,2.281.329.329,0,0,1-.3.454Zm-1.863-.657h1.354c-.22-.46-.483-.928-.677-1.262C27.567,32.009,27.3,32.48,27.084,32.936Z" transform="translate(-14.344 -13.693)" fill="#323c6b"/>
        <path id="Trazado_717006" data-name="Trazado 717006" d="M42.882,70.319a.329.329,0,0,1-.241-.552,3.058,3.058,0,0,0,.821-2.075V65.86a.329.329,0,1,1,.657,0v1.832a3.713,3.713,0,0,1-1,2.521A.329.329,0,0,1,42.882,70.319Z" transform="translate(-19.93 -25.619)" fill="#323c6b"/>
        <path id="Trazado_717007" data-name="Trazado 717007" d="M44.264,64.071a.329.329,0,0,1-.329-.329v-.226a.329.329,0,0,1,.657,0v.226A.329.329,0,0,1,44.264,64.071Z" transform="translate(-20.403 -24.816)" fill="#323c6b"/>
        <path id="Trazado_717008" data-name="Trazado 717008" d="M34.391,8.785a.329.329,0,0,1-.113-.638l.349-.128a.329.329,0,1,1,.226.617l-.349.128A.333.333,0,0,1,34.391,8.785Z" transform="translate(-17.021 -5.912)" fill="#323c6b"/>
        <path id="Trazado_717009" data-name="Trazado 717009" d="M36.828,7.109a.329.329,0,0,1-.113-.638l4.458-1.627a.329.329,0,0,1,.226.617l-4.458,1.63A.333.333,0,0,1,36.828,7.109Z" transform="translate(-17.856 -4.824)" fill="#323c6b"/>
        <path id="Trazado_717010" data-name="Trazado 717010" d="M28.6,58.684H12.244a1.766,1.766,0,0,1-1.763-1.764V37.685L8.208,34.613a.329.329,0,0,1,.263-.526H32.366a.329.329,0,0,1,.263.526l-2.27,3.072V56.92A1.766,1.766,0,0,1,28.6,58.684ZM9.124,34.746l1.949,2.636a.329.329,0,0,1,.066.2V56.92a1.108,1.108,0,0,0,1.105,1.107H28.6A1.108,1.108,0,0,0,29.7,56.92V37.58a.329.329,0,0,1,.066-.2l1.949-2.636Z" transform="translate(-8.142 -14.848)" fill="#323c6b"/>
      </g>
      <rect id="Rectángulo_348051" data-name="Rectángulo 348051" width="9.936" height="3.149" rx="1.575" transform="translate(29.217 0.382) rotate(69.934)" fill="#9297ab"/>
      <path id="Trazado_717011" data-name="Trazado 717011" d="M55.755,11.119l3.1-1.137a3.6,3.6,0,0,0-2.465-6.765l-3.1,1.137Z" transform="translate(-23.607 -2.673)" fill="#9297ab"/>
      <path id="Trazado_717012" data-name="Trazado 717012" d="M52.287,5.821a1.291,1.291,0,0,0-1.663-.769l-.513.184a1.315,1.315,0,0,0-.776,1.67l-.48-1.315a1.315,1.315,0,0,1,.776-1.67l.513-.184a1.3,1.3,0,0,1,1.673.776Z" transform="translate(-22.062 -2.898)" fill="#84879c"/>
      <path id="Trazado_717013" data-name="Trazado 717013" d="M61.272,5.781a3.62,3.62,0,0,0-4.208-1.348l-3.1,1.137,2.012,5.523-.079.026L53.435,4.354l3.1-1.137a3.605,3.605,0,0,1,4.615,2.15,3.316,3.316,0,0,1,.125.414Z" transform="translate(-23.657 -2.673)" fill="#84879c"/>
      <path id="Trazado_717014" data-name="Trazado 717014" d="M52.278,13.5a1.634,1.634,0,0,1-1.534-1.071L48.23,5.537A1.631,1.631,0,0,1,49.2,3.445l.51-.187a1.633,1.633,0,0,1,2.092.973l2.514,6.887a1.63,1.63,0,0,1-.974,2.091l-.51.187a1.626,1.626,0,0,1-.558.1Zm-2-9.678a.97.97,0,0,0-.333.059l-.51.187a.972.972,0,0,0-.581,1.249L51.362,12.2a.974.974,0,0,0,1.249.581l.51-.187a.974.974,0,0,0,.582-1.249L51.188,4.457a.975.975,0,0,0-.915-.64Z" transform="translate(-21.84 -2.728)" fill="#323c6b"/>
      <path id="Trazado_717015" data-name="Trazado 717015" d="M55.584,11.278a.329.329,0,0,1-.309-.216L52.81,4.3a.329.329,0,0,1,.2-.421l3.1-1.137a3.929,3.929,0,1,1,2.689,7.383L55.7,11.258a.329.329,0,0,1-.114.02ZM53.54,4.38l2.24,6.148L58.567,9.5a3.271,3.271,0,1,0-2.239-6.148Z" transform="translate(-23.436 -2.503)" fill="#323c6b"/>
      <path id="Trazado_717016" data-name="Trazado 717016" d="M29.6,18.206a3.941,3.941,0,0,1-2.853-1.22l-.523.189a1.567,1.567,0,0,1-1.074-2.944l.523-.189a3.941,3.941,0,0,1,2.573-3.456L40.223,6.216a.33.33,0,0,1,.425.2l2.466,6.764a.329.329,0,0,1-.2.421L30.94,17.967a3.913,3.913,0,0,1-1.341.239Zm-2.755-1.933a.329.329,0,0,1,.251.117,3.28,3.28,0,0,0,3.62.961l11.67-4.258L40.14,6.946,28.471,11.205a3.279,3.279,0,0,0-2.149,3.071.329.329,0,0,1-.217.309l-.731.263a.909.909,0,0,0-.071,1.678.9.9,0,0,0,.7.03l.732-.263a.329.329,0,0,1,.112-.02Z" transform="translate(-13.615 -3.768)" fill="#323c6b"/>
      <path id="Trazado_717017" data-name="Trazado 717017" d="M21.038,63.631a.394.394,0,0,1-.41.394h-.2a.4.4,0,1,1,.009-.805h.208a.394.394,0,0,1,.394.411Z" transform="translate(-12.208 -23.301)" fill="#fff"/>
      <path id="Trazado_717018" data-name="Trazado 717018" d="M27.491,63.655a.394.394,0,0,1-.41.394l-4.036-.005a.4.4,0,0,1-.394-.394v-.013a.4.4,0,0,1,.41-.394l4.036.005a.394.394,0,0,1,.394.408Z" transform="translate(-13.112 -23.309)" fill="#fff"/>
    </g>
  </g>
</svg>
