<svg xmlns="http://www.w3.org/2000/svg" width="190" height="91" viewBox="0 0 190 91">
  <g id="Grupo_1009233" data-name="Grupo 1009233" transform="translate(-1078 -2312)">
    <path id="Trazado_718160" data-name="Trazado 718160" d="M10,0H180a10,10,0,0,1,10,10V81a10,10,0,0,1-10,10H10A10,10,0,0,1,0,81V10A10,10,0,0,1,10,0Z" transform="translate(1078 2312)" fill="#ffa031" opacity="0.15"/>
    <path id="Trazado_718161" data-name="Trazado 718161" d="M10.245,16.266a2.682,2.682,0,0,0,.288,1.128,1.328,1.328,0,0,0,.591.586,1.952,1.952,0,0,0,.82.161,1.726,1.726,0,0,0,1.191-.376,1.349,1.349,0,0,0,.42-1.06,1.586,1.586,0,0,0-.137-.693,1.749,1.749,0,0,0-.449-.552,8.351,8.351,0,0,0-1.016-.7,4.61,4.61,0,0,1-1.421-1.216,2.391,2.391,0,0,1-.444-1.411,2.553,2.553,0,0,1,1.074-2.207,5.087,5.087,0,0,1,3.008-.771,12.52,12.52,0,0,1,3.193.449l-.508,2.334h-1.24a2.355,2.355,0,0,0-.464-1.338,1.357,1.357,0,0,0-1.079-.43,1.564,1.564,0,0,0-1.05.337,1.137,1.137,0,0,0-.4.913,1.289,1.289,0,0,0,.151.635,1.972,1.972,0,0,0,.483.547,8.384,8.384,0,0,0,.986.664,4.645,4.645,0,0,1,1.484,1.27,2.642,2.642,0,0,1,.449,1.533,2.734,2.734,0,0,1-.532,1.7A3.14,3.14,0,0,1,14.2,18.814a6.033,6.033,0,0,1-2.1.342,13.92,13.92,0,0,1-1.943-.127,13.83,13.83,0,0,1-1.689-.342L9,16.266Zm8.584,3.545a2.128,2.128,0,0,0-.366.605,1.794,1.794,0,0,0-.1.615,1.132,1.132,0,0,0,.464.991,2.419,2.419,0,0,0,1.392.327,3.212,3.212,0,0,0,1.23-.225,2.767,2.767,0,0,0,1.006-.737,5.072,5.072,0,0,0,.854-1.523,17.881,17.881,0,0,0,.757-2.72l-.127-.088a8.445,8.445,0,0,1-1.177,1.25,3.692,3.692,0,0,1-1.1.649,3.738,3.738,0,0,1-1.27.2,2.232,2.232,0,0,1-1.2-.322,2.185,2.185,0,0,1-.83-1.021,4.417,4.417,0,0,1-.308-1.772,9.157,9.157,0,0,1,.391-2.642,6.909,6.909,0,0,1,1.108-2.241,5.058,5.058,0,0,1,1.787-1.47,5.419,5.419,0,0,1,2.446-.532,5.049,5.049,0,0,1,1.274.151,3.99,3.99,0,0,1,1.187.552l.879-.7,1.094.156-.84,3.818q-.205.938-.371,1.8L26.4,17.936a17.725,17.725,0,0,1-.518,2,6.309,6.309,0,0,1-.518,1.162,3.882,3.882,0,0,1-.6.8,3.807,3.807,0,0,1-.713.6,4.187,4.187,0,0,1-.889.439,6.512,6.512,0,0,1-1.24.313,10.655,10.655,0,0,1-1.67.117,9.23,9.23,0,0,1-2.3-.244,2.8,2.8,0,0,1-1.387-.737,1.741,1.741,0,0,1-.454-1.226,1.8,1.8,0,0,1,.43-1.143,4.505,4.505,0,0,1,1.27-1.025Zm5.947-6.895a6.646,6.646,0,0,0,.156-1.406,1.7,1.7,0,0,0-.244-1.006.928.928,0,0,0-.8-.332,2.015,2.015,0,0,0-1.582.879,6.936,6.936,0,0,0-1.147,2.441,10.394,10.394,0,0,0-.444,2.813,2.124,2.124,0,0,0,.21,1.064.7.7,0,0,0,.649.352,1.6,1.6,0,0,0,.85-.269,4.034,4.034,0,0,0,.9-.83,5.012,5.012,0,0,0,.8-1.353,11.9,11.9,0,0,0,.576-1.992Zm10.156-.84.42-1.914h8.691l-.42,1.914ZM33.966,16.4l.42-1.914h8.691l-.42,1.914Z" transform="translate(1092 2347)" fill="#12263f"/>
    <path id="Trazado_718162" data-name="Trazado 718162" d="M56.5,16.217a62.17,62.17,0,0,0,3.867-6.895h2.432l.264.557q-1.563,1.768-6.719,8.506a37.2,37.2,0,0,1-.918,4.531h-1.7L53,21.744a17.835,17.835,0,0,1,1.182-2.48,33.756,33.756,0,0,0,.254-3.984q0-4.5-1.592-4.5a1.413,1.413,0,0,0-.889.342l-.459-.5a3.828,3.828,0,0,1,2.8-1.465q2.5,0,2.5,3.6A22.063,22.063,0,0,1,56.5,16.217ZM10.767,48.492l.127-.605a6.786,6.786,0,0,0,3.359-1.45A7.641,7.641,0,0,0,16.5,43.17l-.088-.039a6.747,6.747,0,0,1-1.367.5,5.614,5.614,0,0,1-1.211.127,3.266,3.266,0,0,1-1.694-.425,2.776,2.776,0,0,1-1.089-1.162,3.674,3.674,0,0,1-.371-1.675,4.921,4.921,0,0,1,.684-2.559,4.676,4.676,0,0,1,1.88-1.782,5.77,5.77,0,0,1,2.729-.63,4.157,4.157,0,0,1,2.129.513,3.268,3.268,0,0,1,1.328,1.46,5.222,5.222,0,0,1,.449,2.256,10.387,10.387,0,0,1-.332,2.5,9.141,9.141,0,0,1-1.079,2.559,8.547,8.547,0,0,1-1.87,2.153,9.536,9.536,0,0,1-2.529,1.494,10.277,10.277,0,0,1-2.949.7Zm2.715-7.949q0,1.895,1.367,1.895a2.987,2.987,0,0,0,.649-.068,2.207,2.207,0,0,0,.557-.2,2.951,2.951,0,0,0,.42-.264,1.4,1.4,0,0,0,.308-.337,2.036,2.036,0,0,0,.225-.454,4.337,4.337,0,0,0,.161-.659q.073-.41.117-.82a8.268,8.268,0,0,0,.044-.879,2.97,2.97,0,0,0-.347-1.621,1.217,1.217,0,0,0-1.089-.518,1.775,1.775,0,0,0-1.235.5,3.38,3.38,0,0,0-.859,1.421A6.133,6.133,0,0,0,13.481,40.543ZM23.53,46.051q-.02.625-.078,1.143a6.778,6.778,0,0,1-.19,1.006,4.065,4.065,0,0,1-.347.884,4.347,4.347,0,0,1-.674.879,10.113,10.113,0,0,1-1.035.942,15.227,15.227,0,0,1-1.367.957l-.664-.918A4.869,4.869,0,0,0,20.3,49.815a4.7,4.7,0,0,0,.649-1.562,13.35,13.35,0,0,0,.322-2.2ZM33.6,42.3a2.924,2.924,0,0,1,1.182,1.011,2.688,2.688,0,0,1,.391,1.479,4.1,4.1,0,0,1-.659,2.314,4.169,4.169,0,0,1-1.875,1.523,7.081,7.081,0,0,1-2.837.527,6.63,6.63,0,0,1-2.31-.361A3.138,3.138,0,0,1,26,47.726a2.808,2.808,0,0,1-.518-1.7,3.871,3.871,0,0,1,.728-2.363,5.277,5.277,0,0,1,2.212-1.631l.01-.127a3.664,3.664,0,0,1-.986-1.147,2.887,2.887,0,0,1-.342-1.382,3.393,3.393,0,0,1,.664-2.114A3.973,3.973,0,0,1,29.6,35.948a7.592,7.592,0,0,1,2.661-.435,6.321,6.321,0,0,1,2.378.386,2.864,2.864,0,0,1,1.367,1.035,2.625,2.625,0,0,1,.425,1.47,3.541,3.541,0,0,1-.693,2.2A5.4,5.4,0,0,1,33.6,42.174ZM29.78,39.889a2.67,2.67,0,0,0,.122.845,1.179,1.179,0,0,0,.439.6,1.448,1.448,0,0,0,.864.229,2.109,2.109,0,0,0,1.289-.42,2.767,2.767,0,0,0,.889-1.191,4.418,4.418,0,0,0,.322-1.719A1.789,1.789,0,0,0,33.35,37a1.367,1.367,0,0,0-1.069-.4,2.16,2.16,0,0,0-1.167.308,2.318,2.318,0,0,0-.791.825,3.706,3.706,0,0,0-.42,1.118A5.293,5.293,0,0,0,29.78,39.889ZM28.257,46.4a1.745,1.745,0,0,0,.386,1.255,1.591,1.591,0,0,0,1.187.4,2.291,2.291,0,0,0,.815-.132A2.014,2.014,0,0,0,31.3,47.5a2.847,2.847,0,0,0,.562-.771,4.555,4.555,0,0,0,.391-1.113,6.177,6.177,0,0,0,.142-1.348,1.773,1.773,0,0,0-.376-1.221,1.386,1.386,0,0,0-1.089-.42,2.065,2.065,0,0,0-1.406.532,3.431,3.431,0,0,0-.937,1.479A5.363,5.363,0,0,0,28.257,46.4Zm15.137-.449a6.425,6.425,0,0,0-.186,1.2.756.756,0,0,0,.215.581,1.357,1.357,0,0,0,.7.283,9.811,9.811,0,0,0,1.44.093L45.376,49H37.349l.186-.889a12.538,12.538,0,0,0,1.528-.137,1.747,1.747,0,0,0,.723-.273,1.364,1.364,0,0,0,.405-.5,5.5,5.5,0,0,0,.332-1.1l1.406-6.377a3.861,3.861,0,0,0,.107-.791.594.594,0,0,0-.117-.41.417.417,0,0,0-.322-.127,1.451,1.451,0,0,0-.43.073,3.476,3.476,0,0,0-.566.249q-.332.176-1.318.723l-.5-1.006,5.615-2.92h1.328q-.273,1.035-.605,2.6ZM56.7,43.238h.2a1.825,1.825,0,0,0,.581-.093,2.988,2.988,0,0,0,.659-.342q.381-.249,1.016-.757a3.84,3.84,0,0,0,.6-.576,1.8,1.8,0,0,0,.283-.479,1.341,1.341,0,0,0,.083-.469.525.525,0,0,0-.557-.566l.156-.645H63.2l.244.635a12.367,12.367,0,0,1-1.631,1.445l-2.2,1.65,1.27,3.584a8,8,0,0,0,.391.967,1.468,1.468,0,0,0,.41.508,1.545,1.545,0,0,0,.713.254L62.251,49H58.774l-1.309-4.219a1.688,1.688,0,0,0-.181-.42.426.426,0,0,0-.205-.161.991.991,0,0,0-.327-.044h-.244L55.444,49h-2.8l2.471-11.035a7.21,7.21,0,0,0,.215-1.4,1.029,1.029,0,0,0-.044-.337.479.479,0,0,0-.132-.2.613.613,0,0,0-.234-.122,4.589,4.589,0,0,0-.576-.1l.156-.635,2.92-.156h1.1ZM65.64,35.67h3.711L71.235,41.2q.771,2.256,1.221,3.984h.127q.283-1.689.742-3.74l.684-3.135a5.389,5.389,0,0,0,.127-1.143.821.821,0,0,0-.19-.6,1.065,1.065,0,0,0-.62-.249l.137-.645h3.594l-.137.645a1.525,1.525,0,0,0-.63.322,1.647,1.647,0,0,0-.376.581,6.775,6.775,0,0,0-.312,1.089L73.247,49H71.02l-2.344-6.826q-.273-.8-.488-1.5T67.671,38.9l-.146-.01q-.078.654-.3,1.8T66.7,43.18L66,46.363q-.059.254-.078.4t-.034.317q-.015.171-.015.425a.821.821,0,0,0,.19.6,1.065,1.065,0,0,0,.62.249L66.548,49H62.954l.137-.645a1.525,1.525,0,0,0,.63-.322,1.647,1.647,0,0,0,.376-.581,6.775,6.775,0,0,0,.313-1.089l1.777-8.057a5.3,5.3,0,0,0,.127-1.143.821.821,0,0,0-.19-.6,1.065,1.065,0,0,0-.62-.249Zm21.592-.645L76.724,53.2H74.751L85.269,35.025ZM96.089,49H92.036l1.221-5.312q.264-1.133.322-1.562a5.306,5.306,0,0,0,.059-.674.981.981,0,0,0-.186-.654.671.671,0,0,0-.537-.215,1.3,1.3,0,0,0-.684.234,4.357,4.357,0,0,0-.83.732,4.457,4.457,0,0,0-.732,1.055,5.707,5.707,0,0,0-.439,1.387L89.155,49h-2.8l1.533-6.895q.049-.234.132-.669a4,4,0,0,0,.083-.728.623.623,0,0,0-.229-.562,1.564,1.564,0,0,0-.718-.19l.146-.645,2.686-.107h1.025l-.557,2.109.117.039a9.2,9.2,0,0,1,1.25-1.3,4,4,0,0,1,1.147-.684,3.642,3.642,0,0,1,1.265-.21,2.17,2.17,0,0,1,1.582.562,2.061,2.061,0,0,1,.576,1.548,7.134,7.134,0,0,1-.2,1.514l-.8,3.613q-.1.449-.132.693a3.093,3.093,0,0,0-.034.42.747.747,0,0,0,.22.615,1.508,1.508,0,0,0,.757.234Zm2.793-12.97.325-1.361a10.139,10.139,0,0,1,1.4-.4,6.37,6.37,0,0,1,1.279-.131,2.94,2.94,0,0,1,1,.157,1.446,1.446,0,0,1,.684.49,1.34,1.34,0,0,1,.251.829,1.869,1.869,0,0,1-.162.795,2.13,2.13,0,0,1-.447.629,3.073,3.073,0,0,1-.672.493,5.615,5.615,0,0,1-.837.373l-.011.074a1.943,1.943,0,0,1,1.025.6,1.516,1.516,0,0,1,.376,1.022,2.427,2.427,0,0,1-.2.977,2.322,2.322,0,0,1-.615.82,2.548,2.548,0,0,1-1,.533,5.277,5.277,0,0,1-1.424.165,5.931,5.931,0,0,1-1.193-.128,5.131,5.131,0,0,1-1.045-.316l.3-1.384h.911q.057,1.191,1.042,1.191a1.268,1.268,0,0,0,.795-.265,1.687,1.687,0,0,0,.53-.718,2.426,2.426,0,0,0,.185-.926,1.1,1.1,0,0,0-.339-.889,1.53,1.53,0,0,0-1.005-.285h-.507l.142-.649a3.245,3.245,0,0,0,1.265-.273,2.088,2.088,0,0,0,.894-.735,1.98,1.98,0,0,0,.325-1.139.834.834,0,0,0-.208-.607.793.793,0,0,0-.6-.214,1.548,1.548,0,0,0-.376.048,1.06,1.06,0,0,0-.382.191,1.679,1.679,0,0,0-.359.39,2.968,2.968,0,0,0-.319.647Z" transform="translate(1141.75 2331)" fill="#12263f"/>
    <path id="Trazado_718163" data-name="Trazado 718163" d="M113,0H0" transform="translate(1141.5 2358.5)" fill="none" stroke="#12263f" stroke-linecap="round" stroke-width="2"/>
  </g>
</svg>
