<svg xmlns="http://www.w3.org/2000/svg" width="190" height="62" viewBox="0 0 190 62">
  <g id="Grupo_1009234" data-name="Grupo 1009234" transform="translate(-810 -2691)">
    <path id="Trazado_718164" data-name="Trazado 718164" d="M10,0H180a10,10,0,0,1,10,10V52a10,10,0,0,1-10,10H10A10,10,0,0,1,0,52V10A10,10,0,0,1,10,0Z" transform="translate(810 2691)" fill="#ffa031" opacity="0.15"/>
    <path id="Trazado_718165" data-name="Trazado 718165" d="M13.89,7l.914,9.785L20.359,7h5.449l-.164.773a1.83,1.83,0,0,0-.756.387,1.977,1.977,0,0,0-.451.7,8.129,8.129,0,0,0-.375,1.307l-2.133,9.668q-.07.3-.094.48t-.041.381q-.018.205-.018.51a.985.985,0,0,0,.229.721,1.278,1.278,0,0,0,.744.3L22.585,23H16.691l.164-.773a1.831,1.831,0,0,0,.756-.387,1.977,1.977,0,0,0,.451-.7,8.13,8.13,0,0,0,.375-1.307l1.078-4.922q.176-.8.5-2.127T20.781,10h-.234Q20,11.012,19.363,12.1L14.089,21.23h-1.9l-.773-7.043q-.152-1.336-.229-2.332t-.123-1.969h-.187q-.164,1.078-.422,2.467t-.469,2.338L8.851,19.836q-.07.3-.094.48t-.041.381q-.018.205-.018.51a.985.985,0,0,0,.229.721,1.278,1.278,0,0,0,.744.3L9.507,23h-4.3l.164-.773a1.831,1.831,0,0,0,.756-.387,1.977,1.977,0,0,0,.451-.7,8.13,8.13,0,0,0,.375-1.307l2.133-9.668A6.357,6.357,0,0,0,9.238,8.8a.985.985,0,0,0-.229-.721,1.278,1.278,0,0,0-.744-.3L8.429,7ZM29.8,28.867a4.5,4.5,0,0,0-.13.841.529.529,0,0,0,.15.407.95.95,0,0,0,.489.2,6.867,6.867,0,0,0,1.008.065l-.13.622H25.569l.13-.622a8.776,8.776,0,0,0,1.07-.1,1.223,1.223,0,0,0,.506-.191.955.955,0,0,0,.284-.352,3.849,3.849,0,0,0,.232-.769l.984-4.464a2.7,2.7,0,0,0,.075-.554.416.416,0,0,0-.082-.287.292.292,0,0,0-.226-.089,1.015,1.015,0,0,0-.3.051,2.433,2.433,0,0,0-.4.174q-.232.123-.923.506l-.349-.7L30.5,21.56h.93q-.191.725-.424,1.818ZM40.389,14.691l.5-2.3h10.43l-.5,2.3Zm-1.16,5.191.5-2.3h10.43l-.5,2.3ZM65.865,7l.914,9.785L72.334,7h5.449l-.164.773a1.831,1.831,0,0,0-.756.387,1.977,1.977,0,0,0-.451.7,8.13,8.13,0,0,0-.375,1.307L73.9,19.836q-.07.3-.094.48t-.041.381q-.018.205-.018.51a.985.985,0,0,0,.229.721,1.278,1.278,0,0,0,.744.3L74.561,23H68.666l.164-.773a1.831,1.831,0,0,0,.756-.387,1.977,1.977,0,0,0,.451-.7,8.13,8.13,0,0,0,.375-1.307l1.078-4.922q.176-.8.5-2.127T72.756,10h-.234q-.551,1.008-1.184,2.1L66.064,21.23h-1.9l-.773-7.043q-.152-1.336-.229-2.332t-.123-1.969h-.187q-.164,1.078-.422,2.467t-.469,2.338l-1.137,5.145q-.07.3-.094.48t-.041.381q-.018.205-.018.51a.985.985,0,0,0,.229.721,1.278,1.278,0,0,0,.744.3L61.482,23h-4.3l.164-.773a1.831,1.831,0,0,0,.756-.387,1.977,1.977,0,0,0,.451-.7,8.13,8.13,0,0,0,.375-1.307l2.133-9.668A6.357,6.357,0,0,0,61.213,8.8a.985.985,0,0,0-.229-.721,1.278,1.278,0,0,0-.744-.3L60.4,7ZM81.413,29.325a2.279,2.279,0,0,0,.55-.051.7.7,0,0,0,.332-.191,1.813,1.813,0,0,0,.3-.53h.834L82.821,31H76.8l.1-.451a9.889,9.889,0,0,1,.991-1.367,23.52,23.52,0,0,1,1.764-1.818,20.768,20.768,0,0,0,1.562-1.6A5.516,5.516,0,0,0,82,24.575a2.764,2.764,0,0,0,.27-1.189,1.141,1.141,0,0,0-.26-.79.889.889,0,0,0-.7-.291,1.356,1.356,0,0,0-.957.376,3.018,3.018,0,0,0-.7,1.155H78.419l.39-1.641a13.26,13.26,0,0,1,1.74-.492,7.46,7.46,0,0,1,1.418-.137,3.581,3.581,0,0,1,1.371.229,1.7,1.7,0,0,1,.8.619,1.584,1.584,0,0,1,.253.882,2.473,2.473,0,0,1-.15.865,3.2,3.2,0,0,1-.5.848,8.522,8.522,0,0,1-.936.984q-.591.543-1.651,1.412-.5.41-1.077.943t-.919.909l-.014.068Z" transform="translate(860 2708)" fill="#12263f"/>
  </g>
</svg>
