<svg xmlns="http://www.w3.org/2000/svg" width="190" height="62" viewBox="0 0 190 62">
  <g id="Grupo_1009235" data-name="Grupo 1009235" transform="translate(-810 -2823)">
    <path id="Trazado_718166" data-name="Trazado 718166" d="M10,0H180a10,10,0,0,1,10,10V52a10,10,0,0,1-10,10H10A10,10,0,0,1,0,52V10A10,10,0,0,1,10,0Z" transform="translate(810 2823)" fill="#ffa031" opacity="0.15"/>
    <path id="Trazado_718167" data-name="Trazado 718167" d="M40.849,22.355l-1.242,5.707H36.313L38.6,17.668A9.332,9.332,0,0,1,41,12.746a6.285,6.285,0,0,1,4.477-1.559,4.266,4.266,0,0,1,3.2,1.131,4.253,4.253,0,0,1,1.1,3.1,8.907,8.907,0,0,1-1.77,5.314A5.529,5.529,0,0,1,43.3,23.188,3.4,3.4,0,0,1,40.849,22.355ZM42,17.117l-.574,2.543a3.83,3.83,0,0,0-.082.8,1.3,1.3,0,0,0,.539,1.131,2.08,2.08,0,0,0,1.23.381,2.159,2.159,0,0,0,1.852-1.049,9.477,9.477,0,0,0,1.2-3.141,15.437,15.437,0,0,0,.48-3.088q0-2.273-1.348-2.273a2.3,2.3,0,0,0-1.939,1.02A10.784,10.784,0,0,0,42,17.117Zm13.578,11.75a4.5,4.5,0,0,0-.13.841.529.529,0,0,0,.15.407.95.95,0,0,0,.489.2,6.867,6.867,0,0,0,1.008.065l-.13.622H51.344l.13-.622a8.776,8.776,0,0,0,1.07-.1,1.223,1.223,0,0,0,.506-.191.955.955,0,0,0,.284-.352,3.849,3.849,0,0,0,.232-.769l.984-4.464a2.7,2.7,0,0,0,.075-.554.416.416,0,0,0-.082-.287.292.292,0,0,0-.226-.089,1.015,1.015,0,0,0-.3.051,2.433,2.433,0,0,0-.4.174q-.232.123-.923.506l-.349-.7,3.93-2.044h.93q-.191.725-.424,1.818Zm17.561-5.973.258.691a6.252,6.252,0,0,0,.48,1.066,1.642,1.642,0,0,0,.51.545,1.348,1.348,0,0,0,.732.182A1.763,1.763,0,0,0,76,25.133a4.648,4.648,0,0,0,.973-.8l.9.9a10.456,10.456,0,0,1-2.121,1.711,4.084,4.084,0,0,1-2.051.539,3.242,3.242,0,0,1-2.133-.715,4.685,4.685,0,0,1-1.359-2.238l-.457-1.395a4.729,4.729,0,0,1-3.293-1.611,5.9,5.9,0,0,1-1.137-3.861,13.864,13.864,0,0,1,.188-2.121,15.6,15.6,0,0,1,.633-2.525,10.641,10.641,0,0,1,1.23-2.514,8.637,8.637,0,0,1,1.846-2.021,7.426,7.426,0,0,1,2.361-1.254,8.909,8.909,0,0,1,2.73-.416,5.447,5.447,0,0,1,4.049,1.395,5.534,5.534,0,0,1,1.377,4.055,14.762,14.762,0,0,1-.258,2.584,13.754,13.754,0,0,1-.8,2.771,10.529,10.529,0,0,1-1.371,2.42,8.525,8.525,0,0,1-1.887,1.828A6.473,6.473,0,0,1,73.136,22.895Zm-4.289-4.137a4.433,4.433,0,0,0,.469,2.338,1.681,1.681,0,0,0,1.523.721,2.381,2.381,0,0,0,1.078-.258,4.087,4.087,0,0,0,1.23-.973,8.876,8.876,0,0,0,1.336-2.062,15.33,15.33,0,0,0,1.008-2.742,25.648,25.648,0,0,0,.574-2.812,11.258,11.258,0,0,0,.141-1.758,4.351,4.351,0,0,0-.469-2.3,1.7,1.7,0,0,0-1.547-.727,2.884,2.884,0,0,0-1.98.908,8.444,8.444,0,0,0-1.74,2.561,16.4,16.4,0,0,0-1.2,3.709A17.543,17.543,0,0,0,68.847,18.758ZM85.085,28.867a4.5,4.5,0,0,0-.13.841.529.529,0,0,0,.15.407.95.95,0,0,0,.489.2,6.867,6.867,0,0,0,1.008.065l-.13.622H80.854l.13-.622a8.776,8.776,0,0,0,1.07-.1,1.223,1.223,0,0,0,.506-.191.955.955,0,0,0,.284-.352,3.849,3.849,0,0,0,.232-.769l.984-4.464a2.7,2.7,0,0,0,.075-.554.416.416,0,0,0-.082-.287.292.292,0,0,0-.226-.089,1.015,1.015,0,0,0-.3.051,2.433,2.433,0,0,0-.4.174q-.232.123-.923.506l-.349-.7,3.93-2.044h.93q-.191.725-.424,1.818Zm5.3-14.176.5-2.3h10.43l-.5,2.3Zm-1.16,5.191.5-2.3h10.43l-.5,2.3Zm16.7,2.473-1.242,5.707h-3.293l2.285-10.395a9.332,9.332,0,0,1,2.4-4.922,6.285,6.285,0,0,1,4.477-1.559,4.266,4.266,0,0,1,3.2,1.131,4.253,4.253,0,0,1,1.1,3.1,8.907,8.907,0,0,1-1.77,5.314,5.529,5.529,0,0,1-4.711,2.455A3.4,3.4,0,0,1,105.928,22.355Zm1.148-5.238L106.5,19.66a3.83,3.83,0,0,0-.082.8,1.3,1.3,0,0,0,.539,1.131,2.08,2.08,0,0,0,1.23.381,2.159,2.159,0,0,0,1.852-1.049,9.477,9.477,0,0,0,1.2-3.141,15.437,15.437,0,0,0,.48-3.088q0-2.273-1.348-2.273a2.3,2.3,0,0,0-1.939,1.02A10.784,10.784,0,0,0,107.076,17.117Zm13.216,12.208a2.279,2.279,0,0,0,.55-.051.7.7,0,0,0,.332-.191,1.813,1.813,0,0,0,.3-.53h.834L121.7,31h-6.022l.1-.451a9.889,9.889,0,0,1,.991-1.367,23.52,23.52,0,0,1,1.764-1.818,20.768,20.768,0,0,0,1.562-1.6,5.516,5.516,0,0,0,.793-1.193,2.764,2.764,0,0,0,.27-1.189,1.141,1.141,0,0,0-.26-.79.889.889,0,0,0-.7-.291,1.356,1.356,0,0,0-.957.376,3.018,3.018,0,0,0-.7,1.155H117.3l.39-1.641a13.26,13.26,0,0,1,1.74-.492,7.46,7.46,0,0,1,1.418-.137,3.581,3.581,0,0,1,1.371.229,1.7,1.7,0,0,1,.8.619,1.584,1.584,0,0,1,.253.882,2.473,2.473,0,0,1-.15.865,3.2,3.2,0,0,1-.5.848,8.522,8.522,0,0,1-.936.984q-.591.543-1.651,1.412-.5.41-1.077.943t-.919.909l-.014.068Zm17.924-6.431.258.691a6.252,6.252,0,0,0,.48,1.066,1.642,1.642,0,0,0,.51.545,1.348,1.348,0,0,0,.732.182,1.763,1.763,0,0,0,.879-.246,4.648,4.648,0,0,0,.973-.8l.9.9a10.456,10.456,0,0,1-2.121,1.711,4.084,4.084,0,0,1-2.051.539,3.242,3.242,0,0,1-2.133-.715,4.685,4.685,0,0,1-1.359-2.238l-.457-1.395a4.729,4.729,0,0,1-3.293-1.611,5.9,5.9,0,0,1-1.137-3.861,13.864,13.864,0,0,1,.188-2.121,15.6,15.6,0,0,1,.633-2.525,10.641,10.641,0,0,1,1.23-2.514A8.637,8.637,0,0,1,134.3,8.486a7.426,7.426,0,0,1,2.361-1.254,8.909,8.909,0,0,1,2.73-.416,5.447,5.447,0,0,1,4.049,1.395,5.534,5.534,0,0,1,1.377,4.055,14.762,14.762,0,0,1-.258,2.584,13.754,13.754,0,0,1-.8,2.771,10.529,10.529,0,0,1-1.371,2.42,8.525,8.525,0,0,1-1.887,1.828A6.473,6.473,0,0,1,138.215,22.895Zm-4.289-4.137A4.433,4.433,0,0,0,134.4,21.1a1.681,1.681,0,0,0,1.523.721A2.381,2.381,0,0,0,137,21.559a4.087,4.087,0,0,0,1.23-.973,8.876,8.876,0,0,0,1.336-2.062,15.33,15.33,0,0,0,1.008-2.742,25.648,25.648,0,0,0,.574-2.812,11.258,11.258,0,0,0,.141-1.758,4.351,4.351,0,0,0-.469-2.3,1.7,1.7,0,0,0-1.547-.727,2.884,2.884,0,0,0-1.98.908,8.444,8.444,0,0,0-1.74,2.561,16.4,16.4,0,0,0-1.2,3.709A17.543,17.543,0,0,0,133.926,18.758ZM149.8,29.325a2.279,2.279,0,0,0,.55-.051.7.7,0,0,0,.332-.191,1.813,1.813,0,0,0,.3-.53h.834L151.21,31h-6.022l.1-.451a9.888,9.888,0,0,1,.991-1.367,23.524,23.524,0,0,1,1.764-1.818,20.768,20.768,0,0,0,1.562-1.6,5.516,5.516,0,0,0,.793-1.193,2.765,2.765,0,0,0,.27-1.189,1.141,1.141,0,0,0-.26-.79.889.889,0,0,0-.7-.291,1.356,1.356,0,0,0-.957.376,3.018,3.018,0,0,0-.7,1.155h-1.244l.39-1.641a13.261,13.261,0,0,1,1.74-.492,7.46,7.46,0,0,1,1.418-.137,3.581,3.581,0,0,1,1.371.229,1.7,1.7,0,0,1,.8.619,1.584,1.584,0,0,1,.253.882,2.473,2.473,0,0,1-.15.865,3.2,3.2,0,0,1-.5.848,8.522,8.522,0,0,1-.936.984q-.591.543-1.651,1.412-.5.41-1.077.943t-.919.909l-.014.068Z" transform="translate(810 2840)" fill="#12263f"/>
  </g>
</svg>
