<svg xmlns="http://www.w3.org/2000/svg" width="190" height="62" viewBox="0 0 190 62">
  <g id="Grupo_1009236" data-name="Grupo 1009236" transform="translate(-810 -2938)">
    <path id="Trazado_718168" data-name="Trazado 718168" d="M10,0H180a10,10,0,0,1,10,10V52a10,10,0,0,1-10,10H10A10,10,0,0,1,0,52V10A10,10,0,0,1,10,0Z" transform="translate(810 2938)" fill="#ffa031" opacity="0.15"/>
    <path id="Trazado_718169" data-name="Trazado 718169" d="M45.77,18.043H41.188l-.164.293q-.27.469-.463.85t-.346.773a4.51,4.51,0,0,0-.217.7,2.914,2.914,0,0,0-.064.592q0,.844,1,.973L40.754,23H35.809l.176-.773a1.978,1.978,0,0,0,.721-.316,2.721,2.721,0,0,0,.592-.6,13.5,13.5,0,0,0,.8-1.307L45.371,6.922h3.375l.5,12.527a11.155,11.155,0,0,0,.082,1.131,4.347,4.347,0,0,0,.152.709,1.922,1.922,0,0,0,.229.492.9.9,0,0,0,.346.3,1.491,1.491,0,0,0,.469.141L50.352,23H44.293l.176-.773a1.482,1.482,0,0,0,.814-.264,1.183,1.183,0,0,0,.416-.621,4.006,4.006,0,0,0,.117-1.1q0-.5-.023-1.055Zm-3.855-1.371h3.82l-.047-2.812q-.023-1.5-.023-2.484,0-.75.012-1.535h-.141ZM56.7,28.867a4.5,4.5,0,0,0-.13.841.529.529,0,0,0,.15.407.95.95,0,0,0,.489.2,6.867,6.867,0,0,0,1.008.065l-.13.622H52.468l.13-.622a8.776,8.776,0,0,0,1.07-.1,1.223,1.223,0,0,0,.506-.191.955.955,0,0,0,.284-.352,3.849,3.849,0,0,0,.232-.769l.984-4.464a2.7,2.7,0,0,0,.075-.554.416.416,0,0,0-.082-.287.292.292,0,0,0-.226-.089,1.015,1.015,0,0,0-.3.051,2.433,2.433,0,0,0-.4.174q-.232.123-.923.506l-.349-.7L57.4,21.56h.93q-.191.725-.424,1.818ZM77.038,11.375l.41.773q-1.477,3.914-6.82,11.027H68.354l-1.09-8.93A6.445,6.445,0,0,0,67,12.922a1.272,1.272,0,0,0-.369-.562,1.228,1.228,0,0,0-.668-.211l.176-.773h4.125l.809,8.754A33.327,33.327,0,0,0,73.68,15.9a6.779,6.779,0,0,0,.838-2.83.961.961,0,0,0-.211-.674,1.043,1.043,0,0,0-.738-.252l.164-.773ZM82,28.867a4.5,4.5,0,0,0-.13.841.529.529,0,0,0,.15.407.95.95,0,0,0,.489.2,6.867,6.867,0,0,0,1.008.065L83.39,31H77.771l.13-.622a8.776,8.776,0,0,0,1.07-.1,1.223,1.223,0,0,0,.506-.191.955.955,0,0,0,.284-.352,3.849,3.849,0,0,0,.232-.769l.984-4.464a2.7,2.7,0,0,0,.075-.554.416.416,0,0,0-.082-.287.292.292,0,0,0-.226-.089,1.015,1.015,0,0,0-.3.051,2.433,2.433,0,0,0-.4.174q-.232.123-.923.506l-.349-.7,3.93-2.044h.93q-.191.725-.424,1.818Zm8.386-14.176.5-2.3h10.43l-.5,2.3Zm-1.16,5.191.5-2.3h10.43l-.5,2.3Zm26.719-1.84h-4.582l-.164.293q-.27.469-.463.85t-.346.773a4.51,4.51,0,0,0-.217.7,2.914,2.914,0,0,0-.064.592q0,.844,1,.973l-.176.773h-4.945l.176-.773a1.978,1.978,0,0,0,.721-.316,2.721,2.721,0,0,0,.592-.6,13.5,13.5,0,0,0,.8-1.307l7.277-13.078h3.375l.5,12.527a11.155,11.155,0,0,0,.082,1.131,4.347,4.347,0,0,0,.152.709,1.922,1.922,0,0,0,.229.492.9.9,0,0,0,.346.3,1.491,1.491,0,0,0,.469.141l-.176.773h-6.059l.176-.773a1.482,1.482,0,0,0,.814-.264,1.183,1.183,0,0,0,.416-.621,4.006,4.006,0,0,0,.117-1.1q0-.5-.023-1.055Zm-3.855-1.371h3.82l-.047-2.812q-.023-1.5-.023-2.484,0-.75.012-1.535h-.141Zm14.423,12.653a2.279,2.279,0,0,0,.55-.051.7.7,0,0,0,.332-.191,1.813,1.813,0,0,0,.3-.53h.834L127.923,31H121.9l.1-.451a9.889,9.889,0,0,1,.991-1.367,23.52,23.52,0,0,1,1.764-1.818,20.768,20.768,0,0,0,1.562-1.6,5.516,5.516,0,0,0,.793-1.193,2.764,2.764,0,0,0,.27-1.189,1.141,1.141,0,0,0-.26-.79.889.889,0,0,0-.7-.291,1.356,1.356,0,0,0-.957.376,3.018,3.018,0,0,0-.7,1.155H123.52l.39-1.641a13.26,13.26,0,0,1,1.74-.492,7.46,7.46,0,0,1,1.418-.137,3.581,3.581,0,0,1,1.371.229,1.7,1.7,0,0,1,.8.619,1.584,1.584,0,0,1,.253.882,2.473,2.473,0,0,1-.15.865,3.2,3.2,0,0,1-.5.848,8.522,8.522,0,0,1-.936.984q-.591.543-1.651,1.412-.5.41-1.077.943t-.919.909l-.014.068Zm18.5-17.95.41.773q-1.477,3.914-6.82,11.027h-2.273l-1.09-8.93a6.445,6.445,0,0,0-.264-1.324,1.272,1.272,0,0,0-.369-.562,1.228,1.228,0,0,0-.668-.211l.176-.773h4.125l.809,8.754a33.327,33.327,0,0,0,2.607-4.225,6.779,6.779,0,0,0,.838-2.83.961.961,0,0,0-.211-.674,1.043,1.043,0,0,0-.738-.252l.164-.773Zm4.6,17.95a2.279,2.279,0,0,0,.55-.051.7.7,0,0,0,.332-.191,1.813,1.813,0,0,0,.3-.53h.834L151.023,31H145l.1-.451a9.888,9.888,0,0,1,.991-1.367,23.524,23.524,0,0,1,1.764-1.818,20.768,20.768,0,0,0,1.562-1.6,5.516,5.516,0,0,0,.793-1.193,2.765,2.765,0,0,0,.27-1.189,1.141,1.141,0,0,0-.26-.79.889.889,0,0,0-.7-.291,1.356,1.356,0,0,0-.957.376,3.018,3.018,0,0,0-.7,1.155h-1.244l.39-1.641a13.261,13.261,0,0,1,1.74-.492,7.46,7.46,0,0,1,1.418-.137,3.581,3.581,0,0,1,1.371.229,1.7,1.7,0,0,1,.8.619,1.584,1.584,0,0,1,.253.882,2.473,2.473,0,0,1-.15.865,3.2,3.2,0,0,1-.5.848,8.522,8.522,0,0,1-.936.984q-.591.543-1.651,1.412-.5.41-1.077.943t-.919.909l-.014.068Z" transform="translate(810 2955)" fill="#12263f"/>
  </g>
</svg>
