<svg id="Grupo_1009029" data-name="Grupo 1009029" xmlns="http://www.w3.org/2000/svg" xmlns:xlink="http://www.w3.org/1999/xlink" width="558.084" height="252.034" viewBox="0 0 558.084 252.034">
  <defs>
    <clipPath id="clip-path">
      <path id="Trazado_716755" data-name="Trazado 716755" d="M3.005,249.029H555.079V93.752H306.21V219.761H103.626V93.142H3.005Z" fill="none"/>
    </clipPath>
    <radialGradient id="radial-gradient" cx="0.5" cy="0.5" r="1.301" gradientTransform="matrix(0.282, 0, 0, -1, -0.004, 2.039)" gradientUnits="objectBoundingBox">
      <stop offset="0" stop-color="#fff"/>
      <stop offset="1" stop-color="#c1e4fa"/>
    </radialGradient>
    <clipPath id="clip-path-2">
      <rect id="Rectángulo_347979" data-name="Rectángulo 347979" width="558.084" height="252.034" fill="none"/>
    </clipPath>
  </defs>
  <rect id="Rectángulo_347976" data-name="Rectángulo 347976" width="100.621" height="21.594" transform="translate(3.005 72.598)" fill="#b6cfe5"/>
  <rect id="Rectángulo_347977" data-name="Rectángulo 347977" width="246.186" height="21.594" transform="translate(306.21 72.598)" fill="#b6cfe5"/>
  <g id="Grupo_1009024" data-name="Grupo 1009024">
    <g id="Grupo_1009023" data-name="Grupo 1009023" clip-path="url(#clip-path)">
      <rect id="Rectángulo_347978" data-name="Rectángulo 347978" width="552.074" height="155.887" transform="translate(3.005 93.142)" fill="url(#radial-gradient)"/>
    </g>
  </g>
  <g id="Grupo_1009026" data-name="Grupo 1009026">
    <g id="Grupo_1009025" data-name="Grupo 1009025" clip-path="url(#clip-path-2)">
      <path id="Trazado_716756" data-name="Trazado 716756" d="M3,50.94V249.029H555.08V50.135" fill="none" stroke="#265e91" stroke-miterlimit="10" stroke-width="6.009"/>
    </g>
  </g>
  <path id="Trazado_716757" data-name="Trazado 716757" d="M103.626,51.832v167.93H306.21V51.832" fill="none" stroke="#265e91" stroke-miterlimit="10" stroke-width="6.009"/>
  <line id="Línea_2559" data-name="Línea 2559" y1="59.887" transform="translate(429.302 23.078)" fill="none" stroke="#ffa031" stroke-miterlimit="10" stroke-width="6"/>
  <g id="Grupo_1009028" data-name="Grupo 1009028">
    <g id="Grupo_1009027" data-name="Grupo 1009027" clip-path="url(#clip-path-2)">
      <path id="Trazado_716758" data-name="Trazado 716758" d="M436.07,82.627a6.768,6.768,0,1,1-6.768-6.768,6.768,6.768,0,0,1,6.768,6.768" fill="#ffa031"/>
      <path id="Trazado_716759" data-name="Trazado 716759" d="M442.766,27.017,429.3,3.7,415.841,27.017Z" fill="#ffa031"/>
      <line id="Línea_2560" data-name="Línea 2560" y2="59.887" transform="translate(50.297 84.242)" fill="none" stroke="#ffa031" stroke-miterlimit="10" stroke-width="6"/>
      <path id="Trazado_716760" data-name="Trazado 716760" d="M43.529,84.58A6.767,6.767,0,1,1,50.3,91.348a6.769,6.769,0,0,1-6.768-6.768" fill="#ffa031"/>
      <path id="Trazado_716761" data-name="Trazado 716761" d="M36.833,140.19,50.3,163.5,63.758,140.19Z" fill="#ffa031"/>
      <path id="Trazado_716762" data-name="Trazado 716762" d="M48.256,58.032a2.555,2.555,0,0,0-1-2.166,13.047,13.047,0,0,0-3.586-1.594,25.44,25.44,0,0,1-4.1-1.652q-4.118-2.226-4.117-5.993a5.839,5.839,0,0,1,1.1-3.495,7.193,7.193,0,0,1,3.172-2.4,11.934,11.934,0,0,1,4.639-.863,10.865,10.865,0,0,1,4.615.937,7.345,7.345,0,0,1,3.146,2.649,6.918,6.918,0,0,1,1.121,3.885h-4.98a3.262,3.262,0,0,0-1.046-2.582,4.3,4.3,0,0,0-2.939-.921,4.584,4.584,0,0,0-2.839.772,2.437,2.437,0,0,0-1.012,2.033,2.331,2.331,0,0,0,1.187,1.976,13.42,13.42,0,0,0,3.494,1.494,15.111,15.111,0,0,1,6.193,3.171A6.314,6.314,0,0,1,53.253,58a5.816,5.816,0,0,1-2.374,4.922,10.392,10.392,0,0,1-6.392,1.785,12.324,12.324,0,0,1-5.08-1.022,8.019,8.019,0,0,1-3.494-2.8,7.158,7.158,0,0,1-1.2-4.117h5q0,4,4.781,4a4.662,4.662,0,0,0,2.773-.721,2.353,2.353,0,0,0,1-2.018"/>
      <path id="Trazado_716763" data-name="Trazado 716763" d="M63.231,64.374H59.844v-9.1l-3.137.681V53.334l6.209-2.009h.315Z"/>
      <path id="Trazado_716764" data-name="Trazado 716764" d="M365.548,58.032a2.555,2.555,0,0,0-1-2.166,13.047,13.047,0,0,0-3.586-1.594,25.441,25.441,0,0,1-4.1-1.652q-4.117-2.226-4.117-5.993a5.839,5.839,0,0,1,1.1-3.495,7.193,7.193,0,0,1,3.172-2.4,11.934,11.934,0,0,1,4.639-.863,10.865,10.865,0,0,1,4.615.937,7.345,7.345,0,0,1,3.146,2.649,6.918,6.918,0,0,1,1.121,3.885h-4.98a3.262,3.262,0,0,0-1.046-2.582,4.3,4.3,0,0,0-2.939-.921,4.584,4.584,0,0,0-2.839.772,2.437,2.437,0,0,0-1.012,2.033,2.331,2.331,0,0,0,1.187,1.976,13.421,13.421,0,0,0,3.494,1.494,15.111,15.111,0,0,1,6.193,3.171A6.314,6.314,0,0,1,370.545,58a5.816,5.816,0,0,1-2.374,4.922,10.392,10.392,0,0,1-6.392,1.785,12.324,12.324,0,0,1-5.08-1.022,8.019,8.019,0,0,1-3.494-2.8A7.158,7.158,0,0,1,352,56.77h5q0,4,4.781,4a4.662,4.662,0,0,0,2.773-.721,2.353,2.353,0,0,0,1-2.018"/>
      <path id="Trazado_716765" data-name="Trazado 716765" d="M383.262,64.374H372.969V62.083l4.765-4.267A6.439,6.439,0,0,0,379.07,56.3a2.436,2.436,0,0,0,.407-1.084q0-1.4-1.577-1.4a1.729,1.729,0,0,0-1.321.52,1.83,1.83,0,0,0-.489,1.307h-3.42a4.236,4.236,0,0,1,1.419-3.238,5.185,5.185,0,0,1,3.661-1.311,5.938,5.938,0,0,1,3.794,1.07,3.681,3.681,0,0,1,1.336,3.047,3.955,3.955,0,0,1-.6,2.125,11.057,11.057,0,0,1-2.391,2.407l-2.457,1.909h5.827Z"/>
      <path id="Trazado_716766" data-name="Trazado 716766" d="M51.4,201.839H41.84v9.878H36.86V187.545H52.6v4.034H41.84v6.242H51.4Z"/>
      <path id="Trazado_716767" data-name="Trazado 716767" d="M62.094,211.717H58.707v-9.1l-3.137.681v-2.623l6.209-2.009h.315Z"/>
      <line id="Línea_2561" data-name="Línea 2561" x2="15.484" transform="translate(34.862 179.713)" fill="none" stroke="#000" stroke-miterlimit="10" stroke-width="2"/>
      <path id="Trazado_716768" data-name="Trazado 716768" d="M47.537,183.416l1.573-3.7-1.573-3.7,8.778,3.7Z"/>
      <path id="Trazado_716769" data-name="Trazado 716769" d="M468.2,25.83h-9.563v9.878h-4.98V11.536h15.738V15.57H458.634v6.242H468.2Z"/>
      <path id="Trazado_716770" data-name="Trazado 716770" d="M481.628,35.708H471.335V33.417L476.1,29.15a6.439,6.439,0,0,0,1.336-1.516,2.436,2.436,0,0,0,.407-1.084q0-1.4-1.577-1.4a1.729,1.729,0,0,0-1.321.52,1.83,1.83,0,0,0-.489,1.307h-3.42a4.236,4.236,0,0,1,1.419-3.238,5.185,5.185,0,0,1,3.661-1.311,5.938,5.938,0,0,1,3.794,1.07,3.681,3.681,0,0,1,1.336,3.047,3.955,3.955,0,0,1-.6,2.125,11.057,11.057,0,0,1-2.391,2.407L475.8,32.985h5.827Z"/>
      <line id="Línea_2562" data-name="Línea 2562" x2="15.483" transform="translate(451.657 3.703)" fill="none" stroke="#000" stroke-miterlimit="10" stroke-width="2"/>
      <path id="Trazado_716771" data-name="Trazado 716771" d="M464.332,7.407,465.9,3.7,464.332,0l8.778,3.7Z"/>
    </g>
  </g>
</svg>
