<?xml version="1.0" encoding="utf-8"?>
<!-- Generator: Adobe Illustrator 27.7.0, SVG Export Plug-In . SVG Version: 6.00 Build 0)  -->
<svg version="1.1"
	 id="svg2922" xmlns:inkscape="http://www.inkscape.org/namespaces/inkscape" xmlns:dc="http://purl.org/dc/elements/1.1/" xmlns:svg="http://www.w3.org/2000/svg" xmlns:cc="http://creativecommons.org/ns#" xmlns:rdf="http://www.w3.org/1999/02/22-rdf-syntax-ns#" xmlns:sodipodi="http://sodipodi.sourceforge.net/DTD/sodipodi-0.dtd" inkscape:output_extension="org.inkscape.output.svg.inkscape" inkscape:version="0.46" sodipodi:version="0.32"
	 xmlns="http://www.w3.org/2000/svg" xmlns:xlink="http://www.w3.org/1999/xlink" x="0px" y="0px" viewBox="0 0 398 194"
	 style="enable-background:new 0 0 398 194;" xml:space="preserve">
<style type="text/css">
	.st0{fill:none;}
	.st1{fill-rule:evenodd;clip-rule:evenodd;fill:#0047BC;}
	.st2{fill-rule:evenodd;clip-rule:evenodd;fill:#009FE2;}
	.st3{fill:none;stroke:#000000;stroke-width:1.3433;}
	.st4{fill-rule:evenodd;clip-rule:evenodd;fill:#00B4E7;stroke:#000000;stroke-width:0.4478;}
	.st5{fill:none;stroke:#000000;stroke-width:0.4478;}
	.st6{fill:none;stroke:#000000;stroke-width:0.4478;stroke-dasharray:2.6866,2.6866;}
	.st7{fill-rule:evenodd;clip-rule:evenodd;fill:#009FE2;stroke:#000000;stroke-width:0.2187;}
	.st8{fill:none;stroke:#000000;stroke-width:0.2187;stroke-dasharray:1.3119,1.3119;}
	.st9{fill-rule:evenodd;clip-rule:evenodd;fill:#00B4E7;stroke:#000000;stroke-width:0.2187;}
	.st10{fill:none;stroke:#000000;stroke-width:0.656;stroke-dasharray:1.9679,1.9679;}
	.st11{enable-background:new    ;}
	.st12{fill:#FFFFFF;}
	.st13{fill-rule:evenodd;clip-rule:evenodd;stroke:#000000;stroke-width:0.4478;stroke-linejoin:round;}
	.st14{fill:none;stroke:#000000;stroke-width:1.791;stroke-linecap:round;}
	.st15{fill-rule:evenodd;clip-rule:evenodd;}
	.st16{fill:none;stroke:#000000;stroke-width:0.8955;}
	.st17{fill-rule:evenodd;clip-rule:evenodd;stroke:#000000;stroke-width:0.3644;stroke-linejoin:round;}
	.st18{fill:none;stroke:#000000;stroke-width:0.8955;stroke-linecap:round;}
	.st19{fill-rule:evenodd;clip-rule:evenodd;fill:#BFBFBF;}
</style>
<defs>
	
		<inkscape:perspective  id="perspective2929" inkscape:persp3d-origin="372.04724 : 350.78739 : 1" inkscape:vp_x="0 : 526.18109 : 1" inkscape:vp_y="0 : 1000 : 0" inkscape:vp_z="744.09448 : 526.18109 : 1" sodipodi:type="inkscape:persp3d">
		</inkscape:perspective>
</defs>
<sodipodi:namedview  bordercolor="#666666" borderopacity="1.0" gridtolerance="10.0" guidetolerance="10.0" id="base" inkscape:current-layer="svg2922" inkscape:cx="652.43927" inkscape:cy="286.29522" inkscape:guide-bbox="true" inkscape:pageopacity="0.0" inkscape:pageshadow="2" inkscape:window-height="968" inkscape:window-width="1280" inkscape:window-x="-4" inkscape:window-y="-4" inkscape:zoom="1.4142136" objecttolerance="10.0" pagecolor="#ffffff" showgrid="false" showguides="true">
	</sodipodi:namedview>
<g>
	<path class="st0" d="M9.5,0h379c5.2,0,9.5,4.3,9.5,9.5v175c0,5.2-4.3,9.5-9.5,9.5H9.5c-5.2,0-9.5-4.3-9.5-9.5V9.5
		C0,4.3,4.3,0,9.5,0z"/>
	<g>
		<path id="path3725" sodipodi:nodetypes="cccccccc" class="st1" d="M24.4,101.7c0.2-5.8,0.9-11.5,2.6-16.8h2.6h32.2v33.9H29.6H27
			L24.4,101.7z"/>
		<path id="path3895" sodipodi:nodetypes="cccccccc" class="st2" d="M60.5,102.2c0-8.7-1.5-15.1-3-16.8h7.7h87.6v33.9H65.2h-7.5
			C60.4,113.5,60.3,107.9,60.5,102.2z"/>
		<path id="path3897" sodipodi:nodetypes="cccsccccc" class="st1" d="M152.6,101.3c0-8.7-2.1-15.1-3.5-16.8c8.5,0.7,17,1.5,27.5-2.5
			c10.4-9.9,15.1-14.5,20.2-22.2c22.7-34.4,37.9-25.3,56.4-24.8v67.9c-6.9-1.4-27.5-0.9-38.2,1.4c-36.7,13.1-47.1,17.4-65.1,14
			C152.6,112.6,152.4,107,152.6,101.3z"/>
		<path id="path3899" sodipodi:nodetypes="cccccccc" class="st2" d="M252,67.9c0.2-17.9-3.8-34.8-7.1-33.9h7.8h67v67.7h-67H245
			C249.2,102.9,252,82,252,67.9z"/>
		
			<path id="path3727" inkscape:transform-center-x="-4.6289063" inkscape:transform-center-y="0.72610294" sodipodi:cx="78.683502" sodipodi:cy="198.38525" sodipodi:end="7.8539816" sodipodi:open="true" sodipodi:rx="7.1880522" sodipodi:ry="37.095486" sodipodi:start="4.712389" sodipodi:type="arc" class="st3" d="
			M28.2,85.5c1.8,0,3.2,7.4,3.2,16.6s-1.4,16.6-3.2,16.6l0,0"/>
		<path id="path3901" sodipodi:nodetypes="ccccccccc" class="st1" d="M325.1,68.5c0.3-17.9-3.1-34.8-7-33.9h7.7H367
			c4.8,8.5,6.6,2.5,6.6,37.8c0,12.9-1.1,23.3-6.6,29.8h-41.4h-8.7C321.9,103.7,325.4,82.6,325.1,68.5z"/>
		<path id="path2933" sodipodi:nodetypes="cczzcsccczcsc" class="st3" d="M28,84.9h135.6c16.2,0,24.2-13.6,33.4-25.4
			s17.5-25.4,33.4-25.4h135.8c0,0,7.4-0.5,7.4,34.5s-7.4,33.4-7.4,33.4H231c-12.7-0.2-24.6,4.2-36.2,9c-10.8,5-22.5,7.9-31.5,7.9
			s-135.2,0-135.2,0s-3.4-2.4-3.4-18.4S27.9,84.9,28,84.9z"/>
		
			<path id="path3709" sodipodi:cx="78.683502" sodipodi:cy="198.38525" sodipodi:rx="7.1880522" sodipodi:ry="37.095486" sodipodi:type="arc" class="st4" d="
			M60.6,102.1c0,9.2-1.4,16.6-3.2,16.6s-3.2-7.4-3.2-16.6l0,0c0-9.2,1.4-16.6,3.2-16.6C59.2,85.4,60.6,92.9,60.6,102.1
			C60.6,102,60.6,102.1,60.6,102.1z"/>
		
			<path id="path3711" inkscape:transform-center-x="-4.6289063" inkscape:transform-center-y="0.72610294" sodipodi:cx="78.683502" sodipodi:cy="198.38525" sodipodi:end="7.8539816" sodipodi:open="true" sodipodi:rx="7.1880522" sodipodi:ry="37.095486" sodipodi:start="4.712389" sodipodi:type="arc" class="st5" d="
			M149.2,85.5c1.8,0,3.2,7.4,3.2,16.6s-1.4,16.6-3.2,16.6l0,0"/>
		
			<path id="path3713" inkscape:transform-center-x="4.628903" inkscape:transform-center-y="0.72610294" sodipodi:cx="78.683502" sodipodi:cy="198.38525" sodipodi:end="7.8539816" sodipodi:open="true" sodipodi:rx="7.1880522" sodipodi:ry="37.095486" sodipodi:start="4.712389" sodipodi:type="arc" class="st6" d="
			M149.2,85.5c-1.8,0-3.2,7.4-3.2,16.6s1.4,16.6,3.2,16.6l0,0"/>
		
			<path id="path3715" inkscape:transform-center-x="-9.6648633" inkscape:transform-center-y="1.4583795" sodipodi:cx="78.683502" sodipodi:cy="198.38525" sodipodi:end="7.8539816" sodipodi:open="true" sodipodi:rx="7.1880522" sodipodi:ry="37.095486" sodipodi:start="4.712389" sodipodi:type="arc" class="st7" d="
			M318.4,34.7c3.7,0,6.7,14.9,6.7,33.4s-3,33.4-6.7,33.4l0,0"/>
		
			<path id="path3717" inkscape:transform-center-x="9.6648477" inkscape:transform-center-y="1.4583795" sodipodi:cx="78.683502" sodipodi:cy="198.38525" sodipodi:end="7.8539816" sodipodi:open="true" sodipodi:rx="7.1880522" sodipodi:ry="37.095486" sodipodi:start="4.712389" sodipodi:type="arc" class="st8" d="
			M318.5,34.7c-3.7,0-6.7,14.9-6.7,33.4s3,33.4,6.7,33.4l0,0"/>
		
			<path id="path3719" inkscape:transform-center-x="-9.6648633" inkscape:transform-center-y="1.4583795" sodipodi:cx="78.683502" sodipodi:cy="198.38525" sodipodi:rx="7.1880522" sodipodi:ry="37.095486" sodipodi:type="arc" class="st9" d="
			M251.9,68c0,18.4-3,33.4-6.7,33.4s-6.7-14.9-6.7-33.3c0,0,0,0,0-0.1c0-18.4,3-33.4,6.7-33.4C248.8,34.6,251.8,49.6,251.9,68
			L251.9,68z"/>
		
			<path id="path3723" inkscape:transform-center-x="9.6648477" inkscape:transform-center-y="1.4583795" sodipodi:cx="78.683502" sodipodi:cy="198.38525" sodipodi:end="7.8539816" sodipodi:open="true" sodipodi:rx="7.1880522" sodipodi:ry="37.095486" sodipodi:start="4.712389" sodipodi:type="arc" class="st10" d="
			M366.3,34.7c-3.7,0-6.7,14.9-6.7,33.4s3,33.4,6.7,33.4l0,0"/>
		<g class="st11">
			<path class="st12" d="M37.1,98.4l-0.4,1.2c0.4-0.4,0.7-0.8,1-0.9c0.3-0.2,0.6-0.3,0.9-0.3c0.3,0,0.6,0.1,0.8,0.4
				c0.2,0.2,0.3,0.6,0.3,1c0,0.8-0.3,1.6-0.9,2.3c-0.6,0.8-1.4,1.2-2.2,1.2c-0.2,0-0.3,0-0.5-0.1c-0.1,0-0.3-0.1-0.5-0.2l-0.4,1.4
				c-0.1,0.3-0.1,0.4-0.1,0.5s0,0.1,0.1,0.2c0,0.1,0.1,0.1,0.2,0.1c0.1,0,0.3,0,0.5,0v0.2h-2.5l0.1-0.2c0.3,0,0.5-0.1,0.7-0.2
				c0.1-0.1,0.2-0.4,0.4-0.8l1.3-4.6c0.1-0.3,0.1-0.5,0.1-0.5c0-0.1,0-0.2-0.1-0.2s-0.1-0.1-0.2-0.1c-0.1,0-0.2,0-0.4,0v-0.2
				L37.1,98.4z M35.9,102.6c0.2,0.3,0.5,0.4,0.9,0.4c0.2,0,0.4,0,0.6-0.2s0.4-0.3,0.6-0.5c0.2-0.2,0.3-0.4,0.5-0.7
				c0.1-0.3,0.3-0.6,0.4-0.9c0.1-0.4,0.2-0.7,0.2-1s-0.1-0.5-0.2-0.6c-0.1-0.1-0.3-0.2-0.4-0.2c-0.4,0-0.8,0.2-1.1,0.7
				s-0.6,0.9-0.8,1.5L35.9,102.6z"/>
		</g>
		<g class="st11">
			<path class="st12" d="M41,100.3l1.3-0.6h0.1v4.5c0,0.3,0,0.5,0,0.6s0.1,0.1,0.2,0.2c0.1,0,0.2,0.1,0.5,0.1v0.1h-2V105
				c0.3,0,0.4,0,0.5-0.1c0.1,0,0.1-0.1,0.2-0.2c0-0.1,0-0.3,0-0.6v-2.9c0-0.4,0-0.6,0-0.7s-0.1-0.1-0.1-0.2s-0.1-0.1-0.2-0.1
				C41.4,100.2,41.3,100.2,41,100.3L41,100.3z"/>
		</g>
		<g class="st11">
			<path d="M52,139.9l-0.5,5.9c0,0.3,0,0.5,0,0.5c0,0.1,0,0.2,0.1,0.3s0.2,0.2,0.3,0.2s0.3,0.1,0.6,0.1l-0.1,0.2h-2.8l0.1-0.2h0.1
				c0.2,0,0.4,0,0.6-0.1c0.1-0.1,0.2-0.2,0.2-0.3s0.1-0.4,0.1-0.8l0.1-0.9h-2l-0.7,1c-0.2,0.2-0.3,0.4-0.3,0.5s-0.1,0.2-0.1,0.3
				s0,0.2,0.1,0.3s0.2,0.1,0.5,0.1l-0.1,0.2h-2.1L46,147c0.3,0,0.5-0.1,0.7-0.3s0.5-0.5,0.9-1l4.2-5.8H52z M50.9,141.7l-2.1,2.8h1.8
				L50.9,141.7z"/>
		</g>
		<g class="st11">
			<path d="M53.3,144.4l1.3-0.6h0.1v4.5c0,0.3,0,0.5,0,0.6s0.1,0.1,0.2,0.2c0.1,0,0.2,0.1,0.5,0.1v0.1h-2V149c0.3,0,0.4,0,0.5-0.1
				c0.1,0,0.1-0.1,0.2-0.2c0-0.1,0-0.3,0-0.6v-2.9c0-0.4,0-0.6,0-0.7c0-0.1-0.1-0.1-0.1-0.2s-0.1-0.1-0.2-0.1
				C53.7,144.2,53.6,144.2,53.3,144.4L53.3,144.4z"/>
		</g>
		<g class="st11">
			<path d="M102.1,131.2l-1.5,5.1c0.6-1,1.1-1.6,1.5-1.9c0.4-0.3,0.7-0.5,1-0.5c0.2,0,0.3,0.1,0.4,0.2c0.1,0.1,0.2,0.3,0.2,0.5
				s0,0.5-0.1,0.8l-0.6,2.2c-0.1,0.3-0.1,0.4-0.1,0.4v0.1h0.1c0,0,0.1,0,0.2-0.1c0.2-0.2,0.4-0.4,0.6-0.6l0.2,0.1
				c-0.1,0.2-0.3,0.4-0.5,0.6c-0.2,0.2-0.4,0.4-0.5,0.5c-0.2,0.1-0.3,0.1-0.4,0.1s-0.2,0-0.3-0.1c-0.1-0.1-0.1-0.2-0.1-0.3
				c0-0.2,0.1-0.4,0.2-0.9l0.6-2.1c0.1-0.3,0.1-0.5,0.1-0.6s0-0.1-0.1-0.2c0,0-0.1-0.1-0.2-0.1s-0.2,0-0.3,0.1
				c-0.2,0.1-0.5,0.4-0.8,0.8c-0.1,0.1-0.4,0.5-0.8,1.3c-0.1,0.2-0.3,0.5-0.4,0.8l-0.3,1.1h-0.8l1.7-6l0.2-0.7c0-0.1,0-0.2-0.1-0.2
				c-0.1-0.1-0.2-0.1-0.3-0.1c-0.1,0-0.2,0-0.3,0h-0.1v-0.2L102.1,131.2z"/>
		</g>
		<g class="st11">
			<path d="M105.2,135.8l1.3-0.6h0.1v4.5c0,0.3,0,0.5,0,0.6s0.1,0.1,0.2,0.2c0.1,0,0.2,0.1,0.5,0.1v0.1h-2v-0.1c0.3,0,0.4,0,0.5-0.1
				c0.1,0,0.1-0.1,0.2-0.2c0-0.1,0-0.3,0-0.6v-2.9c0-0.4,0-0.6,0-0.7c0-0.1-0.1-0.1-0.1-0.2s-0.1-0.1-0.2-0.1s-0.2,0-0.4,0.1
				L105.2,135.8z"/>
		</g>
		<g class="st11">
			<path d="M78.3,71.5l1.5-0.3c0.1,0.3,0.2,0.5,0.3,0.8c0.1,0.4,0.2,0.9,0.2,1.4c0,0.3,0.1,0.8,0.1,1.7c0.4-0.5,0.7-0.8,0.8-0.9
				c0.5-0.6,0.7-1,0.8-1.1c0.1-0.2,0.2-0.3,0.2-0.5c0-0.1,0.1-0.2,0.1-0.3c0-0.1-0.1-0.2-0.2-0.3c-0.2-0.1-0.2-0.3-0.2-0.4
				s0-0.2,0.1-0.3c0.1-0.1,0.2-0.1,0.3-0.1c0.1,0,0.3,0.1,0.4,0.2s0.2,0.3,0.2,0.4s0,0.3-0.1,0.5c-0.1,0.3-0.3,0.6-0.5,1
				s-0.6,0.9-1.2,1.5c-0.1,0.1-0.5,0.5-1.2,1.2h-0.2c-0.1-2.2-0.3-3.6-0.5-4.1c-0.1-0.2-0.2-0.3-0.4-0.3c-0.1,0-0.2,0-0.4,0
				L78.3,71.5z"/>
		</g>
		<g class="st11">
			<path d="M84.4,73.1l1.3-0.6h0.1V77c0,0.3,0,0.5,0,0.6s0.1,0.1,0.2,0.2c0.1,0,0.2,0.1,0.5,0.1V78h-2v-0.1c0.3,0,0.4,0,0.5-0.1
				c0.1,0,0.1-0.1,0.2-0.2c0-0.1,0-0.3,0-0.6v-2.9c0-0.4,0-0.6,0-0.7s-0.1-0.1-0.1-0.2s-0.1-0.1-0.2-0.1s-0.2,0-0.4,0.1L84.4,73.1z"
				/>
		</g>
		<g class="st11">
			<path d="M90.4,76.1l3.2-7.3h0.2l3,7.3H90.4z M95.5,75.6l-2.1-5.2l-2.3,5.2H95.5z"/>
		</g>
		<g class="st11">
			<path d="M101.2,69.9l-0.4,1.4h0.8l-0.1,0.3h-0.8l-0.9,3.1c-0.1,0.3-0.1,0.5-0.1,0.6s0,0.1,0,0.1h0.1c0.1,0,0.2-0.1,0.3-0.2
				c0.1-0.1,0.3-0.3,0.6-0.6l0.2,0.1c-0.3,0.5-0.6,0.8-0.9,1c-0.2,0.1-0.4,0.2-0.6,0.2s-0.3,0-0.4-0.1s-0.1-0.2-0.1-0.4
				c0-0.2,0.1-0.5,0.2-0.9l0.9-3h-0.8l0.1-0.2c0.4-0.1,0.7-0.3,1-0.5s0.5-0.6,0.9-1.1h0V69.9z"/>
		</g>
		<g class="st11">
			<path d="M122.9,71.2l-0.3,1.6h-0.2c0-0.5-0.1-0.8-0.3-1c-0.2-0.2-0.4-0.3-0.7-0.3c-0.2,0-0.4,0.1-0.5,0.2s-0.2,0.3-0.2,0.4
				s0,0.2,0.1,0.3c0.1,0.1,0.2,0.3,0.3,0.4c0.5,0.5,0.7,0.9,0.9,1.1c0.1,0.3,0.2,0.5,0.2,0.7c0,0.4-0.2,0.7-0.5,1S121,76,120.6,76
				c-0.3,0-0.5-0.1-0.9-0.2c-0.1,0-0.2-0.1-0.3-0.1c-0.2,0-0.3,0.1-0.4,0.2h-0.2l0.3-1.7h0.2c0,0.5,0.1,0.9,0.3,1.1
				c0.2,0.2,0.5,0.3,0.8,0.3s0.5-0.1,0.6-0.2c0.2-0.1,0.2-0.3,0.2-0.5c0-0.1,0-0.3-0.1-0.4c-0.1-0.2-0.3-0.5-0.6-0.9
				c-0.3-0.4-0.5-0.6-0.6-0.8s-0.1-0.4-0.1-0.6c0-0.3,0.1-0.6,0.4-0.9s0.6-0.4,1-0.4c0.1,0,0.2,0,0.3,0c0,0,0.2,0,0.3,0.1
				s0.3,0.1,0.4,0.1c0.2,0,0.3-0.1,0.4-0.2h0.3V71.2z"/>
		</g>
		<g class="st11">
			<path d="M125.4,73l1.3-0.6h0.1v4.5c0,0.3,0,0.5,0,0.6s0.1,0.1,0.2,0.2c0.1,0,0.2,0.1,0.5,0.1v0.1h-2v-0.1c0.3,0,0.4,0,0.5-0.1
				c0.1,0,0.1-0.1,0.2-0.2c0-0.1,0-0.3,0-0.6V74c0-0.4,0-0.6,0-0.7s-0.1-0.1-0.1-0.2S126,73,125.9,73s-0.2,0-0.4,0.1L125.4,73z"/>
		</g>
		<g class="st11">
			<path d="M107.4,72.1h5.7v0.4h-5.7V72.1z M107.4,73.8h5.7v0.4h-5.7V73.8z"/>
		</g>
		<g class="st11">
			<path d="M257.4,20.5l1.5-0.3c0.1,0.3,0.2,0.5,0.3,0.8c0.1,0.4,0.2,0.9,0.2,1.4c0,0.3,0.1,0.8,0.1,1.7c0.4-0.5,0.7-0.8,0.8-0.9
				c0.5-0.6,0.7-1,0.8-1.1c0.1-0.2,0.2-0.3,0.2-0.5c0-0.1,0.1-0.2,0.1-0.3c0-0.1-0.1-0.2-0.2-0.3c-0.2-0.1-0.2-0.3-0.2-0.4
				s0-0.2,0.1-0.3c0.1-0.1,0.2-0.1,0.3-0.1c0.1,0,0.3,0.1,0.4,0.2s0.2,0.3,0.2,0.4s0,0.3-0.1,0.5c-0.1,0.3-0.3,0.6-0.5,1
				s-0.6,0.9-1.2,1.5c-0.1,0.1-0.5,0.5-1.2,1.2h-0.2c-0.1-2.2-0.3-3.6-0.5-4.1c-0.1-0.2-0.2-0.3-0.4-0.3c-0.1,0-0.2,0-0.4,0
				L257.4,20.5z"/>
		</g>
		<g class="st11">
			<path d="M266.2,25.9l-0.4,1h-3.1v-0.1c0.9-0.8,1.6-1.5,2-2.1c0.4-0.5,0.6-1,0.6-1.5c0-0.3-0.1-0.6-0.3-0.8s-0.5-0.3-0.7-0.3
				c-0.3,0-0.5,0.1-0.7,0.2s-0.4,0.4-0.5,0.7H263c0.1-0.5,0.2-0.9,0.5-1.1s0.6-0.4,1-0.4s0.8,0.1,1.1,0.4c0.3,0.3,0.4,0.6,0.4,1
				c0,0.3-0.1,0.5-0.2,0.8c-0.2,0.4-0.5,0.9-0.9,1.4c-0.7,0.7-1.1,1.1-1.2,1.3h1.4c0.3,0,0.5,0,0.6,0s0.2-0.1,0.3-0.1
				s0.2-0.2,0.2-0.3h0V25.9z"/>
		</g>
		<g class="st11">
			<path d="M269.5,25.1l3.2-7.3h0.2l3,7.3C275.9,25.1,269.5,25.1,269.5,25.1z M274.6,24.6l-2.1-5.2l-2.3,5.2
				C270.2,24.6,274.6,24.6,274.6,24.6z"/>
		</g>
		<g class="st11">
			<path d="M280.3,18.9l-0.4,1.4h0.8l-0.1,0.3h-0.8l-0.9,3.1c-0.1,0.3-0.1,0.5-0.1,0.6s0,0.1,0,0.1h0.1c0.1,0,0.2-0.1,0.3-0.2
				c0.1-0.1,0.3-0.3,0.6-0.6l0.2,0.1c-0.3,0.5-0.6,0.8-0.9,1c-0.2,0.1-0.4,0.2-0.6,0.2s-0.3,0-0.4-0.1s-0.1-0.2-0.1-0.4
				c0-0.2,0.1-0.5,0.2-0.9l0.9-3h-0.8l0.1-0.2c0.4-0.1,0.7-0.3,1-0.5s0.5-0.6,0.9-1.1h0V18.9z"/>
		</g>
		<g class="st11">
			<path d="M302,20.2l-0.3,1.6h-0.2c0-0.5-0.1-0.8-0.3-1c-0.2-0.2-0.4-0.3-0.7-0.3c-0.2,0-0.4,0.1-0.5,0.2s-0.2,0.3-0.2,0.4
				s0,0.2,0.1,0.3c0,0.1,0.2,0.3,0.3,0.4c0.5,0.5,0.7,0.9,0.9,1.1c0.1,0.3,0.2,0.5,0.2,0.7c0,0.4-0.2,0.7-0.5,1s-0.7,0.4-1.1,0.4
				c-0.3,0-0.5-0.1-0.9-0.2c-0.1,0-0.2-0.1-0.3-0.1c-0.2,0-0.3,0.1-0.4,0.2H298l0.3-1.7h0.2c0,0.5,0.1,0.9,0.3,1.1
				c0.2,0.2,0.5,0.3,0.8,0.3s0.5-0.1,0.6-0.2c0.2-0.1,0.2-0.3,0.2-0.5c0-0.1,0-0.3-0.1-0.4c-0.1-0.2-0.3-0.5-0.6-0.9
				c-0.3-0.4-0.5-0.6-0.6-0.8c-0.1-0.2-0.1-0.4-0.1-0.6c0-0.3,0.1-0.6,0.4-0.9c0.2-0.2,0.6-0.4,1-0.4c0.1,0,0.2,0,0.3,0
				c0,0,0.2,0,0.3,0.1s0.3,0.1,0.4,0.1c0.2,0,0.3-0.1,0.4-0.2h0.2V20.2z"/>
		</g>
		<g class="st11">
			<path d="M307.2,25.8l-0.4,1h-3.1v-0.1c0.9-0.8,1.6-1.5,2-2.1c0.4-0.5,0.6-1,0.6-1.5c0-0.3-0.1-0.6-0.3-0.8s-0.5-0.3-0.7-0.3
				c-0.3,0-0.5,0.1-0.7,0.2s-0.4,0.4-0.5,0.7H304c0.1-0.5,0.2-0.9,0.5-1.1s0.6-0.4,1-0.4s0.8,0.1,1.1,0.4c0.3,0.3,0.4,0.6,0.4,1
				c0,0.3-0.1,0.5-0.2,0.8c-0.2,0.4-0.5,0.9-0.9,1.4c-0.7,0.7-1.1,1.1-1.2,1.3h1.4c0.3,0,0.5,0,0.6,0s0.2-0.1,0.3-0.1
				s0.2-0.2,0.2-0.3h0V25.8z"/>
		</g>
		<g class="st11">
			<path d="M286.5,21.1h5.7v0.4h-5.7V21.1z M286.5,22.9h5.7v0.4h-5.7V22.9z"/>
		</g>
		<g class="st11">
			<path class="st12" d="M227.1,64.7l-0.4,1.2c0.4-0.4,0.7-0.8,1-0.9c0.3-0.2,0.6-0.3,0.9-0.3s0.6,0.1,0.8,0.4
				c0.2,0.2,0.3,0.6,0.3,1c0,0.8-0.3,1.6-0.9,2.3c-0.6,0.8-1.4,1.2-2.2,1.2c-0.2,0-0.3,0-0.5-0.1c-0.1,0-0.3-0.1-0.5-0.2l-0.4,1.4
				c-0.1,0.3-0.1,0.4-0.1,0.5s0,0.1,0.1,0.2c0,0.1,0.1,0.1,0.2,0.1c0.1,0,0.3,0,0.5,0v0.2h-2.5l0.1-0.2c0.3,0,0.5-0.1,0.7-0.2
				c0.1-0.1,0.2-0.4,0.4-0.8l1.3-4.6c0.1-0.3,0.1-0.5,0.1-0.5c0-0.1,0-0.2-0.1-0.2c-0.1-0.1-0.1-0.1-0.2-0.1c-0.1,0-0.2,0-0.4,0
				v-0.2L227.1,64.7z M225.9,68.9c0.2,0.3,0.5,0.4,0.9,0.4c0.2,0,0.4,0,0.6-0.2s0.4-0.3,0.6-0.5c0.2-0.2,0.3-0.4,0.5-0.7
				c0.1-0.3,0.3-0.6,0.4-0.9c0.1-0.4,0.2-0.7,0.2-1s-0.1-0.5-0.2-0.6s-0.3-0.2-0.4-0.2c-0.4,0-0.8,0.2-1.1,0.7s-0.6,0.9-0.8,1.5
				L225.9,68.9z"/>
		</g>
		<g class="st11">
			<path class="st12" d="M233.8,70.4l-0.4,1h-3.1v-0.1c0.9-0.8,1.6-1.5,2-2.1c0.4-0.5,0.6-1,0.6-1.5c0-0.3-0.1-0.6-0.3-0.8
				s-0.5-0.3-0.7-0.3c-0.3,0-0.5,0.1-0.7,0.2s-0.4,0.4-0.5,0.7h-0.1c0.1-0.5,0.2-0.9,0.5-1.1s0.6-0.4,1-0.4s0.8,0.1,1.1,0.4
				s0.4,0.6,0.4,1c0,0.3-0.1,0.5-0.2,0.8c-0.2,0.4-0.5,0.9-0.9,1.4c-0.7,0.7-1.1,1.1-1.2,1.3h1.4c0.3,0,0.5,0,0.6,0s0.2-0.1,0.3-0.1
				S233.8,70.6,233.8,70.4L233.8,70.4L233.8,70.4z"/>
		</g>
		<g class="st11">
			<path d="M280.8,131.7l-1.5,5.1c0.6-1,1.1-1.6,1.5-1.9c0.4-0.3,0.7-0.5,1-0.5c0.2,0,0.3,0.1,0.4,0.2c0.1,0.1,0.2,0.3,0.2,0.5
				s0,0.5-0.1,0.8l-0.6,2.2c-0.1,0.3-0.1,0.4-0.1,0.4v0.1h0.1c0,0,0.1,0,0.2-0.1c0.2-0.2,0.4-0.4,0.6-0.6l0.2,0.1
				c-0.1,0.2-0.3,0.4-0.5,0.6c-0.2,0.2-0.4,0.4-0.5,0.5c-0.2,0.1-0.3,0.1-0.4,0.1s-0.2,0-0.3-0.1c-0.1-0.1-0.1-0.2-0.1-0.3
				c0-0.2,0.1-0.4,0.2-0.9l0.6-2.1c0.1-0.3,0.1-0.5,0.1-0.6s0-0.1-0.1-0.2c0,0-0.1-0.1-0.2-0.1s-0.2,0-0.3,0.1
				c-0.2,0.1-0.5,0.4-0.8,0.8c-0.1,0.1-0.4,0.5-0.8,1.3c-0.1,0.2-0.3,0.5-0.4,0.8l-0.3,1.1h-0.8l1.7-6l0.2-0.7c0-0.1,0-0.2-0.1-0.2
				c-0.1-0.1-0.2-0.1-0.3-0.1c-0.1,0-0.2,0-0.3,0h-0.1v0L280.8,131.7z"/>
		</g>
		<g class="st11">
			<path d="M286.7,140.1l-0.4,1h-3.1V141c0.9-0.8,1.6-1.5,2-2.1s0.6-1,0.6-1.5c0-0.3-0.1-0.6-0.3-0.8c-0.2-0.2-0.5-0.3-0.7-0.3
				c-0.3,0-0.5,0.1-0.7,0.2s-0.4,0.4-0.5,0.7h-0.1c0.1-0.5,0.2-0.9,0.5-1.1s0.6-0.4,1-0.4s0.8,0.1,1.1,0.4c0.3,0.3,0.4,0.6,0.4,1
				c0,0.3-0.1,0.5-0.2,0.8c-0.2,0.4-0.5,0.9-0.9,1.4c-0.7,0.7-1.1,1.1-1.2,1.3h1.4c0.3,0,0.5,0,0.6,0s0.2-0.1,0.3-0.1
				S286.7,140.3,286.7,140.1L286.7,140.1L286.7,140.1z"/>
		</g>
		<g class="st11">
			<path d="M240.1,122.8l-0.5,5.9c0,0.3,0,0.5,0,0.5c0,0.1,0,0.2,0.1,0.3s0.2,0.2,0.3,0.2s0.3,0.1,0.6,0.1l-0.1,0.2h-2.8l0.1-0.2
				h0.1c0.2,0,0.4,0,0.6-0.1c0.1-0.1,0.2-0.2,0.2-0.3s0.1-0.4,0.1-0.8l0.1-0.9h-2l-0.7,1c-0.2,0.2-0.3,0.4-0.3,0.5s-0.1,0.2-0.1,0.3
				s0,0.2,0.1,0.3s0.2,0.1,0.5,0.1l-0.1,0.2H234l0.1-0.2c0.3,0,0.5-0.1,0.7-0.3s0.5-0.5,0.9-1l4.2-5.8L240.1,122.8L240.1,122.8z
				 M239,124.5l-2.1,2.8h1.8L239,124.5z"/>
		</g>
		<g class="st11">
			<path d="M244.2,131l-0.4,1h-3.1v-0.1c0.9-0.8,1.6-1.5,2-2.1c0.4-0.5,0.6-1,0.6-1.5c0-0.3-0.1-0.6-0.3-0.8s-0.5-0.3-0.7-0.3
				c-0.3,0-0.5,0.1-0.7,0.2s-0.4,0.4-0.5,0.7H241c0.1-0.5,0.2-0.9,0.5-1.1s0.6-0.4,1-0.4s0.8,0.1,1.1,0.4s0.4,0.6,0.4,1
				c0,0.3-0.1,0.5-0.2,0.8c-0.2,0.4-0.5,0.9-0.9,1.4c-0.7,0.7-1.1,1.1-1.2,1.3h1.4c0.3,0,0.5,0,0.6,0s0.2-0.1,0.3-0.1
				S244.2,131.2,244.2,131L244.2,131L244.2,131z"/>
		</g>
		<path id="path3845" class="st13" d="M58.4,101.9l-6.6-2.7v5.4L58.4,101.9z"/>
		<path id="path3847" sodipodi:nodetypes="cc" class="st14" d="M45.5,101.9H52"/>
		<path id="path3849" class="st13" d="M246.3,67.9l-6.6-2.7v5.4L246.3,67.9z"/>
		<path id="path3851" sodipodi:nodetypes="cc" class="st14" d="M235.8,68h6.5"/>
		<path id="path3853" sodipodi:nodetypes="cc" class="st5" d="M50.6,135.8c0-10.3,4.6-20,4.6-20"/>
		<path id="path3855" class="st15" d="M57.6,111.8l-0.5,5.3l-3.9-2.3L57.6,111.8z"/>
		<path id="path3857" sodipodi:nodetypes="cc" class="st5" d="M238.1,118.8c0-17.6,4.6-26.6,4.6-26.6"/>
		<path id="path3859" class="st15" d="M245.1,88.3l-0.5,5.3l-3.9-2.3L245.1,88.3z"/>
		<path id="path3863" class="st15" d="M103.2,101.9l2.2,4.5H101L103.2,101.9z"/>
		<path id="path3865" class="st16" d="M103.2,106.3v22"/>
		<path id="path3867" class="st16" d="M99.7,101.9h7.2"/>
		<path id="path3869" class="st15" d="M103.2,169.5l2.2-4.5H101L103.2,169.5z"/>
		<path id="path3871" class="st16" d="M103.2,165.1v-22"/>
		<path id="path3873" class="st16" d="M99.7,169.5h7.2"/>
		<path id="path3875" class="st15" d="M281.9,68.1l2.2,4.5h-4.5L281.9,68.1z"/>
		<path id="path3877" sodipodi:nodetypes="cc" class="st16" d="M281.9,72v56.4"/>
		<path id="path3879" class="st16" d="M278.3,68.1h7.2"/>
		<path id="path3881" class="st15" d="M281.9,169.5l2.2-4.5h-4.5L281.9,169.5z"/>
		<path id="path3883" class="st16" d="M281.9,165.1v-22"/>
		<path id="path3885" class="st16" d="M278.3,169.5h7.2"/>
		<path id="path3887" class="st17" d="M343.7,68.2l-5.3-2.2v4.4L343.7,68.2z"/>
		<path id="path3889" sodipodi:nodetypes="cc" class="st18" d="M318.6,68h19.5"/>
		<path id="path3891" class="st17" d="M180.3,101.8l-5.3-2.2v4.4L180.3,101.8z"/>
		<path id="path3893" sodipodi:nodetypes="cc" class="st18" d="M149,101.6h25.7"/>
		<g class="st11">
			<path class="st12" d="M184.3,99.1l1.5-0.3c0.1,0.3,0.2,0.5,0.3,0.8c0.1,0.4,0.2,0.9,0.2,1.4c0,0.3,0.1,0.8,0.1,1.7
				c0.4-0.5,0.7-0.8,0.8-0.9c0.5-0.6,0.7-1,0.8-1.1c0.1-0.2,0.2-0.3,0.2-0.5c0-0.1,0.1-0.2,0.1-0.3c0-0.1-0.1-0.2-0.2-0.3
				c-0.2-0.1-0.2-0.3-0.2-0.4s0-0.2,0.1-0.3c0.1-0.1,0.2-0.1,0.3-0.1s0.3,0.1,0.4,0.2c0.1,0.1,0.2,0.3,0.2,0.4s0,0.3-0.1,0.5
				c-0.1,0.3-0.3,0.6-0.5,1s-0.6,0.9-1.2,1.5c-0.1,0.1-0.5,0.5-1.2,1.2h-0.2c-0.1-2.2-0.3-3.6-0.5-4.1c-0.1-0.2-0.2-0.3-0.4-0.3
				c-0.1,0-0.2,0-0.4,0L184.3,99.1z"/>
		</g>
		<g class="st11">
			<path class="st12" d="M190.4,100.7l1.3-0.6h0.1v4.5c0,0.3,0,0.5,0,0.6s0.1,0.1,0.2,0.2c0.1,0,0.2,0.1,0.5,0.1v0.1h-2v-0.1
				c0.3,0,0.4,0,0.5-0.1c0.1,0,0.1-0.1,0.2-0.2c0-0.1,0-0.3,0-0.6v-2.9c0-0.4,0-0.6,0-0.7s-0.1-0.1-0.1-0.2s-0.1-0.1-0.2-0.1
				c-0.1,0-0.2,0-0.4,0.1L190.4,100.7z"/>
		</g>
		<g class="st11">
			<path class="st12" d="M348,65.3l1.5-0.3c0.1,0.3,0.2,0.5,0.3,0.8c0.1,0.4,0.2,0.9,0.2,1.4c0,0.3,0.1,0.8,0.1,1.7
				c0.4-0.5,0.7-0.8,0.8-0.9c0.5-0.6,0.7-1,0.8-1.1c0.1-0.2,0.2-0.3,0.2-0.5c0-0.1,0.1-0.2,0.1-0.3c0-0.1-0.1-0.2-0.2-0.3
				c-0.2-0.1-0.2-0.3-0.2-0.4s0-0.2,0.1-0.3c0.1-0.1,0.2-0.1,0.3-0.1c0.1,0,0.3,0.1,0.4,0.2s0.2,0.3,0.2,0.4s0,0.3-0.1,0.5
				c-0.1,0.3-0.3,0.6-0.5,1s-0.6,0.9-1.2,1.5c-0.1,0.1-0.5,0.5-1.2,1.2h-0.2c-0.1-2.2-0.3-3.6-0.5-4.1c-0.1-0.2-0.2-0.3-0.4-0.3
				C348.4,65.4,348.3,65.4,348,65.3L348,65.3z"/>
		</g>
		<g class="st11">
			<path class="st12" d="M356.9,70.6l-0.4,1h-3.1v-0.1c0.9-0.8,1.6-1.5,2-2.1s0.6-1,0.6-1.5c0-0.3-0.1-0.6-0.3-0.8
				c-0.2-0.2-0.5-0.3-0.7-0.3c-0.3,0-0.5,0.1-0.7,0.2s-0.4,0.4-0.5,0.7h-0.1c0.1-0.5,0.2-0.9,0.5-1.1s0.6-0.4,1-0.4s0.8,0.1,1.1,0.4
				c0.3,0.3,0.4,0.6,0.4,1c0,0.3-0.1,0.5-0.2,0.8c-0.2,0.4-0.5,0.9-0.9,1.4c-0.7,0.7-1.1,1.1-1.2,1.3h1.4c0.3,0,0.5,0,0.6,0
				s0.2-0.1,0.3-0.1S356.9,70.8,356.9,70.6L356.9,70.6L356.9,70.6z"/>
		</g>
		<g id="g3925" transform="matrix(0,1,-1,0,446.0924,-41.821134)">
			<path id="path3919" class="st15" d="M114.9,296.8l2.2,4.5h-4.5L114.9,296.8z"/>
			<path id="path3921" sodipodi:nodetypes="cc" class="st16" d="M114.9,301.2v13.5"/>
			<path id="path3923" sodipodi:nodetypes="cc" class="st16" d="M108.9,296.8h17.7"/>
		</g>
		<g id="g3930" transform="matrix(0,1,1,0,-83.916227,-41.673658)">
			<path id="path3932" class="st15" d="M114.8,141.2l2.2,4.5h-4.5L114.8,141.2z"/>
			<path id="path3934" sodipodi:nodetypes="cc" class="st16" d="M114.8,145.6V159"/>
			<path id="path3936" sodipodi:nodetypes="cc" class="st16" d="M108.8,141.2h17.7"/>
		</g>
		<path id="path3940" class="st15" d="M318.9,22.2l-4.5,2.2v-4.5L318.9,22.2z"/>
		<path id="path3942" sodipodi:nodetypes="cc" class="st5" d="M314.6,22.2h-3.7"/>
		<path id="path3944" sodipodi:nodetypes="cc" class="st5" d="M318.9,16.2v17.7"/>
		<path id="path3948" class="st15" d="M245.2,22.2l4.5,2.2V20L245.2,22.2z"/>
		<path id="path3950" sodipodi:nodetypes="cc" class="st5" d="M249.5,22.2h3.6"/>
		<path id="path3952" sodipodi:nodetypes="cc" class="st5" d="M245.1,16.2v17.7"/>
		<path id="path3962" sodipodi:nodetypes="ccccc" class="st19" d="M28,169h338v8.9H28V169z"/>
		<path id="path3960" class="st16" d="M28,169.5h338.1"/>
	</g>
</g>
</svg>
