<svg xmlns="http://www.w3.org/2000/svg" width="80" height="80" viewBox="0 0 80 80">
  <g id="Grupo_1009231" data-name="Grupo 1009231" transform="translate(-760 -2480)">
    <g id="Trazado_232510" data-name="Trazado 232510" transform="translate(760 2480)" fill="#fff">
      <path d="M 40 78.5 C 34.80187606811523 78.5 29.76003265380859 77.48227691650391 25.01452255249023 75.47509765625 C 20.43014526367188 73.53606414794922 16.31264495849609 70.75986480712891 12.77638912200928 67.22360992431641 C 9.240133285522461 63.68735504150391 6.46393346786499 59.56985473632812 4.524899959564209 54.98547744750977 C 2.517722129821777 50.23996734619141 1.5 45.19812393188477 1.5 40 C 1.5 34.80187606811523 2.517722129821777 29.76003265380859 4.524899959564209 25.01452255249023 C 6.46393346786499 20.43014526367188 9.240133285522461 16.31264495849609 12.77638912200928 12.77638912200928 C 16.31264495849609 9.240133285522461 20.43014526367188 6.46393346786499 25.01452255249023 4.524899959564209 C 29.76003265380859 2.517722129821777 34.80187606811523 1.5 40 1.5 C 45.19812393188477 1.5 50.23996734619141 2.517722129821777 54.98547744750977 4.524899959564209 C 59.56985473632812 6.46393346786499 63.68735504150391 9.240133285522461 67.22360992431641 12.77638912200928 C 70.75986480712891 16.31264495849609 73.53606414794922 20.43014526367188 75.47509765625 25.01452255249023 C 77.48227691650391 29.76003265380859 78.5 34.80187606811523 78.5 40 C 78.5 45.19812393188477 77.48227691650391 50.23996734619141 75.47509765625 54.98547744750977 C 73.53606414794922 59.56985473632812 70.75986480712891 63.68735504150391 67.22360992431641 67.22360992431641 C 63.68735504150391 70.75986480712891 59.56985473632812 73.53606414794922 54.98547744750977 75.47509765625 C 50.23996734619141 77.48227691650391 45.19812393188477 78.5 40 78.5 Z" stroke="none"/>
      <path d="M 40 3 C 35.00370788574219 3 30.15845489501953 3.977851867675781 25.59883880615234 5.906410217285156 C 21.19326782226562 7.769813537597656 17.23602676391602 10.43806457519531 13.83704376220703 13.83704376220703 C 10.43806457519531 17.23602676391602 7.769813537597656 21.19326782226562 5.906410217285156 25.59883880615234 C 3.977851867675781 30.15845489501953 3 35.00370788574219 3 40 C 3 44.99629211425781 3.977851867675781 49.84153366088867 5.906410217285156 54.40114593505859 C 7.769813537597656 58.80672073364258 10.43806457519531 62.76396179199219 13.83704376220703 66.16294860839844 C 17.23602676391602 69.56193542480469 21.19326782226562 72.23018646240234 25.59885406494141 74.09358978271484 C 30.15846633911133 76.02214813232422 35.00370788574219 77 40 77 C 44.99629211425781 77 49.84153366088867 76.02214813232422 54.40114593505859 74.09358978271484 C 58.80672073364258 72.23018646240234 62.76396179199219 69.56193542480469 66.16294860839844 66.16294860839844 C 69.56193542480469 62.76396179199219 72.23018646240234 58.80672073364258 74.09358978271484 54.40114593505859 C 76.02214813232422 49.84153366088867 77 44.99629211425781 77 40 C 77 35.00370788574219 76.02214813232422 30.15846633911133 74.09358978271484 25.59885406494141 C 72.23018646240234 21.19326782226562 69.56193542480469 17.23602676391602 66.16294860839844 13.83704376220703 C 62.76396179199219 10.43806457519531 58.80672073364258 7.769813537597656 54.40114593505859 5.906410217285156 C 49.84153366088867 3.977851867675781 44.99629211425781 3 40 3 M 40 0 C 62.09138488769531 0 80 17.90859985351562 80 40 C 80 62.09138488769531 62.09138488769531 80 40 80 C 17.90859985351562 80 0 62.09138488769531 0 40 C 0 17.90859985351562 17.90859985351562 0 40 0 Z" stroke="none" fill="#4db1f0"/>
    </g>
    <g id="_011-test_tube" data-name="011-test tube" transform="translate(777 2498)">
      <path id="Trazado_717019" data-name="Trazado 717019" d="M17.117,40.2V29.672a3.116,3.116,0,0,1-3.147-.245V40.2Z" transform="translate(-6.429 -11.377)" fill="#eeefee"/>
      <path id="Trazado_717020" data-name="Trazado 717020" d="M16.946,40.355H13.8a.329.329,0,0,1-.329-.329V29.258a.329.329,0,0,1,.517-.27,2.831,2.831,0,0,0,2.813.22.329.329,0,0,1,.474.295V40.027A.329.329,0,0,1,16.946,40.355ZM14.128,39.7h2.489V29.987a3.493,3.493,0,0,1-2.489-.162Z" transform="translate(-6.258 -11.207)" fill="#323c6b"/>
      <path id="Trazado_717021" data-name="Trazado 717021" d="M26.321,14.422,20.3,20.311a3.14,3.14,0,0,0-2.064-2.392l5.973-5.841a3.156,3.156,0,0,0,2.108,2.344Z" transform="translate(-7.892 -5.435)" fill="#eeefee"/>
      <path id="Trazado_717022" data-name="Trazado 717022" d="M20.133,20.468a.329.329,0,0,1-.323-.269,2.814,2.814,0,0,0-1.849-2.141.329.329,0,0,1-.123-.546l5.973-5.841a.329.329,0,0,1,.552.168,2.827,2.827,0,0,0,1.889,2.1.329.329,0,0,1,.128.548l-6.017,5.891a.329.329,0,0,1-.229.094Zm-1.485-2.827A3.479,3.479,0,0,1,20.3,19.516l5.264-5.154a3.494,3.494,0,0,1-1.681-1.841Z" transform="translate(-7.72 -5.263)" fill="#323c6b"/>
      <path id="Trazado_717023" data-name="Trazado 717023" d="M43.341,11.6H36.184a3.055,3.055,0,0,0,.34-1.416,3.144,3.144,0,0,0-.516-1.731h7.333Z" transform="translate(-13.978 -4.193)" fill="#eeefee"/>
      <path id="Trazado_717024" data-name="Trazado 717024" d="M43.169,11.758H36.013a.329.329,0,0,1-.291-.481,2.728,2.728,0,0,0,.3-1.264,2.809,2.809,0,0,0-.46-1.55.329.329,0,0,1,.275-.51h7.33a.329.329,0,0,1,.329.329v3.147a.329.329,0,0,1-.329.329ZM36.508,11.1h6.333V8.611H36.39a3.5,3.5,0,0,1,.119,2.49Z" transform="translate(-13.808 -4.022)" fill="#323c6b"/>
      <path id="Trazado_717025" data-name="Trazado 717025" d="M33.514,9.445a3.055,3.055,0,0,1-.34,1.416,3.141,3.141,0,0,1-2.807,1.731,3.093,3.093,0,0,1-.969-.151A3.156,3.156,0,0,1,27.289,10.1a3.207,3.207,0,0,1-.069-.657,3.147,3.147,0,1,1,6.294,0Z" transform="translate(-10.968 -3.454)" fill="#9297ab"/>
      <path id="Trazado_717026" data-name="Trazado 717026" d="M32.643,10.392a1.291,1.291,0,0,1-.144.6,1.328,1.328,0,0,1-1.187.732,1.308,1.308,0,0,1-.41-.066,1.336,1.336,0,0,1-.891-.99,1.356,1.356,0,0,1-.03-.277,1.331,1.331,0,1,1,2.661,0Z" transform="translate(-11.914 -4.4)" fill="#fff"/>
      <path id="Trazado_717027" data-name="Trazado 717027" d="M31.14,11.879A1.661,1.661,0,1,1,32.8,10.22a1.631,1.631,0,0,1-.181.751A1.648,1.648,0,0,1,31.14,11.879Zm0-2.661a1,1,0,0,0-1,1,1.032,1.032,0,0,0,.022.21,1.008,1.008,0,0,0,.671.744,1.027,1.027,0,0,0,1.2-.5.972.972,0,0,0,.108-.451,1,1,0,0,0-1-1Z" transform="translate(-11.741 -4.229)" fill="#323c6b"/>
      <path id="Trazado_717028" data-name="Trazado 717028" d="M18.187,23.854a3.148,3.148,0,1,1-3.147-3.148,3.246,3.246,0,0,1,1.026.17,3.14,3.14,0,0,1,2.065,2.391A2.978,2.978,0,0,1,18.187,23.854Z" transform="translate(-5.717 -8.39)" fill="#9297ab"/>
      <path id="Trazado_717029" data-name="Trazado 717029" d="M17.287,24.832a1.271,1.271,0,1,1-1.27-1.27,1.31,1.31,0,0,1,.414.066,1.267,1.267,0,0,1,.833.965A1.2,1.2,0,0,1,17.287,24.832Z" transform="translate(-6.695 -9.368)" fill="#fff"/>
      <path id="Trazado_717030" data-name="Trazado 717030" d="M15.847,26.26a1.6,1.6,0,0,1,0-3.2,1.632,1.632,0,0,1,.518.085,1.6,1.6,0,0,1,1.052,1.217,1.5,1.5,0,0,1,.029.3,1.6,1.6,0,0,1-.907,1.44,1.578,1.578,0,0,1-.692.16Zm0-2.54a.941.941,0,1,0,.941.941.834.834,0,0,0-.016-.171.938.938,0,0,0-.617-.719A.97.97,0,0,0,15.847,23.72Z" transform="translate(-6.524 -9.197)" fill="#323c6b"/>
      <rect id="Rect치ngulo_348052" data-name="Rect치ngulo 348052" width="12.404" height="6.679" rx="1.629" transform="translate(29.36 2.302)" fill="#9297ab"/>
      <path id="Trazado_717031" data-name="Trazado 717031" d="M.493,0H17.079a.493.493,0,0,1,.493.493V.969A3.611,3.611,0,0,1,13.961,4.58H3.611A3.611,3.611,0,0,1,0,.968V.493A.493.493,0,0,1,.493,0Z" transform="translate(17.9 43.756) rotate(180)" fill="#84879c"/>
      <path id="Trazado_717032" data-name="Trazado 717032" d="M19.908,66.3H3.322a.822.822,0,0,1-.822-.822V65a3.945,3.945,0,0,1,3.939-3.94h10.35A3.945,3.945,0,0,1,20.729,65v.475a.822.822,0,0,1-.821.822ZM6.439,61.718A3.287,3.287,0,0,0,3.157,65v.475a.164.164,0,0,0,.164.164H19.908a.164.164,0,0,0,.164-.164V65a3.287,3.287,0,0,0-3.283-3.283Z" transform="translate(-2.5 -22.213)" fill="#323c6b"/>
      <path id="Trazado_717033" data-name="Trazado 717033" d="M0,0H9.373V8.124a2.231,2.231,0,0,1-2.23,2.232H2.232A2.231,2.231,0,0,1,0,8.125V0H0Z" transform="translate(13.801 39.176) rotate(180)" fill="#9297ab"/>
      <path id="Trazado_717034" data-name="Trazado 717034" d="M33.676,9.446a3.112,3.112,0,0,1-1.308,2.544,2.993,2.993,0,0,0,.322-1.368,3.14,3.14,0,0,0-3.143-3.149,3.093,3.093,0,0,0-1.847.6,3.141,3.141,0,0,1,5.976,1.368Z" transform="translate(-11.132 -3.452)" fill="#84879c"/>
      <path id="Trazado_717035" data-name="Trazado 717035" d="M18.353,23.852a3.122,3.122,0,0,1-1.3,2.544,3.133,3.133,0,0,0,.309-1.361,2.8,2.8,0,0,0-.059-.585,3.139,3.139,0,0,0-3.09-2.564,3.064,3.064,0,0,0-1.847.6,3.145,3.145,0,0,1,5.924.776,2.9,2.9,0,0,1,.059.585Z" transform="translate(-5.881 -8.391)" fill="#84879c"/>
      <path id="Trazado_717036" data-name="Trazado 717036" d="M59.559,6.542v4.536a1.066,1.066,0,0,1-1.065,1.072h-.355V7.995a1.072,1.072,0,0,0-1.072-1.072H47.16V6.542A1.072,1.072,0,0,1,48.232,5.47H58.494a1.066,1.066,0,0,1,1.065,1.072Z" transform="translate(-17.798 -3.171)" fill="#84879c"/>
      <path id="Trazado_717037" data-name="Trazado 717037" d="M18.677,48.039v8.126H17.3V49.406a2.235,2.235,0,0,0-2.235-2.235h-4.9a2.015,2.015,0,0,0-.723.125,2.221,2.221,0,0,1,2.1-1.486h4.911a2.231,2.231,0,0,1,2.229,2.229Z" transform="translate(-4.877 -16.989)" fill="#84879c"/>
      <path id="Trazado_717038" data-name="Trazado 717038" d="M47.507,22.009l-3.972,2.455a2.861,2.861,0,0,0-1.118,3.562L44.69,33.2a1.174,1.174,0,1,0,2.159-.925l-2.279-5.18a.5.5,0,0,1,.2-.629l3.663-2.26" transform="translate(-16.094 -8.836)" fill="#eeefee"/>
      <path id="Trazado_717039" data-name="Trazado 717039" d="M45.61,34.067a1.435,1.435,0,0,1-.291-.03,1.5,1.5,0,0,1-1.1-.878l-2.271-5.172a3.193,3.193,0,0,1,1.249-3.975l3.97-2.454a.329.329,0,1,1,.345.56l-3.972,2.454a2.532,2.532,0,0,0-.986,3.153L44.82,32.9a.845.845,0,1,0,1.556-.661L44.1,27.055a.834.834,0,0,1,.329-1.043l3.661-2.258a.329.329,0,0,1,.345.56l-3.668,2.26a.176.176,0,0,0-.066.219l2.278,5.178a1.5,1.5,0,0,1-.78,1.972,1.524,1.524,0,0,1-.586.123Z" transform="translate(-15.922 -8.665)" fill="#323c6b"/>
      <path id="Trazado_717040" data-name="Trazado 717040" d="M61.5,24.206l3.663,2.26a.5.5,0,0,1,.2.629l-2.279,5.18a1.174,1.174,0,1,0,2.159.925l2.272-5.174A2.861,2.861,0,0,0,66.4,24.464L62.42,22.009" transform="translate(-22.711 -8.836)" fill="#eeefee"/>
      <path id="Trazado_717041" data-name="Trazado 717041" d="M58.294,52.888v6.259a3.557,3.557,0,1,1-7.114,0V51.52a2.784,2.784,0,0,1,.546.309c.467.335.868.763,1.367,1.065a5.412,5.412,0,0,0,2.281.618,4.259,4.259,0,0,0,2.485-.322A2.847,2.847,0,0,0,58.294,52.888Z" transform="translate(-19.175 -18.945)" fill="#4db1f0"/>
      <path id="Trazado_717042" data-name="Trazado 717042" d="M58.294,39.14v9.507a2.847,2.847,0,0,1-.434.3,4.259,4.259,0,0,1-2.485.322,5.412,5.412,0,0,1-2.281-.618c-.5-.3-.9-.73-1.367-1.065a2.784,2.784,0,0,0-.546-.309l.007-8.139Z" transform="translate(-19.175 -14.704)" fill="#eeefee"/>
      <path id="Trazado_717043" data-name="Trazado 717043" d="M59.03,53.6v6.259a3.55,3.55,0,0,1-5.7,2.834,2.954,2.954,0,0,0,.421.026,3.555,3.555,0,0,0,2.511-1.045,3.516,3.516,0,0,0,1.045-2.511v-4.9A3.024,3.024,0,0,0,58.6,53.9a2.846,2.846,0,0,0,.434-.3Z" transform="translate(-19.912 -19.658)" fill="#3f95cc"/>
      <path id="Trazado_717044" data-name="Trazado 717044" d="M61.1,39.14v9.507a2.847,2.847,0,0,1-.434.3,3.024,3.024,0,0,1-1.289.355V39.14Z" transform="translate(-21.984 -14.704)" fill="#e1e6e9"/>
      <ellipse id="Elipse_8384" data-name="Elipse 8384" cx="1.644" cy="1.644" rx="1.644" ry="1.644" transform="translate(7.471 30.711)" fill="#fff"/>
      <path id="Trazado_717045" data-name="Trazado 717045" d="M15.335,52.13a1.972,1.972,0,1,1,1.972-1.972A1.972,1.972,0,0,1,15.335,52.13Zm0-3.287a1.315,1.315,0,1,0,1.315,1.315A1.315,1.315,0,0,0,15.335,48.842Z" transform="translate(-6.221 -17.803)" fill="#323c6b"/>
      <path id="Trazado_717046" data-name="Trazado 717046" d="M60.559,2.631h-.438a.329.329,0,0,1,0-.657h.438a.329.329,0,0,1,0,.657Z" transform="translate(-22.125 -1.973)" fill="#323c6b"/>
      <path id="Trazado_717047" data-name="Trazado 717047" d="M66.621,4.675a.329.329,0,0,1-.31-.22,2.713,2.713,0,0,0-2.548-1.824h-.893a.329.329,0,0,1,0-.657h.893a3.371,3.371,0,0,1,3.171,2.264.329.329,0,0,1-.2.419A.322.322,0,0,1,66.621,4.675Z" transform="translate(-23.068 -1.973)" fill="#323c6b"/>
      <path id="Trazado_717048" data-name="Trazado 717048" d="M48.012,60.318a.329.329,0,0,1-.329-.329v-.411a.329.329,0,1,1,.657,0v.411A.329.329,0,0,1,48.012,60.318Z" transform="translate(-17.978 -21.593)" fill="#323c6b"/>
      <path id="Trazado_717049" data-name="Trazado 717049" d="M48.013,55.537a.329.329,0,0,1-.329-.329v-4.63a.329.329,0,1,1,.657,0v4.63A.329.329,0,0,1,48.013,55.537Z" transform="translate(-17.978 -18.51)" fill="#323c6b"/>
      <path id="Trazado_717050" data-name="Trazado 717050" d="M50.254,15.634h8.332v3.753a4.166,4.166,0,1,1-8.332,0Z" transform="translate(-18.858 -6.653)" fill="#eeefee"/>
      <path id="Trazado_717051" data-name="Trazado 717051" d="M47.507,22.009l-3.972,2.455a2.861,2.861,0,0,0-1.118,3.562L44.69,33.2a1.174,1.174,0,1,0,2.159-.925l-2.279-5.18a.5.5,0,0,1,.2-.629l3.663-2.26" transform="translate(-16.094 -8.836)" fill="#eeefee"/>
      <path id="Trazado_717052" data-name="Trazado 717052" d="M45.61,34.067a1.435,1.435,0,0,1-.291-.03,1.5,1.5,0,0,1-1.1-.878l-2.271-5.172a3.193,3.193,0,0,1,1.249-3.975l3.97-2.454a.329.329,0,1,1,.345.56l-3.972,2.454a2.532,2.532,0,0,0-.986,3.153L44.82,32.9a.845.845,0,1,0,1.556-.661L44.1,27.055a.834.834,0,0,1,.329-1.043l3.661-2.258a.329.329,0,0,1,.345.56l-3.668,2.26a.176.176,0,0,0-.066.219l2.278,5.178a1.5,1.5,0,0,1-.78,1.972,1.524,1.524,0,0,1-.586.123Z" transform="translate(-15.922 -8.665)" fill="#323c6b"/>
      <path id="Trazado_717053" data-name="Trazado 717053" d="M67.773,28.026,65.5,33.2a1.208,1.208,0,0,1-1.552.618.09.09,0,0,1-.053-.033,1.165,1.165,0,0,0,.125-.217l2.268-5.174a2.853,2.853,0,0,0-1.118-3.557L62.25,23.029l.427-1.019,3.971,2.452a2.865,2.865,0,0,1,1.124,3.563Z" transform="translate(-22.967 -8.837)" fill="#e1e6e9"/>
      <path id="Trazado_717054" data-name="Trazado 717054" d="M60.888,15.63v3.754a4.165,4.165,0,0,1-3.918,4.155,4.03,4.03,0,0,0,1.216-.842,4.137,4.137,0,0,0,1.223-2.945V15.63Z" transform="translate(-21.159 -6.651)" fill="#e1e6e9"/>
      <rect id="Rect치ngulo_348053" data-name="Rect치ngulo 348053" width="9.834" height="3.199" rx="1.6" transform="translate(30.645 21.254)" fill="#9297ab"/>
      <g id="Grupo_1009064" data-name="Grupo 1009064" transform="translate(0 1.971)">
        <path id="Trazado_717055" data-name="Trazado 717055" d="M57.175,37.658H50.54a1.929,1.929,0,0,1,0-3.857h6.635a1.929,1.929,0,0,1,0,3.857Zm-6.635-3.2a1.271,1.271,0,0,0,0,2.542h6.635a1.271,1.271,0,0,0,0-2.542Z" transform="translate(-18.296 -14.847)" fill="#323c6b"/>
        <path id="Trazado_717056" data-name="Trazado 717056" d="M54.566,62.861a3.89,3.89,0,0,1-3.886-3.886V51.349a.329.329,0,0,1,.451-.305,3.11,3.11,0,0,1,.611.345c.206.147.394.308.584.469a6.087,6.087,0,0,0,.766.585,5.121,5.121,0,0,0,2.143.572,4.01,4.01,0,0,0,2.292-.281,2.526,2.526,0,0,0,.389-.272.329.329,0,0,1,.535.256v6.259a3.887,3.887,0,0,1-3.886,3.886ZM51.337,51.908v7.068a3.228,3.228,0,0,0,6.456,0v-5.64a4.647,4.647,0,0,1-2.621.332A5.7,5.7,0,0,1,52.752,53a6.654,6.654,0,0,1-.855-.646c-.176-.15-.351-.3-.538-.433Z" transform="translate(-19.004 -20.745)" fill="#323c6b"/>
        <path id="Trazado_717057" data-name="Trazado 717057" d="M56.015,49.472c-.29,0-.576-.02-.849-.045a5.7,5.7,0,0,1-2.42-.664,6.653,6.653,0,0,1-.855-.646c-.176-.15-.351-.3-.538-.433a2.45,2.45,0,0,0-.476-.271.329.329,0,0,1-.206-.306l.007-8.139a.329.329,0,0,1,.329-.329h7.112a.329.329,0,0,1,.329.329v9.507a.329.329,0,0,1-.122.256,3.184,3.184,0,0,1-.484.336A3.682,3.682,0,0,1,56.015,49.472ZM51.334,46.9a3.69,3.69,0,0,1,.4.249c.206.147.394.308.584.469a6.087,6.087,0,0,0,.766.585,5.121,5.121,0,0,0,2.143.572,4.01,4.01,0,0,0,2.292-.281,2.023,2.023,0,0,0,.266-.176V39.3h-6.45Z" transform="translate(-19.001 -16.504)" fill="#323c6b"/>
        <path id="Trazado_717058" data-name="Trazado 717058" d="M63.98,34.065a1.532,1.532,0,0,1-.585-.117,1.5,1.5,0,0,1-.785-1.976l2.279-5.181a.175.175,0,0,0-.066-.216l-3.664-2.261a.329.329,0,0,1,.345-.56l3.663,2.26a.833.833,0,0,1,.324,1.04l-2.279,5.181a.846.846,0,1,0,1.556.662l2.273-5.176a2.533,2.533,0,0,0-.991-3.15l-3.973-2.456a.329.329,0,1,1,.345-.56l3.97,2.456a3.194,3.194,0,0,1,1.249,3.972l-2.273,5.176a1.506,1.506,0,0,1-1.109.877A1.413,1.413,0,0,1,63.98,34.065Z" transform="translate(-22.54 -10.635)" fill="#323c6b"/>
        <path id="Trazado_717059" data-name="Trazado 717059" d="M54.249,23.711a4.5,4.5,0,0,1-4.495-4.5V15.463a.329.329,0,0,1,.329-.329h8.333a.329.329,0,0,1,.329.329v3.753a4.5,4.5,0,0,1-4.5,4.5Zm-3.838-7.92v3.424a3.838,3.838,0,1,0,7.676,0V15.791Z" transform="translate(-18.687 -8.452)" fill="#323c6b"/>
        <path id="Trazado_717060" data-name="Trazado 717060" d="M30.2,12.75a3.438,3.438,0,0,1-1.071-.168A3.485,3.485,0,0,1,26.8,10a3.527,3.527,0,0,1-.076-.723,3.476,3.476,0,1,1,6.952,0,3.391,3.391,0,0,1-.378,1.569,3.451,3.451,0,0,1-3.1,1.909Zm0-6.294a2.821,2.821,0,0,0-2.818,2.819,2.9,2.9,0,0,0,.062.588,2.827,2.827,0,0,0,1.889,2.1,2.743,2.743,0,0,0,.867.135,2.8,2.8,0,0,0,2.513-1.55,2.74,2.74,0,0,0,.305-1.268A2.813,2.813,0,0,0,30.2,6.456Z" transform="translate(-10.797 -5.254)" fill="#323c6b"/>
        <path id="Trazado_717061" data-name="Trazado 717061" d="M14.869,27.159a3.476,3.476,0,0,1,0-6.952,3.584,3.584,0,0,1,1.13.187,3.473,3.473,0,0,1,2.283,2.644,3.282,3.282,0,0,1,.062.645,3.478,3.478,0,0,1-1.968,3.129A3.432,3.432,0,0,1,14.869,27.159Zm0-6.294a2.817,2.817,0,1,0,2.818,2.819,2.649,2.649,0,0,0-.05-.521,2.815,2.815,0,0,0-1.849-2.145,2.91,2.91,0,0,0-.919-.153Z" transform="translate(-5.546 -10.19)" fill="#323c6b"/>
        <path id="Trazado_717062" data-name="Trazado 717062" d="M58.322,12.31H48.057a1.4,1.4,0,0,1-1.4-1.4V6.371a1.4,1.4,0,0,1,1.4-1.4H58.322a1.4,1.4,0,0,1,1.4,1.4v4.536A1.4,1.4,0,0,1,58.322,12.31ZM48.057,5.63a.744.744,0,0,0-.743.74v4.536a.744.744,0,0,0,.743.742H58.322a.744.744,0,0,0,.739-.742V6.371a.744.744,0,0,0-.739-.74Z" transform="translate(-17.626 -4.971)" fill="#323c6b"/>
        <path id="Trazado_717063" data-name="Trazado 717063" d="M18.437,56.321H9.064a.329.329,0,0,1-.329-.329V47.866A2.564,2.564,0,0,1,11.3,45.3h4.911a2.564,2.564,0,0,1,2.559,2.561v8.127A.329.329,0,0,1,18.437,56.321Zm-9.045-.657h8.716v-7.8a1.907,1.907,0,0,0-1.9-1.9H11.3a1.907,1.907,0,0,0-1.9,1.9Z" transform="translate(-4.636 -18.787)" fill="#323c6b"/>
        <path id="Trazado_717064" data-name="Trazado 717064" d="M16.946,40.355a.329.329,0,0,1-.329-.329V29.987a3.493,3.493,0,0,1-2.489-.162v10.2a.329.329,0,1,1-.657,0V29.258a.329.329,0,0,1,.517-.27,2.831,2.831,0,0,0,2.813.22.329.329,0,0,1,.474.295V40.027A.329.329,0,0,1,16.946,40.355Z" transform="translate(-6.258 -13.177)" fill="#323c6b"/>
        <path id="Trazado_717065" data-name="Trazado 717065" d="M20.133,20.468a.329.329,0,0,1-.323-.269,2.814,2.814,0,0,0-1.849-2.141.329.329,0,0,1-.123-.546l5.973-5.841a.329.329,0,0,1,.552.168,2.827,2.827,0,0,0,1.889,2.1.329.329,0,0,1,.128.548l-6.017,5.891a.329.329,0,0,1-.229.094Zm-1.485-2.827A3.479,3.479,0,0,1,20.3,19.516l5.264-5.154a3.494,3.494,0,0,1-1.681-1.841Z" transform="translate(-7.72 -7.234)" fill="#323c6b"/>
        <path id="Trazado_717066" data-name="Trazado 717066" d="M43.169,11.758H36.013a.329.329,0,0,1-.291-.481,2.728,2.728,0,0,0,.3-1.264,2.809,2.809,0,0,0-.46-1.55.329.329,0,0,1,.275-.51h7.33a.329.329,0,0,1,0,.657H36.39a3.5,3.5,0,0,1,.119,2.49h6.661a.329.329,0,0,1,0,.657Z" transform="translate(-13.808 -5.992)" fill="#323c6b"/>
        <path id="Trazado_717067" data-name="Trazado 717067" d="M58.322,12.31H48.057a1.4,1.4,0,0,1-1.4-1.4V6.371a1.4,1.4,0,0,1,1.4-1.4H58.322a1.4,1.4,0,0,1,1.4,1.4v4.536A1.4,1.4,0,0,1,58.322,12.31ZM48.057,5.63a.744.744,0,0,0-.743.74v4.536a.744.744,0,0,0,.743.742H58.322a.744.744,0,0,0,.739-.742V6.371a.744.744,0,0,0-.739-.74Z" transform="translate(-17.626 -4.971)" fill="#323c6b"/>
        <path id="Trazado_717068" data-name="Trazado 717068" d="M54.249,23.711a4.5,4.5,0,0,1-4.495-4.5V15.463a.329.329,0,0,1,.329-.329h8.333a.329.329,0,0,1,.329.329v3.753a4.5,4.5,0,0,1-4.5,4.5Zm-3.838-7.92v3.424a3.838,3.838,0,1,0,7.676,0V15.791Z" transform="translate(-18.687 -8.452)" fill="#323c6b"/>
        <path id="Trazado_717069" data-name="Trazado 717069" d="M19.908,66.3H3.322a.822.822,0,0,1-.822-.822V65a3.945,3.945,0,0,1,3.939-3.94h10.35A3.945,3.945,0,0,1,20.729,65v.475a.822.822,0,0,1-.821.822ZM6.439,61.718A3.287,3.287,0,0,0,3.157,65v.475a.164.164,0,0,0,.164.164H19.908a.164.164,0,0,0,.164-.164V65a3.287,3.287,0,0,0-3.283-3.283Z" transform="translate(-2.5 -24.184)" fill="#323c6b"/>
        <path id="Trazado_717070" data-name="Trazado 717070" d="M18.437,56.321H9.064a.329.329,0,0,1-.329-.329V47.866A2.564,2.564,0,0,1,11.3,45.3h4.911a2.564,2.564,0,0,1,2.559,2.561v8.127A.329.329,0,0,1,18.437,56.321Zm-9.045-.657h8.716v-7.8a1.907,1.907,0,0,0-1.9-1.9H11.3a1.907,1.907,0,0,0-1.9,1.9Z" transform="translate(-4.636 -18.787)" fill="#323c6b"/>
        <path id="Trazado_717071" data-name="Trazado 717071" d="M45.61,34.067a1.435,1.435,0,0,1-.291-.03,1.5,1.5,0,0,1-1.1-.878l-2.271-5.172a3.193,3.193,0,0,1,1.249-3.975l3.97-2.454a.329.329,0,1,1,.345.56l-3.972,2.454a2.532,2.532,0,0,0-.986,3.153L44.82,32.9a.845.845,0,1,0,1.556-.661L44.1,27.055a.834.834,0,0,1,.329-1.043l3.661-2.258a.329.329,0,0,1,.345.56l-3.668,2.26a.176.176,0,0,0-.066.219l2.278,5.178a1.5,1.5,0,0,1-.78,1.972,1.524,1.524,0,0,1-.586.123Z" transform="translate(-15.922 -10.636)" fill="#323c6b"/>
        <path id="Trazado_717072" data-name="Trazado 717072" d="M63.98,34.065a1.532,1.532,0,0,1-.585-.117,1.5,1.5,0,0,1-.785-1.976l2.279-5.181a.175.175,0,0,0-.066-.216l-3.664-2.261a.329.329,0,0,1,.345-.56l3.663,2.26a.833.833,0,0,1,.324,1.04l-2.279,5.181a.846.846,0,1,0,1.556.662l2.273-5.176a2.533,2.533,0,0,0-.991-3.15l-3.973-2.456a.329.329,0,1,1,.345-.56l3.97,2.456a3.194,3.194,0,0,1,1.249,3.972l-2.273,5.176a1.506,1.506,0,0,1-1.109.877A1.413,1.413,0,0,1,63.98,34.065Z" transform="translate(-22.54 -10.635)" fill="#323c6b"/>
        <path id="Trazado_717073" data-name="Trazado 717073" d="M57.175,37.658H50.54a1.929,1.929,0,0,1,0-3.857h6.635a1.929,1.929,0,0,1,0,3.857Zm-6.635-3.2a1.271,1.271,0,0,0,0,2.542h6.635a1.271,1.271,0,0,0,0-2.542Z" transform="translate(-18.296 -14.847)" fill="#323c6b"/>
        <path id="Trazado_717074" data-name="Trazado 717074" d="M54.566,58.616a3.889,3.889,0,0,1-3.884-3.885l.007-15.766a.329.329,0,1,1,.657,0l-.007,15.766a3.227,3.227,0,1,0,6.454,0V38.965a.329.329,0,1,1,.657,0V54.731A3.885,3.885,0,0,1,54.566,58.616Z" transform="translate(-19.005 -16.503)" fill="#323c6b"/>
      </g>
    </g>
  </g>
</svg>
