<svg xmlns="http://www.w3.org/2000/svg" width="190" height="62" viewBox="0 0 190 62">
  <g id="Grupo_1009238" data-name="Grupo 1009238" transform="translate(-495 -6391)">
    <path id="Trazado_718182" data-name="Trazado 718182" d="M10,0H180a10,10,0,0,1,10,10V52a10,10,0,0,1-10,10H10A10,10,0,0,1,0,52V10A10,10,0,0,1,10,0Z" transform="translate(495 6391)" fill="#ffa031" opacity="0.15"/>
    <path id="Trazado_718183" data-name="Trazado 718183" d="M66.108,24.886l.279.749a6.773,6.773,0,0,0,.521,1.155,1.779,1.779,0,0,0,.552.59,1.46,1.46,0,0,0,.793.2,1.91,1.91,0,0,0,.952-.267,5.035,5.035,0,0,0,1.054-.863l.978.978a11.327,11.327,0,0,1-2.3,1.854,4.424,4.424,0,0,1-2.222.584,3.513,3.513,0,0,1-2.311-.774,5.075,5.075,0,0,1-1.473-2.425l-.5-1.511a5.123,5.123,0,0,1-3.567-1.746,6.4,6.4,0,0,1-1.231-4.183,15.019,15.019,0,0,1,.2-2.3,16.9,16.9,0,0,1,.686-2.736,11.528,11.528,0,0,1,1.333-2.723,9.357,9.357,0,0,1,2-2.19,8.045,8.045,0,0,1,2.558-1.358,9.651,9.651,0,0,1,2.958-.451,5.9,5.9,0,0,1,4.386,1.511,6,6,0,0,1,1.492,4.393,15.992,15.992,0,0,1-.279,2.8,14.9,14.9,0,0,1-.87,3,11.406,11.406,0,0,1-1.485,2.622,9.235,9.235,0,0,1-2.044,1.98A7.013,7.013,0,0,1,66.108,24.886ZM61.461,20.4a4.8,4.8,0,0,0,.508,2.533,1.821,1.821,0,0,0,1.65.781,2.579,2.579,0,0,0,1.168-.279,4.428,4.428,0,0,0,1.333-1.054,9.616,9.616,0,0,0,1.447-2.234A16.608,16.608,0,0,0,68.66,17.18a27.786,27.786,0,0,0,.622-3.047,12.2,12.2,0,0,0,.152-1.9,4.713,4.713,0,0,0-.508-2.488,1.842,1.842,0,0,0-1.676-.787,3.125,3.125,0,0,0-2.146.984,9.148,9.148,0,0,0-1.885,2.774,17.762,17.762,0,0,0-1.3,4.018A19,19,0,0,0,61.461,20.4ZM81.837,16l.546-2.488h11.3L93.136,16Zm-1.257,5.624.546-2.488h11.3l-.546,2.488Zm28.945-1.993h-4.964l-.178.317q-.292.508-.5.92t-.375.838a4.886,4.886,0,0,0-.235.762,3.157,3.157,0,0,0-.07.641q0,.914,1.079,1.054l-.19.838H98.735l.19-.838a2.143,2.143,0,0,0,.781-.343,2.948,2.948,0,0,0,.641-.654,14.626,14.626,0,0,0,.863-1.416l7.884-14.168h3.656l.546,13.571a12.084,12.084,0,0,0,.089,1.225,4.71,4.71,0,0,0,.165.768,2.083,2.083,0,0,0,.248.533.969.969,0,0,0,.375.33,1.615,1.615,0,0,0,.508.152l-.19.838h-6.563l.19-.838a1.606,1.606,0,0,0,.882-.286,1.282,1.282,0,0,0,.451-.673,4.34,4.34,0,0,0,.127-1.187q0-.546-.025-1.143Zm-4.177-1.485h4.139l-.051-3.047q-.025-1.625-.025-2.691,0-.813.013-1.663h-.152Zm22.56-5.738.444.838q-1.6,4.24-7.389,11.946H118.5l-1.181-9.674a6.981,6.981,0,0,0-.286-1.435,1.378,1.378,0,0,0-.4-.609,1.33,1.33,0,0,0-.724-.229l.19-.838h4.469l.876,9.483a36.1,36.1,0,0,0,2.825-4.577,7.343,7.343,0,0,0,.908-3.066,1.041,1.041,0,0,0-.229-.73,1.13,1.13,0,0,0-.8-.273l.178-.838Z" transform="translate(498 6407)" fill="#12263f"/>
  </g>
</svg>
