<svg xmlns="http://www.w3.org/2000/svg" width="106.414" height="38.68" viewBox="0 0 106.414 38.68">
  <g id="Grupo_1009233" data-name="Grupo 1009233" transform="translate(4063.379 9939.072)">
    <path id="Trazado_718251" data-name="Trazado 718251" d="M262.352,6.906V5.055a9.246,9.246,0,0,1,3.586-.844,5.006,5.006,0,0,1,1.7.266,2.47,2.47,0,0,1,1.141.777,1.942,1.942,0,0,1,.4,1.238,2.468,2.468,0,0,1-.266,1.168,2.718,2.718,0,0,1-.746.879,6.586,6.586,0,0,1-1.246.734v.07a3.549,3.549,0,0,1,1.238.453,2.484,2.484,0,0,1,1.223,2.2,2.983,2.983,0,0,1-.441,1.613,2.936,2.936,0,0,1-1.34,1.109,5.315,5.315,0,0,1-2.18.4,9.363,9.363,0,0,1-1.734-.16,6.443,6.443,0,0,1-1.484-.449V12.555h1.406a2.714,2.714,0,0,0,.641,1.293,1.492,1.492,0,0,0,1.086.4q1.656,0,1.656-2.047a2.132,2.132,0,0,0-.582-1.641,2.529,2.529,0,0,0-1.77-.539h-.617V9.133a3.39,3.39,0,0,0,2.063-.637,2.061,2.061,0,0,0,.7-1.684,2.069,2.069,0,0,0-.352-1.309,1.231,1.231,0,0,0-1.023-.441,1.405,1.405,0,0,0-1.285.754,3.141,3.141,0,0,0-.371,1.09ZM278.125,4.75v.484a3.978,3.978,0,0,0-2.773,1.059,5.24,5.24,0,0,0-1.414,2.918l.078.031a4.6,4.6,0,0,1,1.227-.617,4.46,4.46,0,0,1,1.352-.2,2.9,2.9,0,0,1,1.543.395,2.476,2.476,0,0,1,.973,1.113,3.99,3.99,0,0,1,.328,1.672A3.731,3.731,0,0,1,279,13.441a2.978,2.978,0,0,1-1.348,1.238,5.044,5.044,0,0,1-2.23.445,4.221,4.221,0,0,1-2.082-.484,3.184,3.184,0,0,1-1.332-1.43,5.2,5.2,0,0,1-.461-2.3,7.042,7.042,0,0,1,.77-3.3A6.12,6.12,0,0,1,274.5,5.234a6.749,6.749,0,0,1,3.2-1.023Zm-2.453,4.758a2.235,2.235,0,0,0-.719.113,2.129,2.129,0,0,0-.594.3,1.768,1.768,0,0,0-.348.313.816.816,0,0,0-.129.348,5.447,5.447,0,0,0-.039.8,4.552,4.552,0,0,0,.4,2.148,1.305,1.305,0,0,0,1.219.719,1.57,1.57,0,0,0,.785-.18,1.4,1.4,0,0,0,.512-.5,2.342,2.342,0,0,0,.281-.781,5.492,5.492,0,0,0,.086-1.012,3.14,3.14,0,0,0-.371-1.691A1.209,1.209,0,0,0,275.672,9.508Zm9.133,5.617a3.676,3.676,0,0,1-2.043-.535,3.38,3.38,0,0,1-1.27-1.73,9.007,9.007,0,0,1-.445-3.094,8.858,8.858,0,0,1,.453-3.027,3.928,3.928,0,0,1,1.332-1.883,3.475,3.475,0,0,1,2.113-.645,3.3,3.3,0,0,1,2.867,1.309,6.863,6.863,0,0,1,.945,4,7.225,7.225,0,0,1-1,4.184A3.383,3.383,0,0,1,284.8,15.125Zm-1.383-5.586a19.321,19.321,0,0,0,.152,2.734,3.7,3.7,0,0,0,.48,1.5,1.012,1.012,0,0,0,.875.48.933.933,0,0,0,.52-.145,1.279,1.279,0,0,0,.4-.453,3.229,3.229,0,0,0,.3-.82,7.855,7.855,0,0,0,.18-1.273q.055-.762.055-1.7a21.931,21.931,0,0,0-.105-2.352,6.3,6.3,0,0,0-.3-1.469,1.731,1.731,0,0,0-.461-.734.942.942,0,0,0-.617-.219.972.972,0,0,0-.7.273,1.914,1.914,0,0,0-.457.828,6.828,6.828,0,0,0-.246,1.391Q283.422,8.414,283.422,9.539Zm10.859,5.586a3.676,3.676,0,0,1-2.043-.535,3.38,3.38,0,0,1-1.27-1.73,9.007,9.007,0,0,1-.445-3.094,8.858,8.858,0,0,1,.453-3.027,3.928,3.928,0,0,1,1.332-1.883,3.475,3.475,0,0,1,2.113-.645,3.3,3.3,0,0,1,2.867,1.309,6.863,6.863,0,0,1,.945,4,7.225,7.225,0,0,1-1,4.184A3.383,3.383,0,0,1,294.281,15.125ZM292.9,9.539a19.321,19.321,0,0,0,.152,2.734,3.7,3.7,0,0,0,.48,1.5,1.012,1.012,0,0,0,.875.48.933.933,0,0,0,.52-.145,1.279,1.279,0,0,0,.4-.453,3.229,3.229,0,0,0,.3-.82,7.855,7.855,0,0,0,.18-1.273q.055-.762.055-1.7a21.931,21.931,0,0,0-.105-2.352,6.3,6.3,0,0,0-.3-1.469,1.731,1.731,0,0,0-.461-.734.942.942,0,0,0-.617-.219.972.972,0,0,0-.7.273,1.914,1.914,0,0,0-.457.828,6.828,6.828,0,0,0-.246,1.391Q292.9,8.414,292.9,9.539Zm11.141,3.273a2.146,2.146,0,0,0,.23.9,1.063,1.063,0,0,0,.473.469,1.561,1.561,0,0,0,.656.129,1.381,1.381,0,0,0,.953-.3,1.079,1.079,0,0,0,.336-.848,1.269,1.269,0,0,0-.109-.555,1.4,1.4,0,0,0-.359-.441,6.68,6.68,0,0,0-.812-.559,3.688,3.688,0,0,1-1.137-.973,1.913,1.913,0,0,1-.355-1.129,2.043,2.043,0,0,1,.859-1.766,4.07,4.07,0,0,1,2.406-.617,10.016,10.016,0,0,1,2.555.359l-.406,1.867h-.992a1.884,1.884,0,0,0-.371-1.07,1.086,1.086,0,0,0-.863-.344,1.251,1.251,0,0,0-.84.27.91.91,0,0,0-.316.73,1.032,1.032,0,0,0,.121.508,1.577,1.577,0,0,0,.387.438,6.707,6.707,0,0,0,.789.531,3.716,3.716,0,0,1,1.188,1.016,2.114,2.114,0,0,1,.359,1.227,2.187,2.187,0,0,1-.426,1.359,2.512,2.512,0,0,1-1.164.836,4.827,4.827,0,0,1-1.684.273,11.136,11.136,0,0,1-1.555-.1,11.065,11.065,0,0,1-1.352-.273l.438-1.937Zm10.273-3.3V7.883h7.336V9.508Zm0,3.469V11.352h7.336v1.625Zm18.2-.156a3.42,3.42,0,0,0,.051.684.815.815,0,0,0,.18.375.851.851,0,0,0,.371.227,3.035,3.035,0,0,0,.609.125q.367.043.969.059V15h-6.742v-.711a10.709,10.709,0,0,0,1.238-.105,1.484,1.484,0,0,0,.566-.2.757.757,0,0,0,.285-.375,2.478,2.478,0,0,0,.09-.789V7.172A.7.7,0,0,0,330,6.711a.415.415,0,0,0-.332-.141,1.357,1.357,0,0,0-.551.18,12.259,12.259,0,0,0-1.168.734l-.477-.828,4.078-2.445h1q-.047.75-.047,2.078Zm10.359-4.539a5.555,5.555,0,0,1,1.27-.895,2.671,2.671,0,0,1,1.145-.262,2.361,2.361,0,0,1,1.328.316,1.8,1.8,0,0,1,.684.91,4.6,4.6,0,0,1,.215,1.539v2.852q0,.344.012.645a2.336,2.336,0,0,0,.059.48.872.872,0,0,0,.129.293.653.653,0,0,0,.23.191,1.68,1.68,0,0,0,.359.133V15h-3.789v-.516a.919.919,0,0,0,.5-.25.954.954,0,0,0,.188-.453,6.966,6.966,0,0,0,.051-1.031V10.711A11.111,11.111,0,0,0,345.2,9.5a2.047,2.047,0,0,0-.172-.672.858.858,0,0,0-.312-.355.956.956,0,0,0-.5-.117,1.263,1.263,0,0,0-.621.184,1.6,1.6,0,0,0-.539.5,1.182,1.182,0,0,0-.215.676v3.031q0,.438.012.676a3.017,3.017,0,0,0,.035.367,1.093,1.093,0,0,0,.066.23.766.766,0,0,0,.113.188.653.653,0,0,0,.2.156,1.588,1.588,0,0,0,.352.125V15h-3.828v-.516a1.442,1.442,0,0,0,.367-.129.658.658,0,0,0,.207-.172.934.934,0,0,0,.129-.25,1.563,1.563,0,0,0,.07-.422q.016-.27.016-.77V6.648q0-.672-.012-.988a3.834,3.834,0,0,0-.051-.531,1.018,1.018,0,0,0-.117-.344.565.565,0,0,0-.227-.207,1.83,1.83,0,0,0-.477-.141V3.922l2.164-.109h.977V8.273Zm-87.895,30.2a2.251,2.251,0,0,0,.449-.168.617.617,0,0,0,.254-.242,1,1,0,0,0,.109-.395q.023-.242.023-.609V35.906h-4.187v-.844l4.742-6.781h1.758v6.641h.242a1.966,1.966,0,0,0,.539-.051.569.569,0,0,0,.27-.191,1.488,1.488,0,0,0,.215-.5h.82l-.094,1.727h-1.992V37.07a4.408,4.408,0,0,0,.039.66,1.009,1.009,0,0,0,.133.391.589.589,0,0,0,.258.219,2.984,2.984,0,0,0,.414.145V39h-3.992Zm-1.836-3.562h2.672V33.133q0-1.125.078-2.367h-.078l-2.672,4.023Zm8.781,3.594V36.563h1.414a2.518,2.518,0,0,0,.625,1.27,1.524,1.524,0,0,0,1.109.418,1.488,1.488,0,0,0,1.258-.527,2.663,2.663,0,0,0,.406-1.629,2.367,2.367,0,0,0-.523-1.656,1.954,1.954,0,0,0-1.516-.57,5.258,5.258,0,0,0-.824.07,6.27,6.27,0,0,0-.785.172l-.7-.437V28.336H267a1.637,1.637,0,0,0,.422-.039.469.469,0,0,0,.219-.133,1.22,1.22,0,0,0,.188-.344h.859l-.156,2.492h-4.8v2.813a6.262,6.262,0,0,1,.957-.207,9.109,9.109,0,0,1,1.2-.066,3.8,3.8,0,0,1,1.7.359,2.63,2.63,0,0,1,1.133,1.043,3.107,3.107,0,0,1,.4,1.605,3.2,3.2,0,0,1-.484,1.809,2.911,2.911,0,0,1-1.4,1.094,5.919,5.919,0,0,1-2.187.363,8.825,8.825,0,0,1-1.672-.164A6.38,6.38,0,0,1,261.918,38.516Zm9.391-7.609V29.055a9.246,9.246,0,0,1,3.586-.844,5.006,5.006,0,0,1,1.7.266,2.47,2.47,0,0,1,1.141.777,1.942,1.942,0,0,1,.4,1.238,2.468,2.468,0,0,1-.266,1.168,2.718,2.718,0,0,1-.746.879,6.586,6.586,0,0,1-1.246.734v.07a3.549,3.549,0,0,1,1.238.453A2.484,2.484,0,0,1,278.34,36a2.983,2.983,0,0,1-.441,1.613,2.936,2.936,0,0,1-1.34,1.109,5.315,5.315,0,0,1-2.18.4,9.363,9.363,0,0,1-1.734-.16,6.443,6.443,0,0,1-1.484-.449V36.555h1.406a2.714,2.714,0,0,0,.641,1.293,1.492,1.492,0,0,0,1.086.4q1.656,0,1.656-2.047a2.132,2.132,0,0,0-.582-1.641,2.529,2.529,0,0,0-1.77-.539h-.617v-.891a3.39,3.39,0,0,0,2.063-.637,2.463,2.463,0,0,0,.352-2.992,1.231,1.231,0,0,0-1.023-.441,1.405,1.405,0,0,0-1.285.754,3.141,3.141,0,0,0-.371,1.09Zm11.172,5.734a6.212,6.212,0,0,1,.109.711q.039.391.039.7a2.933,2.933,0,0,1-.211,1.148,3.332,3.332,0,0,1-.676.988,8.921,8.921,0,0,1-1.309,1.082l-.6-.68a2.571,2.571,0,0,0,.527-.625,2.383,2.383,0,0,0,.273-.73,5.094,5.094,0,0,0,.082-1,15.609,15.609,0,0,0-.094-1.6Zm2.1,1.875V36.563H286a2.518,2.518,0,0,0,.625,1.27,1.524,1.524,0,0,0,1.109.418,1.488,1.488,0,0,0,1.258-.527,2.663,2.663,0,0,0,.406-1.629,2.367,2.367,0,0,0-.523-1.656,1.954,1.954,0,0,0-1.516-.57,5.258,5.258,0,0,0-.824.07,6.27,6.27,0,0,0-.785.172l-.7-.437V28.336h4.617a1.637,1.637,0,0,0,.422-.039.469.469,0,0,0,.219-.133,1.22,1.22,0,0,0,.188-.344h.859l-.156,2.492h-4.8v2.813a6.262,6.262,0,0,1,.957-.207,9.109,9.109,0,0,1,1.2-.066,3.8,3.8,0,0,1,1.7.359,2.63,2.63,0,0,1,1.133,1.043,3.107,3.107,0,0,1,.4,1.605,3.2,3.2,0,0,1-.484,1.809,2.911,2.911,0,0,1-1.4,1.094,5.919,5.919,0,0,1-2.187.363,8.825,8.825,0,0,1-1.672-.164A6.38,6.38,0,0,1,284.582,38.516Zm10.8.148V38.1a4.41,4.41,0,0,0,.891-.094,3.339,3.339,0,0,0,.855-.3,2.81,2.81,0,0,0,.707-.512,3.377,3.377,0,0,0,.625-.84,4.714,4.714,0,0,0,.395-1.035,8.723,8.723,0,0,0,.215-1.172l-.078-.031a4.082,4.082,0,0,1-2.578.789,2.945,2.945,0,0,1-1.566-.395,2.44,2.44,0,0,1-.965-1.1,3.972,3.972,0,0,1-.32-1.652,3.544,3.544,0,0,1,.488-1.855,3.2,3.2,0,0,1,1.4-1.254,4.967,4.967,0,0,1,2.164-.437,4.046,4.046,0,0,1,2.121.52,3.164,3.164,0,0,1,1.289,1.512,6.069,6.069,0,0,1,.426,2.4,7.828,7.828,0,0,1-.664,3.367,5.07,5.07,0,0,1-1.934,2.2,6.652,6.652,0,0,1-3.066.922Zm1.938-4.828a2.521,2.521,0,0,0,.539-.055,1.963,1.963,0,0,0,.473-.168,2.192,2.192,0,0,0,.414-.273,1.25,1.25,0,0,0,.254-.262.987.987,0,0,0,.105-.3,2.585,2.585,0,0,0,.043-.531,5.361,5.361,0,0,0-.41-2.348,1.293,1.293,0,0,0-1.2-.816,1.553,1.553,0,0,0-.777.18,1.416,1.416,0,0,0-.516.508,2.332,2.332,0,0,0-.285.785,5.445,5.445,0,0,0-.086,1Q295.871,33.836,297.316,33.836Zm9.7,5.813a1.7,1.7,0,0,0-.293.484,1.435,1.435,0,0,0-.082.492.905.905,0,0,0,.371.793,1.936,1.936,0,0,0,1.113.262,2.57,2.57,0,0,0,.984-.18,2.213,2.213,0,0,0,.8-.59,4.058,4.058,0,0,0,.684-1.219,14.306,14.306,0,0,0,.605-2.176l-.1-.07a6.756,6.756,0,0,1-.941,1,2.953,2.953,0,0,1-.879.52,2.99,2.99,0,0,1-1.016.16,1.786,1.786,0,0,1-.957-.258,1.748,1.748,0,0,1-.664-.816,3.533,3.533,0,0,1-.246-1.418,7.326,7.326,0,0,1,.313-2.113,5.527,5.527,0,0,1,.887-1.793,4.047,4.047,0,0,1,1.43-1.176,4.335,4.335,0,0,1,1.957-.426,4.039,4.039,0,0,1,1.02.121,3.192,3.192,0,0,1,.949.441l.7-.562.875.125-.672,3.055q-.164.75-.3,1.438l-.492,2.406a14.178,14.178,0,0,1-.414,1.6,5.048,5.048,0,0,1-.414.93,3.106,3.106,0,0,1-.477.641,3.046,3.046,0,0,1-.57.477,3.349,3.349,0,0,1-.711.352,5.21,5.21,0,0,1-.992.25,8.524,8.524,0,0,1-1.336.094,7.384,7.384,0,0,1-1.84-.2,2.244,2.244,0,0,1-1.109-.59,1.393,1.393,0,0,1-.363-.98,1.439,1.439,0,0,1,.344-.914,3.6,3.6,0,0,1,1.016-.82Zm4.758-5.516a5.316,5.316,0,0,0,.125-1.125,1.357,1.357,0,0,0-.2-.8.742.742,0,0,0-.641-.266,1.612,1.612,0,0,0-1.266.7,5.549,5.549,0,0,0-.918,1.953,8.316,8.316,0,0,0-.355,2.25,1.7,1.7,0,0,0,.168.852.563.563,0,0,0,.52.281,1.277,1.277,0,0,0,.68-.215,3.227,3.227,0,0,0,.723-.664,4.01,4.01,0,0,0,.637-1.082,9.516,9.516,0,0,0,.461-1.594Zm7.688-.625V31.883H326.8v1.625Zm0,3.469V35.352H326.8v1.625Zm18.2-.156a3.42,3.42,0,0,0,.051.684.815.815,0,0,0,.18.375.851.851,0,0,0,.371.227,3.035,3.035,0,0,0,.609.125q.367.043.969.059V39H333.1v-.711a10.71,10.71,0,0,0,1.238-.105,1.484,1.484,0,0,0,.566-.2.757.757,0,0,0,.285-.375,2.478,2.478,0,0,0,.09-.789V31.172a.7.7,0,0,0-.121-.461.415.415,0,0,0-.332-.141,1.357,1.357,0,0,0-.551.18,12.259,12.259,0,0,0-1.168.734l-.477-.828,4.078-2.445h1q-.047.75-.047,2.078Zm10.328-.078a7.35,7.35,0,0,0,.047,1.023.9.9,0,0,0,.191.449,1.06,1.06,0,0,0,.543.27V39h-3.828v-.516a1.441,1.441,0,0,0,.367-.129.658.658,0,0,0,.207-.172.934.934,0,0,0,.129-.25,1.563,1.563,0,0,0,.07-.422q.016-.27.016-.77V30.648q0-.672-.012-.988a4.373,4.373,0,0,0-.047-.531.916.916,0,0,0-.117-.344.594.594,0,0,0-.23-.207,1.83,1.83,0,0,0-.477-.141v-.516l2.164-.109h.977Zm2.578-6.234q0-.562-.008-.859a3.5,3.5,0,0,0-.047-.516.88.88,0,0,0-.125-.344.647.647,0,0,0-.23-.2,1.913,1.913,0,0,0-.473-.148v-.516l2.18-.109h.961v4.477l.008.008a7.071,7.071,0,0,1,.82-.664,3.246,3.246,0,0,1,.75-.371,2.606,2.606,0,0,1,.852-.137,2.389,2.389,0,0,1,2.086.98,5.075,5.075,0,0,1,.7,2.934,5.5,5.5,0,0,1-.41,2.262,2.869,2.869,0,0,1-1.223,1.367,4.028,4.028,0,0,1-2,.457,5.6,5.6,0,0,1-2.258-.445l-.578.445-1-.141Zm2.258,5.93a2.428,2.428,0,0,0,.332,1.418,1.259,1.259,0,0,0,2.125-.3,4.9,4.9,0,0,0,.379-2.152,5.959,5.959,0,0,0-.336-2.3,1.1,1.1,0,0,0-1.047-.758,1.427,1.427,0,0,0-.68.18,1.511,1.511,0,0,0-.555.512,1.3,1.3,0,0,0-.219.73Z" transform="translate(-4315 -9942.885)" fill="#12263f"/>
  </g>
</svg>
