<svg xmlns="http://www.w3.org/2000/svg" width="80" height="80" viewBox="0 0 80 80">
  <g id="Grupo_1009232" data-name="Grupo 1009232" transform="translate(-1179 -2480)">
    <g id="Elipse_5053" data-name="Elipse 5053" transform="translate(1179 2480)" fill="#fff" stroke="#ffa031" stroke-width="3">
      <circle cx="40" cy="40" r="40" stroke="none"/>
      <circle cx="40" cy="40" r="38.5" fill="none"/>
    </g>
    <g id="_059-experiment" data-name="059-experiment" transform="translate(1197 2497)">
      <path id="Trazado_716961" data-name="Trazado 716961" d="M38.457,58.3H21.11a1.522,1.522,0,0,1-1.522-1.522V37.569L17.11,34.216H42.458L39.98,37.569V56.776A1.522,1.522,0,0,1,38.457,58.3Z" transform="translate(-7.444 -13.468)" fill="#eeefee"/>
      <path id="Trazado_716962" data-name="Trazado 716962" d="M43.753,34.22l-2.479,3.353v19.2A1.527,1.527,0,0,1,39.749,58.3H22.4a1.525,1.525,0,0,1-1.519-1.525v-.033H37.954a1.525,1.525,0,0,0,1.519-1.525V36.751l1.874-2.531Z" transform="translate(-8.736 -13.469)" fill="#e1e6e9"/>
      <path id="Trazado_716963" data-name="Trazado 716963" d="M39.915,50.417v9.855H25.188V49.03a6.813,6.813,0,0,1,4.322-.685c1.552.306,2.889,1.258,4.367,1.83A9.54,9.54,0,0,0,39.915,50.417Z" transform="translate(-10.211 -18.274)" fill="#4db1f0"/>
      <path id="Trazado_716964" data-name="Trazado 716964" d="M46.788,51.55v9.855H45.25V51.852a8.845,8.845,0,0,0,1.538-.3Z" transform="translate(-17.084 -19.405)" fill="#3f95cc"/>
      <path id="Trazado_716965" data-name="Trazado 716965" d="M24.247,13.869l-3.1,6.956-6.035-2.689L15.03,18.1a6.049,6.049,0,0,1,1.414-3.721c.677-.749,1.591-1.243,2.281-1.979a4.223,4.223,0,0,0,.552-.736Z" transform="translate(-6.732 -5.741)" fill="#eeefee"/>
      <path id="Trazado_716966" data-name="Trazado 716966" d="M15.716,10.16a4.224,4.224,0,0,1-.552.736c-.69.736-1.6,1.229-2.281,1.979A6.049,6.049,0,0,0,11.469,16.6L6.893,14.558a3.8,3.8,0,0,1,3.09-6.949Z" transform="translate(-3.171 -4.241)" fill="#4db1f0"/>
      <path id="Trazado_716967" data-name="Trazado 716967" d="M29.84,16.186,27.028,22.5a1.392,1.392,0,1,1-2.542-1.126L27.3,15.06a1.391,1.391,0,1,1,2.542,1.126Z" transform="translate(-9.924 -6.606)" fill="#bbbbcd"/>
      <path id="Trazado_716968" data-name="Trazado 716968" d="M26,13.869l-.138.309c0,.007-.007.007-.007.013L25.406,15.2V15.2a.05.05,0,0,0-.013.026.007.007,0,0,1-.007.007.577.577,0,0,1-.039.066l.1-.23-4.97-2.209-.335-.151a3.029,3.029,0,0,0,.335-.316,4.223,4.223,0,0,0,.552-.736Z" transform="translate(-8.482 -5.741)" fill="#e1e6e9"/>
      <path id="Trazado_716969" data-name="Trazado 716969" d="M15.783,10.159a4.224,4.224,0,0,1-.552.736,3.029,3.029,0,0,1-.335.316l-5.4-2.4A3.79,3.79,0,0,0,4.83,10.119a3.228,3.228,0,0,1,.2-.585A3.8,3.8,0,0,1,10.05,7.608Z" transform="translate(-3.238 -4.24)" fill="#3f95cc"/>
      <path id="Trazado_716970" data-name="Trazado 716970" d="M29.912,15.494a1.389,1.389,0,0,1,.809,1.282,1.446,1.446,0,0,1-.128.6h.018l.53-1.191a1.494,1.494,0,0,0,.131-.618,1.369,1.369,0,0,0-.809-1.275,1.421,1.421,0,0,0-1.861.75c0,.007-.007.007-.007.013L28.15,16.06a1.409,1.409,0,0,1,1.762-.565Z" transform="translate(-11.226 -6.604)" fill="#9297ab"/>
      <g id="Grupo_1009062" data-name="Grupo 1009062" transform="translate(0 0.737)">
        <path id="Trazado_716971" data-name="Trazado 716971" d="M32.487,31.119a.329.329,0,0,1-.32-.252c-.538-2.235-1.923-2.541-1.937-2.544a.329.329,0,0,1,.131-.644c.074.015,1.811.394,2.446,3.034a.329.329,0,0,1-.243.394A.337.337,0,0,1,32.487,31.119Z" transform="translate(-11.849 -11.963)" fill="#323c6b"/>
        <path id="Trazado_716972" data-name="Trazado 716972" d="M37.2,28.142a.329.329,0,0,1-.32-.254,6.986,6.986,0,0,0-3.523-4.921.329.329,0,0,1,.252-.607c.12.049,2.953,1.262,3.911,5.379a.329.329,0,0,1-.246.394.315.315,0,0,1-.075.009Z" transform="translate(-12.946 -10.136)" fill="#323c6b"/>
        <path id="Trazado_716973" data-name="Trazado 716973" d="M41.047,25.325a.329.329,0,0,1-.317-.243,3.419,3.419,0,0,1,.778-3.367.329.329,0,0,1,.449.48,2.769,2.769,0,0,0-.592,2.715.329.329,0,0,1-.231.4.322.322,0,0,1-.087.012Z" transform="translate(-15.482 -9.894)" fill="#323c6b"/>
        <path id="Trazado_716974" data-name="Trazado 716974" d="M54.729,64.3a.329.329,0,0,1-.329-.329v-.205a.329.329,0,0,1,.657,0v.206A.329.329,0,0,1,54.729,64.3Z" transform="translate(-20.218 -24.214)" fill="#323c6b"/>
        <path id="Trazado_716975" data-name="Trazado 716975" d="M53.4,70.145a.329.329,0,0,1-.247-.546,3.133,3.133,0,0,0,.789-2.064V65.954a.329.329,0,1,1,.657,0v1.581a3.79,3.79,0,0,1-.953,2.5A.329.329,0,0,1,53.4,70.145Z" transform="translate(-19.763 -24.963)" fill="#323c6b"/>
        <path id="Trazado_716976" data-name="Trazado 716976" d="M2.737,8.567a.329.329,0,0,1-.279-.5L2.5,8c.039-.066.079-.131.122-.192a.329.329,0,1,1,.544.368c-.037.055-.07.11-.1.166l-.042.066a.329.329,0,0,1-.28.159Z" transform="translate(-2.408 -5.106)" fill="#323c6b"/>
        <path id="Trazado_716977" data-name="Trazado 716977" d="M4.628,5.787a.329.329,0,0,1-.211-.581A6.119,6.119,0,0,1,8.329,3.778a5.886,5.886,0,0,1,.778.056.329.329,0,1,1-.086.652,5.251,5.251,0,0,0-.692-.051A5.462,5.462,0,0,0,4.836,5.71a.329.329,0,0,1-.208.076Z" transform="translate(-3.056 -3.778)" fill="#323c6b"/>
        <path id="Trazado_716978" data-name="Trazado 716978" d="M20.98,20.981a.329.329,0,0,1-.131-.028l-6.126-2.733a.329.329,0,0,1-.191-.318,6.367,6.367,0,0,1,1.5-3.923,9.045,9.045,0,0,1,1.21-1.059A8.882,8.882,0,0,0,18.314,12a3.9,3.9,0,0,0,.508-.675.329.329,0,0,1,.418-.137l4.97,2.209a.329.329,0,0,1,.166.434l-3.094,6.957a.336.336,0,0,1-.3.2ZM15.2,17.718l5.609,2.5,2.827-6.355L19.23,11.9a5.012,5.012,0,0,1-.436.542,9.5,9.5,0,0,1-1.154,1,8.415,8.415,0,0,0-1.126.98A5.622,5.622,0,0,0,15.2,17.718Z" transform="translate(-6.561 -6.305)" fill="#323c6b"/>
        <path id="Trazado_716979" data-name="Trazado 716979" d="M11.3,16.753a.325.325,0,0,1-.131-.028L6.591,14.687A4.131,4.131,0,1,1,9.946,7.136l5.733,2.551a.329.329,0,0,1,.151.465,4.542,4.542,0,0,1-.592.794,9.5,9.5,0,0,1-1.154,1,8.415,8.415,0,0,0-1.126.98,5.72,5.72,0,0,0-1.329,3.52.329.329,0,0,1-.329.31ZM8.269,7.437a3.473,3.473,0,0,0-1.414,6.65l4.155,1.851a6.187,6.187,0,0,1,1.457-3.454,9.045,9.045,0,0,1,1.21-1.059,8.882,8.882,0,0,0,1.074-.924,4.668,4.668,0,0,0,.305-.368L9.679,7.738A3.457,3.457,0,0,0,8.269,7.437Z" transform="translate(-3 -4.806)" fill="#323c6b"/>
        <path id="Trazado_716980" data-name="Trazado 716980" d="M25.542,23.535a1.677,1.677,0,0,1-1.578-1.124,1.807,1.807,0,0,1,.056-1.351l2.811-6.312A1.807,1.807,0,0,1,27.8,13.8a1.677,1.677,0,0,1,2.235.993,1.807,1.807,0,0,1-.056,1.35l-2.811,6.312a1.809,1.809,0,0,1-.966.945A1.715,1.715,0,0,1,25.542,23.535Zm2.906-9.2a1.062,1.062,0,0,0-.4.081,1.156,1.156,0,0,0-.616.6l-2.811,6.312a1.154,1.154,0,0,0-.037.862,1.02,1.02,0,0,0,1.364.607,1.156,1.156,0,0,0,.616-.6l2.811-6.312a1.154,1.154,0,0,0,.037-.862,1.026,1.026,0,0,0-.55-.6,1.009,1.009,0,0,0-.411-.091Z" transform="translate(-9.756 -7.167)" fill="#323c6b"/>
      </g>
      <path id="Trazado_716981" data-name="Trazado 716981" d="M44.95,9.749l3.1,6.956,6.035-2.689.085-.039a6.049,6.049,0,0,0-1.414-3.721c-.677-.75-1.591-1.243-2.281-1.979a4.223,4.223,0,0,1-.552-.736Z" transform="translate(-16.981 -4.33)" fill="#eeefee"/>
      <path id="Trazado_716982" data-name="Trazado 716982" d="M52.51,6.04a4.223,4.223,0,0,0,.552.736c.69.736,1.6,1.229,2.281,1.979a6.049,6.049,0,0,1,1.414,3.721l4.576-2.038a3.8,3.8,0,0,0-3.09-6.949Z" transform="translate(-19.571 -2.829)" fill="#4db1f0"/>
      <path id="Trazado_716983" data-name="Trazado 716983" d="M41.229,12.065l2.811,6.312a1.393,1.393,0,1,0,2.542-1.131l-2.811-6.312a1.393,1.393,0,1,0-2.542,1.131Z" transform="translate(-15.659 -5.193)" fill="#bbbbcd"/>
      <path id="Trazado_716984" data-name="Trazado 716984" d="M44.95,9.749l.138.309c0,.007.007.007.007.013l.447,1.006v.007a.05.05,0,0,1,.013.026.007.007,0,0,0,.007.007.579.579,0,0,0,.039.066l-.1-.23,4.97-2.209.335-.151a3.029,3.029,0,0,1-.335-.316,4.223,4.223,0,0,1-.552-.736Z" transform="translate(-16.981 -4.33)" fill="#e1e6e9"/>
      <path id="Trazado_716985" data-name="Trazado 716985" d="M52.51,6.039a4.223,4.223,0,0,0,.552.736,3.029,3.029,0,0,0,.335.316l5.4-2.4A3.79,3.79,0,0,1,63.463,6a3.228,3.228,0,0,0-.2-.585,3.8,3.8,0,0,0-5.023-1.926Z" transform="translate(-19.571 -2.829)" fill="#3f95cc"/>
      <path id="Trazado_716986" data-name="Trazado 716986" d="M42.461,11.374a1.389,1.389,0,0,0-.809,1.282,1.447,1.447,0,0,0,.128.6h-.018l-.53-1.191a1.494,1.494,0,0,1-.131-.618,1.369,1.369,0,0,1,.809-1.275,1.421,1.421,0,0,1,1.861.75c0,.007.007.007.007.013l.447,1.006A1.409,1.409,0,0,0,42.461,11.374Z" transform="translate(-15.662 -5.193)" fill="#9297ab"/>
      <path id="Trazado_716987" data-name="Trazado 716987" d="M47.876,16.861a.327.327,0,0,1-.3-.2l-3.1-6.958a.329.329,0,0,1,.166-.434l4.97-2.209a.329.329,0,0,1,.419.137,3.9,3.9,0,0,0,.51.678,8.836,8.836,0,0,0,1.071.92,9.032,9.032,0,0,1,1.212,1.06,6.367,6.367,0,0,1,1.5,3.924.329.329,0,0,1-.19.318l-.085.039L48.01,16.832A.329.329,0,0,1,47.876,16.861ZM45.213,9.744,48.04,16.1l5.609-2.5a5.623,5.623,0,0,0-1.315-3.3,8.4,8.4,0,0,0-1.126-.981,9.473,9.473,0,0,1-1.147-1,5.053,5.053,0,0,1-.439-.546Z" transform="translate(-16.81 -4.158)" fill="#323c6b"/>
      <path id="Trazado_716988" data-name="Trazado 716988" d="M56.586,12.633a.329.329,0,0,1-.329-.31A5.72,5.72,0,0,0,54.928,8.8,8.4,8.4,0,0,0,53.8,7.822a9.474,9.474,0,0,1-1.151-.995,4.53,4.53,0,0,1-.6-.8.329.329,0,0,1,.151-.464l5.733-2.551a4.131,4.131,0,1,1,3.357,7.55L56.718,12.6A.325.325,0,0,1,56.586,12.633Zm-3.76-6.622a4.562,4.562,0,0,0,.308.371A8.835,8.835,0,0,0,54.2,7.3a9.032,9.032,0,0,1,1.212,1.06,6.187,6.187,0,0,1,1.456,3.454l4.155-1.851A3.474,3.474,0,0,0,58.2,3.616Z" transform="translate(-19.399 -2.657)" fill="#323c6b"/>
      <path id="Trazado_716989" data-name="Trazado 716989" d="M45.189,19.415a1.716,1.716,0,0,1-.652-.131,1.809,1.809,0,0,1-.966-.945l-2.811-6.312a1.807,1.807,0,0,1-.056-1.35,1.676,1.676,0,0,1,2.235-.993,1.807,1.807,0,0,1,.966.945l2.811,6.312a1.807,1.807,0,0,1,.056,1.35,1.676,1.676,0,0,1-1.578,1.124Zm-2.906-9.2a1.011,1.011,0,0,0-.411.087,1.027,1.027,0,0,0-.55.6,1.154,1.154,0,0,0,.037.862l2.811,6.312a1.156,1.156,0,0,0,.616.6,1.02,1.02,0,0,0,1.364-.607,1.154,1.154,0,0,0-.037-.862L43.3,10.9a1.156,1.156,0,0,0-.616-.6,1.062,1.062,0,0,0-.4-.084Z" transform="translate(-15.491 -5.019)" fill="#323c6b"/>
      <path id="Trazado_716990" data-name="Trazado 716990" d="M38.285,58.456H20.938a1.853,1.853,0,0,1-1.851-1.851v-19.1l-2.413-3.264a.329.329,0,0,1,.263-.526H42.286a.329.329,0,0,1,.263.526l-2.41,3.264V56.6a1.853,1.853,0,0,1-1.854,1.851Zm-20.7-24.081L19.68,37.2a.329.329,0,0,1,.066.2V56.6A1.2,1.2,0,0,0,20.939,57.8H38.285a1.2,1.2,0,0,0,1.2-1.193V37.4a.329.329,0,0,1,.066-.2l2.091-2.827Z" transform="translate(-7.272 -13.296)" fill="#323c6b"/>
      <path id="Trazado_716991" data-name="Trazado 716991" d="M39.744,60.428H25.017a.329.329,0,0,1-.329-.329V48.857a.329.329,0,0,1,.185-.3,7.131,7.131,0,0,1,4.53-.716,11.273,11.273,0,0,1,2.831,1.11c.517.259,1.052.526,1.59.735a9.2,9.2,0,0,0,5.83.234.329.329,0,0,1,.419.316V60.1a.329.329,0,0,1-.328.332Zm-14.4-.657H39.415v-9.1a9.818,9.818,0,0,1-5.829-.363c-.567-.219-1.118-.494-1.644-.76A10.626,10.626,0,0,0,29.277,48.5a6.42,6.42,0,0,0-3.93.571Z" transform="translate(-10.04 -18.101)" fill="#323c6b"/>
      <path id="Trazado_716992" data-name="Trazado 716992" d="M29.137,63.4a.379.379,0,0,1-.394.377h-.191a.385.385,0,0,1,.009-.77h.2a.379.379,0,0,1,.379.393Z" transform="translate(-11.233 -23.328)" fill="#fff"/>
      <path id="Trazado_716993" data-name="Trazado 716993" d="M35.48,63.393a.379.379,0,0,1-.394.377l-3.964,0a.38.38,0,0,1-.377-.38v-.012A.383.383,0,0,1,31.138,63L35.1,63a.379.379,0,0,1,.377.393Z" transform="translate(-12.115 -23.326)" fill="#fff"/>
    </g>
  </g>
</svg>
