<svg xmlns="http://www.w3.org/2000/svg" width="241.057" height="149.311" viewBox="0 0 241.057 149.311">
  <g id="Grupo_1009230" data-name="Grupo 1009230" transform="translate(-334 -10077)">
    <path id="Trazado_717996" data-name="Trazado 717996" d="M169.149,30.925c-3.842-.567-3.742-1.937-7.626-1.937s-3.883,1.947-7.767,1.947-3.885-1.947-7.769-1.947-3.885,1.947-7.77,1.947-3.882-1.947-7.765-1.947-3.884,1.947-7.768,1.947-3.884-1.947-7.768-1.947-3.884,1.947-7.768,1.947-3.885-1.947-7.771-1.947-3.886,1.947-7.772,1.947-3.886-1.947-7.771-1.947-3.888,1.947-7.776,1.947-4.451-3.212-8.107-1.889c-1.34.486,1.258,2.372,1.212,3.8s-1.992,1.361-2.038,2.785,1.9,1.488,1.854,2.913-1.992,1.361-2.038,2.785,1.9,1.488,1.854,2.913S66.8,45.6,66.757,47.026s1.9,1.488,1.854,2.914-1.992,1.361-2.038,2.785,1.9,1.488,1.854,2.914S66.435,57,66.389,58.427s1.9,1.489,1.854,2.915S66.25,62.707,66.2,64.136s-.033,1.42,1.274,2c3.14,1.386,3.02,1.93,6.452,2s3.469-1.881,6.9-1.815,3.395,2.013,6.827,2.079,3.471-1.88,6.9-1.814,3.393,2.013,6.823,2.079,3.47-1.881,6.9-1.814,3.394,2.012,6.826,2.079,3.47-1.881,6.9-1.815,3.4,2.013,6.829,2.079,3.468-1.88,6.9-1.814,3.4,2.013,6.831,2.079,3.474-1.88,6.91-1.814,3.412,2.06,6.849,2.079c.526,0,.449-1.987.973-2.031s.687,1.9,1.212,1.853.366-1.984.893-2.028.688,1.9,1.214,1.853.365-1.984.892-2.028.689,1.9,1.217,1.853.366-1.984.893-2.028.689,1.9,1.217,1.852.364-1.984.89-2.027.69,1.9,1.218,1.852.368-1.984.9-2.028.692,1.9,1.222,1.852-.126-1.136.162-1.585c.468-.728,1.843-.279,1.9-1.144s-1.891-.982-1.839-1.846,2-.747,2.049-1.612-1.891-.982-1.839-1.847,2-.744,2.048-1.606-1.891-.984-1.838-1.849,2-.745,2.048-1.609-1.891-.983-1.838-1.848,2-.748,2.048-1.614-1.891-.982-1.838-1.847,2-.749,2.049-1.615-1.891-.986-1.839-1.854,2.068-.827,2.051-1.7c-.012-.584-2.019-.424-2.1-1s1.847-.851,1.765-1.431-2.01-.312-2.092-.894,1.847-.852,1.765-1.433-2.01-.311-2.091-.892,1.846-.854,1.764-1.438-2.01-.311-2.092-.893,1.847-.854,1.765-1.437-2.01-.313-2.092-.9,1.846-.853,1.764-1.436-2.01-.313-2.092-.9,1.718-.632,1.769-1.221c.023-.259-.691-.207-1.276-.293" transform="translate(334 10077)" fill="#93d2ff"/>
    <path id="Trazado_717997" data-name="Trazado 717997" d="M169.149,30.925c-3.842-.567-3.742-1.937-7.626-1.937s-3.883,1.947-7.767,1.947-3.885-1.947-7.769-1.947-3.885,1.947-7.77,1.947-3.882-1.947-7.765-1.947-3.884,1.947-7.768,1.947-3.884-1.947-7.768-1.947-3.884,1.947-7.768,1.947-3.885-1.947-7.771-1.947-3.886,1.947-7.772,1.947-3.886-1.947-7.771-1.947-3.888,1.947-7.776,1.947-4.451-3.212-8.107-1.889c-1.34.486,1.258,2.372,1.212,3.8s-1.992,1.361-2.038,2.785,1.9,1.488,1.854,2.913-1.992,1.361-2.038,2.785,1.9,1.488,1.854,2.913S66.8,45.6,66.757,47.026s1.9,1.488,1.854,2.914-1.992,1.361-2.038,2.785,1.9,1.488,1.854,2.914S66.435,57,66.389,58.427s1.9,1.489,1.854,2.915S66.25,62.707,66.2,64.136s-.033,1.42,1.274,2c3.14,1.386,3.02,1.93,6.452,2s3.469-1.881,6.9-1.815,3.395,2.013,6.827,2.079,3.471-1.88,6.9-1.814,3.393,2.013,6.823,2.079,3.47-1.881,6.9-1.814,3.394,2.012,6.826,2.079,3.47-1.881,6.9-1.815,3.4,2.013,6.829,2.079,3.468-1.88,6.9-1.814,3.4,2.013,6.831,2.079,3.474-1.88,6.91-1.814,3.412,2.06,6.849,2.079c.526,0,.449-1.987.973-2.031s.687,1.9,1.212,1.853.366-1.984.893-2.028.688,1.9,1.214,1.853.365-1.984.892-2.028.689,1.9,1.217,1.853.366-1.984.893-2.028.689,1.9,1.217,1.852.364-1.984.89-2.027.69,1.9,1.218,1.852.368-1.984.9-2.028.692,1.9,1.222,1.852-.126-1.136.162-1.585c.468-.728,1.843-.279,1.9-1.144s-1.891-.982-1.839-1.846,2-.747,2.049-1.612-1.891-.982-1.839-1.847,2-.744,2.048-1.606-1.891-.984-1.838-1.849,2-.745,2.048-1.609-1.891-.983-1.838-1.848,2-.748,2.048-1.614-1.891-.982-1.838-1.847,2-.749,2.049-1.615-1.891-.986-1.839-1.854,2.068-.827,2.051-1.7c-.012-.584-2.019-.424-2.1-1s1.847-.851,1.765-1.431-2.01-.312-2.092-.894,1.847-.852,1.765-1.433-2.01-.311-2.091-.892,1.846-.854,1.764-1.438-2.01-.311-2.092-.893,1.847-.854,1.765-1.437-2.01-.313-2.092-.9,1.846-.853,1.764-1.436-2.01-.313-2.092-.9,1.718-.632,1.769-1.221C170.448,30.959,169.734,31.011,169.149,30.925Z" transform="translate(334 10077)" fill="none" stroke="#3c3c3b" stroke-miterlimit="10" stroke-width="0.974"/>
    <path id="Trazado_717998" data-name="Trazado 717998" d="M40.926,24.937H70.532V62.67H166.9V24.937h35.846v99.848H40.926Z" transform="translate(334 10077)" fill="#c0c8da"/>
    <path id="Trazado_717999" data-name="Trazado 717999" d="M0,5.158H43.1V119.705H198.825V5.78h42.232V20.147H213.628V132.331H28.3V20.728H0Z" transform="translate(334 10077)" fill="#f7fafc"/>
    <path id="Trazado_718148" data-name="Trazado 718148" d="M0,0H7.837" transform="translate(410.736 10111.479)" fill="none" stroke="#3c3c3b" stroke-width="0.73"/>
    <path id="Trazado_718149" data-name="Trazado 718149" d="M0,0H11.427" transform="translate(411.28 10120.404)" fill="none" stroke="#3c3c3b" stroke-width="0.73"/>
    <path id="Trazado_718150" data-name="Trazado 718150" d="M0,0H12.735" transform="translate(417.811 10115.397)" fill="none" stroke="#3c3c3b" stroke-width="0.73"/>
    <path id="Trazado_718151" data-name="Trazado 718151" d="M0,0H8.173" transform="translate(439.245 10115.397)" fill="none" stroke="#3c3c3b" stroke-width="0.73"/>
    <path id="Trazado_718152" data-name="Trazado 718152" d="M0,0H19.38" transform="translate(436.455 10119.071)" fill="none" stroke="#3c3c3b" stroke-width="0.73"/>
    <path id="Trazado_718153" data-name="Trazado 718153" d="M0,0H12.45" transform="translate(457.498 10111.479)" fill="none" stroke="#3c3c3b" stroke-width="0.73"/>
    <path id="Trazado_718154" data-name="Trazado 718154" d="M0,0H11.973" transform="translate(479.309 10110.826)" fill="none" stroke="#3c3c3b" stroke-width="0.73"/>
    <path id="Trazado_718155" data-name="Trazado 718155" d="M0,0H11.755" transform="translate(468.642 10115.397)" fill="none" stroke="#3c3c3b" stroke-width="0.73"/>
    <path id="Trazado_718156" data-name="Trazado 718156" d="M0,0H8.153" transform="translate(463.723 10119.071)" fill="none" stroke="#3c3c3b" stroke-width="0.73"/>
    <path id="Trazado_718157" data-name="Trazado 718157" d="M0,0H7.51" transform="translate(487.473 10116.703)" fill="none" stroke="#3c3c3b" stroke-width="0.73"/>
    <path id="Trazado_718000" data-name="Trazado 718000" d="M0,5.635H43.1v19.3H70.532s-.544,37.733,0,37.733H166.9V24.937h31.928V5.78h42.232" transform="translate(334 10077)" fill="none" stroke="#3c3c3b" stroke-miterlimit="10" stroke-width="0.974"/>
    <path id="Trazado_718158" data-name="Trazado 718158" d="M0,0V12.626" transform="translate(376.776 10213.685)" fill="none" stroke="#1836ab" stroke-width="0.73"/>
    <path id="Trazado_718159" data-name="Trazado 718159" d="M0,0V12.626" transform="translate(533.079 10213.685)" fill="none" stroke="#1836ab" stroke-width="0.73"/>
    <path id="Trazado_718160" data-name="Trazado 718160" d="M38.875,0H0" transform="translate(380.352 10220.011)" fill="none" stroke="#1836ab" stroke-width="0.73"/>
    <path id="Trazado_718001" data-name="Trazado 718001" d="M46.725,141.736l-2.207,1.274,2.207,1.274Z" transform="translate(334 10077)" fill="#1836ab"/>
    <path id="Trazado_718161" data-name="Trazado 718161" d="M0,0H38.875" transform="translate(492.37 10220.011)" fill="none" stroke="#1836ab" stroke-width="0.73"/>
    <path id="Trazado_718002" data-name="Trazado 718002" d="M196.872,144.285l2.207-1.274-2.207-1.275Z" transform="translate(334 10077)" fill="#1836ab"/>
    <path id="Trazado_718162" data-name="Trazado 718162" d="M0,0V12.626" transform="translate(404.314 10141.23)" fill="none" stroke="#1836ab" stroke-width="0.73"/>
    <path id="Trazado_718163" data-name="Trazado 718163" d="M0,0V12.626" transform="translate(501.265 10141.23)" fill="none" stroke="#1836ab" stroke-width="0.73"/>
    <path id="Trazado_718164" data-name="Trazado 718164" d="M25.244,0H0" transform="translate(407.89 10147.556)" fill="none" stroke="#1836ab" stroke-width="0.73"/>
    <path id="Trazado_718003" data-name="Trazado 718003" d="M74.262,69.282l-2.207,1.274,2.207,1.274Z" transform="translate(334 10077)" fill="#1836ab"/>
    <path id="Trazado_718165" data-name="Trazado 718165" d="M0,0H28.165" transform="translate(471.266 10147.556)" fill="none" stroke="#1836ab" stroke-width="0.73"/>
    <path id="Trazado_718004" data-name="Trazado 718004" d="M165.058,71.83l2.207-1.274-2.207-1.275Z" transform="translate(334 10077)" fill="#1836ab"/>
    <path id="Trazado_718166" data-name="Trazado 718166" d="M0,0H12.626" transform="translate(505.419 10107.147)" fill="none" stroke="#1836ab" stroke-width="0.73"/>
    <path id="Trazado_718167" data-name="Trazado 718167" d="M0,7.72V0" transform="translate(511.744 10108.982)" fill="none" stroke="#1836ab" stroke-width="0.73"/>
    <path id="Trazado_718005" data-name="Trazado 718005" d="M179.018,32.354l-1.274-2.207-1.274,2.207Z" transform="translate(334 10077)" fill="#1836ab"/>
    <path id="Trazado_718168" data-name="Trazado 718168" d="M0,0H12.626" transform="translate(505.419 10139.27)" fill="none" stroke="#1836ab" stroke-width="0.73"/>
    <path id="Trazado_718169" data-name="Trazado 718169" d="M0,0V7.72" transform="translate(511.744 10129.715)" fill="none" stroke="#1836ab" stroke-width="0.73"/>
    <path id="Trazado_718006" data-name="Trazado 718006" d="M176.47,60.062l1.274,2.207,1.274-2.207Z" transform="translate(334 10077)" fill="#1836ab"/>
    <path id="Trazado_718007" data-name="Trazado 718007" d="M95.458,10.424S92.19,23.9,73.981,26.926" transform="translate(334 10077)" fill="none" stroke="#3c3c3b" stroke-miterlimit="10" stroke-width="0.73"/>
    <path id="Trazado_718008" data-name="Trazado 718008" d="M74.134,25.569l-1.969,1.617,2.385.9Z" transform="translate(334 10077)" fill="#3c3c3b"/>
    <path id="Trazado_718009" data-name="Trazado 718009" d="M141.606,10.424s3.268,13.48,21.477,16.5" transform="translate(334 10077)" fill="none" stroke="#3c3c3b" stroke-miterlimit="10" stroke-width="0.73"/>
    <path id="Trazado_718010" data-name="Trazado 718010" d="M162.514,28.084l2.385-.9L162.93,25.57Z" transform="translate(334 10077)" fill="#3c3c3b"/>
    <path id="Trazado_718011" data-name="Trazado 718011" d="M95.919,5.069a.18.18,0,0,1,.135.062l.369.4a2.645,2.645,0,0,1-.94.7,3.228,3.228,0,0,1-1.334.249,3.112,3.112,0,0,1-1.238-.235,2.748,2.748,0,0,1-.947-.662,3,3,0,0,1-.607-1.016,3.82,3.82,0,0,1-.215-1.3,3.634,3.634,0,0,1,.227-1.3A2.973,2.973,0,0,1,92,.956a2.877,2.877,0,0,1,.974-.662A3.249,3.249,0,0,1,94.232.058a3.066,3.066,0,0,1,1.191.218,3.024,3.024,0,0,1,.907.583l-.306.434a.273.273,0,0,1-.076.079.225.225,0,0,1-.122.031.349.349,0,0,1-.194-.084,2.827,2.827,0,0,0-.294-.186,2.306,2.306,0,0,0-.45-.186,2.242,2.242,0,0,0-.665-.083,2.185,2.185,0,0,0-.859.164,1.908,1.908,0,0,0-.672.473,2.162,2.162,0,0,0-.438.758A3.08,3.08,0,0,0,92.1,3.273a2.957,2.957,0,0,0,.162,1.021,2.227,2.227,0,0,0,.446.758,1.9,1.9,0,0,0,.671.473,2.121,2.121,0,0,0,.832.162,3.266,3.266,0,0,0,.488-.032,2.109,2.109,0,0,0,.4-.1,1.763,1.763,0,0,0,.343-.169,2.282,2.282,0,0,0,.32-.248.357.357,0,0,1,.074-.05.189.189,0,0,1,.084-.02" transform="translate(334 10077)" fill="#3c3c3b"/>
    <path id="Trazado_718012" data-name="Trazado 718012" d="M99.007,1.9a2.344,2.344,0,0,1,.887.16,1.855,1.855,0,0,1,.675.46A2.051,2.051,0,0,1,101,3.24a2.849,2.849,0,0,1,.149.948,2.867,2.867,0,0,1-.149.951,2.025,2.025,0,0,1-.427.723,1.876,1.876,0,0,1-.675.458,2.553,2.553,0,0,1-1.779,0,1.91,1.91,0,0,1-.677-.458,2.032,2.032,0,0,1-.431-.723,2.815,2.815,0,0,1-.151-.951,2.8,2.8,0,0,1,.151-.948,2.059,2.059,0,0,1,.431-.723,1.889,1.889,0,0,1,.677-.46,2.359,2.359,0,0,1,.892-.16m0,3.917a1.093,1.093,0,0,0,.942-.425,2,2,0,0,0,.311-1.2,2.006,2.006,0,0,0-.311-1.2,1.09,1.09,0,0,0-.942-.428,1.106,1.106,0,0,0-.953.428,1.992,1.992,0,0,0-.313,1.2,1.983,1.983,0,0,0,.313,1.2,1.109,1.109,0,0,0,.953.425" transform="translate(334 10077)" fill="#3c3c3b"/>
    <path id="Trazado_718013" data-name="Trazado 718013" d="M102.9,2.585a2.823,2.823,0,0,1,.3-.28,1.9,1.9,0,0,1,.335-.217,1.8,1.8,0,0,1,.381-.141,1.845,1.845,0,0,1,.437-.05,1.6,1.6,0,0,1,.645.122,1.283,1.283,0,0,1,.467.344,1.49,1.49,0,0,1,.285.533,2.319,2.319,0,0,1,.1.687V6.418h-.857V3.583a1.13,1.13,0,0,0-.22-.742.818.818,0,0,0-.67-.265,1.283,1.283,0,0,0-.616.155,2.073,2.073,0,0,0-.532.424V6.418H102.1V1.967h.513a.206.206,0,0,1,.222.171Z" transform="translate(334 10077)" fill="#3c3c3b"/>
    <path id="Trazado_718014" data-name="Trazado 718014" d="M108.338,6.488a1.1,1.1,0,0,1-.829-.3,1.194,1.194,0,0,1-.292-.864V2.659H106.7a.181.181,0,0,1-.125-.045.178.178,0,0,1-.05-.138V2.13l.723-.1L107.44.7a.2.2,0,0,1,.069-.116.191.191,0,0,1,.129-.042h.434v1.5h1.26v.621h-1.26V5.266a.534.534,0,0,0,.129.392.444.444,0,0,0,.331.129.616.616,0,0,0,.2-.03.844.844,0,0,0,.147-.068c.041-.025.076-.047.1-.068a.156.156,0,0,1,.08-.031.106.106,0,0,1,.068.02.251.251,0,0,1,.05.063l.254.413a1.484,1.484,0,0,1-.5.3,1.729,1.729,0,0,1-.6.105" transform="translate(334 10077)" fill="#3c3c3b"/>
    <path id="Trazado_718015" data-name="Trazado 718015" d="M110.924,2.822a2.029,2.029,0,0,1,.517-.688,1.1,1.1,0,0,1,.727-.25,1.086,1.086,0,0,1,.273.033.711.711,0,0,1,.227.1l-.057.643a.14.14,0,0,1-.145.119,1.034,1.034,0,0,1-.184-.024,1.3,1.3,0,0,0-.263-.024,1.045,1.045,0,0,0-.364.059.845.845,0,0,0-.282.175,1.189,1.189,0,0,0-.221.285,2.8,2.8,0,0,0-.18.383V6.419h-.854V1.967h.49a.27.27,0,0,1,.191.051.33.33,0,0,1,.072.177Z" transform="translate(334 10077)" fill="#3c3c3b"/>
    <path id="Trazado_718016" data-name="Trazado 718016" d="M113.153,2.589a2.442,2.442,0,0,1,1.765-.705,1.693,1.693,0,0,1,.675.125,1.369,1.369,0,0,1,.495.348,1.464,1.464,0,0,1,.3.534,2.209,2.209,0,0,1,.1.689V6.419h-.381a.361.361,0,0,1-.191-.042.288.288,0,0,1-.107-.156l-.091-.39a3.825,3.825,0,0,1-.338.279,2.084,2.084,0,0,1-.349.2,1.693,1.693,0,0,1-.387.129,2.142,2.142,0,0,1-.455.044,1.637,1.637,0,0,1-.493-.072,1.1,1.1,0,0,1-.4-.221,1.066,1.066,0,0,1-.27-.372,1.281,1.281,0,0,1-.1-.521.989.989,0,0,1,.143-.507,1.289,1.289,0,0,1,.465-.436,2.97,2.97,0,0,1,.841-.315,6.235,6.235,0,0,1,1.277-.14V3.58a1.127,1.127,0,0,0-.215-.754.784.784,0,0,0-.63-.249,1.376,1.376,0,0,0-.472.069,1.838,1.838,0,0,0-.329.156c-.09.057-.172.108-.24.155a.365.365,0,0,1-.211.07.24.24,0,0,1-.152-.048.412.412,0,0,1-.1-.113Zm2.506,1.854a6.314,6.314,0,0,0-.885.081,2.438,2.438,0,0,0-.592.168.8.8,0,0,0-.328.248.537.537,0,0,0-.1.318.7.7,0,0,0,.055.286.53.53,0,0,0,.148.2.592.592,0,0,0,.223.111,1,1,0,0,0,.275.035,1.576,1.576,0,0,0,.362-.039,1.43,1.43,0,0,0,.308-.112,1.5,1.5,0,0,0,.276-.177,2.5,2.5,0,0,0,.259-.241Z" transform="translate(334 10077)" fill="#3c3c3b"/>
    <path id="Trazado_718017" data-name="Trazado 718017" d="M120.763,2.8a.494.494,0,0,1-.076.076.178.178,0,0,1-.108.029.252.252,0,0,1-.147-.055,1.7,1.7,0,0,0-.192-.118,1.747,1.747,0,0,0-.28-.118,1.461,1.461,0,0,0-.963.059,1.069,1.069,0,0,0-.4.324,1.475,1.475,0,0,0-.243.512,2.54,2.54,0,0,0-.084.679,2.528,2.528,0,0,0,.088.695,1.5,1.5,0,0,0,.25.513,1.064,1.064,0,0,0,.394.315,1.226,1.226,0,0,0,.517.107,1.289,1.289,0,0,0,.456-.068,1.494,1.494,0,0,0,.3-.146,1.9,1.9,0,0,0,.2-.148.257.257,0,0,1,.163-.067.188.188,0,0,1,.161.079l.246.315a1.649,1.649,0,0,1-.344.32,2.016,2.016,0,0,1-.4.215,2.285,2.285,0,0,1-.449.122,2.894,2.894,0,0,1-.476.039,1.973,1.973,0,0,1-.777-.153,1.76,1.76,0,0,1-.627-.447,2.144,2.144,0,0,1-.418-.72,2.872,2.872,0,0,1-.153-.971,2.887,2.887,0,0,1,.138-.915,2.041,2.041,0,0,1,.407-.725,1.9,1.9,0,0,1,.664-.478,2.233,2.233,0,0,1,.9-.173,2.14,2.14,0,0,1,.842.154,2.052,2.052,0,0,1,.648.433Z" transform="translate(334 10077)" fill="#3c3c3b"/>
    <path id="Trazado_718018" data-name="Trazado 718018" d="M124.885,2.8a.494.494,0,0,1-.076.076.178.178,0,0,1-.108.029.252.252,0,0,1-.147-.055,1.7,1.7,0,0,0-.192-.118,1.748,1.748,0,0,0-.28-.118,1.461,1.461,0,0,0-.963.059,1.069,1.069,0,0,0-.4.324,1.475,1.475,0,0,0-.243.512,2.54,2.54,0,0,0-.084.679,2.528,2.528,0,0,0,.088.695,1.5,1.5,0,0,0,.25.513,1.064,1.064,0,0,0,.394.315,1.226,1.226,0,0,0,.517.107,1.289,1.289,0,0,0,.456-.068,1.494,1.494,0,0,0,.3-.146,1.9,1.9,0,0,0,.2-.148.257.257,0,0,1,.163-.067.188.188,0,0,1,.161.079l.246.315a1.649,1.649,0,0,1-.344.32,2.016,2.016,0,0,1-.4.215,2.285,2.285,0,0,1-.449.122,2.893,2.893,0,0,1-.476.039,1.973,1.973,0,0,1-.777-.153,1.76,1.76,0,0,1-.627-.447,2.143,2.143,0,0,1-.418-.72,2.872,2.872,0,0,1-.153-.971,2.887,2.887,0,0,1,.138-.915,2.041,2.041,0,0,1,.407-.725,1.9,1.9,0,0,1,.664-.478,2.233,2.233,0,0,1,.9-.173,2.14,2.14,0,0,1,.842.154,2.052,2.052,0,0,1,.648.433Z" transform="translate(334 10077)" fill="#3c3c3b"/>
    <path id="Trazado_718019" data-name="Trazado 718019" d="M127.014.592a.541.541,0,0,1-.048.225.625.625,0,0,1-.13.189.609.609,0,0,1-.19.127.6.6,0,0,1-.228.046.56.56,0,0,1-.223-.046.632.632,0,0,1-.187-.127.58.58,0,0,1-.126-.189.557.557,0,0,1-.047-.225.573.573,0,0,1,.047-.23.58.58,0,0,1,.126-.189.613.613,0,0,1,.187-.127A.543.543,0,0,1,126.418,0a.577.577,0,0,1,.228.046.592.592,0,0,1,.19.127.625.625,0,0,1,.13.189.558.558,0,0,1,.048.23m-.162,5.827H126V1.968h.854Z" transform="translate(334 10077)" fill="#3c3c3b"/>
    <path id="Trazado_718020" data-name="Trazado 718020" d="M129.99,1.9a2.344,2.344,0,0,1,.887.16,1.852,1.852,0,0,1,.674.46,2.053,2.053,0,0,1,.428.723,2.849,2.849,0,0,1,.148.948,2.867,2.867,0,0,1-.148.951,2.027,2.027,0,0,1-.428.723,1.872,1.872,0,0,1-.674.458,2.552,2.552,0,0,1-1.779,0,1.9,1.9,0,0,1-.677-.458,2.018,2.018,0,0,1-.431-.723,2.815,2.815,0,0,1-.152-.951,2.8,2.8,0,0,1,.152-.948,2.044,2.044,0,0,1,.431-.723,1.88,1.88,0,0,1,.677-.46,2.355,2.355,0,0,1,.892-.16m0,3.917a1.09,1.09,0,0,0,.941-.425,2,2,0,0,0,.311-1.2,2.006,2.006,0,0,0-.311-1.2,1.087,1.087,0,0,0-.941-.428,1.107,1.107,0,0,0-.954.428,2,2,0,0,0-.312,1.2,1.991,1.991,0,0,0,.312,1.2,1.11,1.11,0,0,0,.954.425" transform="translate(334 10077)" fill="#3c3c3b"/>
    <path id="Trazado_718021" data-name="Trazado 718021" d="M133.88,2.585a2.821,2.821,0,0,1,.3-.28,1.9,1.9,0,0,1,.335-.217,1.8,1.8,0,0,1,.381-.141,1.848,1.848,0,0,1,.436-.05,1.6,1.6,0,0,1,.646.122,1.283,1.283,0,0,1,.467.344,1.473,1.473,0,0,1,.284.533,2.286,2.286,0,0,1,.1.687V6.418h-.858V3.583a1.13,1.13,0,0,0-.22-.742.816.816,0,0,0-.67-.265,1.276,1.276,0,0,0-.615.155,2.044,2.044,0,0,0-.533.424V6.418h-.854V1.967h.512a.207.207,0,0,1,.223.171Z" transform="translate(334 10077)" fill="#3c3c3b"/>
    <path id="Trazado_718022" data-name="Trazado 718022" d="M141.633,5.784a1.645,1.645,0,0,1-.363.317,2.153,2.153,0,0,1-.438.217,2.782,2.782,0,0,1-.479.123,3.148,3.148,0,0,1-.489.039,2.29,2.29,0,0,1-.853-.155,1.918,1.918,0,0,1-.679-.456,2.068,2.068,0,0,1-.446-.745,3.006,3.006,0,0,1-.16-1.023,2.541,2.541,0,0,1,.144-.865,2.079,2.079,0,0,1,.415-.7,1.911,1.911,0,0,1,.659-.469,2.156,2.156,0,0,1,.876-.171,2.059,2.059,0,0,1,.751.134,1.687,1.687,0,0,1,.594.388,1.8,1.8,0,0,1,.392.627,2.364,2.364,0,0,1,.142.85.528.528,0,0,1-.044.264.174.174,0,0,1-.161.069h-2.918a2.352,2.352,0,0,0,.114.694,1.42,1.42,0,0,0,.278.493,1.1,1.1,0,0,0,.423.293,1.488,1.488,0,0,0,.547.1,1.634,1.634,0,0,0,.493-.066,2.419,2.419,0,0,0,.359-.142c.1-.052.186-.1.255-.143a.347.347,0,0,1,.182-.066.188.188,0,0,1,.161.079ZM140.928,3.7a1.473,1.473,0,0,0-.072-.469,1.075,1.075,0,0,0-.212-.372.977.977,0,0,0-.342-.246,1.167,1.167,0,0,0-.464-.087,1.142,1.142,0,0,0-.849.311,1.508,1.508,0,0,0-.391.863Z" transform="translate(334 10077)" fill="#3c3c3b"/>
    <path id="Trazado_718023" data-name="Trazado 718023" d="M145.243,2.734a.241.241,0,0,1-.074.082.191.191,0,0,1-.1.024.32.32,0,0,1-.155-.049c-.057-.031-.126-.067-.206-.1a2.018,2.018,0,0,0-.283-.105,1.362,1.362,0,0,0-.386-.049,1.167,1.167,0,0,0-.334.047.8.8,0,0,0-.257.126.583.583,0,0,0-.162.193.523.523,0,0,0-.057.239.4.4,0,0,0,.1.277.866.866,0,0,0,.259.188,2.632,2.632,0,0,0,.364.143c.136.041.275.086.416.133s.28.1.416.159a1.514,1.514,0,0,1,.364.224,1.055,1.055,0,0,1,.259.322.993.993,0,0,1,.1.46,1.462,1.462,0,0,1-.112.577,1.258,1.258,0,0,1-.329.457,1.524,1.524,0,0,1-.536.3,2.258,2.258,0,0,1-.732.109,2.293,2.293,0,0,1-.85-.153,2.122,2.122,0,0,1-.652-.389l.2-.329a.258.258,0,0,1,.088-.094.261.261,0,0,1,.14-.033.3.3,0,0,1,.171.061c.058.041.128.086.21.134a1.545,1.545,0,0,0,.3.131,1.368,1.368,0,0,0,.438.059,1.2,1.2,0,0,0,.381-.054.8.8,0,0,0,.27-.149.609.609,0,0,0,.16-.217A.651.651,0,0,0,144.7,5.2a.428.428,0,0,0-.1-.291.835.835,0,0,0-.257-.2,2.215,2.215,0,0,0-.366-.145c-.138-.041-.278-.084-.422-.131a4.279,4.279,0,0,1-.42-.162,1.46,1.46,0,0,1-.366-.232,1.121,1.121,0,0,1-.259-.342,1.122,1.122,0,0,1-.1-.491,1.18,1.18,0,0,1,.107-.5,1.216,1.216,0,0,1,.311-.416,1.529,1.529,0,0,1,.5-.287,2.01,2.01,0,0,1,.685-.108,2.167,2.167,0,0,1,.8.141,1.838,1.838,0,0,1,.611.385Z" transform="translate(334 10077)" fill="#3c3c3b"/>
    <path id="Trazado_718024" data-name="Trazado 718024" d="M107.625,71.793a.18.18,0,0,1,.136.061l.368.4a2.63,2.63,0,0,1-.939.7,3.23,3.23,0,0,1-1.335.25,3.119,3.119,0,0,1-1.238-.236,2.735,2.735,0,0,1-.946-.662,2.979,2.979,0,0,1-.607-1.016,3.8,3.8,0,0,1-.215-1.3,3.638,3.638,0,0,1,.226-1.3,2.973,2.973,0,0,1,.633-1.016,2.871,2.871,0,0,1,.975-.662,3.248,3.248,0,0,1,1.255-.236A3.053,3.053,0,0,1,107.13,67a3.015,3.015,0,0,1,.907.582l-.307.435a.286.286,0,0,1-.076.079.219.219,0,0,1-.121.03.344.344,0,0,1-.195-.084,2.974,2.974,0,0,0-.293-.186,2.362,2.362,0,0,0-.45-.185,2.468,2.468,0,0,0-1.524.08,1.905,1.905,0,0,0-.673.474,2.128,2.128,0,0,0-.437.758A3.048,3.048,0,0,0,103.805,70a2.957,2.957,0,0,0,.162,1.021,2.227,2.227,0,0,0,.446.758,1.906,1.906,0,0,0,.672.473,2.1,2.1,0,0,0,.832.162,3.251,3.251,0,0,0,.487-.032,2.108,2.108,0,0,0,.4-.1,1.826,1.826,0,0,0,.344-.168,2.229,2.229,0,0,0,.319-.249.357.357,0,0,1,.074-.05.206.206,0,0,1,.084-.019" transform="translate(334 10077)" fill="#3c3c3b"/>
    <path id="Trazado_718025" data-name="Trazado 718025" d="M109.684,69.545a2.039,2.039,0,0,1,.517-.688,1.1,1.1,0,0,1,.727-.249,1.087,1.087,0,0,1,.273.032.711.711,0,0,1,.227.1l-.057.643a.14.14,0,0,1-.145.119,1.034,1.034,0,0,1-.184-.024,1.375,1.375,0,0,0-.263-.024,1.045,1.045,0,0,0-.364.059.847.847,0,0,0-.282.176,1.164,1.164,0,0,0-.221.284,2.8,2.8,0,0,0-.18.383v2.787h-.854V68.69h.49a.265.265,0,0,1,.19.051.325.325,0,0,1,.073.177Z" transform="translate(334 10077)" fill="#3c3c3b"/>
    <path id="Trazado_718026" data-name="Trazado 718026" d="M115.584,72.507a1.645,1.645,0,0,1-.363.317,2.031,2.031,0,0,1-.438.217,2.77,2.77,0,0,1-.48.123,3.014,3.014,0,0,1-.489.04,2.292,2.292,0,0,1-.852-.156,1.938,1.938,0,0,1-.679-.455,2.081,2.081,0,0,1-.446-.746,3,3,0,0,1-.16-1.023,2.517,2.517,0,0,1,.144-.865,2.079,2.079,0,0,1,.415-.7,1.911,1.911,0,0,1,.659-.469,2.155,2.155,0,0,1,.875-.17,2.06,2.06,0,0,1,.752.133,1.7,1.7,0,0,1,.595.388,1.816,1.816,0,0,1,.391.627,2.363,2.363,0,0,1,.142.85.535.535,0,0,1-.044.265.175.175,0,0,1-.161.068h-2.918a2.347,2.347,0,0,0,.114.694,1.386,1.386,0,0,0,.278.493,1.115,1.115,0,0,0,.423.294,1.509,1.509,0,0,0,.547.1,1.65,1.65,0,0,0,.494-.066,2.419,2.419,0,0,0,.359-.142c.1-.052.185-.1.253-.143a.347.347,0,0,1,.183-.066.188.188,0,0,1,.161.079Zm-.705-2.086a1.473,1.473,0,0,0-.072-.469,1.061,1.061,0,0,0-.212-.371.961.961,0,0,0-.342-.246,1.294,1.294,0,0,0-1.312.224,1.5,1.5,0,0,0-.392.862Z" transform="translate(334 10077)" fill="#3c3c3b"/>
    <path id="Trazado_718027" data-name="Trazado 718027" d="M119.194,69.458a.236.236,0,0,1-.074.081.191.191,0,0,1-.1.024.329.329,0,0,1-.155-.048c-.057-.032-.126-.067-.206-.1a1.9,1.9,0,0,0-.283-.106,1.4,1.4,0,0,0-.386-.048,1.167,1.167,0,0,0-.334.046.8.8,0,0,0-.257.127.573.573,0,0,0-.162.193.52.52,0,0,0-.057.239.4.4,0,0,0,.1.276.849.849,0,0,0,.259.188,2.632,2.632,0,0,0,.364.143c.136.042.275.086.416.133s.28.1.416.16a1.514,1.514,0,0,1,.364.224,1.039,1.039,0,0,1,.259.321,1,1,0,0,1,.1.46,1.462,1.462,0,0,1-.112.577,1.262,1.262,0,0,1-.329.458,1.555,1.555,0,0,1-.536.3,2.445,2.445,0,0,1-1.582-.045,2.122,2.122,0,0,1-.652-.389l.2-.328a.25.25,0,0,1,.088-.094.261.261,0,0,1,.14-.034.3.3,0,0,1,.171.062c.058.041.128.085.21.133a1.529,1.529,0,0,0,.3.131,1.359,1.359,0,0,0,.437.06,1.2,1.2,0,0,0,.381-.055.779.779,0,0,0,.27-.149.609.609,0,0,0,.16-.217.648.648,0,0,0,.052-.259.426.426,0,0,0-.1-.29.853.853,0,0,0-.257-.2,2.215,2.215,0,0,0-.366-.145c-.138-.04-.278-.084-.422-.131a4.278,4.278,0,0,1-.42-.162,1.433,1.433,0,0,1-.366-.232,1.043,1.043,0,0,1-.356-.832,1.184,1.184,0,0,1,.107-.5,1.226,1.226,0,0,1,.311-.416,1.529,1.529,0,0,1,.5-.287,2.035,2.035,0,0,1,.685-.107,2.187,2.187,0,0,1,.8.14,1.824,1.824,0,0,1,.611.386Z" transform="translate(334 10077)" fill="#3c3c3b"/>
    <path id="Trazado_718028" data-name="Trazado 718028" d="M121.771,73.213a1.1,1.1,0,0,1-.831-.3,1.2,1.2,0,0,1-.291-.864V69.383h-.517a.165.165,0,0,1-.175-.183v-.346l.723-.1.193-1.327a.2.2,0,0,1,.067-.117.2.2,0,0,1,.129-.041h.435v1.494h1.261v.621H121.5V71.99a.542.542,0,0,0,.128.393.45.45,0,0,0,.331.128.593.593,0,0,0,.2-.03.749.749,0,0,0,.147-.068c.041-.024.076-.047.1-.068a.145.145,0,0,1,.079-.03.1.1,0,0,1,.068.02.234.234,0,0,1,.05.063l.254.412a1.475,1.475,0,0,1-.5.3,1.724,1.724,0,0,1-.6.106" transform="translate(334 10077)" fill="#3c3c3b"/>
    <path id="Trazado_718029" data-name="Trazado 718029" d="M123.435,69.314a2.436,2.436,0,0,1,1.766-.705,1.692,1.692,0,0,1,.674.124,1.407,1.407,0,0,1,.5.348,1.474,1.474,0,0,1,.3.535,2.2,2.2,0,0,1,.1.688v2.839H126.4a.369.369,0,0,1-.192-.042.289.289,0,0,1-.105-.155l-.092-.39a3.8,3.8,0,0,1-.337.278,2.16,2.16,0,0,1-.349.206,1.751,1.751,0,0,1-.388.129,2.2,2.2,0,0,1-.455.044,1.674,1.674,0,0,1-.493-.072,1.129,1.129,0,0,1-.4-.222,1.042,1.042,0,0,1-.269-.372,1.278,1.278,0,0,1-.1-.521.985.985,0,0,1,.143-.506,1.287,1.287,0,0,1,.464-.437,3.013,3.013,0,0,1,.841-.315,6.227,6.227,0,0,1,1.277-.14V70.3a1.129,1.129,0,0,0-.215-.754.781.781,0,0,0-.63-.249,1.34,1.34,0,0,0-.471.07,1.839,1.839,0,0,0-.329.155q-.138.085-.24.156a.374.374,0,0,1-.213.069.243.243,0,0,1-.151-.047.411.411,0,0,1-.1-.114Zm2.506,1.853a6.47,6.47,0,0,0-.885.081,2.531,2.531,0,0,0-.592.168.8.8,0,0,0-.328.248.539.539,0,0,0-.1.318.7.7,0,0,0,.054.287.547.547,0,0,0,.149.2.612.612,0,0,0,.222.112,1.047,1.047,0,0,0,.275.034,1.516,1.516,0,0,0,.362-.039,1.438,1.438,0,0,0,.309-.112,1.529,1.529,0,0,0,.275-.177,2.306,2.306,0,0,0,.259-.241Z" transform="translate(334 10077)" fill="#3c3c3b"/>
    <path id="Trazado_718030" data-name="Trazado 718030" d="M133.915,72.358v.784h-3.6V66.851h.932v5.507Z" transform="translate(334 10077)" fill="#3c3c3b"/>
    <path id="Trazado_718031" data-name="Trazado 718031" d="M180.048,42.072v6.291h-.934V45.529h-3.281v2.834H174.9V42.072h.937v2.777h3.281V42.072Z" transform="translate(334 10077)" fill="#3c3c3b"/>
    <path id="Trazado_718032" data-name="Trazado 718032" d="M43.1,24.937V119.7H198.825V24.937" transform="translate(334 10077)" fill="none" stroke="#3c3c3b" stroke-miterlimit="10" stroke-width="0.974"/>
    <path id="Trazado_718033" data-name="Trazado 718033" d="M94.669,145.858h-.718a.314.314,0,0,1-.2-.062.348.348,0,0,1-.114-.157l-.555-1.459H90.306l-.557,1.459a.36.36,0,0,1-.113.151.311.311,0,0,1-.2.068h-.719l2.506-6.291h.941Zm-1.844-2.344-.934-2.441a5.6,5.6,0,0,1-.2-.63c-.033.126-.065.243-.1.35s-.067.2-.1.289l-.929,2.432Z" transform="translate(334 10077)" fill="#3c3c3b"/>
    <path id="Trazado_718034" data-name="Trazado 718034" d="M96.071,142.025a3.152,3.152,0,0,1,.3-.28,1.906,1.906,0,0,1,.336-.217,1.766,1.766,0,0,1,.381-.14,1.8,1.8,0,0,1,.436-.05,1.584,1.584,0,0,1,.646.122,1.289,1.289,0,0,1,.467.343,1.489,1.489,0,0,1,.284.533,2.288,2.288,0,0,1,.1.688v2.834h-.859v-2.834a1.132,1.132,0,0,0-.219-.742.818.818,0,0,0-.67-.266,1.276,1.276,0,0,0-.615.155,2.082,2.082,0,0,0-.533.423v3.264H95.27v-4.451h.512a.21.21,0,0,1,.224.171Z" transform="translate(334 10077)" fill="#3c3c3b"/>
    <path id="Trazado_718035" data-name="Trazado 718035" d="M103.291,142.24a.494.494,0,0,1-.076.076.176.176,0,0,1-.108.029.254.254,0,0,1-.147-.055,1.8,1.8,0,0,0-.192-.118,1.723,1.723,0,0,0-.281-.118,1.458,1.458,0,0,0-.962.059,1.078,1.078,0,0,0-.4.324,1.5,1.5,0,0,0-.243.512,2.583,2.583,0,0,0-.084.68,2.526,2.526,0,0,0,.088.694,1.516,1.516,0,0,0,.25.513,1.046,1.046,0,0,0,.394.315,1.223,1.223,0,0,0,.517.108,1.288,1.288,0,0,0,.456-.069,1.523,1.523,0,0,0,.3-.146,2.225,2.225,0,0,0,.2-.147.248.248,0,0,1,.162-.068.188.188,0,0,1,.161.079l.246.315a1.649,1.649,0,0,1-.344.32,1.966,1.966,0,0,1-.4.215,2.3,2.3,0,0,1-.449.122,2.789,2.789,0,0,1-.476.04,1.956,1.956,0,0,1-.777-.154,1.736,1.736,0,0,1-.626-.447,2.118,2.118,0,0,1-.418-.72,2.841,2.841,0,0,1-.154-.97,2.889,2.889,0,0,1,.138-.916,2.049,2.049,0,0,1,.407-.725,1.88,1.88,0,0,1,.664-.477,2.213,2.213,0,0,1,.9-.173,2.141,2.141,0,0,1,.842.153,2.052,2.052,0,0,1,.648.433Z" transform="translate(334 10077)" fill="#3c3c3b"/>
    <path id="Trazado_718036" data-name="Trazado 718036" d="M105.219,141.972a2.424,2.424,0,0,1,.62-.46,1.677,1.677,0,0,1,.781-.175,1.586,1.586,0,0,1,.647.123,1.283,1.283,0,0,1,.467.343,1.491,1.491,0,0,1,.284.532,2.294,2.294,0,0,1,.1.689v2.834h-.86v-2.834a1.133,1.133,0,0,0-.218-.743.819.819,0,0,0-.67-.265,1.272,1.272,0,0,0-.616.155,2.035,2.035,0,0,0-.532.423v3.264h-.854v-6.466h.854Z" transform="translate(334 10077)" fill="#3c3c3b"/>
    <path id="Trazado_718037" data-name="Trazado 718037" d="M111.163,141.337a2.349,2.349,0,0,1,.888.16,1.839,1.839,0,0,1,.675.46,2.051,2.051,0,0,1,.426.722,3.08,3.08,0,0,1,0,1.9,2.037,2.037,0,0,1-.426.723,1.872,1.872,0,0,1-.675.458,2.552,2.552,0,0,1-1.779,0,1.9,1.9,0,0,1-.677-.458,2.018,2.018,0,0,1-.431-.723,3.042,3.042,0,0,1,0-1.9,2.031,2.031,0,0,1,.431-.722,1.864,1.864,0,0,1,.677-.46,2.357,2.357,0,0,1,.891-.16m0,3.916a1.094,1.094,0,0,0,.943-.425,2.466,2.466,0,0,0,0-2.394,1.09,1.09,0,0,0-.943-.427,1.106,1.106,0,0,0-.953.427,2.452,2.452,0,0,0,0,2.394,1.109,1.109,0,0,0,.953.425" transform="translate(334 10077)" fill="#3c3c3b"/>
    <path id="Trazado_718038" data-name="Trazado 718038" d="M119.584,142.24a.453.453,0,0,1-.076.076.178.178,0,0,1-.108.029.252.252,0,0,1-.147-.055,1.706,1.706,0,0,0-.192-.118,1.748,1.748,0,0,0-.28-.118,1.324,1.324,0,0,0-.406-.055,1.292,1.292,0,0,0-.557.114,1.078,1.078,0,0,0-.4.324,1.484,1.484,0,0,0-.243.512,2.787,2.787,0,0,0,0,1.374,1.5,1.5,0,0,0,.25.513,1.054,1.054,0,0,0,.394.315,1.226,1.226,0,0,0,.517.108,1.288,1.288,0,0,0,.456-.069,1.5,1.5,0,0,0,.3-.146,2.06,2.06,0,0,0,.2-.147.253.253,0,0,1,.163-.068.188.188,0,0,1,.161.079l.246.315a1.649,1.649,0,0,1-.344.32,1.966,1.966,0,0,1-.4.215,2.285,2.285,0,0,1-.449.122,2.789,2.789,0,0,1-.476.04,1.956,1.956,0,0,1-.777-.154,1.748,1.748,0,0,1-.627-.447,2.134,2.134,0,0,1-.418-.72,3.131,3.131,0,0,1-.015-1.886,2.049,2.049,0,0,1,.407-.725,1.88,1.88,0,0,1,.664-.477,2.216,2.216,0,0,1,.9-.173,2.141,2.141,0,0,1,.842.153,2.052,2.052,0,0,1,.648.433Z" transform="translate(334 10077)" fill="#3c3c3b"/>
    <path id="Trazado_718039" data-name="Trazado 718039" d="M120.544,142.029a2.436,2.436,0,0,1,1.766-.705,1.692,1.692,0,0,1,.674.124,1.407,1.407,0,0,1,.5.348,1.474,1.474,0,0,1,.3.535,2.2,2.2,0,0,1,.1.688v2.839H123.5a.369.369,0,0,1-.192-.042.289.289,0,0,1-.105-.155l-.092-.39a3.8,3.8,0,0,1-.337.278,2.161,2.161,0,0,1-.349.206,1.752,1.752,0,0,1-.388.129,2.2,2.2,0,0,1-.455.044,1.674,1.674,0,0,1-.493-.072,1.129,1.129,0,0,1-.4-.222,1.042,1.042,0,0,1-.269-.372,1.278,1.278,0,0,1-.1-.521.985.985,0,0,1,.143-.506,1.287,1.287,0,0,1,.464-.437,3.013,3.013,0,0,1,.841-.315,6.227,6.227,0,0,1,1.277-.14v-.324a1.129,1.129,0,0,0-.215-.754.781.781,0,0,0-.63-.249,1.34,1.34,0,0,0-.471.07,1.839,1.839,0,0,0-.329.155q-.138.086-.24.156a.374.374,0,0,1-.213.069.243.243,0,0,1-.151-.047.411.411,0,0,1-.1-.114Zm2.506,1.853a6.471,6.471,0,0,0-.885.081,2.531,2.531,0,0,0-.592.168.8.8,0,0,0-.328.248.539.539,0,0,0-.1.318.7.7,0,0,0,.054.287.547.547,0,0,0,.149.2.612.612,0,0,0,.222.112,1.047,1.047,0,0,0,.275.034,1.516,1.516,0,0,0,.362-.039,1.438,1.438,0,0,0,.309-.112,1.529,1.529,0,0,0,.275-.177,2.307,2.307,0,0,0,.259-.241Z" transform="translate(334 10077)" fill="#3c3c3b"/>
    <path id="Trazado_718040" data-name="Trazado 718040" d="M125.836,142.025a2.931,2.931,0,0,1,.3-.28,1.9,1.9,0,0,1,.335-.217,1.747,1.747,0,0,1,.381-.14,1.8,1.8,0,0,1,.436-.05,1.584,1.584,0,0,1,.646.122,1.281,1.281,0,0,1,.467.343,1.473,1.473,0,0,1,.284.533,2.288,2.288,0,0,1,.1.688v2.834h-.858v-2.834a1.127,1.127,0,0,0-.22-.742.817.817,0,0,0-.67-.266,1.276,1.276,0,0,0-.615.155,2.082,2.082,0,0,0-.533.423v3.264h-.854v-4.451h.512a.207.207,0,0,1,.223.171Z" transform="translate(334 10077)" fill="#3c3c3b"/>
    <path id="Trazado_718041" data-name="Trazado 718041" d="M129.822,142.029a2.436,2.436,0,0,1,1.766-.705,1.692,1.692,0,0,1,.674.124,1.407,1.407,0,0,1,.5.348,1.474,1.474,0,0,1,.3.535,2.2,2.2,0,0,1,.1.688v2.839h-.382a.369.369,0,0,1-.192-.042.289.289,0,0,1-.105-.155l-.092-.39a3.8,3.8,0,0,1-.337.278,2.161,2.161,0,0,1-.349.206,1.752,1.752,0,0,1-.388.129,2.2,2.2,0,0,1-.455.044,1.674,1.674,0,0,1-.493-.072,1.13,1.13,0,0,1-.4-.222,1.043,1.043,0,0,1-.269-.372,1.278,1.278,0,0,1-.1-.521.985.985,0,0,1,.143-.506,1.287,1.287,0,0,1,.464-.437,3.013,3.013,0,0,1,.841-.315,6.227,6.227,0,0,1,1.277-.14v-.324a1.129,1.129,0,0,0-.215-.754.782.782,0,0,0-.63-.249,1.34,1.34,0,0,0-.471.07,1.839,1.839,0,0,0-.329.155q-.138.086-.24.156a.374.374,0,0,1-.213.069.243.243,0,0,1-.151-.047.411.411,0,0,1-.1-.114Zm2.506,1.853a6.471,6.471,0,0,0-.885.081,2.531,2.531,0,0,0-.592.168.8.8,0,0,0-.328.248.539.539,0,0,0-.1.318.7.7,0,0,0,.054.287.547.547,0,0,0,.149.2.612.612,0,0,0,.222.112,1.047,1.047,0,0,0,.275.034,1.516,1.516,0,0,0,.362-.039,1.439,1.439,0,0,0,.309-.112,1.529,1.529,0,0,0,.275-.177,2.306,2.306,0,0,0,.259-.241Z" transform="translate(334 10077)" fill="#3c3c3b"/>
    <path id="Trazado_718170" data-name="Trazado 718170" d="M0,0H.859V6.466H0Z" transform="translate(468.331 10216.392)" fill="#3c3c3b"/>
    <path id="Trazado_718042" data-name="Trazado 718042" d="M140.844,139.567a3.944,3.944,0,0,1,1.015.114,1.914,1.914,0,0,1,.694.328,1.311,1.311,0,0,1,.4.519,1.754,1.754,0,0,1,.129.69,1.4,1.4,0,0,1-.07.438,1.267,1.267,0,0,1-.215.392,1.557,1.557,0,0,1-.363.327,2.151,2.151,0,0,1-.517.241q1.371.271,1.371,1.432a1.77,1.77,0,0,1-.149.734,1.621,1.621,0,0,1-.433.572,2.007,2.007,0,0,1-.7.372,3.12,3.12,0,0,1-.946.132h-2.265v-6.291Zm-1.117.731v2.059H140.8a1.577,1.577,0,0,0,1.023-.278,1.064,1.064,0,0,0,.015-1.536,1.632,1.632,0,0,0-1-.245Zm1.315,4.819a1.97,1.97,0,0,0,.607-.083,1.149,1.149,0,0,0,.411-.228.852.852,0,0,0,.234-.344,1.2,1.2,0,0,0,.075-.436.908.908,0,0,0-.324-.738,1.549,1.549,0,0,0-1-.269h-1.315v2.1Z" transform="translate(334 10077)" fill="#3c3c3b"/>
    <path id="Trazado_718171" data-name="Trazado 718171" d="M0,0H241.057V149.311H0Z" transform="translate(334 10077)" fill="none"/>
  </g>
</svg>
