<svg xmlns="http://www.w3.org/2000/svg" xmlns:xlink="http://www.w3.org/1999/xlink" width="400" height="298" viewBox="0 0 400 298">
  <defs>
    <linearGradient id="linear-gradient" x1="0.5" x2="0.5" y2="1" gradientUnits="objectBoundingBox">
      <stop offset="0" stop-color="#ebf6ff"/>
      <stop offset="1" stop-color="#fff"/>
    </linearGradient>
    <clipPath id="clip-path">
      <rect id="Rectángulo_348126" data-name="Rectángulo 348126" width="361.868" height="254.151" fill="none"/>
    </clipPath>
  </defs>
  <g id="Grupo_1009239" data-name="Grupo 1009239" transform="translate(-1020 -10508)">
    <path id="Trazado_718291" data-name="Trazado 718291" d="M15,0H385a15,15,0,0,1,15,15V283a15,15,0,0,1-15,15H15A15,15,0,0,1,0,283V15A15,15,0,0,1,15,0Z" transform="translate(1020 10508)" fill="url(#linear-gradient)"/>
    <path id="Trazado_717767" data-name="Trazado 717767" d="M327.322,1.758l-85.7,22.116H204.5L52.849,1.363V75.214L203.71,60.6h38.7l84.909,14.612Z" transform="translate(1039 10533)" fill="none" stroke="#033" stroke-miterlimit="10" stroke-width="0.847"/>
    <g id="Grupo_1009126" data-name="Grupo 1009126" transform="translate(1039 10533)" clip-path="url(#clip-path)">
      <path id="Trazado_717768" data-name="Trazado 717768" d="M277.162,194.3c32.669.683,55.294-.212,55.294-.212" fill="none" stroke="#033" stroke-miterlimit="10" stroke-width="0.847"/>
      <path id="Trazado_717769" data-name="Trazado 717769" d="M63.907,179.474c43.837-5.924,60.029-4.739,127.166,9.478,22.6,2.5,45.039,3.929,65.164,4.718" fill="none" stroke="#033" stroke-miterlimit="10" stroke-width="0.847"/>
      <line id="Línea_2746" data-name="Línea 2746" y2="1.201" transform="translate(204.5 23.873)" fill="none" stroke="#033" stroke-miterlimit="10" stroke-width="0.857"/>
      <line id="Línea_2747" data-name="Línea 2747" y2="29.667" transform="translate(204.5 27.654)" fill="none" stroke="#033" stroke-miterlimit="10" stroke-width="0.857" stroke-dasharray="2.58 2.58"/>
      <line id="Línea_2748" data-name="Línea 2748" y2="1.201" transform="translate(204.5 58.611)" fill="none" stroke="#033" stroke-miterlimit="10" stroke-width="0.857"/>
      <line id="Línea_2749" data-name="Línea 2749" y2="1.201" transform="translate(241.79 23.873)" fill="none" stroke="#033" stroke-miterlimit="10" stroke-width="0.857"/>
      <line id="Línea_2750" data-name="Línea 2750" y2="29.667" transform="translate(241.79 27.654)" fill="none" stroke="#033" stroke-miterlimit="10" stroke-width="0.857" stroke-dasharray="2.58 2.58"/>
      <line id="Línea_2751" data-name="Línea 2751" y2="1.201" transform="translate(241.79 58.611)" fill="none" stroke="#033" stroke-miterlimit="10" stroke-width="0.857"/>
      <path id="Trazado_717770" data-name="Trazado 717770" d="M332.456,179.079s-118.083-11.058-141.384,9.873" fill="none" stroke="#033" stroke-miterlimit="10" stroke-width="0.847"/>
      <path id="Trazado_717771" data-name="Trazado 717771" d="M252.286,235.948l80.565-18.562-.4-73.455H61.537v73.455H215.558Z" fill="none" stroke="#033" stroke-miterlimit="10" stroke-width="0.847"/>
      <line id="Línea_2752" data-name="Línea 2752" y1="73.851" transform="translate(215.558 143.536)" fill="none" stroke="#033" stroke-miterlimit="10" stroke-width="0.899"/>
      <line id="Línea_2753" data-name="Línea 2753" y1="90.822" transform="translate(252.286 143.535)" fill="none" stroke="#033" stroke-miterlimit="10" stroke-width="0.899"/>
      <line id="Línea_2754" data-name="Línea 2754" x2="115.713" transform="translate(217.138 217.387)" fill="none" stroke="#033" stroke-miterlimit="10" stroke-width="0.873" stroke-dasharray="2.362 2.362"/>
      <path id="Trazado_717772" data-name="Trazado 717772" d="M107.543,89.021A14.831,14.831,0,1,1,92.722,73.662,15.1,15.1,0,0,1,107.543,89.021Z" fill="none" stroke="#033" stroke-miterlimit="10" stroke-width="0.799"/>
      <path id="Trazado_717773" data-name="Trazado 717773" d="M276.4,78.815a12.295,12.295,0,1,1-12.3-12.3A12.295,12.295,0,0,1,276.4,78.815Z" fill="none" stroke="#033" stroke-miterlimit="10" stroke-width="0.652"/>
      <path id="Trazado_717774" data-name="Trazado 717774" d="M341.144,23.874v0Z" fill="#033"/>
      <line id="Línea_2755" data-name="Línea 2755" y2="16.352" transform="translate(341.144 7.522)" fill="none" stroke="#033" stroke-miterlimit="10" stroke-width="0.606"/>
      <path id="Trazado_717775" data-name="Trazado 717775" d="M339.383,8.723l1.761-6.57,1.761,6.57Z" fill="#033"/>
      <path id="Trazado_717776" data-name="Trazado 717776" d="M341.539,73.24v0Z" fill="#033"/>
      <line id="Línea_2756" data-name="Línea 2756" y2="28.249" transform="translate(341.539 39.67)" fill="none" stroke="#033" stroke-miterlimit="10" stroke-width="0.753"/>
      <path id="Trazado_717777" data-name="Trazado 717777" d="M341.539,73.239l-3.064-7.5,3.064,1.778,3.063-1.778Z" fill="#033"/>
      <path id="Trazado_717778" data-name="Trazado 717778" d="M264.134,189.492v0Z" fill="#033"/>
      <line id="Línea_2757" data-name="Línea 2757" y2="8.234" transform="translate(264.134 181.258)" fill="none" stroke="#033" stroke-miterlimit="10" stroke-width="0.456"/>
      <path id="Trazado_717779" data-name="Trazado 717779" d="M262.809,182.161l1.325-4.945,1.325,4.945Z" fill="#033"/>
      <path id="Trazado_717780" data-name="Trazado 717780" d="M264.53,217.387v0Z" fill="#033"/>
      <line id="Línea_2758" data-name="Línea 2758" y2="14.966" transform="translate(264.53 198.418)" fill="none" stroke="#033" stroke-miterlimit="10" stroke-width="0.567"/>
      <path id="Trazado_717781" data-name="Trazado 717781" d="M264.53,217.387l-2.305-5.641,2.305,1.339,2.3-1.339Z" fill="#033"/>
      <path id="Trazado_717782" data-name="Trazado 717782" d="M100.833,189.492v0Z" fill="#033"/>
      <line id="Línea_2759" data-name="Línea 2759" y2="8.234" transform="translate(100.832 181.258)" fill="none" stroke="#033" stroke-miterlimit="10" stroke-width="0.456"/>
      <path id="Trazado_717783" data-name="Trazado 717783" d="M99.507,182.161l1.325-4.945,1.325,4.945Z" fill="#033"/>
      <path id="Trazado_717784" data-name="Trazado 717784" d="M101.228,217.387v0Z" fill="#033"/>
      <line id="Línea_2760" data-name="Línea 2760" y2="14.966" transform="translate(101.228 198.418)" fill="none" stroke="#033" stroke-miterlimit="10" stroke-width="0.567"/>
      <path id="Trazado_717785" data-name="Trazado 717785" d="M101.228,217.387l-2.305-5.641,2.305,1.339,2.3-1.339Z" fill="#033"/>
      <path id="Trazado_717786" data-name="Trazado 717786" d="M333.246.968h0Z" fill="#033"/>
      <line id="Línea_2761" data-name="Línea 2761" x2="16.192" transform="translate(333.246 0.968)" fill="none" stroke="#033" stroke-miterlimit="10" stroke-width="0.24"/>
      <path id="Trazado_717787" data-name="Trazado 717787" d="M333.246,74.819h0Z" fill="#033"/>
      <line id="Línea_2762" data-name="Línea 2762" x2="16.192" transform="translate(333.246 74.819)" fill="none" stroke="#033" stroke-miterlimit="10" stroke-width="0.24"/>
      <path id="Trazado_717788" data-name="Trazado 717788" d="M358.521,23.084v7.5H346.278" fill="none" stroke="#033" stroke-miterlimit="10" stroke-width="0.847"/>
      <path id="Trazado_717789" data-name="Trazado 717789" d="M223.457,36.907v0Z" fill="#033"/>
      <line id="Línea_2763" data-name="Línea 2763" y2="8.708" transform="translate(223.456 28.199)" fill="none" stroke="#033" stroke-miterlimit="10" stroke-width="0.466"/>
      <path id="Trazado_717790" data-name="Trazado 717790" d="M222.1,29.122l1.353-5.051,1.354,5.051Z" fill="#033"/>
      <path id="Trazado_717791" data-name="Trazado 717791" d="M223.062,60.7v0Z" fill="#033"/>
      <line id="Línea_2764" data-name="Línea 2764" y2="8.708" transform="translate(223.062 47.865)" fill="none" stroke="#033" stroke-miterlimit="10" stroke-width="0.466"/>
      <path id="Trazado_717792" data-name="Trazado 717792" d="M221.708,55.649l1.353,5.051,1.354-5.051Z" fill="#033"/>
      <path id="Trazado_717793" data-name="Trazado 717793" d="M34.683,23.479v0Z" fill="#033"/>
      <line id="Línea_2765" data-name="Línea 2765" y2="15.315" transform="translate(34.682 8.163)" fill="none" stroke="#033" stroke-miterlimit="10" stroke-width="0.589"/>
      <path id="Trazado_717794" data-name="Trazado 717794" d="M32.97,9.331l1.712-6.389L36.4,9.331Z" fill="#033"/>
      <path id="Trazado_717795" data-name="Trazado 717795" d="M35.078,72.844v0Z" fill="#033"/>
      <line id="Línea_2766" data-name="Línea 2766" y2="28.249" transform="translate(35.077 39.276)" fill="none" stroke="#033" stroke-miterlimit="10" stroke-width="0.753"/>
      <path id="Trazado_717796" data-name="Trazado 717796" d="M35.077,72.844l-3.064-7.5,3.064,1.778,3.063-1.778Z" fill="#033"/>
      <path id="Trazado_717797" data-name="Trazado 717797" d="M25.4.968h0Z" fill="#033"/>
      <line id="Línea_2767" data-name="Línea 2767" x2="16.192" transform="translate(25.401 0.968)" fill="none" stroke="#033" stroke-miterlimit="10" stroke-width="0.24"/>
      <path id="Trazado_717798" data-name="Trazado 717798" d="M25.007,75.608h0Z" fill="#033"/>
      <line id="Línea_2768" data-name="Línea 2768" x2="16.192" transform="translate(25.006 75.609)" fill="none" stroke="#033" stroke-miterlimit="10" stroke-width="0.24"/>
      <path id="Trazado_717799" data-name="Trazado 717799" d="M12.947,22.279v7.5H25.19" fill="none" stroke="#033" stroke-miterlimit="10" stroke-width="0.847"/>
      <path id="Trazado_717800" data-name="Trazado 717800" d="M180.837,126.747a3.661,3.661,0,0,1,1.08.143,2.117,2.117,0,0,1,.761.408,1.622,1.622,0,0,1,.447.636,2.247,2.247,0,0,1,.147.828,2.139,2.139,0,0,1-.159.835,1.772,1.772,0,0,1-.463.656,2.127,2.127,0,0,1-.762.424,3.34,3.34,0,0,1-1.051.151h-1v2.381h-.959v-6.462Zm0,3.325a1.953,1.953,0,0,0,.641-.1,1.254,1.254,0,0,0,.463-.267,1.107,1.107,0,0,0,.282-.414,1.45,1.45,0,0,0,.094-.534,1.193,1.193,0,0,0-.367-.926,1.6,1.6,0,0,0-1.113-.338h-1v2.574Z" fill="#3c3c3b"/>
      <rect id="Rectángulo_348121" data-name="Rectángulo 348121" width="0.883" height="6.642" transform="translate(184.144 126.567)" fill="#3c3c3b"/>
      <path id="Trazado_717801" data-name="Trazado 717801" d="M186.161,129.276a2.508,2.508,0,0,1,1.813-.725,1.753,1.753,0,0,1,.694.128,1.441,1.441,0,0,1,.508.357,1.52,1.52,0,0,1,.313.55,2.25,2.25,0,0,1,.1.706v2.916H189.2a.368.368,0,0,1-.2-.043.29.29,0,0,1-.108-.159l-.1-.4a3.851,3.851,0,0,1-.346.285,2.246,2.246,0,0,1-.358.212,1.918,1.918,0,0,1-.4.133,2.323,2.323,0,0,1-.468.045,1.691,1.691,0,0,1-.506-.075,1.141,1.141,0,0,1-.412-.227,1.069,1.069,0,0,1-.276-.383,1.287,1.287,0,0,1-.1-.535,1.01,1.01,0,0,1,.147-.52,1.3,1.3,0,0,1,.476-.448,3.11,3.11,0,0,1,.864-.324,6.466,6.466,0,0,1,1.312-.144v-.333a1.161,1.161,0,0,0-.221-.774.805.805,0,0,0-.647-.256,1.393,1.393,0,0,0-.485.072,1.884,1.884,0,0,0-.336.159c-.1.059-.178.113-.248.161a.39.39,0,0,1-.218.071.248.248,0,0,1-.156-.049.4.4,0,0,1-.1-.117Zm2.574,1.9a6.781,6.781,0,0,0-.909.083,2.59,2.59,0,0,0-.608.173.82.82,0,0,0-.337.255.549.549,0,0,0-.1.326.719.719,0,0,0,.056.295.567.567,0,0,0,.153.2.6.6,0,0,0,.227.115,1.063,1.063,0,0,0,.284.035,1.546,1.546,0,0,0,.371-.04,1.46,1.46,0,0,0,.317-.115,1.479,1.479,0,0,0,.283-.182,2.433,2.433,0,0,0,.266-.248Z" fill="#3c3c3b"/>
      <path id="Trazado_717802" data-name="Trazado 717802" d="M191.6,129.271a3.35,3.35,0,0,1,.311-.288,1.965,1.965,0,0,1,.344-.223,1.858,1.858,0,0,1,.839-.195,1.632,1.632,0,0,1,.664.126,1.327,1.327,0,0,1,.48.352,1.535,1.535,0,0,1,.292.547,2.384,2.384,0,0,1,.1.707v2.912h-.882V130.3a1.16,1.16,0,0,0-.224-.762.843.843,0,0,0-.689-.273,1.315,1.315,0,0,0-.632.159,2.109,2.109,0,0,0-.546.435v3.353h-.878v-4.573h.526a.216.216,0,0,1,.23.176Z" fill="#3c3c3b"/>
      <path id="Trazado_717803" data-name="Trazado 717803" d="M197.186,133.281a1.133,1.133,0,0,1-.854-.311,1.227,1.227,0,0,1-.3-.886v-2.737H195.5a.186.186,0,0,1-.128-.046.183.183,0,0,1-.051-.142V128.8l.742-.1.2-1.363a.214.214,0,0,1,.069-.12.2.2,0,0,1,.133-.042h.446v1.534h1.3v.638h-1.3v2.678a.554.554,0,0,0,.132.4.464.464,0,0,0,.34.132.6.6,0,0,0,.21-.031.792.792,0,0,0,.151-.069c.042-.026.078-.049.108-.071a.15.15,0,0,1,.081-.031.1.1,0,0,1,.069.021.216.216,0,0,1,.052.065l.261.423a1.533,1.533,0,0,1-.513.306,1.788,1.788,0,0,1-.616.108" fill="#3c3c3b"/>
      <path id="Trazado_717804" data-name="Trazado 717804" d="M198.9,129.276a2.512,2.512,0,0,1,1.814-.725,1.752,1.752,0,0,1,.693.128,1.432,1.432,0,0,1,.508.357,1.52,1.52,0,0,1,.313.55,2.25,2.25,0,0,1,.1.706v2.916h-.391a.362.362,0,0,1-.2-.043.291.291,0,0,1-.109-.159l-.1-.4a3.844,3.844,0,0,1-.345.285,2.254,2.254,0,0,1-.359.212,1.9,1.9,0,0,1-.4.133,2.323,2.323,0,0,1-.468.045,1.691,1.691,0,0,1-.506-.075,1.149,1.149,0,0,1-.412-.227,1.068,1.068,0,0,1-.276-.383,1.3,1.3,0,0,1-.1-.535,1.01,1.01,0,0,1,.147-.52,1.311,1.311,0,0,1,.476-.448,3.11,3.11,0,0,1,.864-.324,6.466,6.466,0,0,1,1.312-.144v-.333a1.161,1.161,0,0,0-.221-.774.8.8,0,0,0-.647-.256,1.384,1.384,0,0,0-.484.072,1.9,1.9,0,0,0-.337.159c-.1.059-.177.113-.248.161a.39.39,0,0,1-.218.071.252.252,0,0,1-.156-.049.4.4,0,0,1-.105-.117Zm2.574,1.9a6.8,6.8,0,0,0-.909.083,2.59,2.59,0,0,0-.608.173.826.826,0,0,0-.337.255.549.549,0,0,0-.1.326.719.719,0,0,0,.056.295.567.567,0,0,0,.153.2.609.609,0,0,0,.227.115,1.068,1.068,0,0,0,.284.035,1.546,1.546,0,0,0,.371-.04,1.441,1.441,0,0,0,.317-.115,1.479,1.479,0,0,0,.283-.182,2.345,2.345,0,0,0,.266-.248Z" fill="#3c3c3b"/>
      <path id="Trazado_717805" data-name="Trazado 717805" d="M175.716,252.693a.188.188,0,0,1,.14.062l.378.415a2.706,2.706,0,0,1-.966.724,3.317,3.317,0,0,1-1.37.257,3.2,3.2,0,0,1-1.271-.243,2.805,2.805,0,0,1-.973-.68,3.064,3.064,0,0,1-.623-1.044,3.89,3.89,0,0,1-.22-1.337,3.715,3.715,0,0,1,.232-1.336,3.061,3.061,0,0,1,.65-1.044,2.935,2.935,0,0,1,1-.679,3.32,3.32,0,0,1,1.29-.243,3.131,3.131,0,0,1,1.223.225,3.073,3.073,0,0,1,.932.6l-.315.446a.278.278,0,0,1-.079.081.217.217,0,0,1-.124.031.353.353,0,0,1-.2-.086,3.214,3.214,0,0,0-.3-.191,2.37,2.37,0,0,0-.462-.19,2.3,2.3,0,0,0-.684-.086,2.244,2.244,0,0,0-.882.169,1.932,1.932,0,0,0-.69.486,2.188,2.188,0,0,0-.45.778,3.16,3.16,0,0,0-.16,1.041,3.038,3.038,0,0,0,.167,1.049,2.269,2.269,0,0,0,.459.778,1.95,1.95,0,0,0,.688.487,2.183,2.183,0,0,0,.855.166,3.457,3.457,0,0,0,.5-.033,2.185,2.185,0,0,0,.409-.1,1.806,1.806,0,0,0,.353-.173,2.211,2.211,0,0,0,.329-.255.355.355,0,0,1,.077-.051.19.19,0,0,1,.085-.02" fill="#3c3c3b"/>
      <path id="Trazado_717806" data-name="Trazado 717806" d="M178.889,249.436a2.4,2.4,0,0,1,.911.164,1.878,1.878,0,0,1,.693.472,2.071,2.071,0,0,1,.438.742,3.166,3.166,0,0,1,0,1.951,2.059,2.059,0,0,1-.438.743,1.91,1.91,0,0,1-.693.47,2.611,2.611,0,0,1-1.827,0,1.944,1.944,0,0,1-.7-.47,2.083,2.083,0,0,1-.443-.743,3.147,3.147,0,0,1,0-1.951,2.1,2.1,0,0,1,.443-.742,1.911,1.911,0,0,1,.7-.472,2.423,2.423,0,0,1,.916-.164m0,4.022a1.123,1.123,0,0,0,.968-.437,2.529,2.529,0,0,0,0-2.459,1.121,1.121,0,0,0-.968-.438,1.136,1.136,0,0,0-.979.438,2.515,2.515,0,0,0,0,2.459,1.138,1.138,0,0,0,.979.437" fill="#3c3c3b"/>
      <path id="Trazado_717807" data-name="Trazado 717807" d="M182.888,250.384a2.094,2.094,0,0,1,.531-.707,1.135,1.135,0,0,1,.747-.256,1.172,1.172,0,0,1,.282.033.727.727,0,0,1,.231.1l-.059.661a.142.142,0,0,1-.148.122,1.116,1.116,0,0,1-.188-.025,1.444,1.444,0,0,0-.271-.025,1.068,1.068,0,0,0-.373.061.866.866,0,0,0-.29.18,1.259,1.259,0,0,0-.228.292,2.9,2.9,0,0,0-.184.394v2.862h-.877v-4.572h.5a.28.28,0,0,1,.195.052.34.34,0,0,1,.074.182Z" fill="#3c3c3b"/>
      <path id="Trazado_717808" data-name="Trazado 717808" d="M186.79,254.151a1.132,1.132,0,0,1-.853-.311,1.227,1.227,0,0,1-.3-.886v-2.737h-.532a.186.186,0,0,1-.128-.046.183.183,0,0,1-.051-.142v-.356l.742-.1.2-1.363a.214.214,0,0,1,.069-.12.2.2,0,0,1,.133-.042h.446v1.534h1.295v.638h-1.295V252.9a.554.554,0,0,0,.132.4.464.464,0,0,0,.34.132.59.59,0,0,0,.209-.031.8.8,0,0,0,.152-.069c.042-.026.078-.049.107-.071a.156.156,0,0,1,.081-.031.1.1,0,0,1,.07.021.233.233,0,0,1,.052.065l.261.423a1.542,1.542,0,0,1-.513.306,1.793,1.793,0,0,1-.617.108" fill="#3c3c3b"/>
      <path id="Trazado_717809" data-name="Trazado 717809" d="M192.352,253.427a1.763,1.763,0,0,1-.373.326,2.1,2.1,0,0,1-.451.222,2.721,2.721,0,0,1-.493.126,3.071,3.071,0,0,1-.5.041,2.347,2.347,0,0,1-.875-.16,1.931,1.931,0,0,1-.7-.468,2.135,2.135,0,0,1-.459-.765,3.105,3.105,0,0,1-.164-1.051,2.608,2.608,0,0,1,.148-.889,2.149,2.149,0,0,1,.425-.717,1.96,1.96,0,0,1,.678-.482,2.215,2.215,0,0,1,.9-.175,2.111,2.111,0,0,1,.773.137,1.724,1.724,0,0,1,.609.4,1.825,1.825,0,0,1,.4.643,2.443,2.443,0,0,1,.146.873.561.561,0,0,1-.045.273.185.185,0,0,1-.166.069h-3a2.465,2.465,0,0,0,.117.713,1.446,1.446,0,0,0,.285.507,1.152,1.152,0,0,0,.435.3,1.524,1.524,0,0,0,.562.1,1.686,1.686,0,0,0,.506-.067,2.36,2.36,0,0,0,.369-.147c.1-.053.191-.1.261-.146a.361.361,0,0,1,.188-.068.2.2,0,0,1,.166.081Zm-.725-2.143a1.484,1.484,0,0,0-.074-.481,1.074,1.074,0,0,0-.218-.382.972.972,0,0,0-.352-.252,1.162,1.162,0,0,0-.476-.091,1.174,1.174,0,0,0-.871.32,1.547,1.547,0,0,0-.4.886Z" fill="#3c3c3b"/>
      <path id="Trazado_717810" data-name="Trazado 717810" d="M200.849,254.079h-.739a.323.323,0,0,1-.207-.063.366.366,0,0,1-.117-.161l-.57-1.5h-2.85l-.571,1.5a.391.391,0,0,1-.117.155.319.319,0,0,1-.207.069h-.739l2.576-6.462h.966Zm-1.9-2.407-.959-2.507a6.053,6.053,0,0,1-.207-.647c-.033.129-.066.249-.1.359s-.068.21-.1.3l-.955,2.5Z" fill="#3c3c3b"/>
      <rect id="Rectángulo_348122" data-name="Rectángulo 348122" width="2.25" height="0.747" transform="translate(201.406 251.001)" fill="#3c3c3b"/>
      <path id="Trazado_717811" data-name="Trazado 717811" d="M210.329,254.079h-.738a.321.321,0,0,1-.207-.063.358.358,0,0,1-.117-.161l-.571-1.5h-2.849l-.571,1.5a.391.391,0,0,1-.117.155.319.319,0,0,1-.207.069h-.739l2.575-6.462h.967Zm-1.894-2.407-.959-2.507a5.627,5.627,0,0,1-.207-.647c-.033.129-.066.249-.1.359s-.068.21-.1.3l-.954,2.5Z" fill="#3c3c3b"/>
      <path id="Trazado_717812" data-name="Trazado 717812" d="M203.5,5.256a.188.188,0,0,1,.14.062l.377.415a2.677,2.677,0,0,1-.965.724,3.318,3.318,0,0,1-1.369.257,3.209,3.209,0,0,1-1.272-.243,2.783,2.783,0,0,1-.972-.68,3.067,3.067,0,0,1-.624-1.044,3.891,3.891,0,0,1-.22-1.337,3.715,3.715,0,0,1,.232-1.336,3.033,3.033,0,0,1,.651-1.044,2.921,2.921,0,0,1,1-.679,3.319,3.319,0,0,1,1.289-.243,3.136,3.136,0,0,1,1.224.225,3.09,3.09,0,0,1,.933.6l-.317.446a.235.235,0,0,1-.079.081.216.216,0,0,1-.123.031.353.353,0,0,1-.2-.086,3.117,3.117,0,0,0-.3-.191,2.359,2.359,0,0,0-.461-.19,2.294,2.294,0,0,0-.684-.086,2.235,2.235,0,0,0-.881.169,1.915,1.915,0,0,0-.69.486,2.207,2.207,0,0,0-.452.778,3.187,3.187,0,0,0-.16,1.041,3.038,3.038,0,0,0,.168,1.049,2.253,2.253,0,0,0,.459.778,1.941,1.941,0,0,0,.688.487,2.178,2.178,0,0,0,.854.166,3.426,3.426,0,0,0,.5-.033,2.127,2.127,0,0,0,.409-.1,1.842,1.842,0,0,0,.354-.173,2.263,2.263,0,0,0,.329-.255.374.374,0,0,1,.076-.051.2.2,0,0,1,.086-.02" fill="#3c3c3b"/>
      <path id="Trazado_717813" data-name="Trazado 717813" d="M208.544,2.069V6.641h-.526a.224.224,0,0,1-.235-.176l-.063-.458a3.207,3.207,0,0,1-.31.288,1.983,1.983,0,0,1-.347.222,1.935,1.935,0,0,1-.392.145,1.851,1.851,0,0,1-.444.052,1.632,1.632,0,0,1-.664-.126,1.316,1.316,0,0,1-.48-.354,1.513,1.513,0,0,1-.293-.547,2.409,2.409,0,0,1-.1-.706V2.069h.883V4.981a1.166,1.166,0,0,0,.224.763.844.844,0,0,0,.688.271,1.286,1.286,0,0,0,.631-.159,2.134,2.134,0,0,0,.548-.438V2.069Z" fill="#3c3c3b"/>
      <path id="Trazado_717814" data-name="Trazado 717814" d="M213.525,5.989a1.761,1.761,0,0,1-.373.326,2.1,2.1,0,0,1-.451.222,2.732,2.732,0,0,1-.492.126,3.08,3.08,0,0,1-.5.041,2.349,2.349,0,0,1-.876-.16,1.939,1.939,0,0,1-.7-.468,2.134,2.134,0,0,1-.459-.765,3.1,3.1,0,0,1-.164-1.051,2.633,2.633,0,0,1,.148-.889,2.15,2.15,0,0,1,.426-.717,1.956,1.956,0,0,1,.677-.482,2.22,2.22,0,0,1,.9-.175,2.106,2.106,0,0,1,.772.137,1.724,1.724,0,0,1,.609.4,1.825,1.825,0,0,1,.4.643,2.421,2.421,0,0,1,.146.873.562.562,0,0,1-.045.273.184.184,0,0,1-.166.069h-3a2.465,2.465,0,0,0,.117.713,1.446,1.446,0,0,0,.285.507,1.152,1.152,0,0,0,.435.3,1.524,1.524,0,0,0,.562.1,1.677,1.677,0,0,0,.506-.067,2.36,2.36,0,0,0,.369-.147c.1-.053.191-.1.262-.146a.361.361,0,0,1,.187-.068.2.2,0,0,1,.166.081ZM212.8,3.846a1.484,1.484,0,0,0-.074-.481,1.074,1.074,0,0,0-.218-.382.968.968,0,0,0-.351-.252,1.328,1.328,0,0,0-1.348.229,1.547,1.547,0,0,0-.4.886Z" fill="#3c3c3b"/>
      <rect id="Rectángulo_348123" data-name="Rectángulo 348123" width="0.882" height="6.642" transform="translate(214.555 -0.001)" fill="#3c3c3b"/>
      <rect id="Rectángulo_348124" data-name="Rectángulo 348124" width="0.882" height="6.642" transform="translate(216.706 -0.001)" fill="#3c3c3b"/>
      <path id="Trazado_717815" data-name="Trazado 717815" d="M220.789,2a2.4,2.4,0,0,1,.911.164,1.887,1.887,0,0,1,.693.472,2.118,2.118,0,0,1,.439.742,2.925,2.925,0,0,1,.152.975,2.936,2.936,0,0,1-.152.976,2.1,2.1,0,0,1-.439.743,1.919,1.919,0,0,1-.693.47,2.611,2.611,0,0,1-1.827,0,1.935,1.935,0,0,1-.7-.47,2.085,2.085,0,0,1-.444-.743,2.909,2.909,0,0,1-.155-.976,2.9,2.9,0,0,1,.155-.975,2.1,2.1,0,0,1,.444-.742,1.9,1.9,0,0,1,.7-.472A2.416,2.416,0,0,1,220.789,2m0,4.022a1.12,1.12,0,0,0,.967-.437,2.048,2.048,0,0,0,.319-1.228,2.06,2.06,0,0,0-.319-1.231,1.118,1.118,0,0,0-.967-.438,1.135,1.135,0,0,0-.979.438,2.053,2.053,0,0,0-.322,1.231,2.041,2.041,0,0,0,.322,1.228,1.137,1.137,0,0,0,.979.437" fill="#3c3c3b"/>
      <path id="Trazado_717816" data-name="Trazado 717816" d="M62.578,28.448a.353.353,0,0,1-.095.112.2.2,0,0,1-.126.036.327.327,0,0,1-.184-.074c-.069-.049-.156-.1-.259-.166a2.084,2.084,0,0,0-.371-.167,1.616,1.616,0,0,0-.518-.074,1.529,1.529,0,0,0-.5.074,1.054,1.054,0,0,0-.358.2.85.85,0,0,0-.218.3.955.955,0,0,0-.074.376.681.681,0,0,0,.133.432,1.135,1.135,0,0,0,.348.293,2.821,2.821,0,0,0,.491.212c.183.059.371.122.562.186a5.83,5.83,0,0,1,.563.223,1.964,1.964,0,0,1,.49.317,1.457,1.457,0,0,1,.349.468,1.551,1.551,0,0,1,.133.677,2.187,2.187,0,0,1-.146.8,1.9,1.9,0,0,1-.426.653,1.976,1.976,0,0,1-.686.438,2.508,2.508,0,0,1-.924.16,2.933,2.933,0,0,1-1.157-.232,2.7,2.7,0,0,1-.488-.265,2.333,2.333,0,0,1-.408-.349l.275-.459a.391.391,0,0,1,.1-.09.236.236,0,0,1,.129-.036.369.369,0,0,1,.218.1c.083.066.185.139.306.218a2.34,2.34,0,0,0,.437.219,1.725,1.725,0,0,0,.618.1,1.646,1.646,0,0,0,.531-.08,1.055,1.055,0,0,0,.394-.224.971.971,0,0,0,.245-.354,1.188,1.188,0,0,0,.086-.459.773.773,0,0,0-.131-.463,1.061,1.061,0,0,0-.346-.3,2.482,2.482,0,0,0-.491-.207l-.562-.178a5.774,5.774,0,0,1-.563-.214,1.809,1.809,0,0,1-.49-.317,1.413,1.413,0,0,1-.346-.491,1.772,1.772,0,0,1-.131-.726,1.726,1.726,0,0,1,.135-.671,1.7,1.7,0,0,1,.393-.573,1.945,1.945,0,0,1,.637-.4,2.328,2.328,0,0,1,.864-.151,2.787,2.787,0,0,1,1,.174,2.312,2.312,0,0,1,.8.5Z" fill="#3c3c3b"/>
      <path id="Trazado_717817" data-name="Trazado 717817" d="M67.685,33.205a1.743,1.743,0,0,1-.374.326,2.093,2.093,0,0,1-.45.222,2.721,2.721,0,0,1-.493.126,3.071,3.071,0,0,1-.5.041,2.343,2.343,0,0,1-.875-.16,1.943,1.943,0,0,1-.7-.468,2.133,2.133,0,0,1-.458-.765,3.08,3.08,0,0,1-.165-1.051,2.608,2.608,0,0,1,.149-.889,2.148,2.148,0,0,1,.425-.717,1.966,1.966,0,0,1,.677-.482,2.223,2.223,0,0,1,.9-.175,2.1,2.1,0,0,1,.772.137,1.719,1.719,0,0,1,.61.4,1.839,1.839,0,0,1,.4.643,2.443,2.443,0,0,1,.146.873.562.562,0,0,1-.045.273.185.185,0,0,1-.166.069h-3a2.43,2.43,0,0,0,.118.713,1.446,1.446,0,0,0,.285.507,1.148,1.148,0,0,0,.434.3,1.53,1.53,0,0,0,.563.1,1.686,1.686,0,0,0,.506-.067,2.359,2.359,0,0,0,.369-.147c.1-.053.191-.1.261-.146a.361.361,0,0,1,.187-.068.2.2,0,0,1,.167.081Zm-.725-2.143a1.511,1.511,0,0,0-.074-.481,1.105,1.105,0,0,0-.218-.382.972.972,0,0,0-.352-.252,1.327,1.327,0,0,0-1.347.229,1.541,1.541,0,0,0-.4.886Z" fill="#3c3c3b"/>
      <path id="Trazado_717818" data-name="Trazado 717818" d="M71.9,30.14a.443.443,0,0,1-.079.078.174.174,0,0,1-.11.029.26.26,0,0,1-.15-.055,2.005,2.005,0,0,0-.2-.122,1.734,1.734,0,0,0-.288-.121,1.49,1.49,0,0,0-.987.06,1.1,1.1,0,0,0-.412.333,1.544,1.544,0,0,0-.25.527,2.626,2.626,0,0,0-.086.7,2.587,2.587,0,0,0,.091.713,1.546,1.546,0,0,0,.256.526,1.075,1.075,0,0,0,.405.324,1.258,1.258,0,0,0,.531.111,1.325,1.325,0,0,0,.468-.071,1.5,1.5,0,0,0,.306-.15,2.19,2.19,0,0,0,.2-.151.256.256,0,0,1,.166-.07.2.2,0,0,1,.167.081l.252.324a1.711,1.711,0,0,1-.353.329,2.029,2.029,0,0,1-.417.22,2.358,2.358,0,0,1-.461.126,2.84,2.84,0,0,1-.489.041,2.008,2.008,0,0,1-.8-.158,1.8,1.8,0,0,1-.643-.459,2.183,2.183,0,0,1-.43-.74,2.912,2.912,0,0,1-.158-1,3.02,3.02,0,0,1,.142-.942A2.093,2.093,0,0,1,69,29.881a1.926,1.926,0,0,1,.682-.49,2.278,2.278,0,0,1,.927-.178,2.209,2.209,0,0,1,.864.157,2.1,2.1,0,0,1,.666.446Z" fill="#3c3c3b"/>
      <path id="Trazado_717819" data-name="Trazado 717819" d="M76.136,30.14a.443.443,0,0,1-.079.078.174.174,0,0,1-.11.029.26.26,0,0,1-.15-.055,2.005,2.005,0,0,0-.2-.122,1.735,1.735,0,0,0-.288-.121,1.49,1.49,0,0,0-.987.06,1.1,1.1,0,0,0-.412.333,1.544,1.544,0,0,0-.25.527,2.625,2.625,0,0,0-.086.7,2.587,2.587,0,0,0,.091.713,1.546,1.546,0,0,0,.256.526,1.075,1.075,0,0,0,.405.324,1.258,1.258,0,0,0,.531.111,1.324,1.324,0,0,0,.468-.071,1.5,1.5,0,0,0,.306-.15,2.19,2.19,0,0,0,.2-.151A.256.256,0,0,1,76,32.8a.2.2,0,0,1,.167.081l.252.324a1.711,1.711,0,0,1-.353.329,2.029,2.029,0,0,1-.417.22,2.358,2.358,0,0,1-.461.126,2.84,2.84,0,0,1-.489.041,2.008,2.008,0,0,1-.8-.158,1.8,1.8,0,0,1-.643-.459,2.183,2.183,0,0,1-.43-.74,2.912,2.912,0,0,1-.158-1,3.02,3.02,0,0,1,.142-.942,2.093,2.093,0,0,1,.418-.744,1.926,1.926,0,0,1,.682-.49,2.278,2.278,0,0,1,.927-.178,2.209,2.209,0,0,1,.864.157,2.1,2.1,0,0,1,.666.446Z" fill="#3c3c3b"/>
      <path id="Trazado_717820" data-name="Trazado 717820" d="M78.323,27.872a.563.563,0,0,1-.05.232.634.634,0,0,1-.133.193.617.617,0,0,1-.43.178.541.541,0,0,1-.229-.048.594.594,0,0,1-.191-.13.611.611,0,0,1-.131-.193.594.594,0,0,1-.047-.232.611.611,0,0,1,.047-.237.622.622,0,0,1,.131-.193.594.594,0,0,1,.191-.13.556.556,0,0,1,.229-.048.592.592,0,0,1,.235.048.58.58,0,0,1,.195.13.646.646,0,0,1,.133.193.579.579,0,0,1,.05.237m-.167,5.985h-.877V29.285h.877Z" fill="#3c3c3b"/>
      <path id="Trazado_717821" data-name="Trazado 717821" d="M81.378,29.214a2.4,2.4,0,0,1,.911.164,1.89,1.89,0,0,1,.694.472,2.1,2.1,0,0,1,.438.743,3.183,3.183,0,0,1,0,1.95,2.088,2.088,0,0,1-.438.743,1.923,1.923,0,0,1-.694.47,2.608,2.608,0,0,1-1.826,0,1.939,1.939,0,0,1-.7-.47,2.083,2.083,0,0,1-.443-.743,3.144,3.144,0,0,1,0-1.95,2.092,2.092,0,0,1,.443-.743,1.906,1.906,0,0,1,.7-.472,2.414,2.414,0,0,1,.915-.164m0,4.022a1.122,1.122,0,0,0,.968-.436,2.529,2.529,0,0,0,0-2.459,1.119,1.119,0,0,0-.968-.439,1.131,1.131,0,0,0-.978.439,2.508,2.508,0,0,0,0,2.459,1.134,1.134,0,0,0,.978.436m1.377-5.913-1.066,1.161a.426.426,0,0,1-.131.106.405.405,0,0,1-.166.029H80.86l.666-1.089a.517.517,0,0,1,.138-.155.414.414,0,0,1,.232-.052Z" fill="#3c3c3b"/>
      <path id="Trazado_717822" data-name="Trazado 717822" d="M85.374,29.92a3.226,3.226,0,0,1,.311-.288,1.928,1.928,0,0,1,.344-.223,1.849,1.849,0,0,1,.839-.195,1.635,1.635,0,0,1,.664.126,1.324,1.324,0,0,1,.479.352,1.537,1.537,0,0,1,.293.547,2.383,2.383,0,0,1,.1.707v2.912H87.52V30.946a1.154,1.154,0,0,0-.225-.762.84.84,0,0,0-.688-.273,1.309,1.309,0,0,0-.632.159,2.113,2.113,0,0,0-.547.435v3.353h-.877V29.285h.526a.216.216,0,0,1,.23.176Z" fill="#3c3c3b"/>
      <path id="Trazado_717823" data-name="Trazado 717823" d="M95.062,30.14a.443.443,0,0,1-.079.078.174.174,0,0,1-.11.029.26.26,0,0,1-.15-.055,2.007,2.007,0,0,0-.2-.122,1.735,1.735,0,0,0-.288-.121,1.49,1.49,0,0,0-.987.06,1.1,1.1,0,0,0-.412.333,1.544,1.544,0,0,0-.25.527,2.626,2.626,0,0,0-.086.7,2.586,2.586,0,0,0,.091.713,1.546,1.546,0,0,0,.256.526,1.075,1.075,0,0,0,.4.324,1.258,1.258,0,0,0,.531.111,1.324,1.324,0,0,0,.468-.071,1.5,1.5,0,0,0,.306-.15,2.189,2.189,0,0,0,.2-.151.256.256,0,0,1,.166-.07.2.2,0,0,1,.167.081l.252.324a1.711,1.711,0,0,1-.353.329,2.028,2.028,0,0,1-.417.22,2.358,2.358,0,0,1-.461.126,2.84,2.84,0,0,1-.489.041,2.008,2.008,0,0,1-.8-.158,1.8,1.8,0,0,1-.643-.459,2.183,2.183,0,0,1-.43-.74,2.912,2.912,0,0,1-.158-1,3.02,3.02,0,0,1,.142-.942,2.093,2.093,0,0,1,.418-.744,1.926,1.926,0,0,1,.682-.49,2.278,2.278,0,0,1,.927-.178,2.209,2.209,0,0,1,.864.157,2.1,2.1,0,0,1,.666.446Z" fill="#3c3c3b"/>
      <path id="Trazado_717824" data-name="Trazado 717824" d="M98.05,29.214a2.4,2.4,0,0,1,.911.164,1.878,1.878,0,0,1,.693.472,2.088,2.088,0,0,1,.439.742,3.186,3.186,0,0,1,0,1.951,2.075,2.075,0,0,1-.439.743,1.91,1.91,0,0,1-.693.47,2.611,2.611,0,0,1-1.827,0,1.944,1.944,0,0,1-.695-.47A2.083,2.083,0,0,1,96,32.543a3.147,3.147,0,0,1,0-1.951,2.1,2.1,0,0,1,.443-.742,1.911,1.911,0,0,1,.695-.472,2.423,2.423,0,0,1,.916-.164m0,4.022a1.123,1.123,0,0,0,.968-.437,2.529,2.529,0,0,0,0-2.459,1.121,1.121,0,0,0-.968-.438,1.136,1.136,0,0,0-.979.438,2.515,2.515,0,0,0,0,2.459,1.138,1.138,0,0,0,.979.437" fill="#3c3c3b"/>
      <path id="Trazado_717825" data-name="Trazado 717825" d="M102.046,29.92a3.225,3.225,0,0,1,.311-.288,1.928,1.928,0,0,1,.344-.223,1.849,1.849,0,0,1,.839-.195,1.635,1.635,0,0,1,.664.126,1.324,1.324,0,0,1,.479.352,1.536,1.536,0,0,1,.293.547,2.383,2.383,0,0,1,.1.707v2.912h-.882V30.946a1.154,1.154,0,0,0-.225-.762.84.84,0,0,0-.688-.273,1.309,1.309,0,0,0-.632.159,2.113,2.113,0,0,0-.547.435v3.353h-.877V29.285h.526a.216.216,0,0,1,.23.176Z" fill="#3c3c3b"/>
      <path id="Trazado_717826" data-name="Trazado 717826" d="M110.137,29.285l-1.854,4.572h-.792l-1.854-4.572h.725a.284.284,0,0,1,.171.05.234.234,0,0,1,.089.126l1.094,2.807c.039.118.073.234.1.349s.055.231.079.345q.036-.171.081-.342c.03-.114.066-.231.108-.352l1.107-2.807a.26.26,0,0,1,.094-.126.27.27,0,0,1,.163-.05Z" fill="#3c3c3b"/>
      <path id="Trazado_717827" data-name="Trazado 717827" d="M114.467,33.205a1.743,1.743,0,0,1-.374.326,2.093,2.093,0,0,1-.45.222,2.721,2.721,0,0,1-.493.126,3.071,3.071,0,0,1-.5.041,2.343,2.343,0,0,1-.875-.16,1.943,1.943,0,0,1-.7-.468,2.133,2.133,0,0,1-.458-.765,3.08,3.08,0,0,1-.165-1.051,2.608,2.608,0,0,1,.149-.889,2.148,2.148,0,0,1,.425-.717,1.966,1.966,0,0,1,.677-.482,2.223,2.223,0,0,1,.9-.175,2.1,2.1,0,0,1,.772.137,1.719,1.719,0,0,1,.61.4,1.839,1.839,0,0,1,.4.643,2.443,2.443,0,0,1,.146.873.562.562,0,0,1-.045.273.185.185,0,0,1-.166.069h-3a2.43,2.43,0,0,0,.118.713,1.446,1.446,0,0,0,.285.507,1.148,1.148,0,0,0,.434.3,1.529,1.529,0,0,0,.563.1,1.686,1.686,0,0,0,.506-.067,2.359,2.359,0,0,0,.369-.147c.1-.053.191-.1.261-.146a.361.361,0,0,1,.187-.068.2.2,0,0,1,.167.081Zm-.725-2.143a1.511,1.511,0,0,0-.074-.481,1.105,1.105,0,0,0-.218-.382.972.972,0,0,0-.352-.252,1.327,1.327,0,0,0-1.347.229,1.541,1.541,0,0,0-.4.886Z" fill="#3c3c3b"/>
      <path id="Trazado_717828" data-name="Trazado 717828" d="M116.306,30.163a2.094,2.094,0,0,1,.531-.707,1.135,1.135,0,0,1,.747-.256,1.172,1.172,0,0,1,.282.033.737.737,0,0,1,.231.1l-.059.661a.143.143,0,0,1-.148.122,1.138,1.138,0,0,1-.189-.025,1.44,1.44,0,0,0-.27-.025,1.078,1.078,0,0,0-.374.061.887.887,0,0,0-.29.18,1.255,1.255,0,0,0-.227.292,2.9,2.9,0,0,0-.184.394v2.862h-.878V29.285h.5a.283.283,0,0,1,.2.052.349.349,0,0,1,.074.182Z" fill="#3c3c3b"/>
      <path id="Trazado_717829" data-name="Trazado 717829" d="M122.593,29.456v.329c0,.107-.068.175-.2.2l-.491.072a1.6,1.6,0,0,1,.1.3,1.441,1.441,0,0,1,.036.326,1.365,1.365,0,0,1-.49,1.076,1.611,1.611,0,0,1-.547.3,2.232,2.232,0,0,1-.695.1,2.393,2.393,0,0,1-.581-.067.67.67,0,0,0-.2.177.325.325,0,0,0-.07.192.254.254,0,0,0,.133.234,1.013,1.013,0,0,0,.346.11,4.118,4.118,0,0,0,.491.043c.184,0,.371.015.562.029a5.217,5.217,0,0,1,.563.072,1.693,1.693,0,0,1,.49.166.95.95,0,0,1,.347.316.925.925,0,0,1,.132.519,1.22,1.22,0,0,1-.146.576,1.512,1.512,0,0,1-.425.5,2.23,2.23,0,0,1-.68.347,2.93,2.93,0,0,1-.909.13,3.5,3.5,0,0,1-.884-.1,2.075,2.075,0,0,1-.625-.265,1.162,1.162,0,0,1-.374-.387.92.92,0,0,1-.124-.459.814.814,0,0,1,.208-.565,1.351,1.351,0,0,1,.571-.362.8.8,0,0,1-.315-.246.664.664,0,0,1-.117-.411.633.633,0,0,1,.036-.205.855.855,0,0,1,.11-.211,1.048,1.048,0,0,1,.185-.2,1.425,1.425,0,0,1,.254-.171,1.439,1.439,0,0,1-.531-.5,1.4,1.4,0,0,1,.3-1.8,1.648,1.648,0,0,1,.553-.3,2.3,2.3,0,0,1,.705-.1,2,2,0,0,1,1.021.247ZM121.7,34.1a.369.369,0,0,0-.089-.259.62.62,0,0,0-.246-.153A1.643,1.643,0,0,0,121,33.6c-.138-.016-.283-.029-.434-.039s-.307-.016-.466-.024-.312-.022-.459-.043a1.3,1.3,0,0,0-.385.284.56.56,0,0,0-.151.392.518.518,0,0,0,.075.269.637.637,0,0,0,.229.219,1.356,1.356,0,0,0,.391.144,2.718,2.718,0,0,0,.565.051,2.572,2.572,0,0,0,.572-.056,1.4,1.4,0,0,0,.416-.158.756.756,0,0,0,.257-.24.57.57,0,0,0,.087-.306m-1.4-2.52a1.234,1.234,0,0,0,.412-.063.8.8,0,0,0,.3-.178.737.737,0,0,0,.181-.277,1.013,1.013,0,0,0,.06-.355.846.846,0,0,0-.241-.633,1.176,1.176,0,0,0-1.413,0,.85.85,0,0,0-.24.633.973.973,0,0,0,.061.353.741.741,0,0,0,.179.275.857.857,0,0,0,.3.18,1.186,1.186,0,0,0,.407.065" fill="#3c3c3b"/>
      <path id="Trazado_717830" data-name="Trazado 717830" d="M127.084,33.205a1.743,1.743,0,0,1-.374.326,2.093,2.093,0,0,1-.45.222,2.721,2.721,0,0,1-.493.126,3.071,3.071,0,0,1-.5.041,2.343,2.343,0,0,1-.875-.16,1.943,1.943,0,0,1-.7-.468,2.133,2.133,0,0,1-.458-.765,3.08,3.08,0,0,1-.165-1.051,2.608,2.608,0,0,1,.149-.889,2.148,2.148,0,0,1,.425-.717,1.966,1.966,0,0,1,.677-.482,2.223,2.223,0,0,1,.9-.175,2.1,2.1,0,0,1,.772.137,1.719,1.719,0,0,1,.61.4,1.839,1.839,0,0,1,.4.643,2.443,2.443,0,0,1,.146.873.562.562,0,0,1-.045.273.185.185,0,0,1-.166.069h-3a2.43,2.43,0,0,0,.118.713,1.446,1.446,0,0,0,.285.507,1.148,1.148,0,0,0,.434.3,1.53,1.53,0,0,0,.563.1,1.686,1.686,0,0,0,.506-.067,2.359,2.359,0,0,0,.369-.147c.1-.053.191-.1.261-.146a.361.361,0,0,1,.187-.068.2.2,0,0,1,.167.081Zm-.725-2.143a1.511,1.511,0,0,0-.074-.481,1.105,1.105,0,0,0-.218-.382.972.972,0,0,0-.352-.252,1.327,1.327,0,0,0-1.347.229,1.541,1.541,0,0,0-.4.886Z" fill="#3c3c3b"/>
      <path id="Trazado_717831" data-name="Trazado 717831" d="M128.919,29.92a3.225,3.225,0,0,1,.311-.288,1.928,1.928,0,0,1,.344-.223,1.849,1.849,0,0,1,.839-.195,1.635,1.635,0,0,1,.664.126,1.324,1.324,0,0,1,.479.352,1.536,1.536,0,0,1,.293.547,2.384,2.384,0,0,1,.1.707v2.912h-.882V30.946a1.154,1.154,0,0,0-.225-.762.84.84,0,0,0-.688-.273,1.309,1.309,0,0,0-.632.159,2.113,2.113,0,0,0-.547.435v3.353H128.1V29.285h.526a.216.216,0,0,1,.23.176Z" fill="#3c3c3b"/>
      <path id="Trazado_717832" data-name="Trazado 717832" d="M134.508,33.929a1.131,1.131,0,0,1-.853-.311,1.227,1.227,0,0,1-.3-.886V30h-.531a.17.17,0,0,1-.18-.188v-.356l.742-.1.2-1.363a.209.209,0,0,1,.069-.12.2.2,0,0,1,.133-.042h.446v1.534h1.3V30h-1.3v2.678a.549.549,0,0,0,.132.4.463.463,0,0,0,.34.132.594.594,0,0,0,.209-.031.79.79,0,0,0,.151-.069c.042-.026.078-.049.108-.071a.153.153,0,0,1,.081-.031.106.106,0,0,1,.07.021.252.252,0,0,1,.052.065l.26.423a1.528,1.528,0,0,1-.512.306,1.8,1.8,0,0,1-.617.108" fill="#3c3c3b"/>
      <path id="Trazado_717833" data-name="Trazado 717833" d="M140.071,33.205a1.743,1.743,0,0,1-.374.326,2.093,2.093,0,0,1-.45.222,2.721,2.721,0,0,1-.493.126,3.071,3.071,0,0,1-.5.041,2.343,2.343,0,0,1-.875-.16,1.943,1.943,0,0,1-.7-.468,2.133,2.133,0,0,1-.458-.765,3.08,3.08,0,0,1-.165-1.051,2.608,2.608,0,0,1,.149-.889,2.148,2.148,0,0,1,.425-.717,1.966,1.966,0,0,1,.677-.482,2.223,2.223,0,0,1,.9-.175,2.1,2.1,0,0,1,.772.137,1.719,1.719,0,0,1,.61.4,1.84,1.84,0,0,1,.4.643,2.443,2.443,0,0,1,.146.873.562.562,0,0,1-.045.273.185.185,0,0,1-.166.069h-3a2.43,2.43,0,0,0,.118.713,1.446,1.446,0,0,0,.285.507,1.148,1.148,0,0,0,.434.3,1.529,1.529,0,0,0,.563.1,1.686,1.686,0,0,0,.506-.067,2.359,2.359,0,0,0,.369-.147c.1-.053.191-.1.261-.146a.361.361,0,0,1,.187-.068.2.2,0,0,1,.167.081Zm-.725-2.143a1.511,1.511,0,0,0-.074-.481,1.105,1.105,0,0,0-.218-.382.972.972,0,0,0-.352-.252,1.327,1.327,0,0,0-1.347.229,1.541,1.541,0,0,0-.4.886Z" fill="#3c3c3b"/>
      <path id="Trazado_717834" data-name="Trazado 717834" d="M248.247,28.133a.351.351,0,0,1-.094.112.2.2,0,0,1-.126.036.322.322,0,0,1-.184-.074c-.07-.049-.156-.1-.259-.166a2.117,2.117,0,0,0-.371-.167,1.625,1.625,0,0,0-.518-.074,1.535,1.535,0,0,0-.5.074,1.039,1.039,0,0,0-.357.2.838.838,0,0,0-.218.3.938.938,0,0,0-.074.376.686.686,0,0,0,.132.432,1.14,1.14,0,0,0,.349.293,2.81,2.81,0,0,0,.49.212c.183.059.371.122.563.186a5.916,5.916,0,0,1,.562.223,1.97,1.97,0,0,1,.491.317,1.44,1.44,0,0,1,.348.468,1.551,1.551,0,0,1,.133.677,2.187,2.187,0,0,1-.146.8,1.9,1.9,0,0,1-.425.653,1.99,1.99,0,0,1-.687.438,2.5,2.5,0,0,1-.924.16,2.943,2.943,0,0,1-1.157-.232,2.7,2.7,0,0,1-.488-.265,2.363,2.363,0,0,1-.407-.349l.274-.459a.414.414,0,0,1,.1-.09.234.234,0,0,1,.129-.036.371.371,0,0,1,.218.1c.083.066.184.139.3.218a2.371,2.371,0,0,0,.437.219,1.735,1.735,0,0,0,.619.1,1.646,1.646,0,0,0,.531-.08,1.071,1.071,0,0,0,.394-.224.983.983,0,0,0,.245-.354,1.207,1.207,0,0,0,.086-.459.773.773,0,0,0-.131-.463,1.054,1.054,0,0,0-.347-.3,2.447,2.447,0,0,0-.49-.207c-.184-.057-.371-.117-.563-.178a5.757,5.757,0,0,1-.562-.214,1.779,1.779,0,0,1-.49-.317,1.416,1.416,0,0,1-.347-.491,1.788,1.788,0,0,1-.131-.726,1.72,1.72,0,0,1,.529-1.244,1.934,1.934,0,0,1,.637-.4,2.327,2.327,0,0,1,.863-.151,2.789,2.789,0,0,1,1,.174,2.308,2.308,0,0,1,.794.5Z" fill="#3c3c3b"/>
      <path id="Trazado_717835" data-name="Trazado 717835" d="M253.354,32.891a1.762,1.762,0,0,1-.373.326,2.1,2.1,0,0,1-.451.222,2.732,2.732,0,0,1-.492.126,3.08,3.08,0,0,1-.5.041,2.348,2.348,0,0,1-.876-.16,1.939,1.939,0,0,1-.7-.468,2.135,2.135,0,0,1-.459-.765,3.105,3.105,0,0,1-.164-1.051,2.632,2.632,0,0,1,.148-.889,2.15,2.15,0,0,1,.426-.717,1.956,1.956,0,0,1,.677-.482,2.22,2.22,0,0,1,.9-.175,2.106,2.106,0,0,1,.772.137,1.724,1.724,0,0,1,.609.4,1.825,1.825,0,0,1,.4.643,2.421,2.421,0,0,1,.146.873.562.562,0,0,1-.045.273.184.184,0,0,1-.166.069h-3a2.465,2.465,0,0,0,.117.713,1.446,1.446,0,0,0,.285.507,1.152,1.152,0,0,0,.435.3,1.524,1.524,0,0,0,.562.1,1.677,1.677,0,0,0,.506-.067,2.36,2.36,0,0,0,.369-.147c.1-.053.191-.1.262-.146a.361.361,0,0,1,.187-.068.2.2,0,0,1,.166.081Zm-.725-2.143a1.484,1.484,0,0,0-.074-.481,1.074,1.074,0,0,0-.218-.382.968.968,0,0,0-.351-.252,1.328,1.328,0,0,0-1.348.229,1.547,1.547,0,0,0-.4.886Z" fill="#3c3c3b"/>
      <path id="Trazado_717836" data-name="Trazado 717836" d="M257.571,29.826a.441.441,0,0,1-.078.078.178.178,0,0,1-.11.029.265.265,0,0,1-.152-.055,1.95,1.95,0,0,0-.2-.122,1.81,1.81,0,0,0-.288-.121,1.493,1.493,0,0,0-.988.06,1.107,1.107,0,0,0-.412.333,1.526,1.526,0,0,0-.25.527,2.872,2.872,0,0,0,0,1.411,1.566,1.566,0,0,0,.257.526,1.075,1.075,0,0,0,.4.324,1.263,1.263,0,0,0,.532.111,1.322,1.322,0,0,0,.467-.071,1.5,1.5,0,0,0,.306-.15,2.034,2.034,0,0,0,.2-.151.262.262,0,0,1,.167-.07.193.193,0,0,1,.166.081l.252.324a1.682,1.682,0,0,1-.352.329,2.048,2.048,0,0,1-.416.22,2.368,2.368,0,0,1-.462.126,2.84,2.84,0,0,1-.489.041,2,2,0,0,1-.8-.158,1.808,1.808,0,0,1-.644-.459,2.2,2.2,0,0,1-.43-.74,2.961,2.961,0,0,1-.157-1,2.991,2.991,0,0,1,.142-.942,2.08,2.08,0,0,1,.419-.744,1.913,1.913,0,0,1,.681-.49,2.278,2.278,0,0,1,.927-.178,2.209,2.209,0,0,1,.864.157,2.1,2.1,0,0,1,.666.446Z" fill="#3c3c3b"/>
      <path id="Trazado_717837" data-name="Trazado 717837" d="M261.8,29.826a.44.44,0,0,1-.078.078.178.178,0,0,1-.11.029.265.265,0,0,1-.152-.055,1.953,1.953,0,0,0-.2-.122,1.811,1.811,0,0,0-.288-.121,1.493,1.493,0,0,0-.988.06,1.107,1.107,0,0,0-.412.333,1.526,1.526,0,0,0-.25.527,2.872,2.872,0,0,0,0,1.411,1.565,1.565,0,0,0,.257.526,1.075,1.075,0,0,0,.4.324,1.263,1.263,0,0,0,.532.111,1.322,1.322,0,0,0,.467-.071,1.5,1.5,0,0,0,.306-.15,2.034,2.034,0,0,0,.2-.151.262.262,0,0,1,.167-.07.193.193,0,0,1,.166.081l.252.324a1.682,1.682,0,0,1-.352.329,2.046,2.046,0,0,1-.416.22,2.368,2.368,0,0,1-.462.126,2.84,2.84,0,0,1-.489.041,2,2,0,0,1-.8-.158,1.808,1.808,0,0,1-.644-.459,2.2,2.2,0,0,1-.43-.74,2.961,2.961,0,0,1-.157-1,2.991,2.991,0,0,1,.142-.942,2.08,2.08,0,0,1,.419-.744,1.914,1.914,0,0,1,.681-.49,2.278,2.278,0,0,1,.927-.178,2.209,2.209,0,0,1,.864.157,2.1,2.1,0,0,1,.666.446Z" fill="#3c3c3b"/>
      <path id="Trazado_717838" data-name="Trazado 717838" d="M263.993,27.557a.571.571,0,0,1-.05.233.646.646,0,0,1-.133.193.617.617,0,0,1-.43.178.556.556,0,0,1-.229-.048.61.61,0,0,1-.192-.13.616.616,0,0,1-.129-.193.6.6,0,0,1,0-.469.6.6,0,0,1,.321-.323.541.541,0,0,1,.229-.048.578.578,0,0,1,.235.048.59.59,0,0,1,.2.13.633.633,0,0,1,.133.193.571.571,0,0,1,.05.236m-.167,5.986h-.877V28.971h.877Z" fill="#3c3c3b"/>
      <path id="Trazado_717839" data-name="Trazado 717839" d="M267.048,28.9a2.4,2.4,0,0,1,.911.164,1.887,1.887,0,0,1,.693.472,2.113,2.113,0,0,1,.439.743,3.2,3.2,0,0,1,0,1.95,2.1,2.1,0,0,1-.439.743,1.919,1.919,0,0,1-.693.47,2.611,2.611,0,0,1-1.827,0,1.935,1.935,0,0,1-.695-.47,2.084,2.084,0,0,1-.444-.743,3.144,3.144,0,0,1,0-1.95,2.093,2.093,0,0,1,.444-.743,1.9,1.9,0,0,1,.695-.472,2.419,2.419,0,0,1,.916-.164m0,4.022a1.119,1.119,0,0,0,.967-.436,2.529,2.529,0,0,0,0-2.459,1.116,1.116,0,0,0-.967-.439,1.133,1.133,0,0,0-.979.439,2.508,2.508,0,0,0,0,2.459,1.136,1.136,0,0,0,.979.436m1.377-5.913-1.066,1.161a.439.439,0,0,1-.131.106.41.41,0,0,1-.167.029h-.531l.666-1.089a.515.515,0,0,1,.137-.155.417.417,0,0,1,.232-.052Z" fill="#3c3c3b"/>
      <path id="Trazado_717840" data-name="Trazado 717840" d="M271.043,29.6a3.111,3.111,0,0,1,.311-.288,1.956,1.956,0,0,1,.343-.223,1.858,1.858,0,0,1,.839-.195,1.632,1.632,0,0,1,.664.126,1.319,1.319,0,0,1,.48.352,1.534,1.534,0,0,1,.292.547,2.382,2.382,0,0,1,.1.707v2.912h-.882V30.631a1.16,1.16,0,0,0-.225-.762.84.84,0,0,0-.689-.273,1.308,1.308,0,0,0-.631.159,2.1,2.1,0,0,0-.547.435v3.353h-.878V28.97h.526a.215.215,0,0,1,.23.176Z" fill="#3c3c3b"/>
      <path id="Trazado_717841" data-name="Trazado 717841" d="M281.358,26.9v6.642h-.531a.215.215,0,0,1-.23-.176l-.076-.526a2.421,2.421,0,0,1-.664.555,1.713,1.713,0,0,1-.858.21,1.616,1.616,0,0,1-.709-.153,1.518,1.518,0,0,1-.542-.448,2.139,2.139,0,0,1-.346-.731,3.758,3.758,0,0,1-.121-1,3.221,3.221,0,0,1,.134-.945,2.26,2.26,0,0,1,.392-.756,1.853,1.853,0,0,1,.621-.5,1.823,1.823,0,0,1,.823-.181,1.542,1.542,0,0,1,1.225.517V26.9Zm-.882,3.177a1.254,1.254,0,0,0-.466-.4,1.35,1.35,0,0,0-.56-.113,1.1,1.1,0,0,0-.934.435,2.06,2.06,0,0,0-.331,1.266,3.2,3.2,0,0,0,.074.745,1.43,1.43,0,0,0,.216.5.862.862,0,0,0,.349.288,1.13,1.13,0,0,0,.468.092,1.236,1.236,0,0,0,.662-.171,2.011,2.011,0,0,0,.522-.481Z" fill="#3c3c3b"/>
      <path id="Trazado_717842" data-name="Trazado 717842" d="M283.67,27.557a.57.57,0,0,1-.049.233.685.685,0,0,1-.133.193.584.584,0,0,1-.2.13.59.59,0,0,1-.234.048.556.556,0,0,1-.229-.048.6.6,0,0,1-.192-.13.637.637,0,0,1-.13-.193.6.6,0,0,1,0-.469.625.625,0,0,1,.13-.193.6.6,0,0,1,.192-.13.541.541,0,0,1,.229-.048.573.573,0,0,1,.234.048.584.584,0,0,1,.2.13.671.671,0,0,1,.133.193.57.57,0,0,1,.049.236m-.167,5.986h-.877V28.971h.877Z" fill="#3c3c3b"/>
      <path id="Trazado_717843" data-name="Trazado 717843" d="M288.747,28.97l-1.854,4.572H286.1l-1.854-4.572h.724a.287.287,0,0,1,.172.05.239.239,0,0,1,.089.126l1.093,2.807c.039.118.073.234.1.349s.054.231.079.345c.023-.114.051-.228.081-.342s.065-.231.107-.352l1.108-2.807a.254.254,0,0,1,.094-.126.268.268,0,0,1,.163-.05Z" fill="#3c3c3b"/>
      <path id="Trazado_717844" data-name="Trazado 717844" d="M293.094,32.891a1.762,1.762,0,0,1-.373.326,2.1,2.1,0,0,1-.451.222,2.732,2.732,0,0,1-.492.126,3.08,3.08,0,0,1-.5.041,2.349,2.349,0,0,1-.876-.16,1.939,1.939,0,0,1-.7-.468,2.134,2.134,0,0,1-.459-.765,3.106,3.106,0,0,1-.164-1.051,2.633,2.633,0,0,1,.148-.889,2.15,2.15,0,0,1,.426-.717,1.957,1.957,0,0,1,.677-.482,2.22,2.22,0,0,1,.9-.175,2.106,2.106,0,0,1,.772.137,1.724,1.724,0,0,1,.609.4,1.825,1.825,0,0,1,.4.643,2.422,2.422,0,0,1,.146.873.561.561,0,0,1-.045.273.184.184,0,0,1-.166.069h-3a2.465,2.465,0,0,0,.117.713,1.446,1.446,0,0,0,.285.507,1.151,1.151,0,0,0,.435.3,1.524,1.524,0,0,0,.562.1,1.677,1.677,0,0,0,.506-.067,2.359,2.359,0,0,0,.369-.147c.1-.053.191-.1.262-.146a.361.361,0,0,1,.187-.068.2.2,0,0,1,.166.081Zm-.725-2.143a1.484,1.484,0,0,0-.074-.481,1.074,1.074,0,0,0-.218-.382.968.968,0,0,0-.351-.252,1.328,1.328,0,0,0-1.348.229,1.547,1.547,0,0,0-.4.886Z" fill="#3c3c3b"/>
      <path id="Trazado_717845" data-name="Trazado 717845" d="M294.933,29.848a2.094,2.094,0,0,1,.531-.707,1.135,1.135,0,0,1,.747-.256,1.172,1.172,0,0,1,.282.033.737.737,0,0,1,.231.1l-.059.661a.142.142,0,0,1-.148.122,1.116,1.116,0,0,1-.188-.025,1.452,1.452,0,0,0-.271-.025,1.064,1.064,0,0,0-.373.061.881.881,0,0,0-.291.18,1.255,1.255,0,0,0-.227.292,2.9,2.9,0,0,0-.184.394v2.862h-.878V28.97h.5a.283.283,0,0,1,.2.052.348.348,0,0,1,.074.182Z" fill="#3c3c3b"/>
      <path id="Trazado_717846" data-name="Trazado 717846" d="M301.22,29.141v.329c0,.107-.067.175-.2.2l-.49.072a1.6,1.6,0,0,1,.1.3,1.442,1.442,0,0,1,.035.326,1.409,1.409,0,0,1-.129.61,1.372,1.372,0,0,1-.361.466,1.61,1.61,0,0,1-.547.3,2.227,2.227,0,0,1-.7.1,2.384,2.384,0,0,1-.58-.067.675.675,0,0,0-.2.177.33.33,0,0,0-.069.192.253.253,0,0,0,.132.234,1.02,1.02,0,0,0,.347.11,4.1,4.1,0,0,0,.49.043c.185.005.372.015.563.029a5.2,5.2,0,0,1,.562.072,1.673,1.673,0,0,1,.49.166.95.95,0,0,1,.347.316.917.917,0,0,1,.133.519,1.221,1.221,0,0,1-.147.576,1.521,1.521,0,0,1-.424.495,2.241,2.241,0,0,1-.68.347,2.934,2.934,0,0,1-.909.13,3.492,3.492,0,0,1-.884-.1,2.081,2.081,0,0,1-.626-.265,1.159,1.159,0,0,1-.373-.387.92.92,0,0,1-.124-.459.817.817,0,0,1,.207-.565,1.358,1.358,0,0,1,.571-.362.8.8,0,0,1-.315-.246.67.67,0,0,1-.116-.411.607.607,0,0,1,.036-.205.817.817,0,0,1,.109-.211,1.083,1.083,0,0,1,.185-.2,1.435,1.435,0,0,1,.255-.171,1.434,1.434,0,0,1-.532-.5,1.483,1.483,0,0,1-.063-1.339,1.39,1.39,0,0,1,.362-.464,1.662,1.662,0,0,1,.554-.3,2.29,2.29,0,0,1,.7-.1,2,2,0,0,1,1.021.247Zm-.892,4.64a.364.364,0,0,0-.089-.259.613.613,0,0,0-.246-.153,1.63,1.63,0,0,0-.362-.081c-.138-.016-.282-.029-.433-.039s-.308-.016-.466-.024-.313-.022-.459-.043a1.285,1.285,0,0,0-.385.284.56.56,0,0,0-.151.392.527.527,0,0,0,.074.269.645.645,0,0,0,.229.219,1.363,1.363,0,0,0,.392.144,2.708,2.708,0,0,0,.564.051,2.575,2.575,0,0,0,.573-.056,1.394,1.394,0,0,0,.416-.158.743.743,0,0,0,.256-.24.569.569,0,0,0,.087-.306m-1.4-2.52a1.23,1.23,0,0,0,.412-.063.807.807,0,0,0,.3-.178.734.734,0,0,0,.18-.277.991.991,0,0,0,.061-.355.85.85,0,0,0-.241-.633,1.175,1.175,0,0,0-1.413,0,.85.85,0,0,0-.24.633.972.972,0,0,0,.06.353.743.743,0,0,0,.18.275.862.862,0,0,0,.3.18,1.194,1.194,0,0,0,.407.065" fill="#3c3c3b"/>
      <path id="Trazado_717847" data-name="Trazado 717847" d="M305.711,32.891a1.762,1.762,0,0,1-.373.326,2.1,2.1,0,0,1-.451.222,2.732,2.732,0,0,1-.492.126,3.079,3.079,0,0,1-.5.041,2.349,2.349,0,0,1-.876-.16,1.939,1.939,0,0,1-.7-.468,2.134,2.134,0,0,1-.459-.765,3.106,3.106,0,0,1-.164-1.051,2.633,2.633,0,0,1,.148-.889,2.15,2.15,0,0,1,.426-.717,1.956,1.956,0,0,1,.677-.482,2.22,2.22,0,0,1,.9-.175,2.106,2.106,0,0,1,.772.137,1.724,1.724,0,0,1,.609.4,1.825,1.825,0,0,1,.4.643,2.421,2.421,0,0,1,.146.873.561.561,0,0,1-.045.273.184.184,0,0,1-.166.069h-3a2.465,2.465,0,0,0,.117.713,1.446,1.446,0,0,0,.285.507,1.152,1.152,0,0,0,.435.3,1.524,1.524,0,0,0,.562.1,1.677,1.677,0,0,0,.506-.067,2.359,2.359,0,0,0,.369-.147c.1-.053.191-.1.262-.146a.361.361,0,0,1,.187-.068.2.2,0,0,1,.166.081Zm-.725-2.143a1.483,1.483,0,0,0-.074-.481,1.074,1.074,0,0,0-.218-.382.968.968,0,0,0-.351-.252,1.328,1.328,0,0,0-1.348.229,1.547,1.547,0,0,0-.4.886Z" fill="#3c3c3b"/>
      <path id="Trazado_717848" data-name="Trazado 717848" d="M307.547,29.6a3.111,3.111,0,0,1,.311-.288,1.956,1.956,0,0,1,.343-.223,1.858,1.858,0,0,1,.839-.195,1.632,1.632,0,0,1,.664.126,1.319,1.319,0,0,1,.48.352,1.535,1.535,0,0,1,.292.547,2.383,2.383,0,0,1,.1.707v2.912h-.882V30.631a1.16,1.16,0,0,0-.225-.762.84.84,0,0,0-.689-.273,1.308,1.308,0,0,0-.631.159,2.1,2.1,0,0,0-.547.435v3.353h-.878V28.97h.526a.215.215,0,0,1,.23.176Z" fill="#3c3c3b"/>
      <path id="Trazado_717849" data-name="Trazado 717849" d="M313.136,33.615a1.135,1.135,0,0,1-.854-.311,1.227,1.227,0,0,1-.3-.886V29.681h-.532a.168.168,0,0,1-.179-.188v-.356l.742-.1.2-1.363a.214.214,0,0,1,.069-.12.2.2,0,0,1,.133-.042h.447v1.534h1.3v.638h-1.3v2.678a.553.553,0,0,0,.131.4.464.464,0,0,0,.34.132.6.6,0,0,0,.21-.031.79.79,0,0,0,.151-.069c.042-.026.078-.049.108-.071a.15.15,0,0,1,.081-.031.1.1,0,0,1,.069.021.216.216,0,0,1,.052.065l.261.423a1.533,1.533,0,0,1-.513.306,1.788,1.788,0,0,1-.616.108" fill="#3c3c3b"/>
      <path id="Trazado_717850" data-name="Trazado 717850" d="M318.688,32.891a1.762,1.762,0,0,1-.373.326,2.1,2.1,0,0,1-.451.222,2.733,2.733,0,0,1-.492.126,3.08,3.08,0,0,1-.5.041,2.349,2.349,0,0,1-.876-.16,1.939,1.939,0,0,1-.7-.468,2.134,2.134,0,0,1-.459-.765,3.1,3.1,0,0,1-.164-1.051,2.633,2.633,0,0,1,.148-.889,2.15,2.15,0,0,1,.426-.717,1.957,1.957,0,0,1,.677-.482,2.22,2.22,0,0,1,.9-.175,2.106,2.106,0,0,1,.772.137,1.724,1.724,0,0,1,.609.4,1.825,1.825,0,0,1,.4.643,2.422,2.422,0,0,1,.146.873.561.561,0,0,1-.045.273.184.184,0,0,1-.166.069h-3a2.465,2.465,0,0,0,.117.713,1.446,1.446,0,0,0,.285.507,1.152,1.152,0,0,0,.435.3,1.524,1.524,0,0,0,.562.1,1.677,1.677,0,0,0,.506-.067,2.361,2.361,0,0,0,.369-.147c.1-.053.191-.1.262-.146a.361.361,0,0,1,.187-.068.2.2,0,0,1,.166.081Zm-.725-2.143a1.484,1.484,0,0,0-.074-.481,1.074,1.074,0,0,0-.218-.382.968.968,0,0,0-.351-.252,1.328,1.328,0,0,0-1.348.229,1.547,1.547,0,0,0-.4.886Z" fill="#3c3c3b"/>
      <path id="Trazado_717851" data-name="Trazado 717851" d="M92.048,84.906v6.462H91.09V88.457H87.719v2.911h-.963V84.906h.963v2.853H91.09V84.906Z" fill="#3c3c3b"/>
      <path id="Trazado_717852" data-name="Trazado 717852" d="M93.222,87.436a2.508,2.508,0,0,1,1.813-.725,1.748,1.748,0,0,1,.693.128,1.445,1.445,0,0,1,.509.357,1.518,1.518,0,0,1,.312.55,2.221,2.221,0,0,1,.106.706v2.916h-.391a.368.368,0,0,1-.2-.043.291.291,0,0,1-.108-.159l-.1-.4a3.851,3.851,0,0,1-.346.285,2.246,2.246,0,0,1-.358.212,1.919,1.919,0,0,1-.4.133,2.323,2.323,0,0,1-.468.045,1.691,1.691,0,0,1-.506-.075,1.141,1.141,0,0,1-.412-.227,1.083,1.083,0,0,1-.277-.383,1.3,1.3,0,0,1-.1-.535,1.019,1.019,0,0,1,.146-.52,1.314,1.314,0,0,1,.477-.448,3.1,3.1,0,0,1,.864-.324,6.457,6.457,0,0,1,1.312-.144v-.333a1.166,1.166,0,0,0-.221-.774.807.807,0,0,0-.648-.256,1.391,1.391,0,0,0-.484.072,1.9,1.9,0,0,0-.337.159c-.1.059-.177.113-.247.161a.393.393,0,0,1-.219.071.247.247,0,0,1-.155-.049.421.421,0,0,1-.106-.117Zm2.574,1.9a6.783,6.783,0,0,0-.909.083,2.576,2.576,0,0,0-.608.173.82.82,0,0,0-.337.255.55.55,0,0,0-.1.326.7.7,0,0,0,.057.295.553.553,0,0,0,.152.2.614.614,0,0,0,.228.115,1.06,1.06,0,0,0,.283.035,1.535,1.535,0,0,0,.371-.04,1.449,1.449,0,0,0,.318-.115,1.511,1.511,0,0,0,.283-.182,2.432,2.432,0,0,0,.266-.248Z" fill="#3c3c3b"/>
      <path id="Trazado_717853" data-name="Trazado 717853" d="M264.254,75.725v6.462H263.3V79.276h-3.37v2.911h-.963V75.725h.963v2.853h3.37V75.725Z" fill="#3c3c3b"/>
      <path id="Trazado_717854" data-name="Trazado 717854" d="M266.486,78.245a2.344,2.344,0,0,1,.644-.508,1.7,1.7,0,0,1,.818-.194,1.639,1.639,0,0,1,.723.156,1.521,1.521,0,0,1,.546.445,2.1,2.1,0,0,1,.347.7,3.329,3.329,0,0,1,.121.936,3.531,3.531,0,0,1-.136,1.008,2.367,2.367,0,0,1-.392.779,1.754,1.754,0,0,1-.619.5,1.973,1.973,0,0,1-1.224.136,1.462,1.462,0,0,1-.34-.125,1.366,1.366,0,0,1-.286-.2,2.1,2.1,0,0,1-.247-.265L266.4,82a.206.206,0,0,1-.225.185h-.567V75.545h.878Zm0,2.817a1.236,1.236,0,0,0,.468.4,1.332,1.332,0,0,0,.549.113,1.114,1.114,0,0,0,.943-.437,2.174,2.174,0,0,0,.33-1.318,1.97,1.97,0,0,0-.292-1.195.986.986,0,0,0-.828-.38,1.211,1.211,0,0,0-.655.171,1.933,1.933,0,0,0-.515.486Z" fill="#3c3c3b"/>
      <path id="Trazado_717855" data-name="Trazado 717855" d="M265.956,191.493v6.462H265v-2.911h-3.37v2.911h-.963v-6.462h.963v2.853H265v-2.853Z" fill="#3c3c3b"/>
      <path id="Trazado_717856" data-name="Trazado 717856" d="M268.187,194.013a2.343,2.343,0,0,1,.644-.508,1.7,1.7,0,0,1,.818-.194,1.639,1.639,0,0,1,.723.156,1.521,1.521,0,0,1,.546.445,2.1,2.1,0,0,1,.347.7,3.329,3.329,0,0,1,.121.936,3.531,3.531,0,0,1-.136,1.008,2.367,2.367,0,0,1-.392.779,1.754,1.754,0,0,1-.619.5,1.973,1.973,0,0,1-1.224.136,1.462,1.462,0,0,1-.34-.125,1.365,1.365,0,0,1-.286-.2,2.1,2.1,0,0,1-.247-.265l-.041.382a.206.206,0,0,1-.225.185h-.567v-6.642h.878Zm0,2.817a1.236,1.236,0,0,0,.468.4,1.332,1.332,0,0,0,.549.113,1.114,1.114,0,0,0,.943-.437,2.174,2.174,0,0,0,.33-1.318,1.97,1.97,0,0,0-.292-1.195.986.986,0,0,0-.828-.38,1.212,1.212,0,0,0-.655.171,1.933,1.933,0,0,0-.515.486Z" fill="#3c3c3b"/>
      <path id="Trazado_717857" data-name="Trazado 717857" d="M96.584,189.54V196h-.958v-2.911H92.255V196h-.963V189.54h.963v2.853h3.371V189.54Z" fill="#3c3c3b"/>
      <path id="Trazado_717858" data-name="Trazado 717858" d="M97.758,192.069a2.508,2.508,0,0,1,1.813-.725,1.748,1.748,0,0,1,.693.128,1.445,1.445,0,0,1,.509.357,1.518,1.518,0,0,1,.312.55,2.221,2.221,0,0,1,.106.706V196H100.8a.368.368,0,0,1-.2-.043.291.291,0,0,1-.108-.159l-.1-.4a3.853,3.853,0,0,1-.346.285,2.246,2.246,0,0,1-.358.212,1.919,1.919,0,0,1-.4.133,2.324,2.324,0,0,1-.468.045,1.691,1.691,0,0,1-.506-.075,1.141,1.141,0,0,1-.412-.227,1.083,1.083,0,0,1-.277-.383,1.3,1.3,0,0,1-.1-.535,1.019,1.019,0,0,1,.146-.52,1.315,1.315,0,0,1,.477-.448,3.1,3.1,0,0,1,.864-.324,6.457,6.457,0,0,1,1.312-.144v-.333a1.166,1.166,0,0,0-.221-.774.807.807,0,0,0-.648-.256,1.391,1.391,0,0,0-.484.072,1.9,1.9,0,0,0-.337.159c-.1.059-.177.113-.247.161a.393.393,0,0,1-.219.071.247.247,0,0,1-.155-.049.421.421,0,0,1-.106-.117Zm2.574,1.9a6.781,6.781,0,0,0-.909.083,2.576,2.576,0,0,0-.608.173.82.82,0,0,0-.337.255.55.55,0,0,0-.1.326.7.7,0,0,0,.057.295.553.553,0,0,0,.152.2.614.614,0,0,0,.228.115,1.06,1.06,0,0,0,.283.035,1.535,1.535,0,0,0,.371-.04,1.448,1.448,0,0,0,.318-.115,1.511,1.511,0,0,0,.283-.182,2.434,2.434,0,0,0,.266-.248Z" fill="#3c3c3b"/>
      <path id="Trazado_717859" data-name="Trazado 717859" d="M19.831,191.452v2.165h2.592v.778H19.831v2.741h-.963v-6.462h4.005v.778Z" fill="#3c3c3b"/>
      <rect id="Rectángulo_348125" data-name="Rectángulo 348125" width="0.882" height="6.642" transform="translate(23.724 190.493)" fill="#3c3c3b"/>
      <path id="Trazado_717860" data-name="Trazado 717860" d="M29.66,192.563v4.572h-.526a.224.224,0,0,1-.234-.176l-.063-.458a3.1,3.1,0,0,1-.311.288,1.921,1.921,0,0,1-.738.367,1.86,1.86,0,0,1-.445.052,1.632,1.632,0,0,1-.664-.126,1.312,1.312,0,0,1-.479-.354,1.528,1.528,0,0,1-.293-.547,2.376,2.376,0,0,1-.1-.706v-2.912h.882v2.912a1.167,1.167,0,0,0,.225.763.843.843,0,0,0,.688.271,1.294,1.294,0,0,0,.631-.159,2.155,2.155,0,0,0,.549-.438v-3.349Z" fill="#3c3c3b"/>
      <path id="Trazado_717861" data-name="Trazado 717861" d="M31.806,192.563v4.86a1.8,1.8,0,0,1-.074.529,1.145,1.145,0,0,1-.234.427,1.079,1.079,0,0,1-.414.287,1.65,1.65,0,0,1-.614.1,1.619,1.619,0,0,1-.272-.022,1.952,1.952,0,0,1-.25-.064l.036-.476c.012-.058.038-.089.078-.1a1.938,1.938,0,0,1,.232-.009.643.643,0,0,0,.491-.158.763.763,0,0,0,.144-.522v-4.86Zm.167-1.413a.563.563,0,0,1-.05.232.627.627,0,0,1-.135.194.659.659,0,0,1-.195.13.59.59,0,0,1-.237.048.556.556,0,0,1-.229-.048.645.645,0,0,1-.192-.13.63.63,0,0,1-.13-.194.594.594,0,0,1-.047-.232.6.6,0,0,1,.047-.236.629.629,0,0,1,.13-.194.645.645,0,0,1,.192-.13.556.556,0,0,1,.229-.047.59.59,0,0,1,.237.047.659.659,0,0,1,.195.13.627.627,0,0,1,.135.194.571.571,0,0,1,.05.236" fill="#3c3c3b"/>
      <path id="Trazado_717862" data-name="Trazado 717862" d="M35.028,192.492a2.4,2.4,0,0,1,.911.164,1.878,1.878,0,0,1,.693.472,2.088,2.088,0,0,1,.439.742,3.186,3.186,0,0,1,0,1.951,2.075,2.075,0,0,1-.439.743,1.91,1.91,0,0,1-.693.47,2.611,2.611,0,0,1-1.827,0,1.944,1.944,0,0,1-.695-.47,2.083,2.083,0,0,1-.443-.743,3.147,3.147,0,0,1,0-1.951,2.1,2.1,0,0,1,.443-.742,1.911,1.911,0,0,1,.695-.472,2.423,2.423,0,0,1,.916-.164m0,4.022a1.123,1.123,0,0,0,.968-.437,2.529,2.529,0,0,0,0-2.459,1.121,1.121,0,0,0-.968-.438,1.136,1.136,0,0,0-.979.438,2.515,2.515,0,0,0,0,2.459,1.138,1.138,0,0,0,.979.437" fill="#3c3c3b"/>
      <path id="Trazado_717863" data-name="Trazado 717863" d="M6.116,10.872H5.378a.318.318,0,0,1-.207-.063.344.344,0,0,1-.117-.161l-.572-1.5H1.634l-.572,1.5a.373.373,0,0,1-.117.155.319.319,0,0,1-.207.069H0L2.574,4.41h.967ZM4.221,8.465,3.263,5.958a5.608,5.608,0,0,1-.208-.647c-.033.129-.066.249-.1.359s-.068.21-.1.3L1.9,8.465Z" fill="#3c3c3b"/>
      <path id="Trazado_717864" data-name="Trazado 717864" d="M361.868,20.789h-.738a.321.321,0,0,1-.207-.063.358.358,0,0,1-.117-.161l-.571-1.5h-2.849l-.571,1.5a.391.391,0,0,1-.117.155.319.319,0,0,1-.207.069h-.739l2.575-6.462h.967Zm-1.894-2.407-.959-2.507a5.627,5.627,0,0,1-.207-.647c-.033.129-.066.249-.1.359s-.068.21-.1.3l-.954,2.5Z" fill="#3c3c3b"/>
      <path id="Trazado_717865" data-name="Trazado 717865" d="M38.4,29.357a3.592,3.592,0,0,1-.232,1.319A2.885,2.885,0,0,1,36.5,32.354a3.524,3.524,0,0,1-1.31.234h-2.43V26.127h2.43a3.523,3.523,0,0,1,1.31.234,2.88,2.88,0,0,1,1.667,1.681,3.589,3.589,0,0,1,.232,1.315m-.981,0a3.15,3.15,0,0,0-.158-1.032,2.2,2.2,0,0,0-.447-.775,1.919,1.919,0,0,0-.7-.483,2.441,2.441,0,0,0-.921-.167H33.719v4.914h1.467a2.441,2.441,0,0,0,.921-.166,1.919,1.919,0,0,0,.7-.483,2.2,2.2,0,0,0,.447-.773,3.148,3.148,0,0,0,.158-1.035" fill="#3c3c3b"/>
      <path id="Trazado_717866" data-name="Trazado 717866" d="M38.4,29.357a3.592,3.592,0,0,1-.232,1.319A2.885,2.885,0,0,1,36.5,32.354a3.524,3.524,0,0,1-1.31.234h-2.43V26.127h2.43a3.523,3.523,0,0,1,1.31.234,2.88,2.88,0,0,1,1.667,1.681,3.589,3.589,0,0,1,.232,1.315m-.981,0a3.15,3.15,0,0,0-.158-1.032,2.2,2.2,0,0,0-.447-.775,1.919,1.919,0,0,0-.7-.483,2.441,2.441,0,0,0-.921-.167H33.719v4.914h1.467a2.441,2.441,0,0,0,.921-.166,1.919,1.919,0,0,0,.7-.483,2.2,2.2,0,0,0,.447-.773,3.148,3.148,0,0,0,.158-1.035" fill="#3c3c3b"/>
      <path id="Trazado_717867" data-name="Trazado 717867" d="M343.683,32.049a3.613,3.613,0,0,1-.231,1.319,2.878,2.878,0,0,1-1.667,1.678,3.527,3.527,0,0,1-1.31.234h-2.429V28.819h2.429a3.527,3.527,0,0,1,1.31.234,2.872,2.872,0,0,1,1.667,1.681,3.61,3.61,0,0,1,.231,1.315m-.98,0a3.178,3.178,0,0,0-.157-1.032,2.213,2.213,0,0,0-.448-.775,1.914,1.914,0,0,0-.7-.483,2.432,2.432,0,0,0-.92-.167h-1.466v4.914h1.466a2.432,2.432,0,0,0,.92-.166,1.914,1.914,0,0,0,.7-.483,2.212,2.212,0,0,0,.448-.773,3.175,3.175,0,0,0,.157-1.035" fill="#3c3c3b"/>
      <path id="Trazado_717868" data-name="Trazado 717868" d="M227.556,41.192l-1.471,4.572h-.7c-.084,0-.141-.055-.171-.166l-.963-2.979c-.024-.075-.046-.15-.063-.223s-.034-.147-.05-.223a3.085,3.085,0,0,1-.112.455l-.977,2.97a.192.192,0,0,1-.193.166h-.666l-1.476-4.572h.693a.29.29,0,0,1,.173.05.229.229,0,0,1,.092.126l.824,2.807q.04.173.072.333c.021.109.041.217.058.325.028-.108.057-.216.088-.325s.064-.218.1-.333l.913-2.825a.234.234,0,0,1,.086-.124.251.251,0,0,1,.153-.048h.382a.273.273,0,0,1,.164.048.222.222,0,0,1,.088.124l.892,2.825c.032.115.064.227.093.336s.058.22.081.33c.019-.107.04-.216.064-.326s.051-.222.081-.34l.837-2.807a.234.234,0,0,1,.092-.126.271.271,0,0,1,.16-.05Z" fill="#3c3c3b"/>
    </g>
  </g>
</svg>
