<svg xmlns="http://www.w3.org/2000/svg" width="117.028" height="117.027" viewBox="0 0 117.028 117.027">
  <g id="Grupo_1009231" data-name="Grupo 1009231" transform="translate(-331 -13346)">
    <g id="Trazado_718059" data-name="Trazado 718059" transform="translate(331 13346)" fill="#fff">
      <path d="M 58.513916015625 115.52783203125 C 50.8164176940918 115.52783203125 43.34998321533203 114.0205993652344 36.32198333740234 111.0480194091797 C 32.94400024414062 109.6192474365234 29.68581581115723 107.8507461547852 26.63793182373047 105.7916488647461 C 23.61863327026367 103.7518310546875 20.77935028076172 101.4092178344727 18.19898223876953 98.82884979248047 C 15.61861610412598 96.24848175048828 13.27599906921387 93.40920257568359 11.23618221282959 90.38990020751953 C 9.177083015441895 87.34201812744141 7.40858268737793 84.08383178710938 5.97981595993042 80.70584869384766 C 3.007232666015625 73.67784881591797 1.499999403953552 66.21141815185547 1.499999403953552 58.513916015625 C 1.499999403953552 50.8164176940918 3.007232666015625 43.34998321533203 5.97981595993042 36.32198333740234 C 7.40858268737793 32.94400024414062 9.177083015441895 29.68581581115723 11.23618221282959 26.63793182373047 C 13.27599906921387 23.61863327026367 15.61861610412598 20.77935028076172 18.19898223876953 18.19898223876953 C 20.77935028076172 15.61861610412598 23.61863327026367 13.27599906921387 26.63793182373047 11.23618221282959 C 29.68581581115723 9.177083015441895 32.94400024414062 7.40858268737793 36.32198333740234 5.97981595993042 C 43.34998321533203 3.007232666015625 50.8164176940918 1.499999403953552 58.513916015625 1.499999403953552 C 66.21141815185547 1.499999403953552 73.67784881591797 3.007232666015625 80.70584869384766 5.97981595993042 C 84.08383178710938 7.40858268737793 87.34201812744141 9.177083015441895 90.38990020751953 11.23618221282959 C 93.40920257568359 13.27599906921387 96.24848175048828 15.61861610412598 98.82884979248047 18.19898223876953 C 101.4092178344727 20.77935028076172 103.7518310546875 23.61863327026367 105.7916488647461 26.63793182373047 C 107.8507461547852 29.68581581115723 109.6192474365234 32.94400024414062 111.0480194091797 36.32198333740234 C 114.0205993652344 43.34998321533203 115.52783203125 50.8164176940918 115.52783203125 58.513916015625 C 115.52783203125 66.21141815185547 114.0205993652344 73.67784881591797 111.0480194091797 80.70584869384766 C 109.6192474365234 84.08383178710938 107.8507461547852 87.34201812744141 105.7916488647461 90.38990020751953 C 103.7518310546875 93.40920257568359 101.4092178344727 96.24848175048828 98.82884979248047 98.82884979248047 C 96.24848175048828 101.4092178344727 93.40920257568359 103.7518310546875 90.38990020751953 105.7916488647461 C 87.34201812744141 107.8507461547852 84.08383178710938 109.6192474365234 80.70584869384766 111.0480194091797 C 73.67784881591797 114.0205993652344 66.21141815185547 115.52783203125 58.513916015625 115.52783203125 Z" stroke="none"/>
      <path d="M 58.513916015625 2.999992370605469 C 51.01826477050781 2.999992370605469 43.74840545654297 4.467353820800781 36.90631866455078 7.361312866210938 C 33.61753082275391 8.752349853515625 30.44525909423828 10.47422790527344 27.47764587402344 12.47911834716797 C 24.53744506835938 14.46547698974609 21.77251434326172 16.74677276611328 19.2596435546875 19.2596435546875 C 16.74677276611328 21.77251434326172 14.46547698974609 24.53744506835938 12.47911834716797 27.47764587402344 C 10.47422790527344 30.44525909423828 8.752349853515625 33.61753082275391 7.361312866210938 36.90631866455078 C 4.467353820800781 43.74840545654297 2.999992370605469 51.01826477050781 2.999992370605469 58.513916015625 C 2.999992370605469 66.00956726074219 4.467353820800781 73.27940368652344 7.361312866210938 80.12152099609375 C 8.752349853515625 83.41029357910156 10.47422790527344 86.58255004882812 12.47911834716797 89.55018615722656 C 14.46547698974609 92.49038696289062 16.74677276611328 95.25531768798828 19.2596435546875 97.76817321777344 C 21.77251434326172 100.2810440063477 24.53744506835938 102.5623321533203 27.47764587402344 104.548698425293 C 30.44525909423828 106.5535888671875 33.61753082275391 108.2754592895508 36.90631866455078 109.6664962768555 C 43.74840545654297 112.5604629516602 51.01826477050781 114.0278244018555 58.513916015625 114.0278244018555 C 66.00956726074219 114.0278244018555 73.27942657470703 112.5604629516602 80.12152099609375 109.6664962768555 C 83.41029357910156 108.2754592895508 86.58255004882812 106.5535888671875 89.55018615722656 104.548698425293 C 92.49038696289062 102.5623321533203 95.25531768798828 100.2810440063477 97.7681884765625 97.7681884765625 C 100.2810440063477 95.25531768798828 102.5623321533203 92.49038696289062 104.548698425293 89.55018615722656 C 106.5535888671875 86.58255004882812 108.2754592895508 83.41029357910156 109.6664962768555 80.12152099609375 C 112.5604629516602 73.27942657470703 114.0278244018555 66.00956726074219 114.0278244018555 58.513916015625 C 114.0278244018555 51.01826477050781 112.5604629516602 43.74840545654297 109.6664962768555 36.90631866455078 C 108.2754592895508 33.61753082275391 106.5535888671875 30.44525909423828 104.548698425293 27.47764587402344 C 102.5623321533203 24.53744506835938 100.2810440063477 21.77251434326172 97.76817321777344 19.2596435546875 C 95.25531768798828 16.74677276611328 92.49038696289062 14.46547698974609 89.55018615722656 12.47911834716797 C 86.58255004882812 10.47422790527344 83.41029357910156 8.752349853515625 80.12152099609375 7.361312866210938 C 73.27940368652344 4.467353820800781 66.00956726074219 2.999992370605469 58.513916015625 2.999992370605469 M 58.513916015625 -7.62939453125e-06 C 90.83026123046875 -7.62939453125e-06 117.0278244018555 26.19757080078125 117.0278244018555 58.513916015625 C 117.0278244018555 90.83026123046875 90.83026123046875 117.0278244018555 58.513916015625 117.0278244018555 C 26.19757080078125 117.0278244018555 -7.62939453125e-06 90.83026123046875 -7.62939453125e-06 58.513916015625 C -7.62939453125e-06 26.19757080078125 26.19757080078125 -7.62939453125e-06 58.513916015625 -7.62939453125e-06 Z" stroke="none" fill="#4db1f0"/>
    </g>
    <g id="motor-electrico" transform="translate(352.938 13362.713)">
      <g id="Grupo_1009153" data-name="Grupo 1009153" transform="translate(17.638 5.382)">
        <path id="Trazado_718073" data-name="Trazado 718073" d="M17.81,5.39h7.183V33.47H17.81Z" transform="translate(-17.81 -5.39)" fill="#bcdcdd"/>
      </g>
      <g id="Grupo_1009154" data-name="Grupo 1009154" transform="translate(17.273 5.007)">
        <path id="Trazado_718074" data-name="Trazado 718074" d="M25,33.83H17.815a.375.375,0,0,1-.375-.375V5.385a.375.375,0,0,1,.375-.375H25a.375.375,0,0,1,.375.375v28.08A.379.379,0,0,1,25,33.83Zm-6.818-.74h6.443V5.75H18.18Z" transform="translate(-17.44 -5.01)"/>
      </g>
      <g id="Grupo_1009155" data-name="Grupo 1009155" transform="translate(13.523 55.385)">
        <path id="Trazado_718075" data-name="Trazado 718075" d="M27.315,56.07l1.746,5.219H13.64l1.746-5.219Z" transform="translate(-13.64 -56.07)" fill="#ea7513"/>
      </g>
      <g id="Grupo_1009156" data-name="Grupo 1009156" transform="translate(13.158 55.011)">
        <path id="Trazado_718076" data-name="Trazado 718076" d="M29.056,61.659H13.635a.361.361,0,0,1-.3-.158.368.368,0,0,1-.049-.335l1.746-5.219a.373.373,0,0,1,.355-.257H27.31a.379.379,0,0,1,.355.257l1.746,5.219a.373.373,0,0,1-.049.335A.393.393,0,0,1,29.056,61.659Zm-14.908-.74h14.4l-1.5-4.479h-11.4Z" transform="translate(-13.27 -55.69)"/>
      </g>
      <g id="Grupo_1009157" data-name="Grupo 1009157" transform="translate(32.25 43.181)">
        <path id="Trazado_718077" data-name="Trazado 718077" d="M32.62,43.7H44.114v7.2H32.62Z" transform="translate(-32.62 -43.7)" fill="#bcdcdd"/>
      </g>
      <g id="Grupo_1009158" data-name="Grupo 1009158" transform="translate(31.875 42.816)">
        <path id="Trazado_718078" data-name="Trazado 718078" d="M44.474,51.272H32.24V43.33H44.474Zm-11.494-.74H43.734V44.07H32.98Z" transform="translate(-32.24 -43.33)"/>
      </g>
      <g id="Grupo_1009159" data-name="Grupo 1009159" transform="translate(53.986 37.044)">
        <path id="Trazado_718079" data-name="Trazado 718079" d="M68.522,41.456V52.98a3.977,3.977,0,0,1-3.976,3.976H55.212a.562.562,0,0,1-.562-.562V38.042a.562.562,0,0,1,.562-.562h9.334A3.977,3.977,0,0,1,68.522,41.456Z" transform="translate(-54.65 -37.48)" fill="#f93"/>
      </g>
      <g id="Grupo_1009160" data-name="Grupo 1009160" transform="translate(53.611 36.669)">
        <path id="Trazado_718080" data-name="Trazado 718080" d="M64.541,57.326H55.207a.937.937,0,0,1-.937-.937V38.037a.937.937,0,0,1,.937-.937h9.334a4.358,4.358,0,0,1,4.351,4.351V52.975a4.358,4.358,0,0,1-4.351,4.351ZM55.217,37.85a.2.2,0,0,0-.2.2V56.4a.2.2,0,0,0,.2.2h9.334a3.613,3.613,0,0,0,3.611-3.611V41.451a3.613,3.613,0,0,0-3.611-3.611H55.217Z" transform="translate(-54.27 -37.1)"/>
      </g>
      <g id="Grupo_1009161" data-name="Grupo 1009161" transform="translate(58.347 39.925)">
        <path id="Trazado_718081" data-name="Trazado 718081" d="M59.07,40.4h5.545v2.93H59.07Z" transform="translate(-59.07 -40.4)"/>
      </g>
      <g id="Grupo_1009162" data-name="Grupo 1009162" transform="translate(39.344 38.504)">
        <path id="Trazado_718082" data-name="Trazado 718082" d="M54.452,38.96V55.526H41.921a2.114,2.114,0,0,1-2.111-2.111V41.071a2.114,2.114,0,0,1,2.111-2.111Z" transform="translate(-39.81 -38.96)" fill="#f7841a"/>
      </g>
      <g id="Grupo_1009163" data-name="Grupo 1009163" transform="translate(38.979 38.139)">
        <path id="Trazado_718083" data-name="Trazado 718083" d="M54.447,55.886H41.916a2.478,2.478,0,0,1-2.476-2.476V41.066a2.478,2.478,0,0,1,2.476-2.476h12.53a.375.375,0,0,1,.375.375V55.531A.371.371,0,0,1,54.447,55.886ZM41.926,39.33a1.739,1.739,0,0,0-1.736,1.736V53.409a1.739,1.739,0,0,0,1.736,1.736H54.082V39.33Z" transform="translate(-39.44 -38.59)"/>
      </g>
      <g id="Grupo_1009164" data-name="Grupo 1009164" transform="translate(40.706 52.918)">
        <path id="Trazado_718084" data-name="Trazado 718084" d="M53.128,53.935a.378.378,0,0,1-.365.365H41.555a.378.378,0,0,1-.365-.365.371.371,0,0,1,.365-.365H52.763A.364.364,0,0,1,53.128,53.935Z" transform="translate(-41.19 -53.57)"/>
      </g>
      <g id="Grupo_1009165" data-name="Grupo 1009165" transform="translate(40.706 50.975)">
        <path id="Trazado_718085" data-name="Trazado 718085" d="M53.128,51.965a.378.378,0,0,1-.365.365H41.555a.378.378,0,0,1-.365-.365.371.371,0,0,1,.365-.365H52.763A.364.364,0,0,1,53.128,51.965Z" transform="translate(-41.19 -51.6)"/>
      </g>
      <g id="Grupo_1009166" data-name="Grupo 1009166" transform="translate(40.706 49.031)">
        <path id="Trazado_718086" data-name="Trazado 718086" d="M53.128,50a.378.378,0,0,1-.365.365H41.555A.378.378,0,0,1,41.19,50a.371.371,0,0,1,.365-.365H52.763A.364.364,0,0,1,53.128,50Z" transform="translate(-41.19 -49.63)"/>
      </g>
      <g id="Grupo_1009167" data-name="Grupo 1009167" transform="translate(40.706 47.078)">
        <path id="Trazado_718087" data-name="Trazado 718087" d="M53.128,48.015a.378.378,0,0,1-.365.365H41.555a.378.378,0,0,1-.365-.365.371.371,0,0,1,.365-.365H52.763A.371.371,0,0,1,53.128,48.015Z" transform="translate(-41.19 -47.65)"/>
      </g>
      <g id="Grupo_1009168" data-name="Grupo 1009168" transform="translate(40.706 45.134)">
        <path id="Trazado_718088" data-name="Trazado 718088" d="M53.128,46.045a.378.378,0,0,1-.365.365H41.555a.378.378,0,0,1-.365-.365.371.371,0,0,1,.365-.365H52.763A.371.371,0,0,1,53.128,46.045Z" transform="translate(-41.19 -45.68)"/>
      </g>
      <g id="Grupo_1009169" data-name="Grupo 1009169" transform="translate(40.706 43.191)">
        <path id="Trazado_718089" data-name="Trazado 718089" d="M53.128,44.075a.378.378,0,0,1-.365.365H41.555a.378.378,0,0,1-.365-.365.371.371,0,0,1,.365-.365H52.763A.371.371,0,0,1,53.128,44.075Z" transform="translate(-41.19 -43.71)"/>
      </g>
      <g id="Grupo_1009170" data-name="Grupo 1009170" transform="translate(40.706 41.247)">
        <path id="Trazado_718090" data-name="Trazado 718090" d="M53.128,42.105a.378.378,0,0,1-.365.365H41.555a.378.378,0,0,1-.365-.365.371.371,0,0,1,.365-.365H52.763A.371.371,0,0,1,53.128,42.105Z" transform="translate(-41.19 -41.74)"/>
      </g>
      <g id="Grupo_1009171" data-name="Grupo 1009171" transform="translate(40.706 39.303)">
        <path id="Trazado_718091" data-name="Trazado 718091" d="M53.128,40.135a.378.378,0,0,1-.365.365H41.555a.378.378,0,0,1-.365-.365.371.371,0,0,1,.365-.365H52.763A.371.371,0,0,1,53.128,40.135Z" transform="translate(-41.19 -39.77)"/>
      </g>
      <g id="Grupo_1009172" data-name="Grupo 1009172" transform="translate(9.597 37.32)">
        <path id="Trazado_718092" data-name="Trazado 718092" d="M32.935,40.029v14.4a2.27,2.27,0,0,1-2.269,2.269H11.929A2.27,2.27,0,0,1,9.66,54.424v-14.4a2.27,2.27,0,0,1,2.269-2.269H30.656A2.278,2.278,0,0,1,32.935,40.029Z" transform="translate(-9.66 -37.76)" fill="#f93"/>
      </g>
      <g id="Grupo_1009173" data-name="Grupo 1009173" transform="translate(9.222 36.945)">
        <path id="Trazado_718093" data-name="Trazado 718093" d="M30.651,57.064H11.924A2.644,2.644,0,0,1,9.28,54.419v-14.4a2.644,2.644,0,0,1,2.644-2.644H30.651a2.644,2.644,0,0,1,2.644,2.644v14.4A2.644,2.644,0,0,1,30.651,57.064ZM11.924,38.12a1.912,1.912,0,0,0-1.9,1.9v14.4a1.912,1.912,0,0,0,1.9,1.9H30.651a1.912,1.912,0,0,0,1.9-1.9v-14.4a1.912,1.912,0,0,0-1.9-1.9Z" transform="translate(-9.28 -37.38)"/>
      </g>
      <g id="Grupo_1009174" data-name="Grupo 1009174" transform="translate(5.285 62.746)">
        <path id="Trazado_718094" data-name="Trazado 718094" d="M5.29,63.53H67.873v5.219H5.29Z" transform="translate(-5.29 -63.53)" fill="#bcdcdd"/>
      </g>
      <g id="Grupo_1009175" data-name="Grupo 1009175" transform="translate(4.91 62.361)">
        <path id="Trazado_718095" data-name="Trazado 718095" d="M67.858,69.109H5.285a.375.375,0,0,1-.375-.375V63.515a.375.375,0,0,1,.375-.375H67.868a.375.375,0,0,1,.375.375v5.219A.39.39,0,0,1,67.858,69.109ZM5.65,68.369H67.493V63.89H5.65Z" transform="translate(-4.91 -63.14)"/>
      </g>
      <g id="Grupo_1009176" data-name="Grupo 1009176" transform="translate(7.761 60.605)">
        <path id="Trazado_718096" data-name="Trazado 718096" d="M7.8,61.36H65.42v2.131H7.8Z" transform="translate(-7.8 -61.36)" fill="#43707c"/>
      </g>
      <g id="Grupo_1009177" data-name="Grupo 1009177" transform="translate(7.386 60.23)">
        <path id="Trazado_718097" data-name="Trazado 718097" d="M65.415,63.861H7.795a.375.375,0,0,1-.375-.375V61.355a.375.375,0,0,1,.375-.375h57.62a.375.375,0,0,1,.375.375v2.131A.381.381,0,0,1,65.415,63.861ZM8.16,63.121H65.04V61.73H8.16Z" transform="translate(-7.42 -60.98)"/>
      </g>
      <g id="Grupo_1009178" data-name="Grupo 1009178" transform="translate(17.164 34.33)">
        <path id="Trazado_718098" data-name="Trazado 718098" d="M17.33,34.73h8.13v2.99H17.33Z" transform="translate(-17.33 -34.73)" fill="#2c5560"/>
      </g>
      <g id="Grupo_1009179" data-name="Grupo 1009179" transform="translate(16.789 33.946)">
        <path id="Trazado_718099" data-name="Trazado 718099" d="M25.455,38.079h-8.13a.375.375,0,0,1-.375-.375v-2.99a.375.375,0,0,1,.375-.375h8.13a.375.375,0,0,1,.375.375V37.7A.375.375,0,0,1,25.455,38.079Zm-7.755-.74h7.39V35.09H17.7Z" transform="translate(-16.95 -34.34)"/>
      </g>
      <g id="Grupo_1009180" data-name="Grupo 1009180" transform="translate(17.628 43.161)">
        <path id="Trazado_718100" data-name="Trazado 718100" d="M25.022,47.3a3.611,3.611,0,1,1-3.6-3.621A3.613,3.613,0,0,1,25.022,47.3Z" transform="translate(-17.8 -43.68)"/>
      </g>
      <g id="Grupo_1009181" data-name="Grupo 1009181" transform="translate(6.173 44.059)">
        <path id="Trazado_718101" data-name="Trazado 718101" d="M23.969,47.313v6.4a4.56,4.56,0,0,1-4.558,4.558H6.19V52.838H18.533V47.313a2.718,2.718,0,1,1,5.436,0Z" transform="translate(-6.19 -44.59)" fill="#2c5560"/>
      </g>
      <g id="Grupo_1009182" data-name="Grupo 1009182" transform="translate(5.798 43.674)">
        <path id="Trazado_718102" data-name="Trazado 718102" d="M19.4,58.644H6.185a.375.375,0,0,1-.375-.375V52.833a.375.375,0,0,1,.375-.375H18.163V47.3a3.088,3.088,0,1,1,6.176,0v6.4A4.952,4.952,0,0,1,19.4,58.644ZM6.55,57.9H19.4a4.2,4.2,0,0,0,4.193-4.193v-6.4a2.348,2.348,0,1,0-4.7,0v5.525a.375.375,0,0,1-.375.375H6.55Z" transform="translate(-5.81 -44.2)"/>
      </g>
      <g id="Grupo_1009183" data-name="Grupo 1009183" transform="translate(5.285 51.774)">
        <path id="Trazado_718103" data-name="Trazado 718103" d="M6.178,52.854V58.5a.44.44,0,0,1-.444.434A.447.447,0,0,1,5.29,58.5V52.854a.449.449,0,0,1,.444-.444A.442.442,0,0,1,6.178,52.854Z" transform="translate(-5.29 -52.41)"/>
      </g>
      <g id="Grupo_1009184" data-name="Grupo 1009184" transform="translate(16.375 33.462)">
        <path id="Trazado_718104" data-name="Trazado 718104" d="M26.248,34.284a.432.432,0,0,1-.434.434h-8.85a.426.426,0,0,1-.434-.434.438.438,0,0,1,.434-.434h8.85A.438.438,0,0,1,26.248,34.284Z" transform="translate(-16.53 -33.85)"/>
      </g>
      <g id="Grupo_1009185" data-name="Grupo 1009185" transform="translate(16.375 19.412)">
        <path id="Trazado_718105" data-name="Trazado 718105" d="M26.248,20.044a.432.432,0,0,1-.434.434h-8.85a.426.426,0,0,1-.434-.434.438.438,0,0,1,.434-.434h8.85A.452.452,0,0,1,26.248,20.044Z" transform="translate(-16.53 -19.61)"/>
      </g>
      <g id="Grupo_1009186" data-name="Grupo 1009186" transform="translate(16.375 4.81)">
        <path id="Trazado_718106" data-name="Trazado 718106" d="M26.248,5.244a.432.432,0,0,1-.434.434h-8.85a.426.426,0,0,1-.434-.434.438.438,0,0,1,.434-.434h8.85A.438.438,0,0,1,26.248,5.244Z" transform="translate(-16.53 -4.81)"/>
      </g>
    </g>
  </g>
</svg>
