<svg xmlns="http://www.w3.org/2000/svg" width="117.028" height="117.027" viewBox="0 0 117.028 117.027">
  <g id="Grupo_1009232" data-name="Grupo 1009232" transform="translate(-1151.486 -13346)">
    <g id="Trazado_718107" data-name="Trazado 718107" transform="translate(1151.486 13346)" fill="#fff">
      <path d="M 58.513916015625 115.52783203125 C 50.8164176940918 115.52783203125 43.34998321533203 114.0205993652344 36.32198333740234 111.0480194091797 C 32.94400024414062 109.6192474365234 29.68581581115723 107.8507461547852 26.63793182373047 105.7916488647461 C 23.61863327026367 103.7518310546875 20.77935028076172 101.4092178344727 18.19898223876953 98.82884979248047 C 15.61861610412598 96.24848175048828 13.27599906921387 93.40920257568359 11.23618221282959 90.38990020751953 C 9.177083015441895 87.34201812744141 7.40858268737793 84.08383178710938 5.97981595993042 80.70584869384766 C 3.007232666015625 73.67784881591797 1.499999403953552 66.21141815185547 1.499999403953552 58.513916015625 C 1.499999403953552 50.8164176940918 3.007232666015625 43.34998321533203 5.97981595993042 36.32198333740234 C 7.40858268737793 32.94400024414062 9.177083015441895 29.68581581115723 11.23618221282959 26.63793182373047 C 13.27599906921387 23.61863327026367 15.61861610412598 20.77935028076172 18.19898223876953 18.19898223876953 C 20.77935028076172 15.61861610412598 23.61863327026367 13.27599906921387 26.63793182373047 11.23618221282959 C 29.68581581115723 9.177083015441895 32.94400024414062 7.40858268737793 36.32198333740234 5.97981595993042 C 43.34998321533203 3.007232666015625 50.8164176940918 1.499999403953552 58.513916015625 1.499999403953552 C 66.21141815185547 1.499999403953552 73.67784881591797 3.007232666015625 80.70584869384766 5.97981595993042 C 84.08383178710938 7.40858268737793 87.34201812744141 9.177083015441895 90.38990020751953 11.23618221282959 C 93.40920257568359 13.27599906921387 96.24848175048828 15.61861610412598 98.82884979248047 18.19898223876953 C 101.4092178344727 20.77935028076172 103.7518310546875 23.61863327026367 105.7916488647461 26.63793182373047 C 107.8507461547852 29.68581581115723 109.6192474365234 32.94400024414062 111.0480194091797 36.32198333740234 C 114.0205993652344 43.34998321533203 115.52783203125 50.8164176940918 115.52783203125 58.513916015625 C 115.52783203125 66.21141815185547 114.0205993652344 73.67784881591797 111.0480194091797 80.70584869384766 C 109.6192474365234 84.08383178710938 107.8507461547852 87.34201812744141 105.7916488647461 90.38990020751953 C 103.7518310546875 93.40920257568359 101.4092178344727 96.24848175048828 98.82884979248047 98.82884979248047 C 96.24848175048828 101.4092178344727 93.40920257568359 103.7518310546875 90.38990020751953 105.7916488647461 C 87.34201812744141 107.8507461547852 84.08383178710938 109.6192474365234 80.70584869384766 111.0480194091797 C 73.67784881591797 114.0205993652344 66.21141815185547 115.52783203125 58.513916015625 115.52783203125 Z" stroke="none"/>
      <path d="M 58.513916015625 2.999992370605469 C 51.01826477050781 2.999992370605469 43.74840545654297 4.467353820800781 36.90631866455078 7.361312866210938 C 33.61753082275391 8.752349853515625 30.44525909423828 10.47422790527344 27.47764587402344 12.47911834716797 C 24.53744506835938 14.46547698974609 21.77251434326172 16.74677276611328 19.2596435546875 19.2596435546875 C 16.74677276611328 21.77251434326172 14.46547698974609 24.53744506835938 12.47911834716797 27.47764587402344 C 10.47422790527344 30.44525909423828 8.752349853515625 33.61753082275391 7.361312866210938 36.90631866455078 C 4.467353820800781 43.74840545654297 2.999992370605469 51.01826477050781 2.999992370605469 58.513916015625 C 2.999992370605469 66.00956726074219 4.467353820800781 73.27940368652344 7.361312866210938 80.12152099609375 C 8.752349853515625 83.41029357910156 10.47422790527344 86.58255004882812 12.47911834716797 89.55018615722656 C 14.46547698974609 92.49038696289062 16.74677276611328 95.25531768798828 19.2596435546875 97.76817321777344 C 21.77251434326172 100.2810440063477 24.53744506835938 102.5623321533203 27.47764587402344 104.548698425293 C 30.44525909423828 106.5535888671875 33.61753082275391 108.2754592895508 36.90631866455078 109.6664962768555 C 43.74840545654297 112.5604629516602 51.01826477050781 114.0278244018555 58.513916015625 114.0278244018555 C 66.00956726074219 114.0278244018555 73.27942657470703 112.5604629516602 80.12152099609375 109.6664962768555 C 83.41029357910156 108.2754592895508 86.58255004882812 106.5535888671875 89.55018615722656 104.548698425293 C 92.49038696289062 102.5623321533203 95.25531768798828 100.2810440063477 97.7681884765625 97.7681884765625 C 100.2810440063477 95.25531768798828 102.5623321533203 92.49038696289062 104.548698425293 89.55018615722656 C 106.5535888671875 86.58255004882812 108.2754592895508 83.41029357910156 109.6664962768555 80.12152099609375 C 112.5604629516602 73.27942657470703 114.0278244018555 66.00956726074219 114.0278244018555 58.513916015625 C 114.0278244018555 51.01826477050781 112.5604629516602 43.74840545654297 109.6664962768555 36.90631866455078 C 108.2754592895508 33.61753082275391 106.5535888671875 30.44525909423828 104.548698425293 27.47764587402344 C 102.5623321533203 24.53744506835938 100.2810440063477 21.77251434326172 97.76817321777344 19.2596435546875 C 95.25531768798828 16.74677276611328 92.49038696289062 14.46547698974609 89.55018615722656 12.47911834716797 C 86.58255004882812 10.47422790527344 83.41029357910156 8.752349853515625 80.12152099609375 7.361312866210938 C 73.27940368652344 4.467353820800781 66.00956726074219 2.999992370605469 58.513916015625 2.999992370605469 M 58.513916015625 -7.62939453125e-06 C 90.83026123046875 -7.62939453125e-06 117.0278244018555 26.19757080078125 117.0278244018555 58.513916015625 C 117.0278244018555 90.83026123046875 90.83026123046875 117.0278244018555 58.513916015625 117.0278244018555 C 26.19757080078125 117.0278244018555 -7.62939453125e-06 90.83026123046875 -7.62939453125e-06 58.513916015625 C -7.62939453125e-06 26.19757080078125 26.19757080078125 -7.62939453125e-06 58.513916015625 -7.62939453125e-06 Z" stroke="none" fill="#ffa031"/>
    </g>
    <g id="deposito-de-agua" transform="translate(1170.716 13363.643)">
      <g id="Grupo_1009192" data-name="Grupo 1009192" transform="translate(37.879 29.787)">
        <path id="Trazado_718110" data-name="Trazado 718110" d="M26.84,21.49h2.81V61.858H26.84Z" transform="translate(-26.84 -21.49)" fill="#43707c"/>
      </g>
      <g id="Grupo_1009193" data-name="Grupo 1009193" transform="translate(37.879 29.787)">
        <path id="Trazado_718111" data-name="Trazado 718111" d="M26.84,21.49h2.81V28.2H26.84Z" transform="translate(-26.84 -21.49)" fill="#36606e"/>
      </g>
      <g id="Grupo_1009194" data-name="Grupo 1009194" transform="translate(37.305 29.228)">
        <path id="Trazado_718112" data-name="Trazado 718112" d="M29.834,62.6a.559.559,0,0,1-.559-.559V22.228H27.568V62.038a.559.559,0,0,1-1.118,0V21.669a.559.559,0,0,1,.559-.559h2.81a.559.559,0,0,1,.559.559V62.038A.546.546,0,0,1,29.834,62.6Z" transform="translate(-26.45 -21.11)" fill="#050504"/>
      </g>
      <g id="Grupo_1009195" data-name="Grupo 1009195" transform="translate(36.555 69.596)">
        <path id="Trazado_718113" data-name="Trazado 718113" d="M30.839,49.668H26.5a.559.559,0,0,1,0-1.118h4.34a.559.559,0,1,1,0,1.118Z" transform="translate(-25.94 -48.55)" fill="#050504"/>
      </g>
      <g id="Grupo_1009196" data-name="Grupo 1009196" transform="translate(45.205 30.317)">
        <path id="Trazado_718114" data-name="Trazado 718114" d="M38.631,55.363l-4.4-33.513H31.82l4.413,33.513Z" transform="translate(-31.82 -21.85)" fill="#abcece"/>
      </g>
      <g id="Grupo_1009197" data-name="Grupo 1009197" transform="translate(26.551 30.317)">
        <path id="Trazado_718115" data-name="Trazado 718115" d="M19.14,55.363l4.4-33.513h2.413L21.538,55.363Z" transform="translate(-19.14 -21.85)" fill="#abcece"/>
      </g>
      <g id="Grupo_1009198" data-name="Grupo 1009198" transform="translate(50.766 30.317)">
        <path id="Trazado_718116" data-name="Trazado 718116" d="M38,21.85l6.576,40.339h-2.4L35.6,21.85Z" transform="translate(-35.6 -21.85)" fill="#bcdcdd"/>
      </g>
      <g id="Grupo_1009199" data-name="Grupo 1009199" transform="translate(44.658 29.758)">
        <path id="Trazado_718117" data-name="Trazado 718117" d="M38.807,56.1H36.394a.543.543,0,0,1-.544-.485L31.451,22.1a.607.607,0,0,1,.132-.441A.547.547,0,0,1,32,21.47h2.413a.543.543,0,0,1,.544.485l4.4,33.513a.607.607,0,0,1-.132.441.547.547,0,0,1-.412.191ZM36.879,55h1.295l-4.266-32.41H32.613Z" transform="translate(-31.448 -21.47)" fill="#050504"/>
      </g>
      <g id="Grupo_1009200" data-name="Grupo 1009200" transform="translate(50.198 29.772)">
        <path id="Trazado_718118" data-name="Trazado 718118" d="M44.756,62.908H42.343a.552.552,0,0,1-.544-.456L35.223,22.113a.525.525,0,0,1,.118-.441.579.579,0,0,1,.427-.191H38.18a.552.552,0,0,1,.544.456L45.3,62.275a.525.525,0,0,1-.118.441A.579.579,0,0,1,44.756,62.908Zm-1.942-1.1h1.295L37.724,22.569H36.429Z" transform="translate(-35.214 -21.48)" fill="#050504"/>
      </g>
      <g id="Grupo_1009201" data-name="Grupo 1009201" transform="translate(18.813 30.317)">
        <path id="Trazado_718119" data-name="Trazado 718119" d="M20.456,21.85,13.88,62.189h2.413L22.869,21.85Z" transform="translate(-13.88 -21.85)" fill="#bcdcdd"/>
      </g>
      <g id="Grupo_1009202" data-name="Grupo 1009202" transform="translate(25.989 29.758)">
        <path id="Trazado_718120" data-name="Trazado 718120" d="M21.718,56.1H19.305a.547.547,0,0,1-.412-.191.588.588,0,0,1-.132-.441l4.4-33.513a.543.543,0,0,1,.544-.485h2.413a.547.547,0,0,1,.412.191.588.588,0,0,1,.132.441l-4.4,33.513A.543.543,0,0,1,21.718,56.1ZM19.953,55h1.295l4.266-32.41H24.219Z" transform="translate(-18.758 -21.47)" fill="#050504"/>
      </g>
      <g id="Grupo_1009203" data-name="Grupo 1009203" transform="translate(18.26 29.772)">
        <path id="Trazado_718121" data-name="Trazado 718121" d="M16.47,62.908H14.057a.6.6,0,0,1-.427-.191.525.525,0,0,1-.118-.441l6.576-40.339a.552.552,0,0,1,.544-.456h2.413a.6.6,0,0,1,.427.191.525.525,0,0,1,.118.441L17.014,62.452a.552.552,0,0,1-.544.456ZM14.7,61.8H16l6.385-39.236H21.089Z" transform="translate(-13.504 -21.48)" fill="#050504"/>
      </g>
      <g id="Grupo_1009204" data-name="Grupo 1009204" transform="translate(55.827 70.155)">
        <path id="Trazado_718122" data-name="Trazado 718122" d="M39.04,48.93h5.605v2.177H39.04Z" transform="translate(-39.04 -48.93)" fill="#43707c"/>
      </g>
      <g id="Grupo_1009205" data-name="Grupo 1009205" transform="translate(17.136 70.155)">
        <path id="Trazado_718123" data-name="Trazado 718123" d="M12.74,48.93h5.605v2.177H12.74Z" transform="translate(-12.74 -48.93)" fill="#43707c"/>
      </g>
      <g id="Grupo_1009206" data-name="Grupo 1009206" transform="translate(22.859 28.345)">
        <path id="Trazado_718124" data-name="Trazado 718124" d="M16.63,20.51H49.5v2.9H16.63Z" transform="translate(-16.63 -20.51)" fill="#cbe9eb"/>
      </g>
      <g id="Grupo_1009207" data-name="Grupo 1009207" transform="translate(22.859 28.331)" opacity="0.2">
        <path id="Trazado_718125" data-name="Trazado 718125" d="M16.63,20.5H26.5v2.9H16.63Z" transform="translate(-16.63 -20.5)" fill="#fff"/>
      </g>
      <g id="Grupo_1009208" data-name="Grupo 1009208" transform="translate(22.859 28.331)" opacity="0.2">
        <path id="Trazado_718126" data-name="Trazado 718126" d="M16.63,20.5h4.825v2.9H16.63Z" transform="translate(-16.63 -20.5)" fill="#fff"/>
      </g>
      <g id="Grupo_1009209" data-name="Grupo 1009209" transform="translate(43.778 28.331)" opacity="0.2">
        <path id="Trazado_718127" data-name="Trazado 718127" d="M30.85,20.5H42.781v2.9H30.85Z" transform="translate(-30.85 -20.5)"/>
      </g>
      <g id="Grupo_1009210" data-name="Grupo 1009210" transform="translate(49.884 28.331)" opacity="0.2">
        <path id="Trazado_718128" data-name="Trazado 718128" d="M35,20.5h5.84v2.9H35Z" transform="translate(-35 -20.5)"/>
      </g>
      <g id="Grupo_1009211" data-name="Grupo 1009211" transform="translate(24.727 8.029)">
        <path id="Trazado_718129" data-name="Trazado 718129" d="M47.014,27H17.9V6.7H47Z" transform="translate(-17.9 -6.7)" fill="#bcdcdd"/>
      </g>
      <g id="Grupo_1009212" data-name="Grupo 1009212" transform="translate(43.778 8.029)" opacity="0.2">
        <path id="Trazado_718130" data-name="Trazado 718130" d="M30.85,6.7H40.913V27H30.85Z" transform="translate(-30.85 -6.7)"/>
      </g>
      <g id="Grupo_1009213" data-name="Grupo 1009213" transform="translate(48.928 8.029)" opacity="0.2">
        <path id="Trazado_718131" data-name="Trazado 718131" d="M34.35,6.7h4.914V27H34.35Z" transform="translate(-34.35 -6.7)"/>
      </g>
      <g id="Grupo_1009214" data-name="Grupo 1009214" transform="translate(24.727 8.029)" opacity="0.2">
        <path id="Trazado_718132" data-name="Trazado 718132" d="M17.9,6.7h8V27h-8Z" transform="translate(-17.9 -6.7)" fill="#fff"/>
      </g>
      <g id="Grupo_1009215" data-name="Grupo 1009215" transform="translate(24.727 8.029)" opacity="0.2">
        <path id="Trazado_718133" data-name="Trazado 718133" d="M17.9,6.7h3.913V27H17.9Z" transform="translate(-17.9 -6.7)" fill="#fff"/>
      </g>
      <g id="Grupo_1009216" data-name="Grupo 1009216" transform="translate(22.3 27.772)">
        <path id="Trazado_718134" data-name="Trazado 718134" d="M49.66,24.136H16.809a.559.559,0,0,1-.559-.559v-2.9a.559.559,0,0,1,.559-.559H49.675a.559.559,0,0,1,.559.559v2.9a.581.581,0,0,1-.574.559Zm-32.307-1.1H49.116V21.238H17.353Z" transform="translate(-16.25 -20.12)" fill="#050504"/>
      </g>
      <g id="Grupo_1009217" data-name="Grupo 1009217" transform="translate(24.168 7.47)">
        <path id="Trazado_718135" data-name="Trazado 718135" d="M47.193,27.74H18.079a.559.559,0,0,1-.559-.559V6.879a.559.559,0,0,1,.559-.559h29.1a.556.556,0,0,1,.559.544l.015,20.3a.568.568,0,0,1-.162.4.583.583,0,0,1-.4.177Zm-28.57-1.1H46.634V7.438H18.623Z" transform="translate(-17.52 -6.32)" fill="#050504"/>
      </g>
      <g id="Grupo_1009218" data-name="Grupo 1009218" transform="translate(24.727 4.421)">
        <path id="Trazado_718136" data-name="Trazado 718136" d="M47,7.856H17.9A31.141,31.141,0,0,1,47,7.856Z" transform="translate(-17.9 -4.247)" fill="#cbe9eb"/>
      </g>
      <g id="Grupo_1009219" data-name="Grupo 1009219" transform="translate(43.778 4.777)" opacity="0.2">
        <path id="Trazado_718137" data-name="Trazado 718137" d="M40.9,7.741H30.85V4.49a28.316,28.316,0,0,1,5.134,1.236A34.581,34.581,0,0,1,40.9,7.741Z" transform="translate(-30.85 -4.49)"/>
      </g>
      <g id="Grupo_1009220" data-name="Grupo 1009220" transform="translate(48.913 6.013)" opacity="0.2">
        <path id="Trazado_718138" data-name="Trazado 718138" d="M39.254,7.345H34.34V5.33A34.581,34.581,0,0,1,39.254,7.345Z" transform="translate(-34.34 -5.33)"/>
      </g>
      <g id="Grupo_1009221" data-name="Grupo 1009221" transform="translate(24.727 5.16)" opacity="0.2">
        <path id="Trazado_718139" data-name="Trazado 718139" d="M25.9,4.75V7.619h-8a35.567,35.567,0,0,1,3.913-1.677A30.624,30.624,0,0,1,25.9,4.75Z" transform="translate(-17.9 -4.75)" fill="#fff"/>
      </g>
      <g id="Grupo_1009222" data-name="Grupo 1009222" transform="translate(24.727 6.352)" opacity="0.2">
        <path id="Trazado_718140" data-name="Trazado 718140" d="M21.813,5.56V7.237H17.9A37.261,37.261,0,0,1,21.813,5.56Z" transform="translate(-17.9 -5.56)" fill="#fff"/>
      </g>
      <g id="Grupo_1009223" data-name="Grupo 1009223" transform="translate(24.168 3.88)">
        <path id="Trazado_718141" data-name="Trazado 718141" d="M47.179,8.588h-29.1a.565.565,0,0,1-.544-.427.544.544,0,0,1,.294-.618,31.7,31.7,0,0,1,29.585,0,.55.55,0,0,1-.235,1.045ZM20.61,7.484H44.648a30.214,30.214,0,0,0-24.039,0Z" transform="translate(-17.52 -3.88)" fill="#050504"/>
      </g>
      <g id="Grupo_1009224" data-name="Grupo 1009224" transform="translate(48.324 62.741)">
        <path id="Trazado_718142" data-name="Trazado 718142" d="M33.94,43.89H38.9v2.177H33.94Z" transform="translate(-33.94 -43.89)" fill="#2c5560"/>
      </g>
      <g id="Grupo_1009225" data-name="Grupo 1009225" transform="translate(55.268 69.582)">
        <path id="Trazado_718143" data-name="Trazado 718143" d="M44.824,51.835H39.219a.559.559,0,0,1-.559-.559V49.1a.559.559,0,0,1,.559-.559h5.605a.559.559,0,0,1,.559.559v2.177A.568.568,0,0,1,44.824,51.835Zm-5.061-1.1h4.5V49.658h-4.5Z" transform="translate(-38.66 -48.54)" fill="#050504"/>
      </g>
      <g id="Grupo_1009226" data-name="Grupo 1009226" transform="translate(47.78 62.182)">
        <path id="Trazado_718144" data-name="Trazado 718144" d="M39.087,46.805H34.129a.559.559,0,0,1-.559-.559V44.069a.559.559,0,0,1,.559-.559h4.958a.559.559,0,0,1,.559.559v2.177A.579.579,0,0,1,39.087,46.805Zm-4.413-1.1h3.854V44.628H34.673Z" transform="translate(-33.57 -43.51)" fill="#050504"/>
      </g>
      <g id="Grupo_1009227" data-name="Grupo 1009227" transform="translate(25.227 62.741)">
        <path id="Trazado_718145" data-name="Trazado 718145" d="M18.24,43.89H23.2v2.177H18.24Z" transform="translate(-18.24 -43.89)" fill="#2c5560"/>
      </g>
      <g id="Grupo_1009228" data-name="Grupo 1009228" transform="translate(16.577 69.582)">
        <path id="Trazado_718146" data-name="Trazado 718146" d="M18.524,51.835H12.919a.559.559,0,0,1-.559-.559V49.1a.559.559,0,0,1,.559-.559h5.605a.559.559,0,0,1,.559.559v2.177A.55.55,0,0,1,18.524,51.835Zm-5.046-1.1h4.5V49.658h-4.5Z" transform="translate(-12.36 -48.54)" fill="#050504"/>
      </g>
      <g id="Grupo_1009229" data-name="Grupo 1009229" transform="translate(24.668 62.182)">
        <path id="Trazado_718147" data-name="Trazado 718147" d="M23.377,46.805H18.419a.559.559,0,0,1-.559-.559V44.069a.559.559,0,0,1,.559-.559h4.958a.559.559,0,0,1,.559.559v2.177A.559.559,0,0,1,23.377,46.805Zm-4.413-1.1h3.854V44.628H18.963Z" transform="translate(-17.86 -43.51)" fill="#050504"/>
      </g>
    </g>
  </g>
</svg>
