<svg xmlns="http://www.w3.org/2000/svg" width="45.586" height="17.227" viewBox="0 0 45.586 17.227">
  <g id="Grupo_1009237" data-name="Grupo 1009237" transform="translate(4032.026 8510.371)">
    <path id="Trazado_718286" data-name="Trazado 718286" d="M289.487,18.912l.215.576a5.21,5.21,0,0,0,.4.889,1.368,1.368,0,0,0,.425.454,1.123,1.123,0,0,0,.61.151,1.469,1.469,0,0,0,.732-.205,3.873,3.873,0,0,0,.811-.664l.752.752a8.713,8.713,0,0,1-1.768,1.426,3.4,3.4,0,0,1-1.709.449,2.7,2.7,0,0,1-1.777-.6,3.9,3.9,0,0,1-1.133-1.865l-.381-1.162a3.941,3.941,0,0,1-2.744-1.343,4.919,4.919,0,0,1-.947-3.218,11.554,11.554,0,0,1,.156-1.768,13,13,0,0,1,.527-2.1,8.868,8.868,0,0,1,1.025-2.095,7.2,7.2,0,0,1,1.538-1.685,6.188,6.188,0,0,1,1.968-1.045,7.424,7.424,0,0,1,2.275-.347,4.539,4.539,0,0,1,3.374,1.162,4.612,4.612,0,0,1,1.147,3.379,12.3,12.3,0,0,1-.215,2.153,11.461,11.461,0,0,1-.669,2.31,8.774,8.774,0,0,1-1.143,2.017,7.1,7.1,0,0,1-1.572,1.523A5.394,5.394,0,0,1,289.487,18.912Zm-3.574-3.447a3.694,3.694,0,0,0,.391,1.948,1.4,1.4,0,0,0,1.27.6,1.984,1.984,0,0,0,.9-.215,3.406,3.406,0,0,0,1.025-.811,7.4,7.4,0,0,0,1.113-1.719,12.775,12.775,0,0,0,.84-2.285,21.376,21.376,0,0,0,.479-2.344,9.382,9.382,0,0,0,.117-1.465,3.626,3.626,0,0,0-.391-1.914,1.417,1.417,0,0,0-1.289-.605,2.4,2.4,0,0,0-1.65.757,7.037,7.037,0,0,0-1.45,2.134,13.662,13.662,0,0,0-1,3.091A14.619,14.619,0,0,0,285.913,15.465Zm11.27-3.389.42-1.914h8.691l-.42,1.914Zm-.967,4.326.42-1.914h8.691l-.42,1.914Zm17.861-1.533h-3.818l-.137.244q-.225.391-.386.708t-.288.645a3.758,3.758,0,0,0-.181.586,2.429,2.429,0,0,0-.054.493q0,.7.83.811L309.9,19h-4.121l.146-.645a1.648,1.648,0,0,0,.6-.264,2.268,2.268,0,0,0,.493-.5,11.252,11.252,0,0,0,.664-1.089l6.064-10.9h2.813l.42,10.439a9.3,9.3,0,0,0,.068.942,3.623,3.623,0,0,0,.127.591,1.6,1.6,0,0,0,.19.41.746.746,0,0,0,.288.254,1.243,1.243,0,0,0,.391.117L317.9,19h-5.049l.146-.645a1.235,1.235,0,0,0,.679-.22.986.986,0,0,0,.347-.518,3.339,3.339,0,0,0,.1-.913q0-.42-.02-.879Zm-3.213-1.143h3.184l-.039-2.344q-.02-1.25-.02-2.07,0-.625.01-1.279h-.117Zm17.354-4.414.342.645q-1.23,3.262-5.684,9.189h-1.895l-.908-7.441a5.369,5.369,0,0,0-.22-1.1,1.06,1.06,0,0,0-.308-.469,1.023,1.023,0,0,0-.557-.176l.146-.645h3.438l.674,7.295a27.772,27.772,0,0,0,2.173-3.521,5.649,5.649,0,0,0,.7-2.358.8.8,0,0,0-.176-.562.869.869,0,0,0-.615-.21l.137-.645Z" transform="translate(-4315 -8515.885)" fill="#12263f"/>
  </g>
</svg>
