<svg xmlns="http://www.w3.org/2000/svg" width="135" height="136" viewBox="0 0 135 136">
  <g id="Grupo_1009231" data-name="Grupo 1009231" transform="translate(-477 -3547)">
    <g id="Grupo_1008244" data-name="Grupo 1008244" transform="translate(79 1809)">
      <ellipse id="Elipse_4848" data-name="Elipse 4848" cx="57.5" cy="58" rx="57.5" ry="58" transform="translate(408 1748)" fill="#fff"/>
      <g id="Elipse_4849" data-name="Elipse 4849" transform="translate(408 1748)" fill="none" stroke="#fff" stroke-linejoin="round" stroke-width="10" opacity="0.25">
        <ellipse cx="57.5" cy="58" rx="57.5" ry="58" stroke="none"/>
        <ellipse cx="57.5" cy="58" rx="62.5" ry="63" fill="none"/>
      </g>
    </g>
    <g id="_003-structure" data-name="003-structure" transform="translate(508 3578)">
      <path id="Trazado_717111" data-name="Trazado 717111" d="M34.156,27.98l9.422,9.286a1.715,1.715,0,0,1,.179.21l-3.015,3.067a1.1,1.1,0,0,1-.221-.179L31.11,31.079Z" transform="translate(-1.762 -0.359)" fill="#e1e6e9"/>
      <path id="Trazado_717112" data-name="Trazado 717112" d="M40.768,41.094a.525.525,0,0,1-.259-.068,1.549,1.549,0,0,1-.333-.265l-9.409-9.282a.525.525,0,0,1,0-.743l3.046-3.1a.6.6,0,0,1,.374-.157.525.525,0,0,1,.369.151l9.423,9.286a2.367,2.367,0,0,1,.235.275.525.525,0,0,1-.05.678l-3.015,3.067A.525.525,0,0,1,40.768,41.094ZM31.877,31.1l8.865,8.746,2.311-2.355-8.87-8.741Z" transform="translate(-1.787 -0.384)" fill="#323c6b"/>
      <path id="Trazado_717113" data-name="Trazado 717113" d="M35.77,11.929A4.493,4.493,0,1,0,30.57,7.5a4.445,4.445,0,0,0,1.113,2.952" transform="translate(-1.789 -1.618)" fill="#27ccbc"/>
      <g id="Grupo_1009066" data-name="Grupo 1009066" transform="translate(38.206 0)">
        <path id="Trazado_717114" data-name="Trazado 717114" d="M42.235,8.545h-.028a.5.5,0,0,1-.494-.525V7.949c.009-.129.018-.258.018-.39a7.078,7.078,0,0,0-2.039-4.981.526.526,0,1,1,.751-.735,8.125,8.125,0,0,1,2.342,5.72c0,.153-.009.306-.02.457a.56.56,0,0,1-.53.526Z" transform="translate(-39.542 -1.685)" fill="#323c6b"/>
        <path id="Trazado_717115" data-name="Trazado 717115" d="M41.552,10.668a.514.514,0,0,1-.21-.043.525.525,0,0,1-.277-.689l.075-.164c.03-.066.063-.133.088-.2a.525.525,0,0,1,.986.359c-.036.1-.079.194-.124.289l-.06.132a.525.525,0,0,1-.478.318Z" transform="translate(-39.468 -1.304)" fill="#323c6b"/>
        <path id="Trazado_717116" data-name="Trazado 717116" d="M53.139,55.079a.525.525,0,0,1-.525-.482l-.048-.59a.525.525,0,1,1,1.046-.085l.048.591a.525.525,0,0,1-.48.566Z" transform="translate(-38.885 0.925)" fill="#323c6b"/>
        <path id="Trazado_717117" data-name="Trazado 717117" d="M53.788,63.038a.525.525,0,0,1-.525-.482l-.508-6.236a.525.525,0,1,1,1.046-.085l.508,6.237a.525.525,0,0,1-.48.566Z" transform="translate(-38.876 1.042)" fill="#323c6b"/>
      </g>
      <path id="Trazado_717118" data-name="Trazado 717118" d="M28.75,17.975l3.214-8.288a2.175,2.175,0,1,1,4.055,1.576l-3.33,8.592Z" transform="translate(-1.881 -1.351)" fill="#e1e6e9"/>
      <path id="Trazado_717119" data-name="Trazado 717119" d="M32.714,20.405a.525.525,0,0,1-.227-.051l-3.939-1.88a.525.525,0,0,1-.263-.664L31.5,9.522a2.7,2.7,0,1,1,5.034,1.955L33.2,20.069a.525.525,0,0,1-.49.335Zm-3.273-2.67,2.988,1.426L35.551,11.1a1.65,1.65,0,1,0-3.074-1.2Z" transform="translate(-1.906 -1.376)" fill="#323c6b"/>
      <path id="Trazado_717120" data-name="Trazado 717120" d="M20.859,27.473a7.569,7.569,0,1,0-.179-4.4" transform="translate(-2.288 -0.892)" fill="#fe7058"/>
      <path id="Trazado_717121" data-name="Trazado 717121" d="M11.8,21.76,22.431,23a2.178,2.178,0,0,1-.494,4.328L11.57,26.119Z" transform="translate(-2.747 -0.672)" fill="#e1e6e9"/>
      <path id="Trazado_717122" data-name="Trazado 717122" d="M22.206,27.89a2.768,2.768,0,0,1-.3-.016L11.535,26.667a.525.525,0,0,1-.463-.549l.231-4.359a.525.525,0,0,1,.186-.374.533.533,0,0,1,.4-.12l10.63,1.24a2.7,2.7,0,0,1-.315,5.388ZM12.147,25.684l9.874,1.155a1.653,1.653,0,1,0,.373-3.285L12.317,22.38Z" transform="translate(-2.773 -0.697)" fill="#323c6b"/>
      <ellipse id="Elipse_8387" data-name="Elipse 8387" cx="4.495" cy="4.495" rx="4.495" ry="4.495" transform="translate(0.527 18.566)" fill="#fcd462"/>
      <path id="Trazado_717123" data-name="Trazado 717123" d="M50.934,62.833a4.5,4.5,0,1,1-4.331.315" transform="translate(-1.084 1.399)" fill="#fcd462"/>
      <path id="Trazado_717124" data-name="Trazado 717124" d="M35.392,24.984a7.554,7.554,0,0,1-6.574,7.489,7.575,7.575,0,0,0-3.751-14.149,5.9,5.9,0,0,0-.966.074,7.448,7.448,0,0,1,3.719-.987,7.577,7.577,0,0,1,7.574,7.574Z" transform="translate(-2.115 -0.892)" fill="#ea6453"/>
      <path id="Trazado_717125" data-name="Trazado 717125" d="M39.54,7.5A4.489,4.489,0,0,1,37.25,11.4,4.334,4.334,0,0,0,37.7,9.46,4.5,4.5,0,0,0,31,5.542,4.493,4.493,0,0,1,39.54,7.5Z" transform="translate(-1.767 -1.618)" fill="#21b3a9"/>
      <path id="Trazado_717126" data-name="Trazado 717126" d="M12.64,23.856a4.454,4.454,0,0,1-2.29,3.908A4.3,4.3,0,0,0,10.8,25.82a4.494,4.494,0,0,0-4.5-4.5,4.383,4.383,0,0,0-2.206.588,4.49,4.49,0,0,1,8.54,1.943Z" transform="translate(-3.124 -0.793)" fill="#f7be56"/>
      <path id="Trazado_717127" data-name="Trazado 717127" d="M51.254,70.834a4.511,4.511,0,0,0,.084-3.708A4.436,4.436,0,0,0,49.079,64.8l-4.149.3a4.33,4.33,0,0,1,1.66-1.954l4.328-.326a4.5,4.5,0,0,1,.336,8Z" transform="translate(-1.065 1.399)" fill="#f7be56"/>
      <path id="Trazado_717128" data-name="Trazado 717128" d="M28.016,33.1a8.07,8.07,0,0,1-7.629-5.428.525.525,0,0,1,.993-.342,7.044,7.044,0,1,0-.166-4.1.526.526,0,1,1-1.018-.263A8.088,8.088,0,1,1,28.016,33.1Z" transform="translate(-2.313 -0.916)" fill="#323c6b"/>
      <path id="Trazado_717129" data-name="Trazado 717129" d="M35.794,12.479a.525.525,0,0,1-.08-1.044,3.967,3.967,0,1,0-3.617-1.31.525.525,0,1,1-.788.694,5.022,5.022,0,1,1,4.569,1.653.553.553,0,0,1-.085.006Z" transform="translate(-1.814 -1.643)" fill="#323c6b"/>
      <path id="Trazado_717130" data-name="Trazado 717130" d="M8.193,28.9a5.021,5.021,0,1,1,5.02-5.021A5.021,5.021,0,0,1,8.193,28.9Zm0-8.991a3.971,3.971,0,1,0,3.97,3.97A3.971,3.971,0,0,0,8.193,19.908Z" transform="translate(-3.171 -0.819)" fill="#323c6b"/>
      <path id="Trazado_717131" data-name="Trazado 717131" d="M49.1,71.962a5.017,5.017,0,0,1-2.752-9.224.525.525,0,0,1,.57.882,3.971,3.971,0,1,0,3.826-.283.525.525,0,1,1,.441-.954A5.017,5.017,0,0,1,49.1,71.962Z" transform="translate(-1.109 1.374)" fill="#323c6b"/>
      <path id="Trazado_717132" data-name="Trazado 717132" d="M50.078,51.66l1.05,12.878a2.172,2.172,0,1,1-4.328.368L45.74,51.944Z" transform="translate(-1.024 0.836)" fill="#e1e6e9"/>
      <path id="Trazado_717133" data-name="Trazado 717133" d="M48.994,67.449a2.694,2.694,0,0,1-1.746-.639,2.658,2.658,0,0,1-.945-1.838l-1.061-12.96a.525.525,0,0,1,.49-.567l4.338-.284a.535.535,0,0,1,.557.481l1.05,12.878a2.7,2.7,0,0,1-2.462,2.919Q49.1,67.449,48.994,67.449ZM46.332,52.463l1.017,12.43a1.619,1.619,0,0,0,.577,1.119,1.646,1.646,0,0,0,2.7-1.4L49.622,52.247Z" transform="translate(-1.049 0.811)" fill="#323c6b"/>
      <path id="Trazado_717134" data-name="Trazado 717134" d="M56.134,43.181a9.084,9.084,0,0,1,.084,1.208,8.521,8.521,0,1,1-1.8-5.221" transform="translate(-1.355 0.04)" fill="#fe7058"/>
      <path id="Trazado_717135" data-name="Trazado 717135" d="M56,44.389A8.518,8.518,0,0,1,48.754,52.8a8.486,8.486,0,0,0,4.5-7.49,9.245,9.245,0,0,0-.084-1.219l-1.723-4.013A8.452,8.452,0,0,0,44.731,36.8a8.28,8.28,0,0,0-1.261.095,8.379,8.379,0,0,1,4.023-1.019,8.493,8.493,0,0,1,6.713,3.289l1.711,4.012A9.086,9.086,0,0,1,56,44.389Z" transform="translate(-1.139 0.04)" fill="#ea6453"/>
      <path id="Trazado_717136" data-name="Trazado 717136" d="M64.043,40.143,53.97,43.725a2.176,2.176,0,1,1-1.471-4.1l9.832-3.5Z" transform="translate(-0.756 0.053)" fill="#e1e6e9"/>
      <path id="Trazado_717137" data-name="Trazado 717137" d="M53.276,44.4a2.7,2.7,0,0,1-.929-5.24l9.833-3.5a.525.525,0,0,1,.66.289l1.712,4.013a.525.525,0,0,1-.307.7L54.174,44.245A2.7,2.7,0,0,1,53.276,44.4Zm8.792-7.582L52.7,40.148a1.643,1.643,0,0,0-.993,2.118,1.666,1.666,0,0,0,2.113.988l9.545-3.394Z" transform="translate(-0.781 0.027)" fill="#323c6b"/>
      <ellipse id="Elipse_8388" data-name="Elipse 8388" cx="4.495" cy="4.495" rx="4.495" ry="4.495" transform="translate(60.028 34.58) rotate(-26.232)" fill="#27ccbc"/>
      <path id="Trazado_717138" data-name="Trazado 717138" d="M68.461,40.694a4.5,4.5,0,0,0-6.04-5.977c-.074.042-.158.084-.231.126a4.495,4.495,0,1,1,6.271,5.851Z" transform="translate(-0.194 -0.141)" fill="#21b3a9"/>
      <path id="Trazado_717139" data-name="Trazado 717139" d="M47.734,53.448a9.034,9.034,0,1,1,7.127-14.58.525.525,0,1,1-.829.645,7.978,7.978,0,1,0,1.681,4.9,8.634,8.634,0,0,0-.079-1.138.525.525,0,1,1,1.04-.141,9.543,9.543,0,0,1,.093,1.282,9.044,9.044,0,0,1-9.034,9.034Z" transform="translate(-1.379 0.015)" fill="#323c6b"/>
      <path id="Trazado_717140" data-name="Trazado 717140" d="M66.292,41.833A5.025,5.025,0,1,1,70.55,39.46a5.022,5.022,0,0,1-4.258,2.373Zm-.007-8.995a3.981,3.981,0,1,0,1.282.21,3.981,3.981,0,0,0-1.282-.21Z" transform="translate(-0.241 -0.166)" fill="#323c6b"/>
    </g>
  </g>
</svg>
