<svg xmlns="http://www.w3.org/2000/svg" width="371.43" height="33.418" viewBox="0 0 371.43 33.418">
  <g id="Grupo_1009235" data-name="Grupo 1009235" transform="translate(4193.43 9453.178)">
    <path id="Trazado_718265" data-name="Trazado 718265" d="M9.6,12.82a3.42,3.42,0,0,0,.051.684.815.815,0,0,0,.18.375.851.851,0,0,0,.371.227,3.035,3.035,0,0,0,.609.125q.367.043.969.059V15H5.039v-.711a10.709,10.709,0,0,0,1.238-.105,1.484,1.484,0,0,0,.566-.2.757.757,0,0,0,.285-.375,2.479,2.479,0,0,0,.09-.789V7.172A.7.7,0,0,0,7.1,6.711a.415.415,0,0,0-.332-.141,1.357,1.357,0,0,0-.551.18,12.259,12.259,0,0,0-1.168.734L4.57,6.656,8.648,4.211h1Q9.6,4.961,9.6,6.289Zm6.047-.18a6.215,6.215,0,0,1,.109.711q.039.391.039.7a2.933,2.933,0,0,1-.211,1.148,3.332,3.332,0,0,1-.676.988A8.92,8.92,0,0,1,13.6,17.273l-.6-.68a2.572,2.572,0,0,0,.527-.625,2.383,2.383,0,0,0,.273-.73,5.094,5.094,0,0,0,.082-1,15.609,15.609,0,0,0-.094-1.6Zm6.766.445a2.863,2.863,0,0,0,.758-.074.762.762,0,0,0,.395-.258A1.5,1.5,0,0,0,23.8,12.2h.9l-.18,2.8H17.367v-.516a9.539,9.539,0,0,1,.949-1.633q.621-.883,1.512-1.93.844-.992,1.285-1.633a5.875,5.875,0,0,0,.66-1.211,3.267,3.267,0,0,0,.219-1.18,2.132,2.132,0,0,0-.383-1.348,1.258,1.258,0,0,0-1.047-.488,1.353,1.353,0,0,0-1.035.441,2.841,2.841,0,0,0-.6,1.395H17.523V5.055q.953-.383,1.492-.535a8.5,8.5,0,0,1,1.066-.23,7.828,7.828,0,0,1,1.145-.078A4.843,4.843,0,0,1,23.1,4.52a2.182,2.182,0,0,1,1.051.836,2.3,2.3,0,0,1,.324,1.23,2.854,2.854,0,0,1-.23,1.148,5.245,5.245,0,0,1-.8,1.211,25,25,0,0,1-1.91,1.945q-.6.586-1.125,1.184t-.773.934v.078Z" transform="translate(-4198 -9446.385)" fill="#12263f"/>
    <path id="Trazado_718266" data-name="Trazado 718266" d="M6.523,6.906V5.055a9.246,9.246,0,0,1,3.586-.844,5.006,5.006,0,0,1,1.7.266,2.47,2.47,0,0,1,1.141.777,1.942,1.942,0,0,1,.4,1.238,2.469,2.469,0,0,1-.266,1.168,2.718,2.718,0,0,1-.746.879,6.586,6.586,0,0,1-1.246.734v.07a3.549,3.549,0,0,1,1.238.453A2.484,2.484,0,0,1,13.555,12a2.983,2.983,0,0,1-.441,1.613,2.936,2.936,0,0,1-1.34,1.109,5.315,5.315,0,0,1-2.18.4,9.363,9.363,0,0,1-1.734-.16,6.443,6.443,0,0,1-1.484-.449V12.555H7.781a2.714,2.714,0,0,0,.641,1.293,1.492,1.492,0,0,0,1.086.4q1.656,0,1.656-2.047a2.132,2.132,0,0,0-.582-1.641,2.529,2.529,0,0,0-1.77-.539H8.2V9.133A3.39,3.39,0,0,0,10.258,8.5a2.061,2.061,0,0,0,.7-1.684A2.069,2.069,0,0,0,10.609,5.5a1.231,1.231,0,0,0-1.023-.441A1.405,1.405,0,0,0,8.3,5.816a3.141,3.141,0,0,0-.371,1.09Zm12.094,7.578a2.251,2.251,0,0,0,.449-.168.617.617,0,0,0,.254-.242,1,1,0,0,0,.109-.395q.023-.242.023-.609V11.906H15.266v-.844l4.742-6.781h1.758v6.641h.242a1.966,1.966,0,0,0,.539-.051.569.569,0,0,0,.27-.191,1.488,1.488,0,0,0,.215-.5h.82l-.094,1.727H21.766V13.07a4.407,4.407,0,0,0,.039.66,1.009,1.009,0,0,0,.133.391.589.589,0,0,0,.258.219,2.984,2.984,0,0,0,.414.145V15H18.617Zm-1.836-3.562h2.672V9.133q0-1.125.078-2.367h-.078l-2.672,4.023Zm10.391,1.719a6.214,6.214,0,0,1,.109.711q.039.391.039.7a2.933,2.933,0,0,1-.211,1.148,3.332,3.332,0,0,1-.676.988,8.92,8.92,0,0,1-1.309,1.082l-.6-.68a2.572,2.572,0,0,0,.527-.625,2.383,2.383,0,0,0,.273-.73,5.094,5.094,0,0,0,.082-1,15.609,15.609,0,0,0-.094-1.6Zm2.1,1.875V12.563h1.414a2.518,2.518,0,0,0,.625,1.27,1.524,1.524,0,0,0,1.109.418,1.488,1.488,0,0,0,1.258-.527,2.663,2.663,0,0,0,.406-1.629,2.367,2.367,0,0,0-.523-1.656,1.954,1.954,0,0,0-1.516-.57,5.258,5.258,0,0,0-.824.07,6.27,6.27,0,0,0-.785.172l-.7-.437V4.336h4.617a1.637,1.637,0,0,0,.422-.039.469.469,0,0,0,.219-.133,1.22,1.22,0,0,0,.188-.344h.859l-.156,2.492h-4.8V9.125a6.262,6.262,0,0,1,.957-.207,9.109,9.109,0,0,1,1.2-.066,3.8,3.8,0,0,1,1.7.359,2.63,2.63,0,0,1,1.133,1.043,3.107,3.107,0,0,1,.4,1.605,3.2,3.2,0,0,1-.484,1.809,2.911,2.911,0,0,1-1.4,1.094,5.919,5.919,0,0,1-2.187.363,8.825,8.825,0,0,1-1.672-.164A6.38,6.38,0,0,1,29.273,14.516ZM44.961,4.75v.484a3.978,3.978,0,0,0-2.773,1.059,5.24,5.24,0,0,0-1.414,2.918l.078.031a4.6,4.6,0,0,1,1.227-.617,4.46,4.46,0,0,1,1.352-.2,2.9,2.9,0,0,1,1.543.395,2.476,2.476,0,0,1,.973,1.113,3.99,3.99,0,0,1,.328,1.672,3.73,3.73,0,0,1-.437,1.832,2.978,2.978,0,0,1-1.348,1.238,5.044,5.044,0,0,1-2.23.445,4.221,4.221,0,0,1-2.082-.484,3.184,3.184,0,0,1-1.332-1.43,5.2,5.2,0,0,1-.461-2.3,7.042,7.042,0,0,1,.77-3.3,6.12,6.12,0,0,1,2.184-2.375,6.749,6.749,0,0,1,3.2-1.023ZM42.508,9.508a2.235,2.235,0,0,0-.719.113,2.129,2.129,0,0,0-.594.3,1.768,1.768,0,0,0-.348.313.817.817,0,0,0-.129.348,5.446,5.446,0,0,0-.039.8,4.552,4.552,0,0,0,.4,2.148,1.305,1.305,0,0,0,1.219.719,1.57,1.57,0,0,0,.785-.18,1.4,1.4,0,0,0,.512-.5,2.343,2.343,0,0,0,.281-.781,5.491,5.491,0,0,0,.086-1.012,3.14,3.14,0,0,0-.371-1.691A1.209,1.209,0,0,0,42.508,9.508Z" transform="translate(-3908.5 -9446.385)" fill="#12263f"/>
    <path id="Trazado_718267" data-name="Trazado 718267" d="M7.746,10.078h-1.5l.406-2.516L4.66,9.164l-.75-1.3,2.383-.914L3.918,6.039l.75-1.3,1.984,1.6-.4-2.531H7.746l-.4,2.523L9.34,4.742l.742,1.289L7.7,6.945l2.391.938L9.34,9.164l-1.992-1.6Z" transform="translate(-4144 -9443.385)" fill="#12263f"/>
    <path id="Trazado_718268" data-name="Trazado 718268" d="M7.746,10.078h-1.5l.406-2.516L4.66,9.164l-.75-1.3,2.383-.914L3.918,6.039l.75-1.3,1.984,1.6-.4-2.531H7.746l-.4,2.523L9.34,4.742l.742,1.289L7.7,6.945l2.391.938L9.34,9.164l-1.992-1.6Z" transform="translate(-4009 -9443.385)" fill="#12263f"/>
    <path id="Trazado_718269" data-name="Trazado 718269" d="M7.746,10.078h-1.5l.406-2.516L4.66,9.164l-.75-1.3,2.383-.914L3.918,6.039l.75-1.3,1.984,1.6-.4-2.531H7.746l-.4,2.523L9.34,4.742l.742,1.289L7.7,6.945l2.391.938L9.34,9.164l-1.992-1.6Z" transform="translate(-4065 -9443.385)" fill="#12263f"/>
    <path id="Trazado_718270" data-name="Trazado 718270" d="M3.332,9.508V7.883h7.336V9.508Zm0,3.469V11.352h7.336v1.625Z" transform="translate(-3917.5 -9446.385)" fill="#12263f"/>
    <path id="Trazado_718271" data-name="Trazado 718271" d="M8.445,4.336v.516A2.145,2.145,0,0,0,8,5.02a.642.642,0,0,0-.254.246,1.035,1.035,0,0,0-.117.4,5.8,5.8,0,0,0-.027.621V14.07H9.117a1.6,1.6,0,0,0,.727-.141,1.285,1.285,0,0,0,.473-.434,2.847,2.847,0,0,0,.344-.766q.145-.473.23-.887h1.07L11.789,15H4.344v-.516a2.064,2.064,0,0,0,.457-.172.6.6,0,0,0,.25-.254,1.127,1.127,0,0,0,.105-.406q.023-.246.023-.621V6.3q0-.367-.02-.617a1.054,1.054,0,0,0-.1-.406.633.633,0,0,0-.25-.254,1.917,1.917,0,0,0-.465-.176V4.336ZM6.008,34.891A2.078,2.078,0,0,0,6.6,35.957a1.59,1.59,0,0,0,1.086.355,1.3,1.3,0,0,0,.887-.266.977.977,0,0,0,.3-.773,1.039,1.039,0,0,0-.137-.547,1.427,1.427,0,0,0-.453-.434A8.2,8.2,0,0,0,7.2,33.75a7.13,7.13,0,0,1-.809-.414,3.3,3.3,0,0,1-.66-.512,2.268,2.268,0,0,1-.445-.637,1.825,1.825,0,0,1-.164-.781,1.911,1.911,0,0,1,.406-1.219,2.53,2.53,0,0,1,1.16-.789,5.034,5.034,0,0,1,1.723-.273q.57,0,1.117.047t1.414.2V31.2H9.914a2.792,2.792,0,0,0-.395-.773,1.178,1.178,0,0,0-.473-.379,1.627,1.627,0,0,0-.617-.105,1.312,1.312,0,0,0-.82.234.781.781,0,0,0-.3.656,1.091,1.091,0,0,0,.109.508,1.216,1.216,0,0,0,.391.41,6.431,6.431,0,0,0,1.086.535,5.983,5.983,0,0,1,1.2.637,2.377,2.377,0,0,1,.7.766,2.041,2.041,0,0,1,.242,1.012,2.361,2.361,0,0,1-.234,1.09,2.057,2.057,0,0,1-.656.754,2.967,2.967,0,0,1-1.012.441,5.465,5.465,0,0,1-1.3.145,12.756,12.756,0,0,1-2.867-.367V34.891Z" transform="translate(-4165 -9456.885)" fill="#12263f"/>
    <path id="Trazado_718272" data-name="Trazado 718272" d="M1.254,6.906V5.055A9.246,9.246,0,0,1,4.84,4.211a5.006,5.006,0,0,1,1.7.266,2.47,2.47,0,0,1,1.141.777,1.942,1.942,0,0,1,.4,1.238A2.469,2.469,0,0,1,7.816,7.66a2.718,2.718,0,0,1-.746.879,6.586,6.586,0,0,1-1.246.734v.07A3.549,3.549,0,0,1,7.063,9.8,2.484,2.484,0,0,1,8.285,12a2.983,2.983,0,0,1-.441,1.613A2.936,2.936,0,0,1,6.5,14.723a5.315,5.315,0,0,1-2.18.4,9.363,9.363,0,0,1-1.734-.16,6.443,6.443,0,0,1-1.484-.449V12.555H2.512a2.714,2.714,0,0,0,.641,1.293,1.492,1.492,0,0,0,1.086.4q1.656,0,1.656-2.047a2.132,2.132,0,0,0-.582-1.641,2.529,2.529,0,0,0-1.77-.539H2.926V9.133A3.39,3.39,0,0,0,4.988,8.5a2.061,2.061,0,0,0,.7-1.684A2.069,2.069,0,0,0,5.34,5.5a1.231,1.231,0,0,0-1.023-.441,1.514,1.514,0,0,0-.707.168,1.521,1.521,0,0,0-.578.586,3.141,3.141,0,0,0-.371,1.09ZM17.027,4.75v.484a3.978,3.978,0,0,0-2.773,1.059A5.24,5.24,0,0,0,12.84,9.211l.078.031a4.6,4.6,0,0,1,1.227-.617,4.46,4.46,0,0,1,1.352-.2,2.9,2.9,0,0,1,1.543.395,2.476,2.476,0,0,1,.973,1.113,3.99,3.99,0,0,1,.328,1.672,3.731,3.731,0,0,1-.437,1.832,2.978,2.978,0,0,1-1.348,1.238,5.044,5.044,0,0,1-2.23.445,4.221,4.221,0,0,1-2.082-.484,3.184,3.184,0,0,1-1.332-1.43,5.2,5.2,0,0,1-.461-2.3,7.042,7.042,0,0,1,.77-3.3A6.12,6.12,0,0,1,13.4,5.234a6.749,6.749,0,0,1,3.2-1.023ZM14.574,9.508a2.235,2.235,0,0,0-.719.113,2.129,2.129,0,0,0-.594.3,1.768,1.768,0,0,0-.348.313.817.817,0,0,0-.129.348,5.446,5.446,0,0,0-.039.8,4.552,4.552,0,0,0,.4,2.148,1.305,1.305,0,0,0,1.219.719,1.57,1.57,0,0,0,.785-.18,1.4,1.4,0,0,0,.512-.5,2.343,2.343,0,0,0,.281-.781,5.491,5.491,0,0,0,.086-1.012,3.14,3.14,0,0,0-.371-1.691A1.209,1.209,0,0,0,14.574,9.508Zm9.133,5.617a3.676,3.676,0,0,1-2.043-.535,3.38,3.38,0,0,1-1.27-1.73,9.007,9.007,0,0,1-.445-3.094A8.859,8.859,0,0,1,20.4,6.738a3.928,3.928,0,0,1,1.332-1.883,3.475,3.475,0,0,1,2.113-.645A3.3,3.3,0,0,1,26.715,5.52a6.863,6.863,0,0,1,.945,4,7.225,7.225,0,0,1-1,4.184A3.383,3.383,0,0,1,23.707,15.125ZM22.324,9.539a19.321,19.321,0,0,0,.152,2.734,3.7,3.7,0,0,0,.48,1.5,1.012,1.012,0,0,0,.875.48.933.933,0,0,0,.52-.145,1.279,1.279,0,0,0,.4-.453,3.229,3.229,0,0,0,.3-.82,7.855,7.855,0,0,0,.18-1.273q.055-.762.055-1.7a21.931,21.931,0,0,0-.105-2.352,6.3,6.3,0,0,0-.3-1.469,1.731,1.731,0,0,0-.461-.734.942.942,0,0,0-.617-.219.972.972,0,0,0-.7.273,1.913,1.913,0,0,0-.457.828A6.829,6.829,0,0,0,22.4,7.578Q22.324,8.414,22.324,9.539Zm10.859,5.586a3.676,3.676,0,0,1-2.043-.535,3.38,3.38,0,0,1-1.27-1.73,9.007,9.007,0,0,1-.445-3.094,8.859,8.859,0,0,1,.453-3.027,3.928,3.928,0,0,1,1.332-1.883,3.475,3.475,0,0,1,2.113-.645A3.3,3.3,0,0,1,36.191,5.52a6.863,6.863,0,0,1,.945,4,7.225,7.225,0,0,1-1,4.184A3.383,3.383,0,0,1,33.184,15.125ZM31.8,9.539a19.321,19.321,0,0,0,.152,2.734,3.7,3.7,0,0,0,.48,1.5,1.012,1.012,0,0,0,.875.48.933.933,0,0,0,.52-.145,1.279,1.279,0,0,0,.4-.453,3.229,3.229,0,0,0,.3-.82,7.855,7.855,0,0,0,.18-1.273q.055-.762.055-1.7a21.931,21.931,0,0,0-.105-2.352,6.3,6.3,0,0,0-.3-1.469,1.731,1.731,0,0,0-.461-.734.942.942,0,0,0-.617-.219.972.972,0,0,0-.7.273,1.913,1.913,0,0,0-.457.828,6.829,6.829,0,0,0-.246,1.391Q31.8,8.414,31.8,9.539Zm11.422,3.352a2.078,2.078,0,0,0,.594,1.066,1.59,1.59,0,0,0,1.086.355,1.3,1.3,0,0,0,.887-.266.977.977,0,0,0,.3-.773,1.039,1.039,0,0,0-.137-.547,1.427,1.427,0,0,0-.453-.434,8.2,8.2,0,0,0-1.082-.543,7.131,7.131,0,0,1-.809-.414,3.3,3.3,0,0,1-.66-.512,2.268,2.268,0,0,1-.445-.637,1.825,1.825,0,0,1-.164-.781,1.911,1.911,0,0,1,.406-1.219,2.53,2.53,0,0,1,1.16-.789,5.035,5.035,0,0,1,1.723-.273q.57,0,1.117.047t1.414.2V9.2H47.129a2.792,2.792,0,0,0-.395-.773,1.178,1.178,0,0,0-.473-.379,1.627,1.627,0,0,0-.617-.105,1.312,1.312,0,0,0-.82.234.781.781,0,0,0-.3.656,1.091,1.091,0,0,0,.109.508,1.216,1.216,0,0,0,.391.41,6.431,6.431,0,0,0,1.086.535,5.983,5.983,0,0,1,1.2.637,2.377,2.377,0,0,1,.7.766,2.041,2.041,0,0,1,.242,1.012,2.361,2.361,0,0,1-.234,1.09,2.057,2.057,0,0,1-.656.754,2.967,2.967,0,0,1-1.012.441,5.465,5.465,0,0,1-1.3.145,12.756,12.756,0,0,1-2.867-.367V12.891ZM19.492,34.82a3.42,3.42,0,0,0,.051.684.815.815,0,0,0,.18.375.851.851,0,0,0,.371.227,3.035,3.035,0,0,0,.609.125q.367.043.969.059V37H14.93v-.711a10.709,10.709,0,0,0,1.238-.105,1.484,1.484,0,0,0,.566-.2.757.757,0,0,0,.285-.375,2.479,2.479,0,0,0,.09-.789V29.172a.7.7,0,0,0-.121-.461.415.415,0,0,0-.332-.141,1.357,1.357,0,0,0-.551.18,12.259,12.259,0,0,0-1.168.734l-.477-.828,4.078-2.445h1q-.047.75-.047,2.078Zm10.359-4.539a5.555,5.555,0,0,1,1.27-.895,2.671,2.671,0,0,1,1.145-.262,2.361,2.361,0,0,1,1.328.316,1.8,1.8,0,0,1,.684.91,4.6,4.6,0,0,1,.215,1.539v2.852q0,.344.012.645a2.336,2.336,0,0,0,.059.48.872.872,0,0,0,.129.293.653.653,0,0,0,.23.191,1.68,1.68,0,0,0,.359.133V37H31.492v-.516a.919.919,0,0,0,.5-.25.955.955,0,0,0,.188-.453,6.964,6.964,0,0,0,.051-1.031V32.711a11.108,11.108,0,0,0-.051-1.215,2.047,2.047,0,0,0-.172-.672.858.858,0,0,0-.312-.355.956.956,0,0,0-.5-.117,1.263,1.263,0,0,0-.621.184,1.6,1.6,0,0,0-.539.5,1.181,1.181,0,0,0-.215.676v3.031q0,.438.012.676a3.017,3.017,0,0,0,.035.367,1.093,1.093,0,0,0,.066.23.766.766,0,0,0,.113.188.653.653,0,0,0,.2.156,1.589,1.589,0,0,0,.352.125V37H26.773v-.516a1.442,1.442,0,0,0,.367-.129.658.658,0,0,0,.207-.172.933.933,0,0,0,.129-.25,1.564,1.564,0,0,0,.07-.422q.016-.27.016-.77V28.648q0-.672-.012-.988a3.833,3.833,0,0,0-.051-.531,1.018,1.018,0,0,0-.117-.344.565.565,0,0,0-.227-.207,1.83,1.83,0,0,0-.477-.141v-.516l2.164-.109h.977v4.461Z" transform="translate(-4122 -9456.885)" fill="#12263f"/>
    <path id="Trazado_718273" data-name="Trazado 718273" d="M19.881,12.82a3.42,3.42,0,0,0,.051.684.815.815,0,0,0,.18.375.851.851,0,0,0,.371.227,3.035,3.035,0,0,0,.609.125q.367.043.969.059V15H15.318v-.711a10.709,10.709,0,0,0,1.238-.105,1.484,1.484,0,0,0,.566-.2.757.757,0,0,0,.285-.375,2.479,2.479,0,0,0,.09-.789V7.172a.7.7,0,0,0-.121-.461.415.415,0,0,0-.332-.141,1.357,1.357,0,0,0-.551.18,12.259,12.259,0,0,0-1.168.734l-.477-.828,4.078-2.445h1q-.047.75-.047,2.078ZM30.193,8.313l.094.023A5.393,5.393,0,0,1,31.568,7.4a2.841,2.841,0,0,1,2.125-.125,1.724,1.724,0,0,1,.648.434,2.124,2.124,0,0,1,.43.746,6.462,6.462,0,0,1,1.371-1.031,2.64,2.64,0,0,1,1.215-.3,2.81,2.81,0,0,1,1.035.164,1.579,1.579,0,0,1,.676.508,2.214,2.214,0,0,1,.387.859,5.466,5.466,0,0,1,.121,1.234v2.852q0,.344.012.645a2.336,2.336,0,0,0,.059.48.872.872,0,0,0,.129.293.653.653,0,0,0,.23.191,1.68,1.68,0,0,0,.359.133V15H36.6v-.516a.879.879,0,0,0,.484-.25.98.98,0,0,0,.184-.453,6.964,6.964,0,0,0,.051-1.031V10.656a11.262,11.262,0,0,0-.047-1.145,1.934,1.934,0,0,0-.18-.691.886.886,0,0,0-.316-.359.931.931,0,0,0-.48-.109,1.09,1.09,0,0,0-.375.063,1.4,1.4,0,0,0-.348.191,2.191,2.191,0,0,0-.3.262,1.08,1.08,0,0,0-.2.3,1.311,1.311,0,0,0-.1.367,5.611,5.611,0,0,0-.027.664v2.547q0,.531.02.813a1.7,1.7,0,0,0,.082.453.653.653,0,0,0,.2.285,1.144,1.144,0,0,0,.426.191V15H31.951v-.516a.91.91,0,0,0,.5-.25.923.923,0,0,0,.184-.449,7.528,7.528,0,0,0,.047-1.035V10.656q0-.516-.02-.871a3.851,3.851,0,0,0-.066-.574,1.609,1.609,0,0,0-.129-.383.961.961,0,0,0-.187-.266.726.726,0,0,0-.25-.156,1.036,1.036,0,0,0-.363-.055,1.229,1.229,0,0,0-.605.18,1.568,1.568,0,0,0-.531.5,1.211,1.211,0,0,0-.215.688v3.023a8.228,8.228,0,0,0,.043,1.027.75.75,0,0,0,.676.715V15H27.287v-.516a1.057,1.057,0,0,0,.52-.266.9.9,0,0,0,.2-.445,6.791,6.791,0,0,0,.051-1.023V9.539q0-.578-.02-.855a1.356,1.356,0,0,0-.094-.445.643.643,0,0,0-.227-.273,1.536,1.536,0,0,0-.527-.184V7.25l2.141-.062h.984ZM41.523,5.279V4.2a5.393,5.393,0,0,1,2.092-.492,2.92,2.92,0,0,1,.991.155,1.441,1.441,0,0,1,.665.453,1.133,1.133,0,0,1,.235.722,1.44,1.44,0,0,1-.155.681,1.586,1.586,0,0,1-.435.513,3.842,3.842,0,0,1-.727.428V6.7a2.07,2.07,0,0,1,.722.264,1.449,1.449,0,0,1,.713,1.285,1.74,1.74,0,0,1-.257.941,1.712,1.712,0,0,1-.782.647,3.1,3.1,0,0,1-1.271.235A5.461,5.461,0,0,1,42.3,9.979a3.758,3.758,0,0,1-.866-.262V8.574h.82a1.583,1.583,0,0,0,.374.754.87.87,0,0,0,.633.235q.966,0,.966-1.194a1.243,1.243,0,0,0-.34-.957A1.475,1.475,0,0,0,42.858,7.1H42.5v-.52a1.977,1.977,0,0,0,1.2-.371,1.2,1.2,0,0,0,.41-.982,1.207,1.207,0,0,0-.205-.763.718.718,0,0,0-.6-.257.82.82,0,0,0-.75.44,1.832,1.832,0,0,0-.216.636ZM11.145,34.82a3.42,3.42,0,0,0,.051.684.815.815,0,0,0,.18.375.851.851,0,0,0,.371.227,3.035,3.035,0,0,0,.609.125q.367.043.969.059V37H6.582v-.711a10.709,10.709,0,0,0,1.238-.105,1.484,1.484,0,0,0,.566-.2.757.757,0,0,0,.285-.375,2.479,2.479,0,0,0,.09-.789V29.172a.7.7,0,0,0-.121-.461.415.415,0,0,0-.332-.141,1.357,1.357,0,0,0-.551.18,12.259,12.259,0,0,0-1.168.734l-.477-.828,4.078-2.445h1q-.047.75-.047,2.078ZM19,37.125a3.676,3.676,0,0,1-2.043-.535,3.38,3.38,0,0,1-1.27-1.73,9.007,9.007,0,0,1-.445-3.094,8.859,8.859,0,0,1,.453-3.027,3.928,3.928,0,0,1,1.332-1.883,3.475,3.475,0,0,1,2.113-.645A3.3,3.3,0,0,1,22,27.52a6.863,6.863,0,0,1,.945,4,7.225,7.225,0,0,1-1,4.184A3.383,3.383,0,0,1,19,37.125Zm-1.383-5.586a19.321,19.321,0,0,0,.152,2.734,3.7,3.7,0,0,0,.48,1.5,1.012,1.012,0,0,0,.875.48.933.933,0,0,0,.52-.145,1.279,1.279,0,0,0,.4-.453,3.229,3.229,0,0,0,.3-.82,7.855,7.855,0,0,0,.18-1.273q.055-.762.055-1.7a21.931,21.931,0,0,0-.105-2.352,6.3,6.3,0,0,0-.3-1.469,1.731,1.731,0,0,0-.461-.734.942.942,0,0,0-.617-.219.972.972,0,0,0-.7.273,1.913,1.913,0,0,0-.457.828,6.829,6.829,0,0,0-.246,1.391Q17.613,30.414,17.613,31.539Zm10.859,5.586a3.676,3.676,0,0,1-2.043-.535,3.38,3.38,0,0,1-1.27-1.73,9.007,9.007,0,0,1-.445-3.094,8.859,8.859,0,0,1,.453-3.027A3.928,3.928,0,0,1,26.5,26.855a3.475,3.475,0,0,1,2.113-.645A3.3,3.3,0,0,1,31.48,27.52a6.863,6.863,0,0,1,.945,4,7.225,7.225,0,0,1-1,4.184A3.383,3.383,0,0,1,28.473,37.125ZM27.09,31.539a19.321,19.321,0,0,0,.152,2.734,3.7,3.7,0,0,0,.48,1.5,1.012,1.012,0,0,0,.875.48.933.933,0,0,0,.52-.145,1.279,1.279,0,0,0,.4-.453,3.229,3.229,0,0,0,.3-.82A7.855,7.855,0,0,0,30,33.559q.055-.762.055-1.7a21.931,21.931,0,0,0-.105-2.352,6.3,6.3,0,0,0-.3-1.469,1.731,1.731,0,0,0-.461-.734.942.942,0,0,0-.617-.219.972.972,0,0,0-.7.273,1.913,1.913,0,0,0-.457.828,6.829,6.829,0,0,0-.246,1.391Q27.09,30.414,27.09,31.539Zm10.859,5.586a3.676,3.676,0,0,1-2.043-.535,3.38,3.38,0,0,1-1.27-1.73,9.007,9.007,0,0,1-.445-3.094,8.859,8.859,0,0,1,.453-3.027,3.928,3.928,0,0,1,1.332-1.883,3.475,3.475,0,0,1,2.113-.645,3.3,3.3,0,0,1,2.867,1.309,6.863,6.863,0,0,1,.945,4,7.225,7.225,0,0,1-1,4.184A3.383,3.383,0,0,1,37.949,37.125Zm-1.383-5.586a19.321,19.321,0,0,0,.152,2.734,3.7,3.7,0,0,0,.48,1.5,1.012,1.012,0,0,0,.875.48.933.933,0,0,0,.52-.145,1.279,1.279,0,0,0,.4-.453,3.229,3.229,0,0,0,.3-.82,7.855,7.855,0,0,0,.18-1.273q.055-.762.055-1.7a21.931,21.931,0,0,0-.105-2.352,6.3,6.3,0,0,0-.3-1.469,1.731,1.731,0,0,0-.461-.734.942.942,0,0,0-.617-.219.972.972,0,0,0-.7.273,1.913,1.913,0,0,0-.457.828,6.83,6.83,0,0,0-.246,1.391Q36.566,30.414,36.566,31.539Zm14.594-5.2v.516a2.145,2.145,0,0,0-.445.168.642.642,0,0,0-.254.246,1.035,1.035,0,0,0-.117.4,5.8,5.8,0,0,0-.027.621V36.07h1.516a1.6,1.6,0,0,0,.727-.141,1.285,1.285,0,0,0,.473-.434,2.847,2.847,0,0,0,.344-.766q.145-.473.23-.887h1.07L54.5,37H47.059v-.516a2.064,2.064,0,0,0,.457-.172.6.6,0,0,0,.25-.254,1.127,1.127,0,0,0,.105-.406q.023-.246.023-.621V28.3q0-.367-.02-.617a1.054,1.054,0,0,0-.1-.406.633.633,0,0,0-.25-.254,1.917,1.917,0,0,0-.465-.176v-.516Z" transform="translate(-3987 -9456.885)" fill="#12263f"/>
    <path id="Trazado_718274" data-name="Trazado 718274" d="M9.272,9.367l.016.1a2.891,2.891,0,0,1,1.371,1.016,2.7,2.7,0,0,1,.465,1.586,2.71,2.71,0,0,1-.492,1.613,3.148,3.148,0,0,1-1.418,1.07,5.7,5.7,0,0,1-2.168.379,5.578,5.578,0,0,1-2.059-.348A2.991,2.991,0,0,1,3.623,13.77a2.839,2.839,0,0,1-.238-2.742,2.515,2.515,0,0,1,.648-.84,4.222,4.222,0,0,1,.973-.594l-.016-.1A2.563,2.563,0,0,1,3.264,7a2.273,2.273,0,0,1,.5-1.434,3.237,3.237,0,0,1,1.41-1,5.531,5.531,0,0,1,2.039-.359,4.9,4.9,0,0,1,2.867.7,2.281,2.281,0,0,1,.969,1.969A2.516,2.516,0,0,1,10.6,8.352,3.026,3.026,0,0,1,9.272,9.367ZM5.608,6.938A2.6,2.6,0,0,0,6.01,8.5a1.372,1.372,0,0,0,1.176.543,1.323,1.323,0,0,0,1.137-.512A2.415,2.415,0,0,0,8.7,7.078,2.387,2.387,0,0,0,8.307,5.6,1.349,1.349,0,0,0,7.17,5.086,1.44,1.44,0,0,0,6,5.555,2.1,2.1,0,0,0,5.608,6.938Zm-.094,5.07a2.843,2.843,0,0,0,.41,1.68,1.416,1.416,0,0,0,1.223.563,1.533,1.533,0,0,0,.863-.234,1.478,1.478,0,0,0,.547-.719,3.144,3.144,0,0,0,.191-1.156,3.292,3.292,0,0,0-.2-1.191,1.709,1.709,0,0,0-.562-.777A1.4,1.4,0,0,0,7.131,9.9a1.505,1.505,0,0,0-.945.277,1.524,1.524,0,0,0-.516.746A3.435,3.435,0,0,0,5.514,12.008Zm13.5-3.727a5.555,5.555,0,0,1,1.27-.895,2.671,2.671,0,0,1,1.145-.262,2.361,2.361,0,0,1,1.328.316,1.8,1.8,0,0,1,.684.91,4.6,4.6,0,0,1,.215,1.539v2.852q0,.344.012.645a2.336,2.336,0,0,0,.059.48.872.872,0,0,0,.129.293.653.653,0,0,0,.23.191,1.68,1.68,0,0,0,.359.133V15H20.655v-.516a.919.919,0,0,0,.5-.25.955.955,0,0,0,.188-.453A6.964,6.964,0,0,0,21.4,12.75V10.711A11.108,11.108,0,0,0,21.346,9.5a2.047,2.047,0,0,0-.172-.672.858.858,0,0,0-.312-.355.956.956,0,0,0-.5-.117,1.263,1.263,0,0,0-.621.184,1.6,1.6,0,0,0-.539.5,1.181,1.181,0,0,0-.215.676v3.031q0,.438.012.676a3.017,3.017,0,0,0,.035.367,1.093,1.093,0,0,0,.066.23.766.766,0,0,0,.113.188.653.653,0,0,0,.2.156,1.589,1.589,0,0,0,.352.125V15H15.936v-.516a1.442,1.442,0,0,0,.367-.129.658.658,0,0,0,.207-.172.933.933,0,0,0,.129-.25,1.564,1.564,0,0,0,.07-.422q.016-.27.016-.77V6.648q0-.672-.012-.988a3.833,3.833,0,0,0-.051-.531,1.018,1.018,0,0,0-.117-.344.565.565,0,0,0-.227-.207,1.83,1.83,0,0,0-.477-.141V3.922l2.164-.109h.977V8.273ZM10.307,34.719q0,.594.02.867a1.383,1.383,0,0,0,.09.438.612.612,0,0,0,.227.27,1.574,1.574,0,0,0,.523.184V37l-2.125.07H8.1l.07-1.125-.117-.008a4.459,4.459,0,0,1-1.184.879,2.677,2.677,0,0,1-1.191.309,2.456,2.456,0,0,1-2.129-.977,5.007,5.007,0,0,1-.707-2.937,5.223,5.223,0,0,1,.43-2.238,2.988,2.988,0,0,1,1.277-1.379,4.163,4.163,0,0,1,2.043-.469,5.26,5.26,0,0,1,.676.043,5.838,5.838,0,0,1,.785.168v-.711q0-.836-.023-1.184a1.807,1.807,0,0,0-.1-.531.614.614,0,0,0-.223-.285,1.584,1.584,0,0,0-.539-.18v-.523l2.164-.109h.977ZM8.049,31.813a2.5,2.5,0,0,0-.32-1.414,1.117,1.117,0,0,0-.984-.461,1.135,1.135,0,0,0-.832.348,2.193,2.193,0,0,0-.523,1,6.058,6.058,0,0,0-.176,1.555,5.959,5.959,0,0,0,.336,2.3A1.1,1.1,0,0,0,6.6,35.9a1.467,1.467,0,0,0,.668-.168,1.467,1.467,0,0,0,.785-1.316Zm4.258,4.672a1.065,1.065,0,0,0,.527-.266.9.9,0,0,0,.2-.445,6.791,6.791,0,0,0,.051-1.023V31.117a4.333,4.333,0,0,0-.035-.617.882.882,0,0,0-.133-.375.621.621,0,0,0-.266-.215,2.183,2.183,0,0,0-.434-.129V29.25l2.148-.062h.977v5.555q0,.438.012.676a3.017,3.017,0,0,0,.035.367,1.093,1.093,0,0,0,.066.23.766.766,0,0,0,.113.188.653.653,0,0,0,.2.156,1.589,1.589,0,0,0,.352.125V37H12.307Zm4-11.008v.516L13.6,28.508l-.625-.516,1.7-2.516Zm5.656,10.5-.117-.039a4.62,4.62,0,0,1-1.246.906,3.014,3.014,0,0,1-1.285.281,2.6,2.6,0,0,1-1.168-.246,1.727,1.727,0,0,1-.75-.684,1.971,1.971,0,0,1-.254-1.008,2.018,2.018,0,0,1,1.129-1.809,8.208,8.208,0,0,1,3.426-.832V31.8a3.023,3.023,0,0,0-.164-1.121,1.02,1.02,0,0,0-1.039-.715,1.429,1.429,0,0,0-.621.125,1.17,1.17,0,0,0-.473.473,2.74,2.74,0,0,0-.312.965H17.612V30.109q.719-.32,1.2-.492a9.188,9.188,0,0,1,.941-.285,7.653,7.653,0,0,1,.832-.16,5.794,5.794,0,0,1,.734-.047,3.8,3.8,0,0,1,1.512.25,1.683,1.683,0,0,1,.848.813,3.529,3.529,0,0,1,.281,1.555v3.047q0,.516.023.8a1.688,1.688,0,0,0,.074.418.632.632,0,0,0,.129.219.6.6,0,0,0,.191.133,2.984,2.984,0,0,0,.426.129V37H21.893Zm-.258-2.664a3.217,3.217,0,0,0-1.793.453A1.429,1.429,0,0,0,19.33,35a.974.974,0,0,0,.266.738,1.019,1.019,0,0,0,.734.254,1.3,1.3,0,0,0,.68-.191,1.427,1.427,0,0,0,.508-.512,1.324,1.324,0,0,0,.188-.68Z" transform="translate(-4044 -9456.885)" fill="#12263f"/>
    <path id="Trazado_718275" data-name="Trazado 718275" d="M6.693,8.313l.094.023A5.393,5.393,0,0,1,8.068,7.4a2.841,2.841,0,0,1,2.125-.125,1.724,1.724,0,0,1,.648.434,2.124,2.124,0,0,1,.43.746,6.462,6.462,0,0,1,1.371-1.031,2.64,2.64,0,0,1,1.215-.3,2.81,2.81,0,0,1,1.035.164,1.579,1.579,0,0,1,.676.508,2.214,2.214,0,0,1,.387.859,5.466,5.466,0,0,1,.121,1.234v2.852q0,.344.012.645a2.336,2.336,0,0,0,.059.48.872.872,0,0,0,.129.293.653.653,0,0,0,.23.191,1.68,1.68,0,0,0,.359.133V15H13.1v-.516a.879.879,0,0,0,.484-.25.98.98,0,0,0,.184-.453,6.965,6.965,0,0,0,.051-1.031V10.656a11.262,11.262,0,0,0-.047-1.145,1.934,1.934,0,0,0-.18-.691.886.886,0,0,0-.316-.359.931.931,0,0,0-.48-.109,1.09,1.09,0,0,0-.375.063,1.4,1.4,0,0,0-.348.191,2.191,2.191,0,0,0-.3.262,1.08,1.08,0,0,0-.2.3,1.311,1.311,0,0,0-.1.367,5.612,5.612,0,0,0-.027.664v2.547q0,.531.02.813a1.7,1.7,0,0,0,.082.453.653.653,0,0,0,.2.285,1.144,1.144,0,0,0,.426.191V15H8.451v-.516a.91.91,0,0,0,.5-.25.923.923,0,0,0,.184-.449,7.528,7.528,0,0,0,.047-1.035V10.656q0-.516-.02-.871a3.852,3.852,0,0,0-.066-.574,1.609,1.609,0,0,0-.129-.383.961.961,0,0,0-.187-.266.726.726,0,0,0-.25-.156,1.036,1.036,0,0,0-.363-.055,1.229,1.229,0,0,0-.605.18,1.568,1.568,0,0,0-.531.5,1.211,1.211,0,0,0-.215.688v3.023a8.228,8.228,0,0,0,.043,1.027.91.91,0,0,0,.184.461.91.91,0,0,0,.492.254V15H3.787v-.516a1.057,1.057,0,0,0,.52-.266.9.9,0,0,0,.2-.445,6.791,6.791,0,0,0,.051-1.023V9.539q0-.578-.02-.855a1.356,1.356,0,0,0-.094-.445.643.643,0,0,0-.227-.273,1.536,1.536,0,0,0-.527-.184V7.25l2.141-.062H6.81ZM18.023,5.279V4.2a5.393,5.393,0,0,1,2.092-.492,2.92,2.92,0,0,1,.991.155,1.441,1.441,0,0,1,.665.453,1.133,1.133,0,0,1,.235.722,1.44,1.44,0,0,1-.155.681,1.586,1.586,0,0,1-.435.513,3.841,3.841,0,0,1-.727.428V6.7a2.07,2.07,0,0,1,.722.264,1.449,1.449,0,0,1,.713,1.285,1.74,1.74,0,0,1-.257.941,1.712,1.712,0,0,1-.782.647,3.1,3.1,0,0,1-1.271.235A5.461,5.461,0,0,1,18.8,9.979a3.758,3.758,0,0,1-.866-.262V8.574h.82a1.583,1.583,0,0,0,.374.754.87.87,0,0,0,.633.235q.966,0,.966-1.194a1.243,1.243,0,0,0-.34-.957A1.475,1.475,0,0,0,19.358,7.1H19v-.52a1.977,1.977,0,0,0,1.2-.371,1.2,1.2,0,0,0,.41-.982,1.207,1.207,0,0,0-.205-.763.718.718,0,0,0-.6-.257.82.82,0,0,0-.75.44,1.832,1.832,0,0,0-.216.636ZM9.645,34.719q0,.594.02.867a1.383,1.383,0,0,0,.09.438.612.612,0,0,0,.227.27,1.574,1.574,0,0,0,.523.184V37l-2.125.07H7.434l.07-1.125-.117-.008a4.459,4.459,0,0,1-1.184.879,2.677,2.677,0,0,1-1.191.309,2.456,2.456,0,0,1-2.129-.977,5.007,5.007,0,0,1-.707-2.937,5.223,5.223,0,0,1,.43-2.238,2.988,2.988,0,0,1,1.277-1.379,4.163,4.163,0,0,1,2.043-.469,5.26,5.26,0,0,1,.676.043,5.838,5.838,0,0,1,.785.168v-.711q0-.836-.023-1.184a1.807,1.807,0,0,0-.1-.531.614.614,0,0,0-.223-.285,1.584,1.584,0,0,0-.539-.18v-.523l2.164-.109h.977ZM7.387,31.813a2.5,2.5,0,0,0-.32-1.414,1.117,1.117,0,0,0-.984-.461,1.135,1.135,0,0,0-.832.348,2.193,2.193,0,0,0-.523,1,6.058,6.058,0,0,0-.176,1.555,5.959,5.959,0,0,0,.336,2.3,1.1,1.1,0,0,0,1.047.758A1.467,1.467,0,0,0,6.6,35.73a1.467,1.467,0,0,0,.785-1.316Zm4.258,4.672a1.065,1.065,0,0,0,.527-.266.9.9,0,0,0,.2-.445,6.791,6.791,0,0,0,.051-1.023V31.117a4.333,4.333,0,0,0-.035-.617.882.882,0,0,0-.133-.375.621.621,0,0,0-.266-.215,2.183,2.183,0,0,0-.434-.129V29.25l2.148-.062h.977v5.555q0,.438.012.676a3.017,3.017,0,0,0,.035.367,1.093,1.093,0,0,0,.066.23.766.766,0,0,0,.113.188.653.653,0,0,0,.2.156,1.589,1.589,0,0,0,.352.125V37H11.645Zm4-11.008v.516l-2.711,2.516-.625-.516,1.7-2.516Zm5.656,10.5-.117-.039a4.62,4.62,0,0,1-1.246.906,3.014,3.014,0,0,1-1.285.281,2.6,2.6,0,0,1-1.168-.246,1.727,1.727,0,0,1-.75-.684,1.971,1.971,0,0,1-.254-1.008,2.018,2.018,0,0,1,1.129-1.809,8.208,8.208,0,0,1,3.426-.832V31.8a3.023,3.023,0,0,0-.164-1.121,1.02,1.02,0,0,0-1.039-.715,1.429,1.429,0,0,0-.621.125,1.17,1.17,0,0,0-.473.473,2.74,2.74,0,0,0-.312.965H16.949V30.109q.719-.32,1.2-.492a9.188,9.188,0,0,1,.941-.285,7.653,7.653,0,0,1,.832-.16,5.794,5.794,0,0,1,.734-.047,3.8,3.8,0,0,1,1.512.25,1.683,1.683,0,0,1,.848.813,3.529,3.529,0,0,1,.281,1.555v3.047q0,.516.023.8a1.688,1.688,0,0,0,.074.418.632.632,0,0,0,.129.219.6.6,0,0,0,.191.133,2.984,2.984,0,0,0,.426.129V37H21.23Zm-.258-2.664a3.217,3.217,0,0,0-1.793.453A1.429,1.429,0,0,0,18.668,35a.974.974,0,0,0,.266.738,1.019,1.019,0,0,0,.734.254,1.3,1.3,0,0,0,.68-.191,1.427,1.427,0,0,0,.508-.512,1.324,1.324,0,0,0,.188-.68Z" transform="translate(-3852.5 -9456.885)" fill="#12263f"/>
    <path id="Trazado_718276" data-name="Trazado 718276" d="M0,0H23" transform="translate(-4168.5 -9436)" fill="none" stroke="#12263f" stroke-width="1"/>
    <path id="Trazado_718277" data-name="Trazado 718277" d="M0,0H60" transform="translate(-4127.5 -9436)" fill="none" stroke="#12263f" stroke-width="1"/>
    <path id="Trazado_718278" data-name="Trazado 718278" d="M0,.5,71,0" transform="translate(-3992.5 -9436.5)" fill="none" stroke="#12263f" stroke-width="1"/>
    <path id="Trazado_718279" data-name="Trazado 718279" d="M0,0H37" transform="translate(-4049.5 -9436)" fill="none" stroke="#12263f" stroke-width="1"/>
    <path id="Trazado_718280" data-name="Trazado 718280" d="M0,0H36" transform="translate(-3858 -9436)" fill="none" stroke="#12263f" stroke-width="1"/>
  </g>
</svg>
