<svg xmlns="http://www.w3.org/2000/svg" xmlns:xlink="http://www.w3.org/1999/xlink" width="66.1" height="102.361" viewBox="0 0 66.1 102.361">
  <defs>
    <clipPath id="clip-path">
      <rect id="Rectángulo_346374" data-name="Rectángulo 346374" width="17.805" height="40.541" fill="none" stroke="#12263f" stroke-width="1"/>
    </clipPath>
  </defs>
  <g id="Grupo_1002672" data-name="Grupo 1002672" transform="translate(0 -0.066)">
    <g id="_033-water_drop" data-name="033-water drop" transform="translate(0 0.066)">
      <g id="Grupo_1002633" data-name="Grupo 1002633" transform="translate(0.873 0.873)">
        <path id="Trazado_711994" data-name="Trazado 711994" d="M141.556,88.109a17.58,17.58,0,0,1-35.159.148c-.032-7.658,10.857-19.072,15.459-23.553a2.91,2.91,0,0,1,4.045-.017C130.54,69.129,141.524,80.451,141.556,88.109Z" transform="translate(-94.882 -62.591)" fill="#b3e5ee"/>
        <path id="Trazado_711995" data-name="Trazado 711995" d="M113.189,87.536c-.029-6.82,8.6-16.618,13.744-21.846-.37-.363-.716-.7-1.033-1a2.91,2.91,0,0,0-4.045.017c-4.6,4.481-15.491,15.895-15.459,23.553A17.594,17.594,0,0,0,129.2,104.974,17.581,17.581,0,0,1,113.189,87.536Z" transform="translate(-94.883 -62.592)" fill="#86d7e5"/>
        <ellipse id="Elipse_8346" data-name="Elipse 8346" cx="1.993" cy="1.993" rx="1.993" ry="1.993" transform="translate(53.878)" fill="#ffa031"/>
        <path id="Trazado_711996" data-name="Trazado 711996" d="M413.083,123.215h-8.461a.711.711,0,0,1-.711-.711V118.37a.711.711,0,0,1,.711-.711h8.461a.711.711,0,0,1,.711.711V122.5A.711.711,0,0,1,413.083,123.215Z" transform="translate(-357.758 -110.111)" fill="#c5e97d"/>
        <path id="Trazado_712021" data-name="Trazado 712021" d="M2.235,0A2.235,2.235,0,1,1,0,2.235,2.235,2.235,0,0,1,2.235,0Z" transform="translate(0 42.84)" fill="#ffa031"/>
      </g>
      <g id="Grupo_1002634" data-name="Grupo 1002634" transform="translate(0 0)">
        <path id="Trazado_711997" data-name="Trazado 711997" d="M46.284,179.989a.873.873,0,0,0-1.16.424,16.708,16.708,0,0,1-15.087,9.673h-.072a16.585,16.585,0,0,1-11.181-4.295l1.937-2.45a.873.873,0,1,0-1.37-1.083l-1.809,2.289a16.584,16.584,0,0,1-4.281-11.1c-.012-2.971,1.775-6.927,5.312-11.76a.873.873,0,1,0-1.409-1.031c-3.763,5.141-5.664,9.447-5.649,12.8a18.32,18.32,0,0,0,4.931,12.477l-4.787,6.056H6.09a3.108,3.108,0,1,0,0,1.746h5.991a.873.873,0,0,0,.685-.332l4.933-6.241a18.315,18.315,0,0,0,12.266,4.669h.08a18.455,18.455,0,0,0,16.663-10.683.873.873,0,0,0-.424-1.16ZM3.108,194.225a1.362,1.362,0,1,1,1.362-1.362A1.363,1.363,0,0,1,3.108,194.225Z" transform="translate(0 -146.915)"/>
        <path id="Trazado_711998" data-name="Trazado 711998" d="M203.078,45.326a2.871,2.871,0,0,0-2.73,1.993h-9.706a1.226,1.226,0,0,0-1,.515L185.119,54.2c-2.288-2.6-4.554-4.876-6.291-6.539a3.771,3.771,0,0,0-5.258.022,104.471,104.471,0,0,0-7.757,8.4.873.873,0,1,0,1.351,1.106,102.688,102.688,0,0,1,7.624-8.255,2.031,2.031,0,0,1,2.832-.012c1.488,1.424,3.948,3.869,6.457,6.743l-2.886,4.062a.873.873,0,1,0,1.424,1.012l2.632-3.7c.624.747,1.242,1.514,1.84,2.293,3.915,5.106,5.907,9.274,5.92,12.389a16.8,16.8,0,0,1-.4,3.735.873.873,0,1,0,1.7.382,18.559,18.559,0,0,0,.446-4.124c-.015-3.505-2.128-8.029-6.281-13.445-.708-.923-1.44-1.828-2.179-2.7l4.618-6.5h9.436a2.866,2.866,0,1,0,2.73-3.739Zm0,3.986a1.12,1.12,0,1,1,1.12-1.12A1.121,1.121,0,0,1,203.078,49.312Z" transform="translate(-146.333 -45.326)"/>
        <path id="Trazado_711999" data-name="Trazado 711999" d="M444.671,193.131h-4.942a.873.873,0,1,0,0,1.746h4.942a.873.873,0,0,0,0-1.746Z" transform="translate(-387.762 -175.923)"/>
        <path id="Trazado_712000" data-name="Trazado 712000" d="M444.671,230.061h-4.942a.873.873,0,1,0,0,1.746h4.942a.873.873,0,0,0,0-1.746Z" transform="translate(-387.762 -208.553)"/>
        <path id="Trazado_712001" data-name="Trazado 712001" d="M406.457,110.159h-2.37a.873.873,0,1,0,0,1.746H406.3v3.81h-8.137v-3.81h2.208a.873.873,0,1,0,0-1.746H398a1.586,1.586,0,0,0-1.584,1.584v4.133A1.586,1.586,0,0,0,398,117.461h8.461a1.586,1.586,0,0,0,1.584-1.584v-4.133A1.586,1.586,0,0,0,406.457,110.159Z" transform="translate(-350.259 -102.611)"/>
      </g>
    </g>
    <g id="Grupo_1002641" data-name="Grupo 1002641" transform="translate(66.1 95.47) rotate(157)">
      <g id="Grupo_1002212" data-name="Grupo 1002212" transform="translate(0 0)" clip-path="url(#clip-path)">
        <path id="Trazado_707910" data-name="Trazado 707910" d="M3.86,0C-1.012,9.744-.471,24.5,1.153,35.327" transform="translate(9.374 1.323)" fill="none" stroke="#12263f" stroke-linecap="round" stroke-linejoin="round" stroke-width="3"/>
        <path id="Trazado_707911" data-name="Trazado 707911" d="M0,1.083C3.248,4.331,7.038,6.5,10.285,9.2A30.088,30.088,0,0,1,15.158,0" transform="translate(1.324 30.014)" fill="none" stroke="#12263f" stroke-linecap="round" stroke-linejoin="round" stroke-width="3"/>
      </g>
    </g>
  </g>
</svg>
