<svg id="Grupo_1002671" data-name="Grupo 1002671" xmlns="http://www.w3.org/2000/svg" xmlns:xlink="http://www.w3.org/1999/xlink" width="91.284" height="74.33" viewBox="0 0 91.284 74.33">
  <defs>
    <clipPath id="clip-path">
      <rect id="Rectángulo_346374" data-name="Rectángulo 346374" width="17.805" height="40.541" fill="none" stroke="#12263f" stroke-width="1"/>
    </clipPath>
  </defs>
  <g id="_032-water" data-name="032-water" transform="translate(0 0)">
    <g id="Grupo_1002639" data-name="Grupo 1002639" transform="translate(0.697 0.696)">
      <g id="Grupo_1002635" data-name="Grupo 1002635" transform="translate(0 0)">
        <path id="Trazado_712002" data-name="Trazado 712002" d="M91.295,15.3v37.3a1,1,0,0,1-1,1H54.8a1,1,0,0,1-1-1V8.5a1,1,0,0,1,1-1H83.5Z" transform="translate(-53.799 -7.499)" fill="#f9f7f7"/>
      </g>
      <path id="Trazado_712003" data-name="Trazado 712003" d="M59.823,49.707a1,1,0,0,1-1-1V7.5H54.8a1,1,0,0,0-1,1V52.594a1,1,0,0,0,1,1H90.294a1,1,0,0,0,1-1V49.707H59.823Z" transform="translate(-53.799 -7.499)" fill="#f8f3f2"/>
      <g id="Grupo_1002637" data-name="Grupo 1002637" transform="translate(3.953 5.367)">
        <path id="Trazado_712004" data-name="Trazado 712004" d="M199.763,74.061a6.369,6.369,0,1,1-12.737.054c-.012-2.774,3.933-6.909,5.6-8.532a1.054,1.054,0,0,1,1.465-.006C195.772,67.185,199.751,71.287,199.763,74.061Z" transform="translate(-178.605 -65.283)" fill="#b3e5ee"/>
        <path id="Trazado_712005" data-name="Trazado 712005" d="M190.133,74.115c-.01-2.388,2.912-5.785,4.789-7.719-.311-.316-.594-.592-.831-.819a1.054,1.054,0,0,0-1.465.006c-1.667,1.623-5.612,5.758-5.6,8.532a6.374,6.374,0,0,0,7.92,6.152A6.372,6.372,0,0,1,190.133,74.115Z" transform="translate(-178.604 -65.283)" fill="#86d7e5"/>
        <g id="Grupo_1002636" data-name="Grupo 1002636" transform="translate(0 17.762)">
          <path id="Trazado_712006" data-name="Trazado 712006" d="M100.525,261.412H97.363a1,1,0,0,1-1-1v-2.889a1,1,0,0,1,1-1h3.162a1,1,0,0,1,1,1v2.889A1,1,0,0,1,100.525,261.412Z" transform="translate(-96.361 -256.52)" fill="#f2eae7"/>
          <path id="Trazado_712007" data-name="Trazado 712007" d="M100.525,341.9H97.363a1,1,0,0,1-1-1v-2.888a1,1,0,0,1,1-1h3.162a1,1,0,0,1,1,1V340.9A1,1,0,0,1,100.525,341.9Z" transform="translate(-96.361 -329.536)" fill="#f2eae7"/>
          <path id="Trazado_712008" data-name="Trazado 712008" d="M100.525,422.4H97.363a1,1,0,0,1-1-1v-2.888a1,1,0,0,1,1-1h3.162a1,1,0,0,1,1,1V421.4A1,1,0,0,1,100.525,422.4Z" transform="translate(-96.361 -402.553)" fill="#f2eae7"/>
        </g>
      </g>
      <g id="XMLID_471_" transform="translate(27.767)">
        <g id="Grupo_1002638" data-name="Grupo 1002638">
          <path id="Trazado_712009" data-name="Trazado 712009" d="M362.478,15.294l-7.8-7.8h-1.933v6.72a2.862,2.862,0,0,0,2.859,2.859h6.87Z" transform="translate(-352.749 -7.498)" fill="#f8f3f2"/>
          <path id="Trazado_712010" data-name="Trazado 712010" d="M372.824,7.5l7.721,7.721h-6.8a1,1,0,0,1-1-1V7.5Z" transform="translate(-370.891 -7.499)" fill="#f9f7f7"/>
        </g>
      </g>
    </g>
    <g id="Grupo_1002640" data-name="Grupo 1002640" transform="translate(0 0)">
      <path id="Trazado_712011" data-name="Trazado 712011" d="M93.721,249.019H90.56a1.7,1.7,0,0,0-1.7,1.7v2.889a1.7,1.7,0,0,0,1.7,1.7h3.162a1.7,1.7,0,0,0,1.7-1.7v-2.889A1.7,1.7,0,0,0,93.721,249.019Zm.305,4.587a.306.306,0,0,1-.305.305H90.56a.306.306,0,0,1-.305-.305v-2.889a.306.306,0,0,1,.305-.305h3.162a.306.306,0,0,1,.305.305Z" transform="translate(-84.908 -225.89)"/>
      <path id="Trazado_712012" data-name="Trazado 712012" d="M93.721,410H90.56a1.7,1.7,0,0,0-1.7,1.7v2.888a1.7,1.7,0,0,0,1.7,1.7h3.162a1.7,1.7,0,0,0,1.7-1.7V411.7A1.7,1.7,0,0,0,93.721,410Zm.305,4.587a.306.306,0,0,1-.305.305H90.56a.306.306,0,0,1-.305-.305V411.7a.306.306,0,0,1,.305-.305h3.162a.306.306,0,0,1,.305.305Z" transform="translate(-84.908 -371.923)"/>
      <path id="Trazado_712013" data-name="Trazado 712013" d="M203.438,275.355h-19.9a.7.7,0,1,0,0,1.393h19.9a.7.7,0,0,0,0-1.393Z" transform="translate(-170.162 -249.78)"/>
      <path id="Trazado_712014" data-name="Trazado 712014" d="M203.438,355.849h-19.9a.7.7,0,1,0,0,1.393h19.9a.7.7,0,0,0,0-1.393Z" transform="translate(-170.162 -322.798)"/>
      <path id="Trazado_712015" data-name="Trazado 712015" d="M203.438,436.341h-19.9a.7.7,0,1,0,0,1.393h19.9a.7.7,0,0,0,0-1.393Z" transform="translate(-170.162 -395.813)"/>
      <path id="Trazado_712016" data-name="Trazado 712016" d="M94.815,313a1.69,1.69,0,0,0-1.094-.4H90.56a1.7,1.7,0,0,0-1.7,1.7v2.889a1.7,1.7,0,0,0,1.7,1.7h3.162a1.7,1.7,0,0,0,1.7-1.7v-2.865l2.555-2.233a.7.7,0,1,0-.917-1.049Zm-.788,4.186a.306.306,0,0,1-.305.305H90.56a.306.306,0,0,1-.305-.305V314.3a.306.306,0,0,1,.305-.305h3.12l-1.316,1.15-.192-.183a.7.7,0,1,0-.962,1.008l.652.622a.7.7,0,0,0,.939.021l1.226-1.071Z" transform="translate(-84.908 -281.994)"/>
      <path id="Trazado_712017" data-name="Trazado 712017" d="M84.49,38.76a.7.7,0,0,0-.7.7v6.335a.305.305,0,0,1-.3.3H47.995a.305.305,0,0,1-.3-.3V1.7a.305.305,0,0,1,.3-.3h4.051a.7.7,0,0,0,0-1.393H47.995a1.7,1.7,0,0,0-1.7,1.7V45.792a1.7,1.7,0,0,0,1.7,1.7H83.488a1.7,1.7,0,0,0,1.7-1.7V39.457A.7.7,0,0,0,84.49,38.76Z" transform="translate(-46.297 0)"/>
      <path id="Trazado_712018" data-name="Trazado 712018" d="M163.316,8l-7.8-7.8a.7.7,0,0,0-.493-.2H133.348a.7.7,0,1,0,0,1.393h20.907V7.416a1.7,1.7,0,0,0,1.7,1.7h6.174V36.488a.7.7,0,0,0,1.393,0v-28a.7.7,0,0,0-.2-.493Zm-7.668-.584V2.3l5.418,5.418h-5.113A.305.305,0,0,1,155.648,7.416Z" transform="translate(-124.63 0)"/>
      <path id="Trazado_712019" data-name="Trazado 712019" d="M186.306,59.256a.357.357,0,0,1,.5,0c.52.5,1.311,1.284,2.129,2.205a.7.7,0,1,0,1.042-.925c-.849-.956-1.669-1.772-2.208-2.287a1.745,1.745,0,0,0-2.433.01c-2.175,2.118-5.823,6.108-5.811,9.034a7.073,7.073,0,0,0,7.065,7.036h.03a7.065,7.065,0,0,0,7.036-7.095,8.12,8.12,0,0,0-1.75-4.274.7.7,0,1,0-1.145.793,6.981,6.981,0,0,1,1.5,3.486,5.672,5.672,0,0,1-5.648,5.7h-.024a5.679,5.679,0,0,1-5.672-5.648C180.909,65.55,182.924,62.548,186.306,59.256Z" transform="translate(-167.149 -52.394)"/>
    </g>
  </g>
  <g id="Grupo_1002329" data-name="Grupo 1002329" transform="matrix(0.454, -0.891, 0.891, 0.454, 47.078, 55.925)">
    <g id="Grupo_1002212" data-name="Grupo 1002212" transform="translate(0 0)" clip-path="url(#clip-path)">
      <path id="Trazado_707910" data-name="Trazado 707910" d="M3.86,35.328C-1.012,25.583-.471,10.826,1.153,0" transform="translate(9.374 3.89)" fill="none" stroke="#12263f" stroke-linecap="round" stroke-linejoin="round" stroke-width="3"/>
      <path id="Trazado_707911" data-name="Trazado 707911" d="M0,8.12C3.248,4.872,7.038,2.706,10.285,0a30.088,30.088,0,0,0,4.873,9.2" transform="translate(1.324 1.324)" fill="none" stroke="#12263f" stroke-linecap="round" stroke-linejoin="round" stroke-width="3"/>
    </g>
  </g>
</svg>
