<svg xmlns="http://www.w3.org/2000/svg" width="92.794" height="92.794" viewBox="0 0 92.794 92.794">
  <g id="Grupo_1002682" data-name="Grupo 1002682" transform="translate(-864.333 -262.867)">
    <g id="Grupo_1002679" data-name="Grupo 1002679" transform="translate(12706.651 12494.932)">
      <path id="Trazado_710607" data-name="Trazado 710607" d="M1081.032,484.877a46.4,46.4,0,1,1-46.4-46.4,46.4,46.4,0,0,1,46.4,46.4" transform="translate(-12830.557 -12670.545)" fill="#12263f"/>
      <path id="Trazado_710608" data-name="Trazado 710608" d="M1137.824,550.817a37.248,37.248,0,1,1-37.249-37.248,37.248,37.248,0,0,1,37.249,37.248" transform="translate(-12896.497 -12736.485)" fill="#fff"/>
    </g>
    <g id="_016-sewer" data-name="016-sewer" transform="translate(885.333 284.586)">
      <g id="Grupo_1002628" data-name="Grupo 1002628" transform="translate(0.746 0.745)">
        <ellipse id="Elipse_8343" data-name="Elipse 8343" cx="17.79" cy="17.79" rx="17.79" ry="17.79" transform="translate(6.577 0)" fill="#f8f3f2"/>
        <path id="Trazado_711970" data-name="Trazado 711970" d="M79.369,27.2A17.79,17.79,0,0,1,96.343,9.431a17.792,17.792,0,1,0-4.858,34.908c.273,0,.545-.007.815-.019A17.8,17.8,0,0,1,79.369,27.2Z" transform="translate(-67.118 -8.759)" fill="#f2eae7"/>
        <ellipse id="Elipse_8344" data-name="Elipse 8344" cx="13.914" cy="13.914" rx="13.914" ry="13.914" transform="translate(10.453 3.876)" fill="#cbc0bb"/>
        <path id="Trazado_711971" data-name="Trazado 711971" d="M133.659,62.6h-14.1q-.362,0-.717.032a.966.966,0,0,1-1.061-.952v-.011a13.939,13.939,0,0,1,11.371-13.682,13.915,13.915,0,1,0,0,27.363A13.959,13.959,0,0,1,118.261,65.3c2.2,1.985,6.271,5.695,6.271,5.695l-.262.331c3.822.418,8.988,1.008,10.992,1.238a13.957,13.957,0,0,0,4.683-6.917A8.024,8.024,0,0,0,133.659,62.6Z" transform="translate(-102.242 -43.883)" fill="#b7acac"/>
        <path id="Trazado_711972" data-name="Trazado 711972" d="M147.112,222.715a5.822,5.822,0,0,0-6.048-5.565h-14.1a5.822,5.822,0,0,0-6.048,5.565v17.523h26.2Z" transform="translate(-109.647 -196.441)" fill="#b3e5ee"/>
        <path id="Trazado_711973" data-name="Trazado 711973" d="M141.628,233.811a18.7,18.7,0,0,0-7.663-1.647,25.8,25.8,0,0,0-5.872,1.157,1.906,1.906,0,0,1-2.483-1.739v-6.519a5.888,5.888,0,0,1,6.048-5.715h14.1l.077,0a6.172,6.172,0,0,0-4.77-2.2h-14.1a5.888,5.888,0,0,0-6.048,5.715v17.993h26.2V235.08A14.5,14.5,0,0,1,141.628,233.811Z" transform="translate(-109.647 -196.442)" fill="#86d7e5"/>
        <path id="Trazado_711975" data-name="Trazado 711975" d="M56.143,398.439v3.973l-4.4,1.926a15.729,15.729,0,0,1-13.114-.226,15.726,15.726,0,0,0-13.608,0,15.734,15.734,0,0,1-13.114.226l-4.4-1.926v-3.973a1.018,1.018,0,0,1,1.426-.932l2.973,1.3a15.735,15.735,0,0,0,13.114-.227,15.734,15.734,0,0,1,13.608,0,15.734,15.734,0,0,0,13.114.227l2.973-1.3A1.018,1.018,0,0,1,56.143,398.439Z" transform="translate(-7.507 -358.45)" fill="#d9f2f6"/>
      </g>
      <g id="Grupo_1002629" data-name="Grupo 1002629" transform="translate(0 0)">
        <path id="Trazado_711976" data-name="Trazado 711976" d="M.447,41.118l4.4,1.927a16.462,16.462,0,0,0,13.736-.237,14.916,14.916,0,0,1,12.963,0,16.462,16.462,0,0,0,13.736.237l4.4-1.927a.745.745,0,0,0-.6-1.365l-4.4,1.927a14.979,14.979,0,0,1-5.727,1.256V31.81A18.434,18.434,0,0,0,40.293,9.3a.745.745,0,0,0-1.231.841,16.946,16.946,0,0,1-.106,19.25v-.634a6.749,6.749,0,0,0-.633-2.859A14.485,14.485,0,0,0,39.7,19.694a14.638,14.638,0,0,0-25.876-9.38.745.745,0,0,0,1.144.956A13.15,13.15,0,0,1,37.351,24.381a6.78,6.78,0,0,0-5.187-2.414h-14.1a6.782,6.782,0,0,0-5.256,2.495,13.182,13.182,0,0,1,.508-10.677.745.745,0,0,0-1.331-.671,14.661,14.661,0,0,0-.129,12.894,6.751,6.751,0,0,0-.584,2.751v.776A16.944,16.944,0,0,1,37.1,7.766a.745.745,0,0,0,1.059-1.049A18.434,18.434,0,0,0,11.271,31.923v3.788a.745.745,0,1,0,1.491,0v-6.95a5.308,5.308,0,0,1,5.3-5.3h14.1a5.308,5.308,0,0,1,5.3,5.3V42.889A14.98,14.98,0,0,1,32.713,41.7V37.736a.745.745,0,0,0-1.491,0v3.3a16.509,16.509,0,0,0-3.286-.947V26.649a.745.745,0,0,0-1.491,0V39.893a16.316,16.316,0,0,0-2.664-.007V26.649a.745.745,0,0,0-1.491,0V40.072A16.5,16.5,0,0,0,19.005,41V37.736a.745.745,0,1,0-1.491,0v3.922a14.977,14.977,0,0,1-4.753,1.223V38.89a.745.745,0,0,0-1.491,0v4.047a14.981,14.981,0,0,1-5.826-1.258l-4.4-1.927a.745.745,0,0,0-.6,1.365Z" transform="translate(0 -1.259)"/>
        <path id="Trazado_711977" data-name="Trazado 711977" d="M49.083,443.7l-4.4,1.927a14.973,14.973,0,0,1-12.493-.216,16.4,16.4,0,0,0-14.253,0,14.973,14.973,0,0,1-12.493.216l-4.4-1.927a.745.745,0,1,0-.6,1.365l4.4,1.927a16.462,16.462,0,0,0,13.736-.237,14.916,14.916,0,0,1,12.963,0,16.462,16.462,0,0,0,13.736.237l4.4-1.927a.745.745,0,1,0-.6-1.365Z" transform="translate(0 -399.677)"/>
        <path id="Trazado_711978" data-name="Trazado 711978" d="M176.993,299.287a.745.745,0,0,0,.745-.745v-2.09a.745.745,0,0,0-1.491,0v2.09A.745.745,0,0,0,176.993,299.287Z" transform="translate(-158.734 -266.447)"/>
        <path id="Trazado_711979" data-name="Trazado 711979" d="M314.93,299.287a.745.745,0,0,0,.745-.745v-2.09a.745.745,0,0,0-1.491,0v2.09A.745.745,0,0,0,314.93,299.287Z" transform="translate(-282.963 -266.447)"/>
      </g>
    </g>
  </g>
</svg>
