<svg xmlns="http://www.w3.org/2000/svg" xmlns:xlink="http://www.w3.org/1999/xlink" width="64.714" height="102.608" viewBox="0 0 64.714 102.608">
  <defs>
    <clipPath id="clip-path">
      <rect id="Rectángulo_346374" data-name="Rectángulo 346374" width="17.805" height="40.541" transform="translate(0 0)" fill="none" stroke="#12263f" stroke-width="1"/>
    </clipPath>
  </defs>
  <g id="Grupo_1002674" data-name="Grupo 1002674" transform="translate(0 -2.659)">
    <g id="_025-search" data-name="025-search" transform="translate(0 47.491)">
      <g id="Grupo_1002626" data-name="Grupo 1002626" transform="translate(0.848 0.722)">
        <path id="Trazado_711955" data-name="Trazado 711955" d="M393.2,389.618l-9.016-9.017-1.308-.239-2.849,2.06.27,2.067,9.016,9.016a2.748,2.748,0,0,0,3.887-3.887Z" transform="translate(-337.923 -338.102)" fill="#ded4cf"/>
        <path id="Trazado_711956" data-name="Trazado 711956" d="M275.107,270.509l-3.361-3.361-7.53-7.481-3.74,3.778,7.382,7.591,3.362,3.361,1.806.682,2.56-2.753Z" transform="translate(-231.884 -231.048)" fill="#ded4cf"/>
        <g id="Grupo_1002625" data-name="Grupo 1002625">
          <path id="Trazado_711957" data-name="Trazado 711957" d="M311.585,317.715l-1.143-1.143-1.191-1.183-2.852,2.388-1.032-1.042-1.264,1.2.943.97,1.507,1.55,3.362,3.361,1.806.682.65-.7-2.458-2.48a1.235,1.235,0,0,1,.006-1.739A24.031,24.031,0,0,0,311.585,317.715Z" transform="translate(-270.58 -280.473)" fill="#cbc0bb"/>
          <circle id="Elipse_8341" data-name="Elipse 8341" cx="22.282" cy="22.282" r="22.282" transform="translate(0)" fill="#f8f3f2"/>
          <path id="Trazado_711958" data-name="Trazado 711958" d="M14.831,29.1A22.291,22.291,0,0,1,31.2,7.614q-.7-.044-1.419-.045A22.282,22.282,0,1,0,35.693,51.34,22.283,22.283,0,0,1,14.831,29.1Z" transform="translate(-7.5 -7.443)" fill="#f2eae7"/>
          <path id="Trazado_712020" data-name="Trazado 712020" d="M17.448,0A17.448,17.448,0,1,1,0,17.448,17.448,17.448,0,0,1,17.448,0Z" transform="translate(4.834 4.96)" fill="#ffa031"/>
          <path id="Trazado_711959" data-name="Trazado 711959" d="M59.925,112.756a22.285,22.285,0,0,1-3-29.323,17.452,17.452,0,0,0,3,29.323Z" transform="translate(-45.435 -74.733)" fill="#ee8b18"/>
          <path id="Trazado_711960" data-name="Trazado 711960" d="M391.135,406.917,380.416,396.1l-.389.281.27,2.067,9.016,9.016a2.749,2.749,0,0,0,3.6.252A2.744,2.744,0,0,1,391.135,406.917Z" transform="translate(-337.923 -352.061)" fill="#cbc0bb"/>
          <g id="XMLID_422_" transform="translate(39.327 39.471)">
            <g id="Grupo_1002624" data-name="Grupo 1002624" transform="translate(0 0)">
              <path id="Trazado_711961" data-name="Trazado 711961" d="M0,0H5.5V4.3H0Z" transform="translate(0 3.887) rotate(-45)" fill="#cbc0bb"/>
            </g>
          </g>
          <path id="Trazado_711962" data-name="Trazado 711962" d="M356.778,379.005l-1.242,1.242,3.038,3.038,1.228-1.228Z" transform="translate(-316.2 -336.899)" fill="#b7acac"/>
          <path id="Trazado_711963" data-name="Trazado 711963" d="M132.038,107.589a10.6,10.6,0,0,1-21.2.089c-.019-4.618,6.547-11.5,9.322-14.2a1.755,1.755,0,0,1,2.439-.01C125.395,96.143,132.018,102.971,132.038,107.589Z" transform="translate(-99.156 -83.198)" fill="#d9f2f6"/>
          <path id="Trazado_711964" data-name="Trazado 711964" d="M115.962,107.677c-.017-3.985,4.872-9.657,8-12.873-.509-.515-.972-.968-1.361-1.34a1.755,1.755,0,0,0-2.439.01c-2.775,2.7-9.341,9.585-9.322,14.2A10.61,10.61,0,0,0,124,117.922,10.606,10.606,0,0,1,115.962,107.677Z" transform="translate(-99.156 -83.197)" fill="#b3e5ee"/>
          <path id="Trazado_711965" data-name="Trazado 711965" d="M246.66,133.7a4.71,4.71,0,0,1-2.423,2.417.185.185,0,0,0,.019.344,3.788,3.788,0,0,1,2.428,2.482.18.18,0,0,0,.332.015,4.81,4.81,0,0,1,2.481-2.474.184.184,0,0,0,.009-.334,5.149,5.149,0,0,1-2.487-2.459A.2.2,0,0,0,246.66,133.7Z" transform="translate(-217.385 -119.209)" fill="#fbe372"/>
        </g>
      </g>
      <g id="Grupo_1002627" data-name="Grupo 1002627" transform="translate(0 0)">
        <path id="Trazado_711966" data-name="Trazado 711966" d="M73.4,50.021a.848.848,0,0,0,1.259-1.135,18.247,18.247,0,1,0,2.252,3.093.848.848,0,1,0-1.467.849A16.628,16.628,0,1,1,73.4,50.021Z" transform="translate(-37.935 -38.003)"/>
        <path id="Trazado_711967" data-name="Trazado 711967" d="M116.529,86.171a2.594,2.594,0,0,0-3.617.015,59.094,59.094,0,0,0-5.795,6.48c-2.52,3.344-3.793,6.148-3.784,8.334a11.449,11.449,0,0,0,11.447,11.4h.05a11.449,11.449,0,0,0,11.4-11.5,8.212,8.212,0,0,0-.613-2.882.848.848,0,1,0-1.582.61,6.558,6.558,0,0,1,.5,2.279,9.754,9.754,0,0,1-9.713,9.794h-.042a9.765,9.765,0,0,1-9.753-9.713c-.007-1.781,1.183-4.308,3.442-7.306a58.47,58.47,0,0,1,5.623-6.286.9.9,0,0,1,1.261-.005c.6.574,1.5,1.462,2.5,2.521a.847.847,0,0,0,1.587.091l.007-.016.024-.049a.848.848,0,0,0-.147-.934c-1.11-1.2-2.132-2.2-2.794-2.838Z" transform="translate(-91.655 -75.795)"/>
        <path id="Trazado_711968" data-name="Trazado 711968" d="M236.63,129.7a1.027,1.027,0,0,0,.705.916,2.954,2.954,0,0,1,1.9,1.963,1.025,1.025,0,0,0,.919.68h.049a1.025,1.025,0,0,0,.93-.593,3.956,3.956,0,0,1,2.052-2.056,1.032,1.032,0,0,0,.037-1.875,4.286,4.286,0,0,1-2.091-2.063,1.045,1.045,0,0,0-1.9.042h0a3.856,3.856,0,0,1-2.008,1.986,1.03,1.03,0,0,0-.589,1Zm3.575-1.29a5.875,5.875,0,0,0,1.254,1.241,5.514,5.514,0,0,0-1.2,1.186,4.431,4.431,0,0,0-1.216-1.255A5.412,5.412,0,0,0,240.206,128.406Z" transform="translate(-209.884 -111.836)"/>
        <path id="Trazado_711969" data-name="Trazado 711969" d="M56.831,51.813l-3.722-3.722a.848.848,0,0,0-1.2,1.2l1.577,1.577L50.8,53.556,44.42,47.177l2.689-2.689,2.247,2.247a.848.848,0,0,0,1.2-1.2L41.822,36.8A23.125,23.125,0,1,0,0,23.2,22.884,22.884,0,0,0,5.03,37.6a.848.848,0,1,0,1.326-1.056A21.205,21.205,0,0,1,1.7,23.2a21.435,21.435,0,1,1,7.055,15.9A.848.848,0,0,0,7.613,40.35a23.105,23.105,0,0,0,29.123,1.54l14.9,14.9a3.6,3.6,0,0,0,5.086,0,3.636,3.636,0,0,0,1.067-2.514,3.4,3.4,0,0,0-.96-2.466Zm-13.61-5.835L41.382,44.14l2.689-2.689L45.91,43.29Zm-2.456-7.833,2.107,2.107-2.689,2.689-2.107-2.107A23.322,23.322,0,0,0,40.765,38.145Zm14.76,17.449a1.9,1.9,0,0,1-2.689,0L52,54.755l2.689-2.689.946.946a1.7,1.7,0,0,1,.464,1.235A1.949,1.949,0,0,1,55.525,55.594Z" transform="translate(0 -0.069)"/>
      </g>
    </g>
    <g id="Grupo_1002325" data-name="Grupo 1002325" transform="matrix(0.438, 0.899, -0.899, 0.438, 56.909, 2.659)">
      <g id="Grupo_1002212" data-name="Grupo 1002212" transform="translate(0 0)" clip-path="url(#clip-path)">
        <path id="Trazado_707910" data-name="Trazado 707910" d="M3.86,0C-1.012,9.744-.471,24.5,1.153,35.328" transform="translate(9.374 1.323)" fill="none" stroke="#12263f" stroke-linecap="round" stroke-linejoin="round" stroke-width="3"/>
        <path id="Trazado_707911" data-name="Trazado 707911" d="M0,1.083C3.248,4.331,7.038,6.5,10.285,9.2A30.088,30.088,0,0,1,15.158,0" transform="translate(1.324 30.015)" fill="none" stroke="#12263f" stroke-linecap="round" stroke-linejoin="round" stroke-width="3"/>
      </g>
    </g>
  </g>
</svg>
